G04 #@! TF.GenerationSoftware,KiCad,Pcbnew,(5.1.8)-1*
G04 #@! TF.CreationDate,2021-04-07T18:57:30+08:00*
G04 #@! TF.ProjectId,ESP32-CAN,45535033-322d-4434-914e-2e6b69636164,rev?*
G04 #@! TF.SameCoordinates,Original*
G04 #@! TF.FileFunction,Other,User*
%FSLAX46Y46*%
G04 Gerber Fmt 4.6, Leading zero omitted, Abs format (unit mm)*
G04 Created by KiCad (PCBNEW (5.1.8)-1) date 2021-04-07 18:57:30*
%MOMM*%
%LPD*%
G01*
G04 APERTURE LIST*
%ADD10C,0.100000*%
%ADD11C,0.150000*%
%ADD12C,0.300000*%
%ADD13C,0.400000*%
%ADD14C,0.050000*%
G04 APERTURE END LIST*
D10*
D11*
X177002200Y-166007200D02*
X177002200Y-198007200D01*
X285002200Y-198007200D01*
X285002200Y-166007200D01*
X177002200Y-166007200D01*
D10*
D11*
X10000000Y-10000000D02*
X10000000Y-200007200D01*
X287002200Y-200007200D01*
X287002200Y-10000000D01*
X10000000Y-10000000D01*
D10*
D11*
X12000000Y-12000000D02*
X12000000Y-198007200D01*
X285002200Y-198007200D01*
X285002200Y-12000000D01*
X12000000Y-12000000D01*
D10*
D11*
X60000000Y-12000000D02*
X60000000Y-10000000D01*
D10*
D11*
X110000000Y-12000000D02*
X110000000Y-10000000D01*
D10*
D11*
X160000000Y-12000000D02*
X160000000Y-10000000D01*
D10*
D11*
X210000000Y-12000000D02*
X210000000Y-10000000D01*
D10*
D11*
X260000000Y-12000000D02*
X260000000Y-10000000D01*
D10*
D11*
X36065476Y-11588095D02*
X35322619Y-11588095D01*
X35694047Y-11588095D02*
X35694047Y-10288095D01*
X35570238Y-10473809D01*
X35446428Y-10597619D01*
X35322619Y-10659523D01*
D10*
D11*
X85322619Y-10411904D02*
X85384523Y-10350000D01*
X85508333Y-10288095D01*
X85817857Y-10288095D01*
X85941666Y-10350000D01*
X86003571Y-10411904D01*
X86065476Y-10535714D01*
X86065476Y-10659523D01*
X86003571Y-10845238D01*
X85260714Y-11588095D01*
X86065476Y-11588095D01*
D10*
D11*
X135260714Y-10288095D02*
X136065476Y-10288095D01*
X135632142Y-10783333D01*
X135817857Y-10783333D01*
X135941666Y-10845238D01*
X136003571Y-10907142D01*
X136065476Y-11030952D01*
X136065476Y-11340476D01*
X136003571Y-11464285D01*
X135941666Y-11526190D01*
X135817857Y-11588095D01*
X135446428Y-11588095D01*
X135322619Y-11526190D01*
X135260714Y-11464285D01*
D10*
D11*
X185941666Y-10721428D02*
X185941666Y-11588095D01*
X185632142Y-10226190D02*
X185322619Y-11154761D01*
X186127380Y-11154761D01*
D10*
D11*
X236003571Y-10288095D02*
X235384523Y-10288095D01*
X235322619Y-10907142D01*
X235384523Y-10845238D01*
X235508333Y-10783333D01*
X235817857Y-10783333D01*
X235941666Y-10845238D01*
X236003571Y-10907142D01*
X236065476Y-11030952D01*
X236065476Y-11340476D01*
X236003571Y-11464285D01*
X235941666Y-11526190D01*
X235817857Y-11588095D01*
X235508333Y-11588095D01*
X235384523Y-11526190D01*
X235322619Y-11464285D01*
D10*
D11*
X285941666Y-10288095D02*
X285694047Y-10288095D01*
X285570238Y-10350000D01*
X285508333Y-10411904D01*
X285384523Y-10597619D01*
X285322619Y-10845238D01*
X285322619Y-11340476D01*
X285384523Y-11464285D01*
X285446428Y-11526190D01*
X285570238Y-11588095D01*
X285817857Y-11588095D01*
X285941666Y-11526190D01*
X286003571Y-11464285D01*
X286065476Y-11340476D01*
X286065476Y-11030952D01*
X286003571Y-10907142D01*
X285941666Y-10845238D01*
X285817857Y-10783333D01*
X285570238Y-10783333D01*
X285446428Y-10845238D01*
X285384523Y-10907142D01*
X285322619Y-11030952D01*
D10*
D11*
X60000000Y-198007200D02*
X60000000Y-200007200D01*
D10*
D11*
X110000000Y-198007200D02*
X110000000Y-200007200D01*
D10*
D11*
X160000000Y-198007200D02*
X160000000Y-200007200D01*
D10*
D11*
X210000000Y-198007200D02*
X210000000Y-200007200D01*
D10*
D11*
X260000000Y-198007200D02*
X260000000Y-200007200D01*
D10*
D11*
X36065476Y-199595295D02*
X35322619Y-199595295D01*
X35694047Y-199595295D02*
X35694047Y-198295295D01*
X35570238Y-198481009D01*
X35446428Y-198604819D01*
X35322619Y-198666723D01*
D10*
D11*
X85322619Y-198419104D02*
X85384523Y-198357200D01*
X85508333Y-198295295D01*
X85817857Y-198295295D01*
X85941666Y-198357200D01*
X86003571Y-198419104D01*
X86065476Y-198542914D01*
X86065476Y-198666723D01*
X86003571Y-198852438D01*
X85260714Y-199595295D01*
X86065476Y-199595295D01*
D10*
D11*
X135260714Y-198295295D02*
X136065476Y-198295295D01*
X135632142Y-198790533D01*
X135817857Y-198790533D01*
X135941666Y-198852438D01*
X136003571Y-198914342D01*
X136065476Y-199038152D01*
X136065476Y-199347676D01*
X136003571Y-199471485D01*
X135941666Y-199533390D01*
X135817857Y-199595295D01*
X135446428Y-199595295D01*
X135322619Y-199533390D01*
X135260714Y-199471485D01*
D10*
D11*
X185941666Y-198728628D02*
X185941666Y-199595295D01*
X185632142Y-198233390D02*
X185322619Y-199161961D01*
X186127380Y-199161961D01*
D10*
D11*
X236003571Y-198295295D02*
X235384523Y-198295295D01*
X235322619Y-198914342D01*
X235384523Y-198852438D01*
X235508333Y-198790533D01*
X235817857Y-198790533D01*
X235941666Y-198852438D01*
X236003571Y-198914342D01*
X236065476Y-199038152D01*
X236065476Y-199347676D01*
X236003571Y-199471485D01*
X235941666Y-199533390D01*
X235817857Y-199595295D01*
X235508333Y-199595295D01*
X235384523Y-199533390D01*
X235322619Y-199471485D01*
D10*
D11*
X285941666Y-198295295D02*
X285694047Y-198295295D01*
X285570238Y-198357200D01*
X285508333Y-198419104D01*
X285384523Y-198604819D01*
X285322619Y-198852438D01*
X285322619Y-199347676D01*
X285384523Y-199471485D01*
X285446428Y-199533390D01*
X285570238Y-199595295D01*
X285817857Y-199595295D01*
X285941666Y-199533390D01*
X286003571Y-199471485D01*
X286065476Y-199347676D01*
X286065476Y-199038152D01*
X286003571Y-198914342D01*
X285941666Y-198852438D01*
X285817857Y-198790533D01*
X285570238Y-198790533D01*
X285446428Y-198852438D01*
X285384523Y-198914342D01*
X285322619Y-199038152D01*
D10*
D11*
X10000000Y-60000000D02*
X12000000Y-60000000D01*
D10*
D11*
X10000000Y-110000000D02*
X12000000Y-110000000D01*
D10*
D11*
X10000000Y-160000000D02*
X12000000Y-160000000D01*
D10*
D11*
X10690476Y-35216666D02*
X11309523Y-35216666D01*
X10566666Y-35588095D02*
X11000000Y-34288095D01*
X11433333Y-35588095D01*
D10*
D11*
X11092857Y-84907142D02*
X11278571Y-84969047D01*
X11340476Y-85030952D01*
X11402380Y-85154761D01*
X11402380Y-85340476D01*
X11340476Y-85464285D01*
X11278571Y-85526190D01*
X11154761Y-85588095D01*
X10659523Y-85588095D01*
X10659523Y-84288095D01*
X11092857Y-84288095D01*
X11216666Y-84350000D01*
X11278571Y-84411904D01*
X11340476Y-84535714D01*
X11340476Y-84659523D01*
X11278571Y-84783333D01*
X11216666Y-84845238D01*
X11092857Y-84907142D01*
X10659523Y-84907142D01*
D10*
D11*
X11402380Y-135464285D02*
X11340476Y-135526190D01*
X11154761Y-135588095D01*
X11030952Y-135588095D01*
X10845238Y-135526190D01*
X10721428Y-135402380D01*
X10659523Y-135278571D01*
X10597619Y-135030952D01*
X10597619Y-134845238D01*
X10659523Y-134597619D01*
X10721428Y-134473809D01*
X10845238Y-134350000D01*
X11030952Y-134288095D01*
X11154761Y-134288095D01*
X11340476Y-134350000D01*
X11402380Y-134411904D01*
D10*
D11*
X10659523Y-185588095D02*
X10659523Y-184288095D01*
X10969047Y-184288095D01*
X11154761Y-184350000D01*
X11278571Y-184473809D01*
X11340476Y-184597619D01*
X11402380Y-184845238D01*
X11402380Y-185030952D01*
X11340476Y-185278571D01*
X11278571Y-185402380D01*
X11154761Y-185526190D01*
X10969047Y-185588095D01*
X10659523Y-185588095D01*
D10*
D11*
X287002200Y-60000000D02*
X285002200Y-60000000D01*
D10*
D11*
X287002200Y-110000000D02*
X285002200Y-110000000D01*
D10*
D11*
X287002200Y-160000000D02*
X285002200Y-160000000D01*
D10*
D11*
X285692676Y-35216666D02*
X286311723Y-35216666D01*
X285568866Y-35588095D02*
X286002200Y-34288095D01*
X286435533Y-35588095D01*
D10*
D11*
X286095057Y-84907142D02*
X286280771Y-84969047D01*
X286342676Y-85030952D01*
X286404580Y-85154761D01*
X286404580Y-85340476D01*
X286342676Y-85464285D01*
X286280771Y-85526190D01*
X286156961Y-85588095D01*
X285661723Y-85588095D01*
X285661723Y-84288095D01*
X286095057Y-84288095D01*
X286218866Y-84350000D01*
X286280771Y-84411904D01*
X286342676Y-84535714D01*
X286342676Y-84659523D01*
X286280771Y-84783333D01*
X286218866Y-84845238D01*
X286095057Y-84907142D01*
X285661723Y-84907142D01*
D10*
D11*
X286404580Y-135464285D02*
X286342676Y-135526190D01*
X286156961Y-135588095D01*
X286033152Y-135588095D01*
X285847438Y-135526190D01*
X285723628Y-135402380D01*
X285661723Y-135278571D01*
X285599819Y-135030952D01*
X285599819Y-134845238D01*
X285661723Y-134597619D01*
X285723628Y-134473809D01*
X285847438Y-134350000D01*
X286033152Y-134288095D01*
X286156961Y-134288095D01*
X286342676Y-134350000D01*
X286404580Y-134411904D01*
D10*
D11*
X285661723Y-185588095D02*
X285661723Y-184288095D01*
X285971247Y-184288095D01*
X286156961Y-184350000D01*
X286280771Y-184473809D01*
X286342676Y-184597619D01*
X286404580Y-184845238D01*
X286404580Y-185030952D01*
X286342676Y-185278571D01*
X286280771Y-185402380D01*
X286156961Y-185526190D01*
X285971247Y-185588095D01*
X285661723Y-185588095D01*
D10*
D11*
X200434342Y-193785771D02*
X200434342Y-192285771D01*
X200791485Y-192285771D01*
X201005771Y-192357200D01*
X201148628Y-192500057D01*
X201220057Y-192642914D01*
X201291485Y-192928628D01*
X201291485Y-193142914D01*
X201220057Y-193428628D01*
X201148628Y-193571485D01*
X201005771Y-193714342D01*
X200791485Y-193785771D01*
X200434342Y-193785771D01*
X202577200Y-193785771D02*
X202577200Y-193000057D01*
X202505771Y-192857200D01*
X202362914Y-192785771D01*
X202077200Y-192785771D01*
X201934342Y-192857200D01*
X202577200Y-193714342D02*
X202434342Y-193785771D01*
X202077200Y-193785771D01*
X201934342Y-193714342D01*
X201862914Y-193571485D01*
X201862914Y-193428628D01*
X201934342Y-193285771D01*
X202077200Y-193214342D01*
X202434342Y-193214342D01*
X202577200Y-193142914D01*
X203077200Y-192785771D02*
X203648628Y-192785771D01*
X203291485Y-192285771D02*
X203291485Y-193571485D01*
X203362914Y-193714342D01*
X203505771Y-193785771D01*
X203648628Y-193785771D01*
X204720057Y-193714342D02*
X204577200Y-193785771D01*
X204291485Y-193785771D01*
X204148628Y-193714342D01*
X204077200Y-193571485D01*
X204077200Y-193000057D01*
X204148628Y-192857200D01*
X204291485Y-192785771D01*
X204577200Y-192785771D01*
X204720057Y-192857200D01*
X204791485Y-193000057D01*
X204791485Y-193142914D01*
X204077200Y-193285771D01*
X205434342Y-193642914D02*
X205505771Y-193714342D01*
X205434342Y-193785771D01*
X205362914Y-193714342D01*
X205434342Y-193642914D01*
X205434342Y-193785771D01*
X205434342Y-192857200D02*
X205505771Y-192928628D01*
X205434342Y-193000057D01*
X205362914Y-192928628D01*
X205434342Y-192857200D01*
X205434342Y-193000057D01*
D10*
D11*
X177002200Y-194507200D02*
X285002200Y-194507200D01*
D10*
D11*
X178434342Y-196585771D02*
X178434342Y-195085771D01*
X179291485Y-196585771D02*
X178648628Y-195728628D01*
X179291485Y-195085771D02*
X178434342Y-195942914D01*
X179934342Y-196585771D02*
X179934342Y-195585771D01*
X179934342Y-195085771D02*
X179862914Y-195157200D01*
X179934342Y-195228628D01*
X180005771Y-195157200D01*
X179934342Y-195085771D01*
X179934342Y-195228628D01*
X181505771Y-196442914D02*
X181434342Y-196514342D01*
X181220057Y-196585771D01*
X181077200Y-196585771D01*
X180862914Y-196514342D01*
X180720057Y-196371485D01*
X180648628Y-196228628D01*
X180577200Y-195942914D01*
X180577200Y-195728628D01*
X180648628Y-195442914D01*
X180720057Y-195300057D01*
X180862914Y-195157200D01*
X181077200Y-195085771D01*
X181220057Y-195085771D01*
X181434342Y-195157200D01*
X181505771Y-195228628D01*
X182791485Y-196585771D02*
X182791485Y-195800057D01*
X182720057Y-195657200D01*
X182577200Y-195585771D01*
X182291485Y-195585771D01*
X182148628Y-195657200D01*
X182791485Y-196514342D02*
X182648628Y-196585771D01*
X182291485Y-196585771D01*
X182148628Y-196514342D01*
X182077200Y-196371485D01*
X182077200Y-196228628D01*
X182148628Y-196085771D01*
X182291485Y-196014342D01*
X182648628Y-196014342D01*
X182791485Y-195942914D01*
X184148628Y-196585771D02*
X184148628Y-195085771D01*
X184148628Y-196514342D02*
X184005771Y-196585771D01*
X183720057Y-196585771D01*
X183577200Y-196514342D01*
X183505771Y-196442914D01*
X183434342Y-196300057D01*
X183434342Y-195871485D01*
X183505771Y-195728628D01*
X183577200Y-195657200D01*
X183720057Y-195585771D01*
X184005771Y-195585771D01*
X184148628Y-195657200D01*
X186005771Y-195800057D02*
X186505771Y-195800057D01*
X186720057Y-196585771D02*
X186005771Y-196585771D01*
X186005771Y-195085771D01*
X186720057Y-195085771D01*
X187362914Y-196442914D02*
X187434342Y-196514342D01*
X187362914Y-196585771D01*
X187291485Y-196514342D01*
X187362914Y-196442914D01*
X187362914Y-196585771D01*
X188077200Y-196585771D02*
X188077200Y-195085771D01*
X188434342Y-195085771D01*
X188648628Y-195157200D01*
X188791485Y-195300057D01*
X188862914Y-195442914D01*
X188934342Y-195728628D01*
X188934342Y-195942914D01*
X188862914Y-196228628D01*
X188791485Y-196371485D01*
X188648628Y-196514342D01*
X188434342Y-196585771D01*
X188077200Y-196585771D01*
X189577200Y-196442914D02*
X189648628Y-196514342D01*
X189577200Y-196585771D01*
X189505771Y-196514342D01*
X189577200Y-196442914D01*
X189577200Y-196585771D01*
X190220057Y-196157200D02*
X190934342Y-196157200D01*
X190077200Y-196585771D02*
X190577200Y-195085771D01*
X191077200Y-196585771D01*
X191577200Y-196442914D02*
X191648628Y-196514342D01*
X191577200Y-196585771D01*
X191505771Y-196514342D01*
X191577200Y-196442914D01*
X191577200Y-196585771D01*
X194577200Y-196585771D02*
X194577200Y-195085771D01*
X194720057Y-196014342D02*
X195148628Y-196585771D01*
X195148628Y-195585771D02*
X194577200Y-196157200D01*
X195791485Y-196585771D02*
X195791485Y-195585771D01*
X195791485Y-195085771D02*
X195720057Y-195157200D01*
X195791485Y-195228628D01*
X195862914Y-195157200D01*
X195791485Y-195085771D01*
X195791485Y-195228628D01*
X197148628Y-196514342D02*
X197005771Y-196585771D01*
X196720057Y-196585771D01*
X196577200Y-196514342D01*
X196505771Y-196442914D01*
X196434342Y-196300057D01*
X196434342Y-195871485D01*
X196505771Y-195728628D01*
X196577200Y-195657200D01*
X196720057Y-195585771D01*
X197005771Y-195585771D01*
X197148628Y-195657200D01*
X198434342Y-196585771D02*
X198434342Y-195800057D01*
X198362914Y-195657200D01*
X198220057Y-195585771D01*
X197934342Y-195585771D01*
X197791485Y-195657200D01*
X198434342Y-196514342D02*
X198291485Y-196585771D01*
X197934342Y-196585771D01*
X197791485Y-196514342D01*
X197720057Y-196371485D01*
X197720057Y-196228628D01*
X197791485Y-196085771D01*
X197934342Y-196014342D01*
X198291485Y-196014342D01*
X198434342Y-195942914D01*
X199791485Y-196585771D02*
X199791485Y-195085771D01*
X199791485Y-196514342D02*
X199648628Y-196585771D01*
X199362914Y-196585771D01*
X199220057Y-196514342D01*
X199148628Y-196442914D01*
X199077200Y-196300057D01*
X199077200Y-195871485D01*
X199148628Y-195728628D01*
X199220057Y-195657200D01*
X199362914Y-195585771D01*
X199648628Y-195585771D01*
X199791485Y-195657200D01*
X202077200Y-197157200D02*
X202005771Y-197085771D01*
X201862914Y-196871485D01*
X201791485Y-196728628D01*
X201720057Y-196514342D01*
X201648628Y-196157200D01*
X201648628Y-195871485D01*
X201720057Y-195514342D01*
X201791485Y-195300057D01*
X201862914Y-195157200D01*
X202005771Y-194942914D01*
X202077200Y-194871485D01*
X203362914Y-195085771D02*
X202648628Y-195085771D01*
X202577200Y-195800057D01*
X202648628Y-195728628D01*
X202791485Y-195657200D01*
X203148628Y-195657200D01*
X203291485Y-195728628D01*
X203362914Y-195800057D01*
X203434342Y-195942914D01*
X203434342Y-196300057D01*
X203362914Y-196442914D01*
X203291485Y-196514342D01*
X203148628Y-196585771D01*
X202791485Y-196585771D01*
X202648628Y-196514342D01*
X202577200Y-196442914D01*
X204077200Y-196442914D02*
X204148628Y-196514342D01*
X204077200Y-196585771D01*
X204005771Y-196514342D01*
X204077200Y-196442914D01*
X204077200Y-196585771D01*
X205577200Y-196585771D02*
X204720057Y-196585771D01*
X205148628Y-196585771D02*
X205148628Y-195085771D01*
X205005771Y-195300057D01*
X204862914Y-195442914D01*
X204720057Y-195514342D01*
X206220057Y-196442914D02*
X206291485Y-196514342D01*
X206220057Y-196585771D01*
X206148628Y-196514342D01*
X206220057Y-196442914D01*
X206220057Y-196585771D01*
X207148628Y-195728628D02*
X207005771Y-195657200D01*
X206934342Y-195585771D01*
X206862914Y-195442914D01*
X206862914Y-195371485D01*
X206934342Y-195228628D01*
X207005771Y-195157200D01*
X207148628Y-195085771D01*
X207434342Y-195085771D01*
X207577200Y-195157200D01*
X207648628Y-195228628D01*
X207720057Y-195371485D01*
X207720057Y-195442914D01*
X207648628Y-195585771D01*
X207577200Y-195657200D01*
X207434342Y-195728628D01*
X207148628Y-195728628D01*
X207005771Y-195800057D01*
X206934342Y-195871485D01*
X206862914Y-196014342D01*
X206862914Y-196300057D01*
X206934342Y-196442914D01*
X207005771Y-196514342D01*
X207148628Y-196585771D01*
X207434342Y-196585771D01*
X207577200Y-196514342D01*
X207648628Y-196442914D01*
X207720057Y-196300057D01*
X207720057Y-196014342D01*
X207648628Y-195871485D01*
X207577200Y-195800057D01*
X207434342Y-195728628D01*
X208220057Y-197157200D02*
X208291485Y-197085771D01*
X208434342Y-196871485D01*
X208505771Y-196728628D01*
X208577200Y-196514342D01*
X208648628Y-196157200D01*
X208648628Y-195871485D01*
X208577200Y-195514342D01*
X208505771Y-195300057D01*
X208434342Y-195157200D01*
X208291485Y-194942914D01*
X208220057Y-194871485D01*
X209362914Y-196014342D02*
X210505771Y-196014342D01*
X212005771Y-196585771D02*
X211148628Y-196585771D01*
X211577200Y-196585771D02*
X211577200Y-195085771D01*
X211434342Y-195300057D01*
X211291485Y-195442914D01*
X211148628Y-195514342D01*
D10*
D11*
X177002200Y-191507200D02*
X285002200Y-191507200D01*
D10*
D12*
X264411485Y-193785771D02*
X263911485Y-193071485D01*
X263554342Y-193785771D02*
X263554342Y-192285771D01*
X264125771Y-192285771D01*
X264268628Y-192357200D01*
X264340057Y-192428628D01*
X264411485Y-192571485D01*
X264411485Y-192785771D01*
X264340057Y-192928628D01*
X264268628Y-193000057D01*
X264125771Y-193071485D01*
X263554342Y-193071485D01*
X265625771Y-193714342D02*
X265482914Y-193785771D01*
X265197200Y-193785771D01*
X265054342Y-193714342D01*
X264982914Y-193571485D01*
X264982914Y-193000057D01*
X265054342Y-192857200D01*
X265197200Y-192785771D01*
X265482914Y-192785771D01*
X265625771Y-192857200D01*
X265697200Y-193000057D01*
X265697200Y-193142914D01*
X264982914Y-193285771D01*
X266197200Y-192785771D02*
X266554342Y-193785771D01*
X266911485Y-192785771D01*
X267482914Y-193642914D02*
X267554342Y-193714342D01*
X267482914Y-193785771D01*
X267411485Y-193714342D01*
X267482914Y-193642914D01*
X267482914Y-193785771D01*
X267482914Y-192857200D02*
X267554342Y-192928628D01*
X267482914Y-193000057D01*
X267411485Y-192928628D01*
X267482914Y-192857200D01*
X267482914Y-193000057D01*
D10*
D11*
X178362914Y-193714342D02*
X178577200Y-193785771D01*
X178934342Y-193785771D01*
X179077200Y-193714342D01*
X179148628Y-193642914D01*
X179220057Y-193500057D01*
X179220057Y-193357200D01*
X179148628Y-193214342D01*
X179077200Y-193142914D01*
X178934342Y-193071485D01*
X178648628Y-193000057D01*
X178505771Y-192928628D01*
X178434342Y-192857200D01*
X178362914Y-192714342D01*
X178362914Y-192571485D01*
X178434342Y-192428628D01*
X178505771Y-192357200D01*
X178648628Y-192285771D01*
X179005771Y-192285771D01*
X179220057Y-192357200D01*
X179862914Y-193785771D02*
X179862914Y-192785771D01*
X179862914Y-192285771D02*
X179791485Y-192357200D01*
X179862914Y-192428628D01*
X179934342Y-192357200D01*
X179862914Y-192285771D01*
X179862914Y-192428628D01*
X180434342Y-192785771D02*
X181220057Y-192785771D01*
X180434342Y-193785771D01*
X181220057Y-193785771D01*
X182362914Y-193714342D02*
X182220057Y-193785771D01*
X181934342Y-193785771D01*
X181791485Y-193714342D01*
X181720057Y-193571485D01*
X181720057Y-193000057D01*
X181791485Y-192857200D01*
X181934342Y-192785771D01*
X182220057Y-192785771D01*
X182362914Y-192857200D01*
X182434342Y-193000057D01*
X182434342Y-193142914D01*
X181720057Y-193285771D01*
X183077200Y-193642914D02*
X183148628Y-193714342D01*
X183077200Y-193785771D01*
X183005771Y-193714342D01*
X183077200Y-193642914D01*
X183077200Y-193785771D01*
X183077200Y-192857200D02*
X183148628Y-192928628D01*
X183077200Y-193000057D01*
X183005771Y-192928628D01*
X183077200Y-192857200D01*
X183077200Y-193000057D01*
X184862914Y-193357200D02*
X185577200Y-193357200D01*
X184720057Y-193785771D02*
X185220057Y-192285771D01*
X185720057Y-193785771D01*
X186862914Y-192785771D02*
X186862914Y-193785771D01*
X186505771Y-192214342D02*
X186148628Y-193285771D01*
X187077200Y-193285771D01*
D10*
D11*
X263434342Y-196585771D02*
X263434342Y-195085771D01*
X264791485Y-196585771D02*
X264791485Y-195085771D01*
X264791485Y-196514342D02*
X264648628Y-196585771D01*
X264362914Y-196585771D01*
X264220057Y-196514342D01*
X264148628Y-196442914D01*
X264077200Y-196300057D01*
X264077200Y-195871485D01*
X264148628Y-195728628D01*
X264220057Y-195657200D01*
X264362914Y-195585771D01*
X264648628Y-195585771D01*
X264791485Y-195657200D01*
X265505771Y-196442914D02*
X265577200Y-196514342D01*
X265505771Y-196585771D01*
X265434342Y-196514342D01*
X265505771Y-196442914D01*
X265505771Y-196585771D01*
X265505771Y-195657200D02*
X265577200Y-195728628D01*
X265505771Y-195800057D01*
X265434342Y-195728628D01*
X265505771Y-195657200D01*
X265505771Y-195800057D01*
X268148628Y-196585771D02*
X267291485Y-196585771D01*
X267720057Y-196585771D02*
X267720057Y-195085771D01*
X267577200Y-195300057D01*
X267434342Y-195442914D01*
X267291485Y-195514342D01*
X269862914Y-195014342D02*
X268577200Y-196942914D01*
X271148628Y-196585771D02*
X270291485Y-196585771D01*
X270720057Y-196585771D02*
X270720057Y-195085771D01*
X270577200Y-195300057D01*
X270434342Y-195442914D01*
X270291485Y-195514342D01*
D10*
D11*
X177002200Y-187507200D02*
X285002200Y-187507200D01*
D10*
D13*
X178714580Y-188211961D02*
X179857438Y-188211961D01*
X179036009Y-190211961D02*
X179286009Y-188211961D01*
X180274104Y-190211961D02*
X180440771Y-188878628D01*
X180524104Y-188211961D02*
X180416961Y-188307200D01*
X180500295Y-188402438D01*
X180607438Y-188307200D01*
X180524104Y-188211961D01*
X180500295Y-188402438D01*
X181107438Y-188878628D02*
X181869342Y-188878628D01*
X181476485Y-188211961D02*
X181262200Y-189926247D01*
X181333628Y-190116723D01*
X181512200Y-190211961D01*
X181702676Y-190211961D01*
X182655057Y-190211961D02*
X182476485Y-190116723D01*
X182405057Y-189926247D01*
X182619342Y-188211961D01*
X184190771Y-190116723D02*
X183988390Y-190211961D01*
X183607438Y-190211961D01*
X183428866Y-190116723D01*
X183357438Y-189926247D01*
X183452676Y-189164342D01*
X183571723Y-188973866D01*
X183774104Y-188878628D01*
X184155057Y-188878628D01*
X184333628Y-188973866D01*
X184405057Y-189164342D01*
X184381247Y-189354819D01*
X183405057Y-189545295D01*
X185155057Y-190021485D02*
X185238390Y-190116723D01*
X185131247Y-190211961D01*
X185047914Y-190116723D01*
X185155057Y-190021485D01*
X185131247Y-190211961D01*
X185286009Y-188973866D02*
X185369342Y-189069104D01*
X185262200Y-189164342D01*
X185178866Y-189069104D01*
X185286009Y-188973866D01*
X185262200Y-189164342D01*
D10*
D11*
X178934342Y-185600057D02*
X178434342Y-185600057D01*
X178434342Y-186385771D02*
X178434342Y-184885771D01*
X179148628Y-184885771D01*
X179720057Y-186385771D02*
X179720057Y-185385771D01*
X179720057Y-184885771D02*
X179648628Y-184957200D01*
X179720057Y-185028628D01*
X179791485Y-184957200D01*
X179720057Y-184885771D01*
X179720057Y-185028628D01*
X180648628Y-186385771D02*
X180505771Y-186314342D01*
X180434342Y-186171485D01*
X180434342Y-184885771D01*
X181791485Y-186314342D02*
X181648628Y-186385771D01*
X181362914Y-186385771D01*
X181220057Y-186314342D01*
X181148628Y-186171485D01*
X181148628Y-185600057D01*
X181220057Y-185457200D01*
X181362914Y-185385771D01*
X181648628Y-185385771D01*
X181791485Y-185457200D01*
X181862914Y-185600057D01*
X181862914Y-185742914D01*
X181148628Y-185885771D01*
X182505771Y-186242914D02*
X182577200Y-186314342D01*
X182505771Y-186385771D01*
X182434342Y-186314342D01*
X182505771Y-186242914D01*
X182505771Y-186385771D01*
X182505771Y-185457200D02*
X182577200Y-185528628D01*
X182505771Y-185600057D01*
X182434342Y-185528628D01*
X182505771Y-185457200D01*
X182505771Y-185600057D01*
X184362914Y-185600057D02*
X184862914Y-185600057D01*
X185077200Y-186385771D02*
X184362914Y-186385771D01*
X184362914Y-184885771D01*
X185077200Y-184885771D01*
X185648628Y-186314342D02*
X185862914Y-186385771D01*
X186220057Y-186385771D01*
X186362914Y-186314342D01*
X186434342Y-186242914D01*
X186505771Y-186100057D01*
X186505771Y-185957200D01*
X186434342Y-185814342D01*
X186362914Y-185742914D01*
X186220057Y-185671485D01*
X185934342Y-185600057D01*
X185791485Y-185528628D01*
X185720057Y-185457200D01*
X185648628Y-185314342D01*
X185648628Y-185171485D01*
X185720057Y-185028628D01*
X185791485Y-184957200D01*
X185934342Y-184885771D01*
X186291485Y-184885771D01*
X186505771Y-184957200D01*
X187148628Y-186385771D02*
X187148628Y-184885771D01*
X187720057Y-184885771D01*
X187862914Y-184957200D01*
X187934342Y-185028628D01*
X188005771Y-185171485D01*
X188005771Y-185385771D01*
X187934342Y-185528628D01*
X187862914Y-185600057D01*
X187720057Y-185671485D01*
X187148628Y-185671485D01*
X188505771Y-184885771D02*
X189434342Y-184885771D01*
X188934342Y-185457200D01*
X189148628Y-185457200D01*
X189291485Y-185528628D01*
X189362914Y-185600057D01*
X189434342Y-185742914D01*
X189434342Y-186100057D01*
X189362914Y-186242914D01*
X189291485Y-186314342D01*
X189148628Y-186385771D01*
X188720057Y-186385771D01*
X188577200Y-186314342D01*
X188505771Y-186242914D01*
X190005771Y-185028628D02*
X190077200Y-184957200D01*
X190220057Y-184885771D01*
X190577200Y-184885771D01*
X190720057Y-184957200D01*
X190791485Y-185028628D01*
X190862914Y-185171485D01*
X190862914Y-185314342D01*
X190791485Y-185528628D01*
X189934342Y-186385771D01*
X190862914Y-186385771D01*
X191505771Y-185814342D02*
X192648628Y-185814342D01*
X194220057Y-186242914D02*
X194148628Y-186314342D01*
X193934342Y-186385771D01*
X193791485Y-186385771D01*
X193577200Y-186314342D01*
X193434342Y-186171485D01*
X193362914Y-186028628D01*
X193291485Y-185742914D01*
X193291485Y-185528628D01*
X193362914Y-185242914D01*
X193434342Y-185100057D01*
X193577200Y-184957200D01*
X193791485Y-184885771D01*
X193934342Y-184885771D01*
X194148628Y-184957200D01*
X194220057Y-185028628D01*
X194791485Y-185957200D02*
X195505771Y-185957200D01*
X194648628Y-186385771D02*
X195148628Y-184885771D01*
X195648628Y-186385771D01*
X196148628Y-186385771D02*
X196148628Y-184885771D01*
X197005771Y-186385771D01*
X197005771Y-184885771D01*
X197720057Y-186242914D02*
X197791485Y-186314342D01*
X197720057Y-186385771D01*
X197648628Y-186314342D01*
X197720057Y-186242914D01*
X197720057Y-186385771D01*
X198434342Y-186385771D02*
X198434342Y-184885771D01*
X198577200Y-185814342D02*
X199005771Y-186385771D01*
X199005771Y-185385771D02*
X198434342Y-185957200D01*
X199648628Y-186385771D02*
X199648628Y-185385771D01*
X199648628Y-184885771D02*
X199577200Y-184957200D01*
X199648628Y-185028628D01*
X199720057Y-184957200D01*
X199648628Y-184885771D01*
X199648628Y-185028628D01*
X201005771Y-186314342D02*
X200862914Y-186385771D01*
X200577200Y-186385771D01*
X200434342Y-186314342D01*
X200362914Y-186242914D01*
X200291485Y-186100057D01*
X200291485Y-185671485D01*
X200362914Y-185528628D01*
X200434342Y-185457200D01*
X200577200Y-185385771D01*
X200862914Y-185385771D01*
X201005771Y-185457200D01*
X202291485Y-186385771D02*
X202291485Y-185600057D01*
X202220057Y-185457200D01*
X202077200Y-185385771D01*
X201791485Y-185385771D01*
X201648628Y-185457200D01*
X202291485Y-186314342D02*
X202148628Y-186385771D01*
X201791485Y-186385771D01*
X201648628Y-186314342D01*
X201577200Y-186171485D01*
X201577200Y-186028628D01*
X201648628Y-185885771D01*
X201791485Y-185814342D01*
X202148628Y-185814342D01*
X202291485Y-185742914D01*
X203648628Y-186385771D02*
X203648628Y-184885771D01*
X203648628Y-186314342D02*
X203505771Y-186385771D01*
X203220057Y-186385771D01*
X203077200Y-186314342D01*
X203005771Y-186242914D01*
X202934342Y-186100057D01*
X202934342Y-185671485D01*
X203005771Y-185528628D01*
X203077200Y-185457200D01*
X203220057Y-185385771D01*
X203505771Y-185385771D01*
X203648628Y-185457200D01*
X204005771Y-186528628D02*
X205148628Y-186528628D01*
X205505771Y-185385771D02*
X205505771Y-186885771D01*
X205505771Y-185457200D02*
X205648628Y-185385771D01*
X205934342Y-185385771D01*
X206077200Y-185457200D01*
X206148628Y-185528628D01*
X206220057Y-185671485D01*
X206220057Y-186100057D01*
X206148628Y-186242914D01*
X206077200Y-186314342D01*
X205934342Y-186385771D01*
X205648628Y-186385771D01*
X205505771Y-186314342D01*
X207505771Y-186314342D02*
X207362914Y-186385771D01*
X207077200Y-186385771D01*
X206934342Y-186314342D01*
X206862914Y-186242914D01*
X206791485Y-186100057D01*
X206791485Y-185671485D01*
X206862914Y-185528628D01*
X206934342Y-185457200D01*
X207077200Y-185385771D01*
X207362914Y-185385771D01*
X207505771Y-185457200D01*
X208148628Y-186385771D02*
X208148628Y-184885771D01*
X208148628Y-185457200D02*
X208291485Y-185385771D01*
X208577200Y-185385771D01*
X208720057Y-185457200D01*
X208791485Y-185528628D01*
X208862914Y-185671485D01*
X208862914Y-186100057D01*
X208791485Y-186242914D01*
X208720057Y-186314342D01*
X208577200Y-186385771D01*
X208291485Y-186385771D01*
X208148628Y-186314342D01*
D10*
D11*
X177002200Y-181507200D02*
X285002200Y-181507200D01*
D10*
D11*
X178362914Y-183614342D02*
X178577200Y-183685771D01*
X178934342Y-183685771D01*
X179077200Y-183614342D01*
X179148628Y-183542914D01*
X179220057Y-183400057D01*
X179220057Y-183257200D01*
X179148628Y-183114342D01*
X179077200Y-183042914D01*
X178934342Y-182971485D01*
X178648628Y-182900057D01*
X178505771Y-182828628D01*
X178434342Y-182757200D01*
X178362914Y-182614342D01*
X178362914Y-182471485D01*
X178434342Y-182328628D01*
X178505771Y-182257200D01*
X178648628Y-182185771D01*
X179005771Y-182185771D01*
X179220057Y-182257200D01*
X179862914Y-183685771D02*
X179862914Y-182185771D01*
X180505771Y-183685771D02*
X180505771Y-182900057D01*
X180434342Y-182757200D01*
X180291485Y-182685771D01*
X180077200Y-182685771D01*
X179934342Y-182757200D01*
X179862914Y-182828628D01*
X181791485Y-183614342D02*
X181648628Y-183685771D01*
X181362914Y-183685771D01*
X181220057Y-183614342D01*
X181148628Y-183471485D01*
X181148628Y-182900057D01*
X181220057Y-182757200D01*
X181362914Y-182685771D01*
X181648628Y-182685771D01*
X181791485Y-182757200D01*
X181862914Y-182900057D01*
X181862914Y-183042914D01*
X181148628Y-183185771D01*
X183077200Y-183614342D02*
X182934342Y-183685771D01*
X182648628Y-183685771D01*
X182505771Y-183614342D01*
X182434342Y-183471485D01*
X182434342Y-182900057D01*
X182505771Y-182757200D01*
X182648628Y-182685771D01*
X182934342Y-182685771D01*
X183077200Y-182757200D01*
X183148628Y-182900057D01*
X183148628Y-183042914D01*
X182434342Y-183185771D01*
X183577200Y-182685771D02*
X184148628Y-182685771D01*
X183791485Y-182185771D02*
X183791485Y-183471485D01*
X183862914Y-183614342D01*
X184005771Y-183685771D01*
X184148628Y-183685771D01*
X184648628Y-183542914D02*
X184720057Y-183614342D01*
X184648628Y-183685771D01*
X184577200Y-183614342D01*
X184648628Y-183542914D01*
X184648628Y-183685771D01*
X184648628Y-182757200D02*
X184720057Y-182828628D01*
X184648628Y-182900057D01*
X184577200Y-182828628D01*
X184648628Y-182757200D01*
X184648628Y-182900057D01*
D10*
D11*
X197002200Y-191507200D02*
X197002200Y-194507200D01*
D10*
D11*
X261002200Y-191507200D02*
X261002200Y-198007200D01*
D14*
X158730000Y-122523000D02*
X155770000Y-122523000D01*
X158730000Y-121063000D02*
X158730000Y-122523000D01*
X155770000Y-121063000D02*
X158730000Y-121063000D01*
X155770000Y-122523000D02*
X155770000Y-121063000D01*
X151225000Y-70187000D02*
X149765000Y-70187000D01*
X149765000Y-70187000D02*
X149765000Y-67227000D01*
X149765000Y-67227000D02*
X151225000Y-67227000D01*
X151225000Y-67227000D02*
X151225000Y-70187000D01*
X149765000Y-70338500D02*
X151225000Y-70338500D01*
X151225000Y-70338500D02*
X151225000Y-73298500D01*
X151225000Y-73298500D02*
X149765000Y-73298500D01*
X149765000Y-73298500D02*
X149765000Y-70338500D01*
X149701000Y-67227000D02*
X149701000Y-70187000D01*
X148241000Y-67227000D02*
X149701000Y-67227000D01*
X148241000Y-70187000D02*
X148241000Y-67227000D01*
X149701000Y-70187000D02*
X148241000Y-70187000D01*
X149701000Y-70338000D02*
X149701000Y-73298000D01*
X148241000Y-70338000D02*
X149701000Y-70338000D01*
X148241000Y-73298000D02*
X148241000Y-70338000D01*
X149701000Y-73298000D02*
X148241000Y-73298000D01*
X163040000Y-123500000D02*
X163040000Y-130500000D01*
X163040000Y-130500000D02*
X159540000Y-130500000D01*
X159540000Y-130500000D02*
X159540000Y-123500000D01*
X159540000Y-123500000D02*
X163040000Y-123500000D01*
X166850000Y-123500000D02*
X166850000Y-130500000D01*
X166850000Y-130500000D02*
X163350000Y-130500000D01*
X163350000Y-130500000D02*
X163350000Y-123500000D01*
X163350000Y-123500000D02*
X166850000Y-123500000D01*
X155103000Y-112936000D02*
X159603000Y-112936000D01*
X155103000Y-120236000D02*
X155103000Y-112936000D01*
X159603000Y-120236000D02*
X155103000Y-120236000D01*
X159603000Y-112936000D02*
X159603000Y-120236000D01*
X166631000Y-101409000D02*
X166631000Y-106109000D01*
X166631000Y-106109000D02*
X164331000Y-106109000D01*
X164331000Y-106109000D02*
X164331000Y-101409000D01*
X166631000Y-101409000D02*
X164331000Y-101409000D01*
X151539000Y-89987000D02*
X151539000Y-82987000D01*
X151539000Y-82987000D02*
X155039000Y-82987000D01*
X155039000Y-82987000D02*
X155039000Y-89987000D01*
X155039000Y-89987000D02*
X151539000Y-89987000D01*
X155646000Y-79093000D02*
X148646000Y-79093000D01*
X148646000Y-79093000D02*
X148646000Y-75593000D01*
X148646000Y-75593000D02*
X155646000Y-75593000D01*
X155646000Y-75593000D02*
X155646000Y-79093000D01*
X148431500Y-61067500D02*
X149891500Y-61067500D01*
X149891500Y-61067500D02*
X149891500Y-64027500D01*
X149891500Y-64027500D02*
X148431500Y-64027500D01*
X148431500Y-64027500D02*
X148431500Y-61067500D01*
X159976000Y-94139000D02*
X159976000Y-95599000D01*
X159976000Y-95599000D02*
X157016000Y-95599000D01*
X157016000Y-95599000D02*
X157016000Y-94139000D01*
X157016000Y-94139000D02*
X159976000Y-94139000D01*
X165564000Y-71279000D02*
X165564000Y-72739000D01*
X165564000Y-72739000D02*
X162604000Y-72739000D01*
X162604000Y-72739000D02*
X162604000Y-71279000D01*
X162604000Y-71279000D02*
X165564000Y-71279000D01*
X124924000Y-70263000D02*
X124924000Y-71723000D01*
X124924000Y-71723000D02*
X121964000Y-71723000D01*
X121964000Y-71723000D02*
X121964000Y-70263000D01*
X121964000Y-70263000D02*
X124924000Y-70263000D01*
X120682000Y-82340000D02*
X122142000Y-82340000D01*
X122142000Y-82340000D02*
X122142000Y-85300000D01*
X122142000Y-85300000D02*
X120682000Y-85300000D01*
X120682000Y-85300000D02*
X120682000Y-82340000D01*
X155404000Y-69272000D02*
X162604000Y-69272000D01*
X162604000Y-69272000D02*
X162604000Y-60472000D01*
X162604000Y-60472000D02*
X155404000Y-60472000D01*
X155404000Y-60472000D02*
X155404000Y-69272000D01*
X154670000Y-59817000D02*
G75*
G03*
X154670000Y-59817000I-1000000J0D01*
G01*
X150019000Y-64027500D02*
X150019000Y-61067500D01*
X151479000Y-64027500D02*
X150019000Y-64027500D01*
X151479000Y-61067500D02*
X151479000Y-64027500D01*
X150019000Y-61067500D02*
X151479000Y-61067500D01*
X152813000Y-70187000D02*
X152813000Y-67227000D01*
X154273000Y-70187000D02*
X152813000Y-70187000D01*
X154273000Y-67227000D02*
X154273000Y-70187000D01*
X152813000Y-67227000D02*
X154273000Y-67227000D01*
X151289000Y-70187000D02*
X151289000Y-67227000D01*
X152749000Y-70187000D02*
X151289000Y-70187000D01*
X152749000Y-67227000D02*
X152749000Y-70187000D01*
X151289000Y-67227000D02*
X152749000Y-67227000D01*
X165818000Y-67532000D02*
X162858000Y-67532000D01*
X165818000Y-66072000D02*
X165818000Y-67532000D01*
X162858000Y-66072000D02*
X165818000Y-66072000D01*
X162858000Y-67532000D02*
X162858000Y-66072000D01*
X165818000Y-69183000D02*
X162858000Y-69183000D01*
X165818000Y-67723000D02*
X165818000Y-69183000D01*
X162858000Y-67723000D02*
X165818000Y-67723000D01*
X162858000Y-69183000D02*
X162858000Y-67723000D01*
X120817500Y-120390000D02*
X118577500Y-120390000D01*
X118577500Y-120390000D02*
X118577500Y-115830000D01*
X118577500Y-115830000D02*
X120817500Y-115830000D01*
X120817500Y-115830000D02*
X120817500Y-120390000D01*
X127972000Y-120173500D02*
X125012000Y-120173500D01*
X127972000Y-118713500D02*
X127972000Y-120173500D01*
X125012000Y-118713500D02*
X127972000Y-118713500D01*
X125012000Y-120173500D02*
X125012000Y-118713500D01*
X125290000Y-59051000D02*
X126280000Y-59051000D01*
X126280000Y-59051000D02*
X126280000Y-61761000D01*
X126280000Y-61761000D02*
X128420000Y-63901000D01*
X128420000Y-63901000D02*
X129960000Y-63901000D01*
X144360000Y-63901000D02*
X145900000Y-63901000D01*
X145900000Y-63901000D02*
X148040000Y-61761000D01*
X148040000Y-61761000D02*
X148040000Y-59051000D01*
X148040000Y-59051000D02*
X149030000Y-59051000D01*
X149030000Y-59051000D02*
X149030000Y-53471000D01*
X149030000Y-53471000D02*
X148040000Y-53471000D01*
X148040000Y-53471000D02*
X148040000Y-52621000D01*
X148040000Y-52621000D02*
X146600000Y-48641000D01*
X127730000Y-48631000D02*
X126280000Y-52621000D01*
X126280000Y-52621000D02*
X126280000Y-53471000D01*
X126280000Y-53471000D02*
X125290000Y-53471000D01*
X125290000Y-53471000D02*
X125290000Y-59051000D01*
X127744856Y-48639659D02*
G75*
G02*
X131200000Y-47621000I2105144J-771341D01*
G01*
X131214632Y-47610925D02*
G75*
G02*
X143120000Y-47621000I5945368J-8650075D01*
G01*
X143116965Y-47606396D02*
G75*
G02*
X146590000Y-48641000I1353035J-1804604D01*
G01*
X144359546Y-63901427D02*
G75*
G02*
X129960000Y-63901000I-7199546J7640427D01*
G01*
X91746000Y-123322000D02*
X85546000Y-123322000D01*
X91746000Y-127122000D02*
X91746000Y-123322000D01*
X85546000Y-127122000D02*
X91746000Y-127122000D01*
X85546000Y-123322000D02*
X85546000Y-127122000D01*
X107753500Y-127721500D02*
X107753500Y-129961500D01*
X107753500Y-129961500D02*
X103193500Y-129961500D01*
X103193500Y-129961500D02*
X103193500Y-127721500D01*
X103193500Y-127721500D02*
X107753500Y-127721500D01*
X101043000Y-121059000D02*
X104443000Y-121059000D01*
X104443000Y-121059000D02*
X104443000Y-124559000D01*
X104443000Y-124559000D02*
X101043000Y-124559000D01*
X101043000Y-124559000D02*
X101043000Y-121059000D01*
X154300000Y-120082000D02*
G75*
G03*
X154300000Y-120082000I-8250000J0D01*
G01*
X143000000Y-110406000D02*
X163960000Y-110406000D01*
X163960000Y-110406000D02*
X163960000Y-99906000D01*
X163960000Y-99906000D02*
X143000000Y-99906000D01*
X143000000Y-99906000D02*
X143000000Y-110406000D01*
X125151500Y-67192000D02*
X125151500Y-84192000D01*
X148151500Y-67192000D02*
X125151500Y-67192000D01*
X148151500Y-84192000D02*
X148151500Y-67192000D01*
X125151500Y-84192000D02*
X148151500Y-84192000D01*
X168005000Y-100203000D02*
G75*
G03*
X168005000Y-100203000I-1000000J0D01*
G01*
X103969000Y-127603000D02*
X101009000Y-127603000D01*
X103969000Y-126143000D02*
X103969000Y-127603000D01*
X101009000Y-126143000D02*
X103969000Y-126143000D01*
X101009000Y-127603000D02*
X101009000Y-126143000D01*
X107348000Y-108822000D02*
X101948000Y-108822000D01*
X101948000Y-108822000D02*
X101948000Y-116222000D01*
X101948000Y-116222000D02*
X107348000Y-116222000D01*
X107348000Y-116222000D02*
X107348000Y-108822000D01*
X129701000Y-129795000D02*
X129701000Y-128645000D01*
X127601000Y-129795000D02*
X129701000Y-129795000D01*
X127601000Y-128645000D02*
X127601000Y-129795000D01*
X129701000Y-128645000D02*
X131051000Y-128645000D01*
X126251000Y-128645000D02*
X127601000Y-128645000D01*
X126251000Y-128645000D02*
X125101000Y-127495000D01*
X131051000Y-128645000D02*
X132201000Y-127495000D01*
X125101000Y-127495000D02*
X125101000Y-121545000D01*
X132201000Y-127495000D02*
X132201000Y-121545000D01*
X129701000Y-121545000D02*
X132201000Y-121545000D01*
X129701000Y-120395000D02*
X129701000Y-121545000D01*
X127601000Y-120395000D02*
X129701000Y-120395000D01*
X127601000Y-121545000D02*
X127601000Y-120395000D01*
X125101000Y-121545000D02*
X127601000Y-121545000D01*
X117815000Y-77949000D02*
X97595000Y-77949000D01*
X117815000Y-77949000D02*
X117815000Y-58449000D01*
X97595000Y-58449000D02*
X117815000Y-58449000D01*
X86315000Y-82449000D02*
X86315000Y-53949000D01*
X86315000Y-82449000D02*
X97595000Y-82449000D01*
X86315000Y-53949000D02*
X97595000Y-53949000D01*
X97595000Y-82449000D02*
X97595000Y-77949000D01*
X97595000Y-58449000D02*
X97595000Y-53949000D01*
X142104000Y-107449000D02*
X142104000Y-84449000D01*
X142104000Y-84449000D02*
X125104000Y-84449000D01*
X125104000Y-84449000D02*
X125104000Y-107449000D01*
X125104000Y-107449000D02*
X142104000Y-107449000D01*
X157718000Y-75057000D02*
G75*
G03*
X157718000Y-75057000I-1000000J0D01*
G01*
X165719000Y-63373000D02*
G75*
G03*
X165719000Y-63373000I-1000000J0D01*
G01*
X100441000Y-105537000D02*
G75*
G03*
X100441000Y-105537000I-1000000J0D01*
G01*
X94393000Y-100921000D02*
X94393000Y-97961000D01*
X95853000Y-100921000D02*
X94393000Y-100921000D01*
X95853000Y-97961000D02*
X95853000Y-100921000D01*
X94393000Y-97961000D02*
X95853000Y-97961000D01*
X94146000Y-92876000D02*
X94146000Y-97116000D01*
X94146000Y-97116000D02*
X98386000Y-97116000D01*
X98386000Y-97116000D02*
X98386000Y-92876000D01*
X98386000Y-92876000D02*
X94146000Y-92876000D01*
X103108000Y-90932000D02*
G75*
G03*
X103108000Y-90932000I-1000000J0D01*
G01*
X108211000Y-89899000D02*
X108211000Y-97299000D01*
X118611000Y-89899000D02*
X108211000Y-89899000D01*
X118611000Y-97299000D02*
X118611000Y-89899000D01*
X108211000Y-97299000D02*
X118611000Y-97299000D01*
X100870000Y-58274500D02*
X100870000Y-55314500D01*
X102330000Y-58274500D02*
X100870000Y-58274500D01*
X102330000Y-55314500D02*
X102330000Y-58274500D01*
X100870000Y-55314500D02*
X102330000Y-55314500D01*
X118748000Y-83871000D02*
X115948000Y-83871000D01*
X115948000Y-87071000D02*
X118748000Y-87071000D01*
X115948000Y-87071000D02*
X115948000Y-83871000D01*
X118748000Y-87071000D02*
X118748000Y-83871000D01*
X152749000Y-73298500D02*
X151289000Y-73298500D01*
X151289000Y-73298500D02*
X151289000Y-70338500D01*
X151289000Y-70338500D02*
X152749000Y-70338500D01*
X152749000Y-70338500D02*
X152749000Y-73298500D01*
X154273000Y-73298500D02*
X152813000Y-73298500D01*
X152813000Y-73298500D02*
X152813000Y-70338500D01*
X152813000Y-70338500D02*
X154273000Y-70338500D01*
X154273000Y-70338500D02*
X154273000Y-73298500D01*
X150920000Y-91091000D02*
X153880000Y-91091000D01*
X150920000Y-92551000D02*
X150920000Y-91091000D01*
X153880000Y-92551000D02*
X150920000Y-92551000D01*
X153880000Y-91091000D02*
X153880000Y-92551000D01*
X84296000Y-110319000D02*
X82836000Y-110319000D01*
X82836000Y-110319000D02*
X82836000Y-107359000D01*
X82836000Y-107359000D02*
X84296000Y-107359000D01*
X84296000Y-107359000D02*
X84296000Y-110319000D01*
X100286000Y-110839000D02*
X97326000Y-110839000D01*
X100286000Y-109379000D02*
X100286000Y-110839000D01*
X97326000Y-109379000D02*
X100286000Y-109379000D01*
X97326000Y-110839000D02*
X97326000Y-109379000D01*
X85642000Y-127286000D02*
X88602000Y-127286000D01*
X85642000Y-128746000D02*
X85642000Y-127286000D01*
X88602000Y-128746000D02*
X85642000Y-128746000D01*
X88602000Y-127286000D02*
X88602000Y-128746000D01*
X88690000Y-128746000D02*
X88690000Y-127286000D01*
X88690000Y-127286000D02*
X91650000Y-127286000D01*
X91650000Y-127286000D02*
X91650000Y-128746000D01*
X91650000Y-128746000D02*
X88690000Y-128746000D01*
X101009000Y-119475000D02*
X101009000Y-118015000D01*
X101009000Y-118015000D02*
X103969000Y-118015000D01*
X103969000Y-118015000D02*
X103969000Y-119475000D01*
X103969000Y-119475000D02*
X101009000Y-119475000D01*
X101454500Y-80550000D02*
X101454500Y-82010000D01*
X101454500Y-82010000D02*
X98494500Y-82010000D01*
X98494500Y-82010000D02*
X98494500Y-80550000D01*
X98494500Y-80550000D02*
X101454500Y-80550000D01*
X98494500Y-78962500D02*
X101454500Y-78962500D01*
X98494500Y-80422500D02*
X98494500Y-78962500D01*
X101454500Y-80422500D02*
X98494500Y-80422500D01*
X101454500Y-78962500D02*
X101454500Y-80422500D01*
X103092500Y-85008000D02*
X103092500Y-82048000D01*
X104552500Y-85008000D02*
X103092500Y-85008000D01*
X104552500Y-82048000D02*
X104552500Y-85008000D01*
X103092500Y-82048000D02*
X104552500Y-82048000D01*
X92361000Y-99016000D02*
X92361000Y-96056000D01*
X93821000Y-99016000D02*
X92361000Y-99016000D01*
X93821000Y-96056000D02*
X93821000Y-99016000D01*
X92361000Y-96056000D02*
X93821000Y-96056000D01*
X91408000Y-91650000D02*
X89948000Y-91650000D01*
X89948000Y-91650000D02*
X89948000Y-88690000D01*
X89948000Y-88690000D02*
X91408000Y-88690000D01*
X91408000Y-88690000D02*
X91408000Y-91650000D01*
X98700000Y-126238000D02*
G75*
G03*
X98700000Y-126238000I-3450000J0D01*
G01*
X154453000Y-49403000D02*
G75*
G03*
X154453000Y-49403000I-3450000J0D01*
G01*
X109819500Y-124855500D02*
X113319500Y-124855500D01*
X109819500Y-128255500D02*
X109819500Y-124855500D01*
X113319500Y-128255500D02*
X109819500Y-128255500D01*
X113319500Y-124855500D02*
X113319500Y-128255500D01*
X117002500Y-124855500D02*
X117002500Y-128255500D01*
X117002500Y-128255500D02*
X113502500Y-128255500D01*
X113502500Y-128255500D02*
X113502500Y-124855500D01*
X113502500Y-124855500D02*
X117002500Y-124855500D01*
X124241500Y-124855500D02*
X124241500Y-128255500D01*
X124241500Y-128255500D02*
X120741500Y-128255500D01*
X120741500Y-128255500D02*
X120741500Y-124855500D01*
X120741500Y-124855500D02*
X124241500Y-124855500D01*
X120622000Y-124855500D02*
X120622000Y-128255500D01*
X120622000Y-128255500D02*
X117122000Y-128255500D01*
X117122000Y-128255500D02*
X117122000Y-124855500D01*
X117122000Y-124855500D02*
X120622000Y-124855500D01*
X164751000Y-110192000D02*
X164751000Y-107232000D01*
X166211000Y-110192000D02*
X164751000Y-110192000D01*
X166211000Y-107232000D02*
X166211000Y-110192000D01*
X164751000Y-107232000D02*
X166211000Y-107232000D01*
X158210000Y-99778000D02*
X156750000Y-99778000D01*
X156750000Y-99778000D02*
X156750000Y-96818000D01*
X156750000Y-96818000D02*
X158210000Y-96818000D01*
X158210000Y-96818000D02*
X158210000Y-99778000D01*
X144443000Y-97377000D02*
X144443000Y-95917000D01*
X144443000Y-95917000D02*
X147403000Y-95917000D01*
X147403000Y-95917000D02*
X147403000Y-97377000D01*
X147403000Y-97377000D02*
X144443000Y-97377000D01*
X147403000Y-97568000D02*
X147403000Y-99028000D01*
X147403000Y-99028000D02*
X144443000Y-99028000D01*
X144443000Y-99028000D02*
X144443000Y-97568000D01*
X144443000Y-97568000D02*
X147403000Y-97568000D01*
X101009000Y-116364000D02*
X103969000Y-116364000D01*
X101009000Y-117824000D02*
X101009000Y-116364000D01*
X103969000Y-117824000D02*
X101009000Y-117824000D01*
X103969000Y-116364000D02*
X103969000Y-117824000D01*
X101009000Y-126079000D02*
X101009000Y-124619000D01*
X101009000Y-124619000D02*
X103969000Y-124619000D01*
X103969000Y-124619000D02*
X103969000Y-126079000D01*
X103969000Y-126079000D02*
X101009000Y-126079000D01*
X103969000Y-120999000D02*
X101009000Y-120999000D01*
X103969000Y-119539000D02*
X103969000Y-120999000D01*
X101009000Y-119539000D02*
X103969000Y-119539000D01*
X101009000Y-120999000D02*
X101009000Y-119539000D01*
X113049500Y-128365500D02*
X113049500Y-129825500D01*
X113049500Y-129825500D02*
X110089500Y-129825500D01*
X110089500Y-129825500D02*
X110089500Y-128365500D01*
X110089500Y-128365500D02*
X113049500Y-128365500D01*
X116732500Y-129825500D02*
X113772500Y-129825500D01*
X116732500Y-128365500D02*
X116732500Y-129825500D01*
X113772500Y-128365500D02*
X116732500Y-128365500D01*
X113772500Y-129825500D02*
X113772500Y-128365500D01*
X110216500Y-123285500D02*
X113176500Y-123285500D01*
X110216500Y-124745500D02*
X110216500Y-123285500D01*
X113176500Y-124745500D02*
X110216500Y-124745500D01*
X113176500Y-123285500D02*
X113176500Y-124745500D01*
X113772500Y-123285500D02*
X116732500Y-123285500D01*
X113772500Y-124745500D02*
X113772500Y-123285500D01*
X116732500Y-124745500D02*
X113772500Y-124745500D01*
X116732500Y-123285500D02*
X116732500Y-124745500D01*
X120948000Y-129825500D02*
X120948000Y-128365500D01*
X120948000Y-128365500D02*
X123908000Y-128365500D01*
X123908000Y-128365500D02*
X123908000Y-129825500D01*
X123908000Y-129825500D02*
X120948000Y-129825500D01*
X117392000Y-128365500D02*
X120352000Y-128365500D01*
X117392000Y-129825500D02*
X117392000Y-128365500D01*
X120352000Y-129825500D02*
X117392000Y-129825500D01*
X120352000Y-128365500D02*
X120352000Y-129825500D01*
X101568500Y-82022500D02*
X103028500Y-82022500D01*
X103028500Y-82022500D02*
X103028500Y-84982500D01*
X103028500Y-84982500D02*
X101568500Y-84982500D01*
X101568500Y-84982500D02*
X101568500Y-82022500D01*
X123971500Y-123285500D02*
X123971500Y-124745500D01*
X123971500Y-124745500D02*
X121011500Y-124745500D01*
X121011500Y-124745500D02*
X121011500Y-123285500D01*
X121011500Y-123285500D02*
X123971500Y-123285500D01*
X120352000Y-123285500D02*
X120352000Y-124745500D01*
X120352000Y-124745500D02*
X117392000Y-124745500D01*
X117392000Y-124745500D02*
X117392000Y-123285500D01*
X117392000Y-123285500D02*
X120352000Y-123285500D01*
X109772000Y-56293000D02*
X112732000Y-56293000D01*
X109772000Y-57753000D02*
X109772000Y-56293000D01*
X112732000Y-57753000D02*
X109772000Y-57753000D01*
X112732000Y-56293000D02*
X112732000Y-57753000D01*
X104680000Y-58274500D02*
X104680000Y-55314500D01*
X106140000Y-58274500D02*
X104680000Y-58274500D01*
X106140000Y-55314500D02*
X106140000Y-58274500D01*
X104680000Y-55314500D02*
X106140000Y-55314500D01*
X156100000Y-93693000D02*
X148700000Y-93693000D01*
X156100000Y-99093000D02*
X156100000Y-93693000D01*
X148700000Y-99093000D02*
X156100000Y-99093000D01*
X148700000Y-93693000D02*
X148700000Y-99093000D01*
X82626000Y-122770000D02*
X94666000Y-122770000D01*
X94666000Y-122770000D02*
X94666000Y-110910000D01*
X94666000Y-110910000D02*
X82626000Y-110910000D01*
X82626000Y-110910000D02*
X82626000Y-122770000D01*
X100236000Y-110981000D02*
X94836000Y-110981000D01*
X94836000Y-110981000D02*
X94836000Y-118381000D01*
X94836000Y-118381000D02*
X100236000Y-118381000D01*
X100236000Y-118381000D02*
X100236000Y-110981000D01*
X155686000Y-92803000D02*
X155686000Y-82203000D01*
X155686000Y-82203000D02*
X166386000Y-82203000D01*
X155686000Y-92803000D02*
X166386000Y-92803000D01*
X166386000Y-92803000D02*
X166386000Y-82203000D01*
X165966000Y-95129000D02*
X165966000Y-99689000D01*
X163726000Y-95129000D02*
X165966000Y-95129000D01*
X163726000Y-99689000D02*
X163726000Y-95129000D01*
X165966000Y-99689000D02*
X163726000Y-99689000D01*
X163553000Y-99689000D02*
X161313000Y-99689000D01*
X161313000Y-99689000D02*
X161313000Y-95129000D01*
X161313000Y-95129000D02*
X163553000Y-95129000D01*
X163553000Y-95129000D02*
X163553000Y-99689000D01*
X147481000Y-94108000D02*
X147481000Y-92958000D01*
X145381000Y-94108000D02*
X147481000Y-94108000D01*
X145381000Y-92958000D02*
X145381000Y-94108000D01*
X147481000Y-92958000D02*
X148831000Y-92958000D01*
X144031000Y-92958000D02*
X145381000Y-92958000D01*
X144031000Y-92958000D02*
X142881000Y-91808000D01*
X148831000Y-92958000D02*
X149981000Y-91808000D01*
X142881000Y-91808000D02*
X142881000Y-85858000D01*
X149981000Y-91808000D02*
X149981000Y-85858000D01*
X147481000Y-85858000D02*
X149981000Y-85858000D01*
X147481000Y-84708000D02*
X147481000Y-85858000D01*
X145381000Y-84708000D02*
X147481000Y-84708000D01*
X145381000Y-85858000D02*
X145381000Y-84708000D01*
X142881000Y-85858000D02*
X145381000Y-85858000D01*
X107791000Y-89960000D02*
X107791000Y-92920000D01*
X106331000Y-89960000D02*
X107791000Y-89960000D01*
X106331000Y-92920000D02*
X106331000Y-89960000D01*
X107791000Y-92920000D02*
X106331000Y-92920000D01*
X106331000Y-93897000D02*
X107791000Y-93897000D01*
X107791000Y-93897000D02*
X107791000Y-96857000D01*
X107791000Y-96857000D02*
X106331000Y-96857000D01*
X106331000Y-96857000D02*
X106331000Y-93897000D01*
X115603500Y-88871000D02*
X105503500Y-88871000D01*
X115603500Y-82071000D02*
X105503500Y-82071000D01*
X115603500Y-88871000D02*
X115603500Y-82071000D01*
X105503500Y-82071000D02*
X105503500Y-88871000D01*
X84566000Y-127254000D02*
G75*
G03*
X84566000Y-127254000I-1000000J0D01*
G01*
X84566000Y-124460000D02*
G75*
G03*
X84566000Y-124460000I-1000000J0D01*
G01*
X160215000Y-112875000D02*
X166175000Y-112875000D01*
X166175000Y-112875000D02*
X166175000Y-122075000D01*
X166175000Y-122075000D02*
X160215000Y-122075000D01*
X160215000Y-122075000D02*
X160215000Y-112875000D01*
X108188000Y-56007000D02*
G75*
G03*
X108188000Y-56007000I-1000000J0D01*
G01*
X100822000Y-56007000D02*
G75*
G03*
X100822000Y-56007000I-1000000J0D01*
G01*
X103489000Y-53848000D02*
G75*
G03*
X103489000Y-53848000I-1000000J0D01*
G01*
X111934500Y-121920000D02*
G75*
G03*
X111934500Y-121920000I-1000000J0D01*
G01*
X105521000Y-53848000D02*
G75*
G03*
X105521000Y-53848000I-1000000J0D01*
G01*
X115490500Y-121856500D02*
G75*
G03*
X115490500Y-121856500I-1000000J0D01*
G01*
X122729500Y-121920000D02*
G75*
G03*
X122729500Y-121920000I-1000000J0D01*
G01*
X119110000Y-121856500D02*
G75*
G03*
X119110000Y-121856500I-1000000J0D01*
G01*
X100822000Y-53975000D02*
G75*
G03*
X100822000Y-53975000I-1000000J0D01*
G01*
X106537000Y-50927000D02*
G75*
G03*
X106537000Y-50927000I-1000000J0D01*
G01*
X98282000Y-84709000D02*
G75*
G03*
X98282000Y-84709000I-1000000J0D01*
G01*
X110093000Y-55245000D02*
G75*
G03*
X110093000Y-55245000I-1000000J0D01*
G01*
X99171000Y-119888000D02*
G75*
G03*
X99171000Y-119888000I-1000000J0D01*
G01*
X97139000Y-119888000D02*
G75*
G03*
X97139000Y-119888000I-1000000J0D01*
G01*
X119935500Y-72644000D02*
G75*
G03*
X119935500Y-72644000I-1000000J0D01*
G01*
X102854000Y-86487000D02*
G75*
G03*
X102854000Y-86487000I-1000000J0D01*
G01*
X115300000Y-78994000D02*
G75*
G03*
X115300000Y-78994000I-1000000J0D01*
G01*
X109077000Y-52197000D02*
G75*
G03*
X109077000Y-52197000I-1000000J0D01*
G01*
X116570000Y-57277000D02*
G75*
G03*
X116570000Y-57277000I-1000000J0D01*
G01*
X105835000Y-127603000D02*
X105835000Y-126143000D01*
X105835000Y-126143000D02*
X108795000Y-126143000D01*
X108795000Y-126143000D02*
X108795000Y-127603000D01*
X108795000Y-127603000D02*
X105835000Y-127603000D01*
X108795000Y-119475000D02*
X105835000Y-119475000D01*
X108795000Y-118015000D02*
X108795000Y-119475000D01*
X105835000Y-118015000D02*
X108795000Y-118015000D01*
X105835000Y-119475000D02*
X105835000Y-118015000D01*
X105869000Y-124559000D02*
X105869000Y-121059000D01*
X109269000Y-124559000D02*
X105869000Y-124559000D01*
X109269000Y-121059000D02*
X109269000Y-124559000D01*
X105869000Y-121059000D02*
X109269000Y-121059000D01*
X105835000Y-116364000D02*
X108795000Y-116364000D01*
X105835000Y-117824000D02*
X105835000Y-116364000D01*
X108795000Y-117824000D02*
X105835000Y-117824000D01*
X108795000Y-116364000D02*
X108795000Y-117824000D01*
X105835000Y-126079000D02*
X105835000Y-124619000D01*
X105835000Y-124619000D02*
X108795000Y-124619000D01*
X108795000Y-124619000D02*
X108795000Y-126079000D01*
X108795000Y-126079000D02*
X105835000Y-126079000D01*
X108795000Y-120999000D02*
X105835000Y-120999000D01*
X108795000Y-119539000D02*
X108795000Y-120999000D01*
X105835000Y-119539000D02*
X108795000Y-119539000D01*
X105835000Y-120999000D02*
X105835000Y-119539000D01*
X102219000Y-106934000D02*
G75*
G03*
X102219000Y-106934000I-1000000J0D01*
G01*
X107426000Y-107188000D02*
G75*
G03*
X107426000Y-107188000I-1000000J0D01*
G01*
X109458000Y-108712000D02*
G75*
G03*
X109458000Y-108712000I-1000000J0D01*
G01*
X157479000Y-78393000D02*
X158629000Y-78393000D01*
X157479000Y-76293000D02*
X157479000Y-78393000D01*
X158629000Y-76293000D02*
X157479000Y-76293000D01*
X158629000Y-78393000D02*
X158629000Y-79743000D01*
X158629000Y-74943000D02*
X158629000Y-76293000D01*
X158629000Y-74943000D02*
X159779000Y-73793000D01*
X158629000Y-79743000D02*
X159779000Y-80893000D01*
X159779000Y-73793000D02*
X165729000Y-73793000D01*
X159779000Y-80893000D02*
X165729000Y-80893000D01*
X165729000Y-78393000D02*
X165729000Y-80893000D01*
X166879000Y-78393000D02*
X165729000Y-78393000D01*
X166879000Y-76293000D02*
X166879000Y-78393000D01*
X165729000Y-76293000D02*
X166879000Y-76293000D01*
X165729000Y-73793000D02*
X165729000Y-76293000D01*
X118142000Y-68053500D02*
X118142000Y-65093500D01*
X119602000Y-68053500D02*
X118142000Y-68053500D01*
X119602000Y-65093500D02*
X119602000Y-68053500D01*
X118142000Y-65093500D02*
X119602000Y-65093500D01*
X160750000Y-96818000D02*
X160750000Y-99778000D01*
X159290000Y-96818000D02*
X160750000Y-96818000D01*
X159290000Y-99778000D02*
X159290000Y-96818000D01*
X160750000Y-99778000D02*
X159290000Y-99778000D01*
X159302000Y-72739000D02*
X159302000Y-71279000D01*
X159302000Y-71279000D02*
X162262000Y-71279000D01*
X162262000Y-71279000D02*
X162262000Y-72739000D01*
X162262000Y-72739000D02*
X159302000Y-72739000D01*
X103054500Y-129961500D02*
X98494500Y-129961500D01*
X103054500Y-127721500D02*
X103054500Y-129961500D01*
X98494500Y-127721500D02*
X103054500Y-127721500D01*
X98494500Y-129961500D02*
X98494500Y-127721500D01*
X124924000Y-69183000D02*
X121964000Y-69183000D01*
X124924000Y-67723000D02*
X124924000Y-69183000D01*
X121964000Y-67723000D02*
X124924000Y-67723000D01*
X121964000Y-69183000D02*
X121964000Y-67723000D01*
X120174000Y-68028000D02*
X120174000Y-65068000D01*
X121634000Y-68028000D02*
X120174000Y-68028000D01*
X121634000Y-65068000D02*
X121634000Y-68028000D01*
X120174000Y-65068000D02*
X121634000Y-65068000D01*
X125852000Y-62970000D02*
X125852000Y-66570000D01*
X122052000Y-62970000D02*
X125852000Y-62970000D01*
X122052000Y-66570000D02*
X122052000Y-62970000D01*
X125852000Y-66570000D02*
X122052000Y-66570000D01*
X93301000Y-110839000D02*
X90341000Y-110839000D01*
X93301000Y-109379000D02*
X93301000Y-110839000D01*
X90341000Y-109379000D02*
X93301000Y-109379000D01*
X90341000Y-110839000D02*
X90341000Y-109379000D01*
X93389000Y-109379000D02*
X96349000Y-109379000D01*
X93389000Y-110839000D02*
X93389000Y-109379000D01*
X96349000Y-110839000D02*
X93389000Y-110839000D01*
X96349000Y-109379000D02*
X96349000Y-110839000D01*
X102406000Y-104680000D02*
X105366000Y-104680000D01*
X102406000Y-106140000D02*
X102406000Y-104680000D01*
X105366000Y-106140000D02*
X102406000Y-106140000D01*
X105366000Y-104680000D02*
X105366000Y-106140000D01*
X105366000Y-106331000D02*
X105366000Y-107791000D01*
X105366000Y-107791000D02*
X102406000Y-107791000D01*
X102406000Y-107791000D02*
X102406000Y-106331000D01*
X102406000Y-106331000D02*
X105366000Y-106331000D01*
X120682000Y-89237000D02*
X120682000Y-86277000D01*
X122142000Y-89237000D02*
X120682000Y-89237000D01*
X122142000Y-86277000D02*
X122142000Y-89237000D01*
X120682000Y-86277000D02*
X122142000Y-86277000D01*
X89835400Y-49758600D02*
G75*
G03*
X89835400Y-49758600I-3450000J0D01*
G01*
X164294000Y-53467000D02*
G75*
G03*
X164294000Y-53467000I-5250000J0D01*
G01*
X119844000Y-50800000D02*
G75*
G03*
X119844000Y-50800000I-5250000J0D01*
G01*
X118468000Y-115830000D02*
X118468000Y-120390000D01*
X116228000Y-115830000D02*
X118468000Y-115830000D01*
X116228000Y-120390000D02*
X116228000Y-115830000D01*
X118468000Y-120390000D02*
X116228000Y-120390000D01*
X120489000Y-53339000D02*
X120489000Y-54489000D01*
X122589000Y-53339000D02*
X120489000Y-53339000D01*
X122589000Y-54489000D02*
X122589000Y-53339000D01*
X120489000Y-54489000D02*
X119139000Y-54489000D01*
X123939000Y-54489000D02*
X122589000Y-54489000D01*
X123939000Y-54489000D02*
X125089000Y-55639000D01*
X119139000Y-54489000D02*
X117989000Y-55639000D01*
X125089000Y-55639000D02*
X125089000Y-61589000D01*
X117989000Y-55639000D02*
X117989000Y-61589000D01*
X120489000Y-61589000D02*
X117989000Y-61589000D01*
X120489000Y-62739000D02*
X120489000Y-61589000D01*
X122589000Y-62739000D02*
X120489000Y-62739000D01*
X122589000Y-61589000D02*
X122589000Y-62739000D01*
X125089000Y-61589000D02*
X122589000Y-61589000D01*
X112490000Y-80982000D02*
X111030000Y-80982000D01*
X111030000Y-80982000D02*
X111030000Y-78022000D01*
X111030000Y-78022000D02*
X112490000Y-78022000D01*
X112490000Y-78022000D02*
X112490000Y-80982000D01*
X113635500Y-120173500D02*
X113635500Y-119023500D01*
X111535500Y-120173500D02*
X113635500Y-120173500D01*
X111535500Y-119023500D02*
X111535500Y-120173500D01*
X113635500Y-119023500D02*
X114985500Y-119023500D01*
X110185500Y-119023500D02*
X111535500Y-119023500D01*
X110185500Y-119023500D02*
X109035500Y-117873500D01*
X114985500Y-119023500D02*
X116135500Y-117873500D01*
X109035500Y-117873500D02*
X109035500Y-111923500D01*
X116135500Y-117873500D02*
X116135500Y-111923500D01*
X113635500Y-111923500D02*
X116135500Y-111923500D01*
X113635500Y-110773500D02*
X113635500Y-111923500D01*
X111535500Y-110773500D02*
X113635500Y-110773500D01*
X111535500Y-111923500D02*
X111535500Y-110773500D01*
X109035500Y-111923500D02*
X111535500Y-111923500D01*
M02*
