G04 #@! TF.GenerationSoftware,KiCad,Pcbnew,(5.1.8)-1*
G04 #@! TF.CreationDate,2021-04-07T18:57:29+08:00*
G04 #@! TF.ProjectId,ESP32-CAN,45535033-322d-4434-914e-2e6b69636164,rev?*
G04 #@! TF.SameCoordinates,Original*
G04 #@! TF.FileFunction,Soldermask,Bot*
G04 #@! TF.FilePolarity,Negative*
%FSLAX46Y46*%
G04 Gerber Fmt 4.6, Leading zero omitted, Abs format (unit mm)*
G04 Created by KiCad (PCBNEW (5.1.8)-1) date 2021-04-07 18:57:29*
%MOMM*%
%LPD*%
G01*
G04 APERTURE LIST*
%ADD10C,0.100000*%
%ADD11C,0.150000*%
%ADD12C,0.300000*%
%ADD13C,0.400000*%
%ADD14C,3.302000*%
%ADD15C,1.802000*%
%ADD16C,2.502000*%
%ADD17O,2.102000X2.007000*%
%ADD18O,3.602000X3.602000*%
%ADD19O,2.602000X2.602000*%
%ADD20C,0.902000*%
%ADD21C,6.502000*%
%ADD22C,2.102000*%
G04 APERTURE END LIST*
D10*
D11*
X177002200Y-166007200D02*
X177002200Y-198007200D01*
X285002200Y-198007200D01*
X285002200Y-166007200D01*
X177002200Y-166007200D01*
D10*
D11*
X10000000Y-10000000D02*
X10000000Y-200007200D01*
X287002200Y-200007200D01*
X287002200Y-10000000D01*
X10000000Y-10000000D01*
D10*
D11*
X12000000Y-12000000D02*
X12000000Y-198007200D01*
X285002200Y-198007200D01*
X285002200Y-12000000D01*
X12000000Y-12000000D01*
D10*
D11*
X60000000Y-12000000D02*
X60000000Y-10000000D01*
D10*
D11*
X110000000Y-12000000D02*
X110000000Y-10000000D01*
D10*
D11*
X160000000Y-12000000D02*
X160000000Y-10000000D01*
D10*
D11*
X210000000Y-12000000D02*
X210000000Y-10000000D01*
D10*
D11*
X260000000Y-12000000D02*
X260000000Y-10000000D01*
D10*
D11*
X36065476Y-11588095D02*
X35322619Y-11588095D01*
X35694047Y-11588095D02*
X35694047Y-10288095D01*
X35570238Y-10473809D01*
X35446428Y-10597619D01*
X35322619Y-10659523D01*
D10*
D11*
X85322619Y-10411904D02*
X85384523Y-10350000D01*
X85508333Y-10288095D01*
X85817857Y-10288095D01*
X85941666Y-10350000D01*
X86003571Y-10411904D01*
X86065476Y-10535714D01*
X86065476Y-10659523D01*
X86003571Y-10845238D01*
X85260714Y-11588095D01*
X86065476Y-11588095D01*
D10*
D11*
X135260714Y-10288095D02*
X136065476Y-10288095D01*
X135632142Y-10783333D01*
X135817857Y-10783333D01*
X135941666Y-10845238D01*
X136003571Y-10907142D01*
X136065476Y-11030952D01*
X136065476Y-11340476D01*
X136003571Y-11464285D01*
X135941666Y-11526190D01*
X135817857Y-11588095D01*
X135446428Y-11588095D01*
X135322619Y-11526190D01*
X135260714Y-11464285D01*
D10*
D11*
X185941666Y-10721428D02*
X185941666Y-11588095D01*
X185632142Y-10226190D02*
X185322619Y-11154761D01*
X186127380Y-11154761D01*
D10*
D11*
X236003571Y-10288095D02*
X235384523Y-10288095D01*
X235322619Y-10907142D01*
X235384523Y-10845238D01*
X235508333Y-10783333D01*
X235817857Y-10783333D01*
X235941666Y-10845238D01*
X236003571Y-10907142D01*
X236065476Y-11030952D01*
X236065476Y-11340476D01*
X236003571Y-11464285D01*
X235941666Y-11526190D01*
X235817857Y-11588095D01*
X235508333Y-11588095D01*
X235384523Y-11526190D01*
X235322619Y-11464285D01*
D10*
D11*
X285941666Y-10288095D02*
X285694047Y-10288095D01*
X285570238Y-10350000D01*
X285508333Y-10411904D01*
X285384523Y-10597619D01*
X285322619Y-10845238D01*
X285322619Y-11340476D01*
X285384523Y-11464285D01*
X285446428Y-11526190D01*
X285570238Y-11588095D01*
X285817857Y-11588095D01*
X285941666Y-11526190D01*
X286003571Y-11464285D01*
X286065476Y-11340476D01*
X286065476Y-11030952D01*
X286003571Y-10907142D01*
X285941666Y-10845238D01*
X285817857Y-10783333D01*
X285570238Y-10783333D01*
X285446428Y-10845238D01*
X285384523Y-10907142D01*
X285322619Y-11030952D01*
D10*
D11*
X60000000Y-198007200D02*
X60000000Y-200007200D01*
D10*
D11*
X110000000Y-198007200D02*
X110000000Y-200007200D01*
D10*
D11*
X160000000Y-198007200D02*
X160000000Y-200007200D01*
D10*
D11*
X210000000Y-198007200D02*
X210000000Y-200007200D01*
D10*
D11*
X260000000Y-198007200D02*
X260000000Y-200007200D01*
D10*
D11*
X36065476Y-199595295D02*
X35322619Y-199595295D01*
X35694047Y-199595295D02*
X35694047Y-198295295D01*
X35570238Y-198481009D01*
X35446428Y-198604819D01*
X35322619Y-198666723D01*
D10*
D11*
X85322619Y-198419104D02*
X85384523Y-198357200D01*
X85508333Y-198295295D01*
X85817857Y-198295295D01*
X85941666Y-198357200D01*
X86003571Y-198419104D01*
X86065476Y-198542914D01*
X86065476Y-198666723D01*
X86003571Y-198852438D01*
X85260714Y-199595295D01*
X86065476Y-199595295D01*
D10*
D11*
X135260714Y-198295295D02*
X136065476Y-198295295D01*
X135632142Y-198790533D01*
X135817857Y-198790533D01*
X135941666Y-198852438D01*
X136003571Y-198914342D01*
X136065476Y-199038152D01*
X136065476Y-199347676D01*
X136003571Y-199471485D01*
X135941666Y-199533390D01*
X135817857Y-199595295D01*
X135446428Y-199595295D01*
X135322619Y-199533390D01*
X135260714Y-199471485D01*
D10*
D11*
X185941666Y-198728628D02*
X185941666Y-199595295D01*
X185632142Y-198233390D02*
X185322619Y-199161961D01*
X186127380Y-199161961D01*
D10*
D11*
X236003571Y-198295295D02*
X235384523Y-198295295D01*
X235322619Y-198914342D01*
X235384523Y-198852438D01*
X235508333Y-198790533D01*
X235817857Y-198790533D01*
X235941666Y-198852438D01*
X236003571Y-198914342D01*
X236065476Y-199038152D01*
X236065476Y-199347676D01*
X236003571Y-199471485D01*
X235941666Y-199533390D01*
X235817857Y-199595295D01*
X235508333Y-199595295D01*
X235384523Y-199533390D01*
X235322619Y-199471485D01*
D10*
D11*
X285941666Y-198295295D02*
X285694047Y-198295295D01*
X285570238Y-198357200D01*
X285508333Y-198419104D01*
X285384523Y-198604819D01*
X285322619Y-198852438D01*
X285322619Y-199347676D01*
X285384523Y-199471485D01*
X285446428Y-199533390D01*
X285570238Y-199595295D01*
X285817857Y-199595295D01*
X285941666Y-199533390D01*
X286003571Y-199471485D01*
X286065476Y-199347676D01*
X286065476Y-199038152D01*
X286003571Y-198914342D01*
X285941666Y-198852438D01*
X285817857Y-198790533D01*
X285570238Y-198790533D01*
X285446428Y-198852438D01*
X285384523Y-198914342D01*
X285322619Y-199038152D01*
D10*
D11*
X10000000Y-60000000D02*
X12000000Y-60000000D01*
D10*
D11*
X10000000Y-110000000D02*
X12000000Y-110000000D01*
D10*
D11*
X10000000Y-160000000D02*
X12000000Y-160000000D01*
D10*
D11*
X10690476Y-35216666D02*
X11309523Y-35216666D01*
X10566666Y-35588095D02*
X11000000Y-34288095D01*
X11433333Y-35588095D01*
D10*
D11*
X11092857Y-84907142D02*
X11278571Y-84969047D01*
X11340476Y-85030952D01*
X11402380Y-85154761D01*
X11402380Y-85340476D01*
X11340476Y-85464285D01*
X11278571Y-85526190D01*
X11154761Y-85588095D01*
X10659523Y-85588095D01*
X10659523Y-84288095D01*
X11092857Y-84288095D01*
X11216666Y-84350000D01*
X11278571Y-84411904D01*
X11340476Y-84535714D01*
X11340476Y-84659523D01*
X11278571Y-84783333D01*
X11216666Y-84845238D01*
X11092857Y-84907142D01*
X10659523Y-84907142D01*
D10*
D11*
X11402380Y-135464285D02*
X11340476Y-135526190D01*
X11154761Y-135588095D01*
X11030952Y-135588095D01*
X10845238Y-135526190D01*
X10721428Y-135402380D01*
X10659523Y-135278571D01*
X10597619Y-135030952D01*
X10597619Y-134845238D01*
X10659523Y-134597619D01*
X10721428Y-134473809D01*
X10845238Y-134350000D01*
X11030952Y-134288095D01*
X11154761Y-134288095D01*
X11340476Y-134350000D01*
X11402380Y-134411904D01*
D10*
D11*
X10659523Y-185588095D02*
X10659523Y-184288095D01*
X10969047Y-184288095D01*
X11154761Y-184350000D01*
X11278571Y-184473809D01*
X11340476Y-184597619D01*
X11402380Y-184845238D01*
X11402380Y-185030952D01*
X11340476Y-185278571D01*
X11278571Y-185402380D01*
X11154761Y-185526190D01*
X10969047Y-185588095D01*
X10659523Y-185588095D01*
D10*
D11*
X287002200Y-60000000D02*
X285002200Y-60000000D01*
D10*
D11*
X287002200Y-110000000D02*
X285002200Y-110000000D01*
D10*
D11*
X287002200Y-160000000D02*
X285002200Y-160000000D01*
D10*
D11*
X285692676Y-35216666D02*
X286311723Y-35216666D01*
X285568866Y-35588095D02*
X286002200Y-34288095D01*
X286435533Y-35588095D01*
D10*
D11*
X286095057Y-84907142D02*
X286280771Y-84969047D01*
X286342676Y-85030952D01*
X286404580Y-85154761D01*
X286404580Y-85340476D01*
X286342676Y-85464285D01*
X286280771Y-85526190D01*
X286156961Y-85588095D01*
X285661723Y-85588095D01*
X285661723Y-84288095D01*
X286095057Y-84288095D01*
X286218866Y-84350000D01*
X286280771Y-84411904D01*
X286342676Y-84535714D01*
X286342676Y-84659523D01*
X286280771Y-84783333D01*
X286218866Y-84845238D01*
X286095057Y-84907142D01*
X285661723Y-84907142D01*
D10*
D11*
X286404580Y-135464285D02*
X286342676Y-135526190D01*
X286156961Y-135588095D01*
X286033152Y-135588095D01*
X285847438Y-135526190D01*
X285723628Y-135402380D01*
X285661723Y-135278571D01*
X285599819Y-135030952D01*
X285599819Y-134845238D01*
X285661723Y-134597619D01*
X285723628Y-134473809D01*
X285847438Y-134350000D01*
X286033152Y-134288095D01*
X286156961Y-134288095D01*
X286342676Y-134350000D01*
X286404580Y-134411904D01*
D10*
D11*
X285661723Y-185588095D02*
X285661723Y-184288095D01*
X285971247Y-184288095D01*
X286156961Y-184350000D01*
X286280771Y-184473809D01*
X286342676Y-184597619D01*
X286404580Y-184845238D01*
X286404580Y-185030952D01*
X286342676Y-185278571D01*
X286280771Y-185402380D01*
X286156961Y-185526190D01*
X285971247Y-185588095D01*
X285661723Y-185588095D01*
D10*
D11*
X200434342Y-193785771D02*
X200434342Y-192285771D01*
X200791485Y-192285771D01*
X201005771Y-192357200D01*
X201148628Y-192500057D01*
X201220057Y-192642914D01*
X201291485Y-192928628D01*
X201291485Y-193142914D01*
X201220057Y-193428628D01*
X201148628Y-193571485D01*
X201005771Y-193714342D01*
X200791485Y-193785771D01*
X200434342Y-193785771D01*
X202577200Y-193785771D02*
X202577200Y-193000057D01*
X202505771Y-192857200D01*
X202362914Y-192785771D01*
X202077200Y-192785771D01*
X201934342Y-192857200D01*
X202577200Y-193714342D02*
X202434342Y-193785771D01*
X202077200Y-193785771D01*
X201934342Y-193714342D01*
X201862914Y-193571485D01*
X201862914Y-193428628D01*
X201934342Y-193285771D01*
X202077200Y-193214342D01*
X202434342Y-193214342D01*
X202577200Y-193142914D01*
X203077200Y-192785771D02*
X203648628Y-192785771D01*
X203291485Y-192285771D02*
X203291485Y-193571485D01*
X203362914Y-193714342D01*
X203505771Y-193785771D01*
X203648628Y-193785771D01*
X204720057Y-193714342D02*
X204577200Y-193785771D01*
X204291485Y-193785771D01*
X204148628Y-193714342D01*
X204077200Y-193571485D01*
X204077200Y-193000057D01*
X204148628Y-192857200D01*
X204291485Y-192785771D01*
X204577200Y-192785771D01*
X204720057Y-192857200D01*
X204791485Y-193000057D01*
X204791485Y-193142914D01*
X204077200Y-193285771D01*
X205434342Y-193642914D02*
X205505771Y-193714342D01*
X205434342Y-193785771D01*
X205362914Y-193714342D01*
X205434342Y-193642914D01*
X205434342Y-193785771D01*
X205434342Y-192857200D02*
X205505771Y-192928628D01*
X205434342Y-193000057D01*
X205362914Y-192928628D01*
X205434342Y-192857200D01*
X205434342Y-193000057D01*
D10*
D11*
X177002200Y-194507200D02*
X285002200Y-194507200D01*
D10*
D11*
X178434342Y-196585771D02*
X178434342Y-195085771D01*
X179291485Y-196585771D02*
X178648628Y-195728628D01*
X179291485Y-195085771D02*
X178434342Y-195942914D01*
X179934342Y-196585771D02*
X179934342Y-195585771D01*
X179934342Y-195085771D02*
X179862914Y-195157200D01*
X179934342Y-195228628D01*
X180005771Y-195157200D01*
X179934342Y-195085771D01*
X179934342Y-195228628D01*
X181505771Y-196442914D02*
X181434342Y-196514342D01*
X181220057Y-196585771D01*
X181077200Y-196585771D01*
X180862914Y-196514342D01*
X180720057Y-196371485D01*
X180648628Y-196228628D01*
X180577200Y-195942914D01*
X180577200Y-195728628D01*
X180648628Y-195442914D01*
X180720057Y-195300057D01*
X180862914Y-195157200D01*
X181077200Y-195085771D01*
X181220057Y-195085771D01*
X181434342Y-195157200D01*
X181505771Y-195228628D01*
X182791485Y-196585771D02*
X182791485Y-195800057D01*
X182720057Y-195657200D01*
X182577200Y-195585771D01*
X182291485Y-195585771D01*
X182148628Y-195657200D01*
X182791485Y-196514342D02*
X182648628Y-196585771D01*
X182291485Y-196585771D01*
X182148628Y-196514342D01*
X182077200Y-196371485D01*
X182077200Y-196228628D01*
X182148628Y-196085771D01*
X182291485Y-196014342D01*
X182648628Y-196014342D01*
X182791485Y-195942914D01*
X184148628Y-196585771D02*
X184148628Y-195085771D01*
X184148628Y-196514342D02*
X184005771Y-196585771D01*
X183720057Y-196585771D01*
X183577200Y-196514342D01*
X183505771Y-196442914D01*
X183434342Y-196300057D01*
X183434342Y-195871485D01*
X183505771Y-195728628D01*
X183577200Y-195657200D01*
X183720057Y-195585771D01*
X184005771Y-195585771D01*
X184148628Y-195657200D01*
X186005771Y-195800057D02*
X186505771Y-195800057D01*
X186720057Y-196585771D02*
X186005771Y-196585771D01*
X186005771Y-195085771D01*
X186720057Y-195085771D01*
X187362914Y-196442914D02*
X187434342Y-196514342D01*
X187362914Y-196585771D01*
X187291485Y-196514342D01*
X187362914Y-196442914D01*
X187362914Y-196585771D01*
X188077200Y-196585771D02*
X188077200Y-195085771D01*
X188434342Y-195085771D01*
X188648628Y-195157200D01*
X188791485Y-195300057D01*
X188862914Y-195442914D01*
X188934342Y-195728628D01*
X188934342Y-195942914D01*
X188862914Y-196228628D01*
X188791485Y-196371485D01*
X188648628Y-196514342D01*
X188434342Y-196585771D01*
X188077200Y-196585771D01*
X189577200Y-196442914D02*
X189648628Y-196514342D01*
X189577200Y-196585771D01*
X189505771Y-196514342D01*
X189577200Y-196442914D01*
X189577200Y-196585771D01*
X190220057Y-196157200D02*
X190934342Y-196157200D01*
X190077200Y-196585771D02*
X190577200Y-195085771D01*
X191077200Y-196585771D01*
X191577200Y-196442914D02*
X191648628Y-196514342D01*
X191577200Y-196585771D01*
X191505771Y-196514342D01*
X191577200Y-196442914D01*
X191577200Y-196585771D01*
X194577200Y-196585771D02*
X194577200Y-195085771D01*
X194720057Y-196014342D02*
X195148628Y-196585771D01*
X195148628Y-195585771D02*
X194577200Y-196157200D01*
X195791485Y-196585771D02*
X195791485Y-195585771D01*
X195791485Y-195085771D02*
X195720057Y-195157200D01*
X195791485Y-195228628D01*
X195862914Y-195157200D01*
X195791485Y-195085771D01*
X195791485Y-195228628D01*
X197148628Y-196514342D02*
X197005771Y-196585771D01*
X196720057Y-196585771D01*
X196577200Y-196514342D01*
X196505771Y-196442914D01*
X196434342Y-196300057D01*
X196434342Y-195871485D01*
X196505771Y-195728628D01*
X196577200Y-195657200D01*
X196720057Y-195585771D01*
X197005771Y-195585771D01*
X197148628Y-195657200D01*
X198434342Y-196585771D02*
X198434342Y-195800057D01*
X198362914Y-195657200D01*
X198220057Y-195585771D01*
X197934342Y-195585771D01*
X197791485Y-195657200D01*
X198434342Y-196514342D02*
X198291485Y-196585771D01*
X197934342Y-196585771D01*
X197791485Y-196514342D01*
X197720057Y-196371485D01*
X197720057Y-196228628D01*
X197791485Y-196085771D01*
X197934342Y-196014342D01*
X198291485Y-196014342D01*
X198434342Y-195942914D01*
X199791485Y-196585771D02*
X199791485Y-195085771D01*
X199791485Y-196514342D02*
X199648628Y-196585771D01*
X199362914Y-196585771D01*
X199220057Y-196514342D01*
X199148628Y-196442914D01*
X199077200Y-196300057D01*
X199077200Y-195871485D01*
X199148628Y-195728628D01*
X199220057Y-195657200D01*
X199362914Y-195585771D01*
X199648628Y-195585771D01*
X199791485Y-195657200D01*
X202077200Y-197157200D02*
X202005771Y-197085771D01*
X201862914Y-196871485D01*
X201791485Y-196728628D01*
X201720057Y-196514342D01*
X201648628Y-196157200D01*
X201648628Y-195871485D01*
X201720057Y-195514342D01*
X201791485Y-195300057D01*
X201862914Y-195157200D01*
X202005771Y-194942914D01*
X202077200Y-194871485D01*
X203362914Y-195085771D02*
X202648628Y-195085771D01*
X202577200Y-195800057D01*
X202648628Y-195728628D01*
X202791485Y-195657200D01*
X203148628Y-195657200D01*
X203291485Y-195728628D01*
X203362914Y-195800057D01*
X203434342Y-195942914D01*
X203434342Y-196300057D01*
X203362914Y-196442914D01*
X203291485Y-196514342D01*
X203148628Y-196585771D01*
X202791485Y-196585771D01*
X202648628Y-196514342D01*
X202577200Y-196442914D01*
X204077200Y-196442914D02*
X204148628Y-196514342D01*
X204077200Y-196585771D01*
X204005771Y-196514342D01*
X204077200Y-196442914D01*
X204077200Y-196585771D01*
X205577200Y-196585771D02*
X204720057Y-196585771D01*
X205148628Y-196585771D02*
X205148628Y-195085771D01*
X205005771Y-195300057D01*
X204862914Y-195442914D01*
X204720057Y-195514342D01*
X206220057Y-196442914D02*
X206291485Y-196514342D01*
X206220057Y-196585771D01*
X206148628Y-196514342D01*
X206220057Y-196442914D01*
X206220057Y-196585771D01*
X207148628Y-195728628D02*
X207005771Y-195657200D01*
X206934342Y-195585771D01*
X206862914Y-195442914D01*
X206862914Y-195371485D01*
X206934342Y-195228628D01*
X207005771Y-195157200D01*
X207148628Y-195085771D01*
X207434342Y-195085771D01*
X207577200Y-195157200D01*
X207648628Y-195228628D01*
X207720057Y-195371485D01*
X207720057Y-195442914D01*
X207648628Y-195585771D01*
X207577200Y-195657200D01*
X207434342Y-195728628D01*
X207148628Y-195728628D01*
X207005771Y-195800057D01*
X206934342Y-195871485D01*
X206862914Y-196014342D01*
X206862914Y-196300057D01*
X206934342Y-196442914D01*
X207005771Y-196514342D01*
X207148628Y-196585771D01*
X207434342Y-196585771D01*
X207577200Y-196514342D01*
X207648628Y-196442914D01*
X207720057Y-196300057D01*
X207720057Y-196014342D01*
X207648628Y-195871485D01*
X207577200Y-195800057D01*
X207434342Y-195728628D01*
X208220057Y-197157200D02*
X208291485Y-197085771D01*
X208434342Y-196871485D01*
X208505771Y-196728628D01*
X208577200Y-196514342D01*
X208648628Y-196157200D01*
X208648628Y-195871485D01*
X208577200Y-195514342D01*
X208505771Y-195300057D01*
X208434342Y-195157200D01*
X208291485Y-194942914D01*
X208220057Y-194871485D01*
X209362914Y-196014342D02*
X210505771Y-196014342D01*
X212005771Y-196585771D02*
X211148628Y-196585771D01*
X211577200Y-196585771D02*
X211577200Y-195085771D01*
X211434342Y-195300057D01*
X211291485Y-195442914D01*
X211148628Y-195514342D01*
D10*
D11*
X177002200Y-191507200D02*
X285002200Y-191507200D01*
D10*
D12*
X264411485Y-193785771D02*
X263911485Y-193071485D01*
X263554342Y-193785771D02*
X263554342Y-192285771D01*
X264125771Y-192285771D01*
X264268628Y-192357200D01*
X264340057Y-192428628D01*
X264411485Y-192571485D01*
X264411485Y-192785771D01*
X264340057Y-192928628D01*
X264268628Y-193000057D01*
X264125771Y-193071485D01*
X263554342Y-193071485D01*
X265625771Y-193714342D02*
X265482914Y-193785771D01*
X265197200Y-193785771D01*
X265054342Y-193714342D01*
X264982914Y-193571485D01*
X264982914Y-193000057D01*
X265054342Y-192857200D01*
X265197200Y-192785771D01*
X265482914Y-192785771D01*
X265625771Y-192857200D01*
X265697200Y-193000057D01*
X265697200Y-193142914D01*
X264982914Y-193285771D01*
X266197200Y-192785771D02*
X266554342Y-193785771D01*
X266911485Y-192785771D01*
X267482914Y-193642914D02*
X267554342Y-193714342D01*
X267482914Y-193785771D01*
X267411485Y-193714342D01*
X267482914Y-193642914D01*
X267482914Y-193785771D01*
X267482914Y-192857200D02*
X267554342Y-192928628D01*
X267482914Y-193000057D01*
X267411485Y-192928628D01*
X267482914Y-192857200D01*
X267482914Y-193000057D01*
D10*
D11*
X178362914Y-193714342D02*
X178577200Y-193785771D01*
X178934342Y-193785771D01*
X179077200Y-193714342D01*
X179148628Y-193642914D01*
X179220057Y-193500057D01*
X179220057Y-193357200D01*
X179148628Y-193214342D01*
X179077200Y-193142914D01*
X178934342Y-193071485D01*
X178648628Y-193000057D01*
X178505771Y-192928628D01*
X178434342Y-192857200D01*
X178362914Y-192714342D01*
X178362914Y-192571485D01*
X178434342Y-192428628D01*
X178505771Y-192357200D01*
X178648628Y-192285771D01*
X179005771Y-192285771D01*
X179220057Y-192357200D01*
X179862914Y-193785771D02*
X179862914Y-192785771D01*
X179862914Y-192285771D02*
X179791485Y-192357200D01*
X179862914Y-192428628D01*
X179934342Y-192357200D01*
X179862914Y-192285771D01*
X179862914Y-192428628D01*
X180434342Y-192785771D02*
X181220057Y-192785771D01*
X180434342Y-193785771D01*
X181220057Y-193785771D01*
X182362914Y-193714342D02*
X182220057Y-193785771D01*
X181934342Y-193785771D01*
X181791485Y-193714342D01*
X181720057Y-193571485D01*
X181720057Y-193000057D01*
X181791485Y-192857200D01*
X181934342Y-192785771D01*
X182220057Y-192785771D01*
X182362914Y-192857200D01*
X182434342Y-193000057D01*
X182434342Y-193142914D01*
X181720057Y-193285771D01*
X183077200Y-193642914D02*
X183148628Y-193714342D01*
X183077200Y-193785771D01*
X183005771Y-193714342D01*
X183077200Y-193642914D01*
X183077200Y-193785771D01*
X183077200Y-192857200D02*
X183148628Y-192928628D01*
X183077200Y-193000057D01*
X183005771Y-192928628D01*
X183077200Y-192857200D01*
X183077200Y-193000057D01*
X184862914Y-193357200D02*
X185577200Y-193357200D01*
X184720057Y-193785771D02*
X185220057Y-192285771D01*
X185720057Y-193785771D01*
X186862914Y-192785771D02*
X186862914Y-193785771D01*
X186505771Y-192214342D02*
X186148628Y-193285771D01*
X187077200Y-193285771D01*
D10*
D11*
X263434342Y-196585771D02*
X263434342Y-195085771D01*
X264791485Y-196585771D02*
X264791485Y-195085771D01*
X264791485Y-196514342D02*
X264648628Y-196585771D01*
X264362914Y-196585771D01*
X264220057Y-196514342D01*
X264148628Y-196442914D01*
X264077200Y-196300057D01*
X264077200Y-195871485D01*
X264148628Y-195728628D01*
X264220057Y-195657200D01*
X264362914Y-195585771D01*
X264648628Y-195585771D01*
X264791485Y-195657200D01*
X265505771Y-196442914D02*
X265577200Y-196514342D01*
X265505771Y-196585771D01*
X265434342Y-196514342D01*
X265505771Y-196442914D01*
X265505771Y-196585771D01*
X265505771Y-195657200D02*
X265577200Y-195728628D01*
X265505771Y-195800057D01*
X265434342Y-195728628D01*
X265505771Y-195657200D01*
X265505771Y-195800057D01*
X268148628Y-196585771D02*
X267291485Y-196585771D01*
X267720057Y-196585771D02*
X267720057Y-195085771D01*
X267577200Y-195300057D01*
X267434342Y-195442914D01*
X267291485Y-195514342D01*
X269862914Y-195014342D02*
X268577200Y-196942914D01*
X271148628Y-196585771D02*
X270291485Y-196585771D01*
X270720057Y-196585771D02*
X270720057Y-195085771D01*
X270577200Y-195300057D01*
X270434342Y-195442914D01*
X270291485Y-195514342D01*
D10*
D11*
X177002200Y-187507200D02*
X285002200Y-187507200D01*
D10*
D13*
X178714580Y-188211961D02*
X179857438Y-188211961D01*
X179036009Y-190211961D02*
X179286009Y-188211961D01*
X180274104Y-190211961D02*
X180440771Y-188878628D01*
X180524104Y-188211961D02*
X180416961Y-188307200D01*
X180500295Y-188402438D01*
X180607438Y-188307200D01*
X180524104Y-188211961D01*
X180500295Y-188402438D01*
X181107438Y-188878628D02*
X181869342Y-188878628D01*
X181476485Y-188211961D02*
X181262200Y-189926247D01*
X181333628Y-190116723D01*
X181512200Y-190211961D01*
X181702676Y-190211961D01*
X182655057Y-190211961D02*
X182476485Y-190116723D01*
X182405057Y-189926247D01*
X182619342Y-188211961D01*
X184190771Y-190116723D02*
X183988390Y-190211961D01*
X183607438Y-190211961D01*
X183428866Y-190116723D01*
X183357438Y-189926247D01*
X183452676Y-189164342D01*
X183571723Y-188973866D01*
X183774104Y-188878628D01*
X184155057Y-188878628D01*
X184333628Y-188973866D01*
X184405057Y-189164342D01*
X184381247Y-189354819D01*
X183405057Y-189545295D01*
X185155057Y-190021485D02*
X185238390Y-190116723D01*
X185131247Y-190211961D01*
X185047914Y-190116723D01*
X185155057Y-190021485D01*
X185131247Y-190211961D01*
X185286009Y-188973866D02*
X185369342Y-189069104D01*
X185262200Y-189164342D01*
X185178866Y-189069104D01*
X185286009Y-188973866D01*
X185262200Y-189164342D01*
D10*
D11*
X178934342Y-185600057D02*
X178434342Y-185600057D01*
X178434342Y-186385771D02*
X178434342Y-184885771D01*
X179148628Y-184885771D01*
X179720057Y-186385771D02*
X179720057Y-185385771D01*
X179720057Y-184885771D02*
X179648628Y-184957200D01*
X179720057Y-185028628D01*
X179791485Y-184957200D01*
X179720057Y-184885771D01*
X179720057Y-185028628D01*
X180648628Y-186385771D02*
X180505771Y-186314342D01*
X180434342Y-186171485D01*
X180434342Y-184885771D01*
X181791485Y-186314342D02*
X181648628Y-186385771D01*
X181362914Y-186385771D01*
X181220057Y-186314342D01*
X181148628Y-186171485D01*
X181148628Y-185600057D01*
X181220057Y-185457200D01*
X181362914Y-185385771D01*
X181648628Y-185385771D01*
X181791485Y-185457200D01*
X181862914Y-185600057D01*
X181862914Y-185742914D01*
X181148628Y-185885771D01*
X182505771Y-186242914D02*
X182577200Y-186314342D01*
X182505771Y-186385771D01*
X182434342Y-186314342D01*
X182505771Y-186242914D01*
X182505771Y-186385771D01*
X182505771Y-185457200D02*
X182577200Y-185528628D01*
X182505771Y-185600057D01*
X182434342Y-185528628D01*
X182505771Y-185457200D01*
X182505771Y-185600057D01*
X184362914Y-185600057D02*
X184862914Y-185600057D01*
X185077200Y-186385771D02*
X184362914Y-186385771D01*
X184362914Y-184885771D01*
X185077200Y-184885771D01*
X185648628Y-186314342D02*
X185862914Y-186385771D01*
X186220057Y-186385771D01*
X186362914Y-186314342D01*
X186434342Y-186242914D01*
X186505771Y-186100057D01*
X186505771Y-185957200D01*
X186434342Y-185814342D01*
X186362914Y-185742914D01*
X186220057Y-185671485D01*
X185934342Y-185600057D01*
X185791485Y-185528628D01*
X185720057Y-185457200D01*
X185648628Y-185314342D01*
X185648628Y-185171485D01*
X185720057Y-185028628D01*
X185791485Y-184957200D01*
X185934342Y-184885771D01*
X186291485Y-184885771D01*
X186505771Y-184957200D01*
X187148628Y-186385771D02*
X187148628Y-184885771D01*
X187720057Y-184885771D01*
X187862914Y-184957200D01*
X187934342Y-185028628D01*
X188005771Y-185171485D01*
X188005771Y-185385771D01*
X187934342Y-185528628D01*
X187862914Y-185600057D01*
X187720057Y-185671485D01*
X187148628Y-185671485D01*
X188505771Y-184885771D02*
X189434342Y-184885771D01*
X188934342Y-185457200D01*
X189148628Y-185457200D01*
X189291485Y-185528628D01*
X189362914Y-185600057D01*
X189434342Y-185742914D01*
X189434342Y-186100057D01*
X189362914Y-186242914D01*
X189291485Y-186314342D01*
X189148628Y-186385771D01*
X188720057Y-186385771D01*
X188577200Y-186314342D01*
X188505771Y-186242914D01*
X190005771Y-185028628D02*
X190077200Y-184957200D01*
X190220057Y-184885771D01*
X190577200Y-184885771D01*
X190720057Y-184957200D01*
X190791485Y-185028628D01*
X190862914Y-185171485D01*
X190862914Y-185314342D01*
X190791485Y-185528628D01*
X189934342Y-186385771D01*
X190862914Y-186385771D01*
X191505771Y-185814342D02*
X192648628Y-185814342D01*
X194220057Y-186242914D02*
X194148628Y-186314342D01*
X193934342Y-186385771D01*
X193791485Y-186385771D01*
X193577200Y-186314342D01*
X193434342Y-186171485D01*
X193362914Y-186028628D01*
X193291485Y-185742914D01*
X193291485Y-185528628D01*
X193362914Y-185242914D01*
X193434342Y-185100057D01*
X193577200Y-184957200D01*
X193791485Y-184885771D01*
X193934342Y-184885771D01*
X194148628Y-184957200D01*
X194220057Y-185028628D01*
X194791485Y-185957200D02*
X195505771Y-185957200D01*
X194648628Y-186385771D02*
X195148628Y-184885771D01*
X195648628Y-186385771D01*
X196148628Y-186385771D02*
X196148628Y-184885771D01*
X197005771Y-186385771D01*
X197005771Y-184885771D01*
X197720057Y-186242914D02*
X197791485Y-186314342D01*
X197720057Y-186385771D01*
X197648628Y-186314342D01*
X197720057Y-186242914D01*
X197720057Y-186385771D01*
X198434342Y-186385771D02*
X198434342Y-184885771D01*
X198577200Y-185814342D02*
X199005771Y-186385771D01*
X199005771Y-185385771D02*
X198434342Y-185957200D01*
X199648628Y-186385771D02*
X199648628Y-185385771D01*
X199648628Y-184885771D02*
X199577200Y-184957200D01*
X199648628Y-185028628D01*
X199720057Y-184957200D01*
X199648628Y-184885771D01*
X199648628Y-185028628D01*
X201005771Y-186314342D02*
X200862914Y-186385771D01*
X200577200Y-186385771D01*
X200434342Y-186314342D01*
X200362914Y-186242914D01*
X200291485Y-186100057D01*
X200291485Y-185671485D01*
X200362914Y-185528628D01*
X200434342Y-185457200D01*
X200577200Y-185385771D01*
X200862914Y-185385771D01*
X201005771Y-185457200D01*
X202291485Y-186385771D02*
X202291485Y-185600057D01*
X202220057Y-185457200D01*
X202077200Y-185385771D01*
X201791485Y-185385771D01*
X201648628Y-185457200D01*
X202291485Y-186314342D02*
X202148628Y-186385771D01*
X201791485Y-186385771D01*
X201648628Y-186314342D01*
X201577200Y-186171485D01*
X201577200Y-186028628D01*
X201648628Y-185885771D01*
X201791485Y-185814342D01*
X202148628Y-185814342D01*
X202291485Y-185742914D01*
X203648628Y-186385771D02*
X203648628Y-184885771D01*
X203648628Y-186314342D02*
X203505771Y-186385771D01*
X203220057Y-186385771D01*
X203077200Y-186314342D01*
X203005771Y-186242914D01*
X202934342Y-186100057D01*
X202934342Y-185671485D01*
X203005771Y-185528628D01*
X203077200Y-185457200D01*
X203220057Y-185385771D01*
X203505771Y-185385771D01*
X203648628Y-185457200D01*
X204005771Y-186528628D02*
X205148628Y-186528628D01*
X205505771Y-185385771D02*
X205505771Y-186885771D01*
X205505771Y-185457200D02*
X205648628Y-185385771D01*
X205934342Y-185385771D01*
X206077200Y-185457200D01*
X206148628Y-185528628D01*
X206220057Y-185671485D01*
X206220057Y-186100057D01*
X206148628Y-186242914D01*
X206077200Y-186314342D01*
X205934342Y-186385771D01*
X205648628Y-186385771D01*
X205505771Y-186314342D01*
X207505771Y-186314342D02*
X207362914Y-186385771D01*
X207077200Y-186385771D01*
X206934342Y-186314342D01*
X206862914Y-186242914D01*
X206791485Y-186100057D01*
X206791485Y-185671485D01*
X206862914Y-185528628D01*
X206934342Y-185457200D01*
X207077200Y-185385771D01*
X207362914Y-185385771D01*
X207505771Y-185457200D01*
X208148628Y-186385771D02*
X208148628Y-184885771D01*
X208148628Y-185457200D02*
X208291485Y-185385771D01*
X208577200Y-185385771D01*
X208720057Y-185457200D01*
X208791485Y-185528628D01*
X208862914Y-185671485D01*
X208862914Y-186100057D01*
X208791485Y-186242914D01*
X208720057Y-186314342D01*
X208577200Y-186385771D01*
X208291485Y-186385771D01*
X208148628Y-186314342D01*
D10*
D11*
X177002200Y-181507200D02*
X285002200Y-181507200D01*
D10*
D11*
X178362914Y-183614342D02*
X178577200Y-183685771D01*
X178934342Y-183685771D01*
X179077200Y-183614342D01*
X179148628Y-183542914D01*
X179220057Y-183400057D01*
X179220057Y-183257200D01*
X179148628Y-183114342D01*
X179077200Y-183042914D01*
X178934342Y-182971485D01*
X178648628Y-182900057D01*
X178505771Y-182828628D01*
X178434342Y-182757200D01*
X178362914Y-182614342D01*
X178362914Y-182471485D01*
X178434342Y-182328628D01*
X178505771Y-182257200D01*
X178648628Y-182185771D01*
X179005771Y-182185771D01*
X179220057Y-182257200D01*
X179862914Y-183685771D02*
X179862914Y-182185771D01*
X180505771Y-183685771D02*
X180505771Y-182900057D01*
X180434342Y-182757200D01*
X180291485Y-182685771D01*
X180077200Y-182685771D01*
X179934342Y-182757200D01*
X179862914Y-182828628D01*
X181791485Y-183614342D02*
X181648628Y-183685771D01*
X181362914Y-183685771D01*
X181220057Y-183614342D01*
X181148628Y-183471485D01*
X181148628Y-182900057D01*
X181220057Y-182757200D01*
X181362914Y-182685771D01*
X181648628Y-182685771D01*
X181791485Y-182757200D01*
X181862914Y-182900057D01*
X181862914Y-183042914D01*
X181148628Y-183185771D01*
X183077200Y-183614342D02*
X182934342Y-183685771D01*
X182648628Y-183685771D01*
X182505771Y-183614342D01*
X182434342Y-183471485D01*
X182434342Y-182900057D01*
X182505771Y-182757200D01*
X182648628Y-182685771D01*
X182934342Y-182685771D01*
X183077200Y-182757200D01*
X183148628Y-182900057D01*
X183148628Y-183042914D01*
X182434342Y-183185771D01*
X183577200Y-182685771D02*
X184148628Y-182685771D01*
X183791485Y-182185771D02*
X183791485Y-183471485D01*
X183862914Y-183614342D01*
X184005771Y-183685771D01*
X184148628Y-183685771D01*
X184648628Y-183542914D02*
X184720057Y-183614342D01*
X184648628Y-183685771D01*
X184577200Y-183614342D01*
X184648628Y-183542914D01*
X184648628Y-183685771D01*
X184648628Y-182757200D02*
X184720057Y-182828628D01*
X184648628Y-182900057D01*
X184577200Y-182828628D01*
X184648628Y-182757200D01*
X184648628Y-182900057D01*
D10*
D11*
X197002200Y-191507200D02*
X197002200Y-194507200D01*
D10*
D11*
X261002200Y-191507200D02*
X261002200Y-198007200D01*
D14*
X85693600Y-137500000D03*
X116693600Y-137500000D03*
D15*
X101193600Y-136000000D03*
X101193600Y-133000000D03*
X91193600Y-133000000D03*
X93693600Y-133000000D03*
X96193600Y-133000000D03*
X98693600Y-133000000D03*
X111193600Y-133000000D03*
X108693600Y-133000000D03*
X106193600Y-133000000D03*
X103693600Y-133000000D03*
X111193600Y-136000000D03*
X108693600Y-136000000D03*
X106193600Y-136000000D03*
X103693600Y-136000000D03*
X91193600Y-136000000D03*
X93693600Y-136000000D03*
X96193600Y-136000000D03*
X98693600Y-136000000D03*
X144894300Y-133000000D03*
X147394300Y-133000000D03*
X149894300Y-133000000D03*
X152394300Y-133000000D03*
X154894300Y-133000000D03*
X157394300Y-133000000D03*
X159894300Y-133000000D03*
X142394300Y-133000000D03*
X139894300Y-133000000D03*
X137394300Y-133000000D03*
X134894300Y-133000000D03*
X132394300Y-133000000D03*
X129894300Y-133000000D03*
X144894300Y-136000000D03*
X142394300Y-136000000D03*
X139894300Y-136000000D03*
X137394300Y-136000000D03*
X134894300Y-136000000D03*
X132394300Y-136000000D03*
X129894300Y-136000000D03*
X147394300Y-136000000D03*
X149894300Y-136000000D03*
X152394300Y-136000000D03*
X154894300Y-136000000D03*
X157394300Y-136000000D03*
X159894300Y-136000000D03*
D14*
X165394300Y-137500000D03*
X124394300Y-137500000D03*
G36*
G01*
X118537500Y-79255000D02*
X117936500Y-79255000D01*
G75*
G02*
X117711000Y-79029500I0J225500D01*
G01*
X117711000Y-78578500D01*
G75*
G02*
X117936500Y-78353000I225500J0D01*
G01*
X118537500Y-78353000D01*
G75*
G02*
X118763000Y-78578500I0J-225500D01*
G01*
X118763000Y-79029500D01*
G75*
G02*
X118537500Y-79255000I-225500J0D01*
G01*
G37*
G36*
G01*
X118537500Y-80905000D02*
X117936500Y-80905000D01*
G75*
G02*
X117711000Y-80679500I0J225500D01*
G01*
X117711000Y-80228500D01*
G75*
G02*
X117936500Y-80003000I225500J0D01*
G01*
X118537500Y-80003000D01*
G75*
G02*
X118763000Y-80228500I0J-225500D01*
G01*
X118763000Y-80679500D01*
G75*
G02*
X118537500Y-80905000I-225500J0D01*
G01*
G37*
G36*
G01*
X84853000Y-91623500D02*
X85454000Y-91623500D01*
G75*
G02*
X85679500Y-91849000I0J-225500D01*
G01*
X85679500Y-92300000D01*
G75*
G02*
X85454000Y-92525500I-225500J0D01*
G01*
X84853000Y-92525500D01*
G75*
G02*
X84627500Y-92300000I0J225500D01*
G01*
X84627500Y-91849000D01*
G75*
G02*
X84853000Y-91623500I225500J0D01*
G01*
G37*
G36*
G01*
X84853000Y-89973500D02*
X85454000Y-89973500D01*
G75*
G02*
X85679500Y-90199000I0J-225500D01*
G01*
X85679500Y-90650000D01*
G75*
G02*
X85454000Y-90875500I-225500J0D01*
G01*
X84853000Y-90875500D01*
G75*
G02*
X84627500Y-90650000I0J225500D01*
G01*
X84627500Y-90199000D01*
G75*
G02*
X84853000Y-89973500I225500J0D01*
G01*
G37*
G36*
G01*
X84878000Y-94508000D02*
X85429000Y-94508000D01*
G75*
G02*
X85679500Y-94758500I0J-250500D01*
G01*
X85679500Y-95259500D01*
G75*
G02*
X85429000Y-95510000I-250500J0D01*
G01*
X84878000Y-95510000D01*
G75*
G02*
X84627500Y-95259500I0J250500D01*
G01*
X84627500Y-94758500D01*
G75*
G02*
X84878000Y-94508000I250500J0D01*
G01*
G37*
G36*
G01*
X84878000Y-92958000D02*
X85429000Y-92958000D01*
G75*
G02*
X85679500Y-93208500I0J-250500D01*
G01*
X85679500Y-93709500D01*
G75*
G02*
X85429000Y-93960000I-250500J0D01*
G01*
X84878000Y-93960000D01*
G75*
G02*
X84627500Y-93709500I0J250500D01*
G01*
X84627500Y-93208500D01*
G75*
G02*
X84878000Y-92958000I250500J0D01*
G01*
G37*
G36*
G01*
X111046500Y-87133000D02*
X110695500Y-87133000D01*
G75*
G02*
X110520000Y-86957500I0J175500D01*
G01*
X110520000Y-85156500D01*
G75*
G02*
X110695500Y-84981000I175500J0D01*
G01*
X111046500Y-84981000D01*
G75*
G02*
X111222000Y-85156500I0J-175500D01*
G01*
X111222000Y-86957500D01*
G75*
G02*
X111046500Y-87133000I-175500J0D01*
G01*
G37*
G36*
G01*
X109776500Y-87133000D02*
X109425500Y-87133000D01*
G75*
G02*
X109250000Y-86957500I0J175500D01*
G01*
X109250000Y-85156500D01*
G75*
G02*
X109425500Y-84981000I175500J0D01*
G01*
X109776500Y-84981000D01*
G75*
G02*
X109952000Y-85156500I0J-175500D01*
G01*
X109952000Y-86957500D01*
G75*
G02*
X109776500Y-87133000I-175500J0D01*
G01*
G37*
G36*
G01*
X108506500Y-87133000D02*
X108155500Y-87133000D01*
G75*
G02*
X107980000Y-86957500I0J175500D01*
G01*
X107980000Y-85156500D01*
G75*
G02*
X108155500Y-84981000I175500J0D01*
G01*
X108506500Y-84981000D01*
G75*
G02*
X108682000Y-85156500I0J-175500D01*
G01*
X108682000Y-86957500D01*
G75*
G02*
X108506500Y-87133000I-175500J0D01*
G01*
G37*
G36*
G01*
X107236500Y-87133000D02*
X106885500Y-87133000D01*
G75*
G02*
X106710000Y-86957500I0J175500D01*
G01*
X106710000Y-85156500D01*
G75*
G02*
X106885500Y-84981000I175500J0D01*
G01*
X107236500Y-84981000D01*
G75*
G02*
X107412000Y-85156500I0J-175500D01*
G01*
X107412000Y-86957500D01*
G75*
G02*
X107236500Y-87133000I-175500J0D01*
G01*
G37*
G36*
G01*
X105966500Y-87133000D02*
X105615500Y-87133000D01*
G75*
G02*
X105440000Y-86957500I0J175500D01*
G01*
X105440000Y-85156500D01*
G75*
G02*
X105615500Y-84981000I175500J0D01*
G01*
X105966500Y-84981000D01*
G75*
G02*
X106142000Y-85156500I0J-175500D01*
G01*
X106142000Y-86957500D01*
G75*
G02*
X105966500Y-87133000I-175500J0D01*
G01*
G37*
G36*
G01*
X104696500Y-87133000D02*
X104345500Y-87133000D01*
G75*
G02*
X104170000Y-86957500I0J175500D01*
G01*
X104170000Y-85156500D01*
G75*
G02*
X104345500Y-84981000I175500J0D01*
G01*
X104696500Y-84981000D01*
G75*
G02*
X104872000Y-85156500I0J-175500D01*
G01*
X104872000Y-86957500D01*
G75*
G02*
X104696500Y-87133000I-175500J0D01*
G01*
G37*
G36*
G01*
X103426500Y-87133000D02*
X103075500Y-87133000D01*
G75*
G02*
X102900000Y-86957500I0J175500D01*
G01*
X102900000Y-85156500D01*
G75*
G02*
X103075500Y-84981000I175500J0D01*
G01*
X103426500Y-84981000D01*
G75*
G02*
X103602000Y-85156500I0J-175500D01*
G01*
X103602000Y-86957500D01*
G75*
G02*
X103426500Y-87133000I-175500J0D01*
G01*
G37*
G36*
G01*
X102156500Y-87133000D02*
X101805500Y-87133000D01*
G75*
G02*
X101630000Y-86957500I0J175500D01*
G01*
X101630000Y-85156500D01*
G75*
G02*
X101805500Y-84981000I175500J0D01*
G01*
X102156500Y-84981000D01*
G75*
G02*
X102332000Y-85156500I0J-175500D01*
G01*
X102332000Y-86957500D01*
G75*
G02*
X102156500Y-87133000I-175500J0D01*
G01*
G37*
G36*
G01*
X102156500Y-77833000D02*
X101805500Y-77833000D01*
G75*
G02*
X101630000Y-77657500I0J175500D01*
G01*
X101630000Y-75856500D01*
G75*
G02*
X101805500Y-75681000I175500J0D01*
G01*
X102156500Y-75681000D01*
G75*
G02*
X102332000Y-75856500I0J-175500D01*
G01*
X102332000Y-77657500D01*
G75*
G02*
X102156500Y-77833000I-175500J0D01*
G01*
G37*
G36*
G01*
X103426500Y-77833000D02*
X103075500Y-77833000D01*
G75*
G02*
X102900000Y-77657500I0J175500D01*
G01*
X102900000Y-75856500D01*
G75*
G02*
X103075500Y-75681000I175500J0D01*
G01*
X103426500Y-75681000D01*
G75*
G02*
X103602000Y-75856500I0J-175500D01*
G01*
X103602000Y-77657500D01*
G75*
G02*
X103426500Y-77833000I-175500J0D01*
G01*
G37*
G36*
G01*
X104696500Y-77833000D02*
X104345500Y-77833000D01*
G75*
G02*
X104170000Y-77657500I0J175500D01*
G01*
X104170000Y-75856500D01*
G75*
G02*
X104345500Y-75681000I175500J0D01*
G01*
X104696500Y-75681000D01*
G75*
G02*
X104872000Y-75856500I0J-175500D01*
G01*
X104872000Y-77657500D01*
G75*
G02*
X104696500Y-77833000I-175500J0D01*
G01*
G37*
G36*
G01*
X105966500Y-77833000D02*
X105615500Y-77833000D01*
G75*
G02*
X105440000Y-77657500I0J175500D01*
G01*
X105440000Y-75856500D01*
G75*
G02*
X105615500Y-75681000I175500J0D01*
G01*
X105966500Y-75681000D01*
G75*
G02*
X106142000Y-75856500I0J-175500D01*
G01*
X106142000Y-77657500D01*
G75*
G02*
X105966500Y-77833000I-175500J0D01*
G01*
G37*
G36*
G01*
X107236500Y-77833000D02*
X106885500Y-77833000D01*
G75*
G02*
X106710000Y-77657500I0J175500D01*
G01*
X106710000Y-75856500D01*
G75*
G02*
X106885500Y-75681000I175500J0D01*
G01*
X107236500Y-75681000D01*
G75*
G02*
X107412000Y-75856500I0J-175500D01*
G01*
X107412000Y-77657500D01*
G75*
G02*
X107236500Y-77833000I-175500J0D01*
G01*
G37*
G36*
G01*
X108506500Y-77833000D02*
X108155500Y-77833000D01*
G75*
G02*
X107980000Y-77657500I0J175500D01*
G01*
X107980000Y-75856500D01*
G75*
G02*
X108155500Y-75681000I175500J0D01*
G01*
X108506500Y-75681000D01*
G75*
G02*
X108682000Y-75856500I0J-175500D01*
G01*
X108682000Y-77657500D01*
G75*
G02*
X108506500Y-77833000I-175500J0D01*
G01*
G37*
G36*
G01*
X109776500Y-77833000D02*
X109425500Y-77833000D01*
G75*
G02*
X109250000Y-77657500I0J175500D01*
G01*
X109250000Y-75856500D01*
G75*
G02*
X109425500Y-75681000I175500J0D01*
G01*
X109776500Y-75681000D01*
G75*
G02*
X109952000Y-75856500I0J-175500D01*
G01*
X109952000Y-77657500D01*
G75*
G02*
X109776500Y-77833000I-175500J0D01*
G01*
G37*
G36*
G01*
X111046500Y-77833000D02*
X110695500Y-77833000D01*
G75*
G02*
X110520000Y-77657500I0J175500D01*
G01*
X110520000Y-75856500D01*
G75*
G02*
X110695500Y-75681000I175500J0D01*
G01*
X111046500Y-75681000D01*
G75*
G02*
X111222000Y-75856500I0J-175500D01*
G01*
X111222000Y-77657500D01*
G75*
G02*
X111046500Y-77833000I-175500J0D01*
G01*
G37*
G36*
G01*
X127646000Y-134492000D02*
X125846000Y-134492000D01*
G75*
G02*
X125795000Y-134441000I0J51000D01*
G01*
X125795000Y-131941000D01*
G75*
G02*
X125846000Y-131890000I51000J0D01*
G01*
X127646000Y-131890000D01*
G75*
G02*
X127697000Y-131941000I0J-51000D01*
G01*
X127697000Y-134441000D01*
G75*
G02*
X127646000Y-134492000I-51000J0D01*
G01*
G37*
G36*
G01*
X127646000Y-130492000D02*
X125846000Y-130492000D01*
G75*
G02*
X125795000Y-130441000I0J51000D01*
G01*
X125795000Y-127941000D01*
G75*
G02*
X125846000Y-127890000I51000J0D01*
G01*
X127646000Y-127890000D01*
G75*
G02*
X127697000Y-127941000I0J-51000D01*
G01*
X127697000Y-130441000D01*
G75*
G02*
X127646000Y-130492000I-51000J0D01*
G01*
G37*
G36*
G01*
X89927000Y-119760000D02*
X88127000Y-119760000D01*
G75*
G02*
X88076000Y-119709000I0J51000D01*
G01*
X88076000Y-117209000D01*
G75*
G02*
X88127000Y-117158000I51000J0D01*
G01*
X89927000Y-117158000D01*
G75*
G02*
X89978000Y-117209000I0J-51000D01*
G01*
X89978000Y-119709000D01*
G75*
G02*
X89927000Y-119760000I-51000J0D01*
G01*
G37*
G36*
G01*
X89927000Y-115760000D02*
X88127000Y-115760000D01*
G75*
G02*
X88076000Y-115709000I0J51000D01*
G01*
X88076000Y-113209000D01*
G75*
G02*
X88127000Y-113158000I51000J0D01*
G01*
X89927000Y-113158000D01*
G75*
G02*
X89978000Y-113209000I0J-51000D01*
G01*
X89978000Y-115709000D01*
G75*
G02*
X89927000Y-115760000I-51000J0D01*
G01*
G37*
G36*
G01*
X97293000Y-119760000D02*
X95493000Y-119760000D01*
G75*
G02*
X95442000Y-119709000I0J51000D01*
G01*
X95442000Y-117209000D01*
G75*
G02*
X95493000Y-117158000I51000J0D01*
G01*
X97293000Y-117158000D01*
G75*
G02*
X97344000Y-117209000I0J-51000D01*
G01*
X97344000Y-119709000D01*
G75*
G02*
X97293000Y-119760000I-51000J0D01*
G01*
G37*
G36*
G01*
X97293000Y-115760000D02*
X95493000Y-115760000D01*
G75*
G02*
X95442000Y-115709000I0J51000D01*
G01*
X95442000Y-113209000D01*
G75*
G02*
X95493000Y-113158000I51000J0D01*
G01*
X97293000Y-113158000D01*
G75*
G02*
X97344000Y-113209000I0J-51000D01*
G01*
X97344000Y-115709000D01*
G75*
G02*
X97293000Y-115760000I-51000J0D01*
G01*
G37*
G36*
G01*
X155447000Y-108828000D02*
X155447000Y-110628000D01*
G75*
G02*
X155396000Y-110679000I-51000J0D01*
G01*
X152896000Y-110679000D01*
G75*
G02*
X152845000Y-110628000I0J51000D01*
G01*
X152845000Y-108828000D01*
G75*
G02*
X152896000Y-108777000I51000J0D01*
G01*
X155396000Y-108777000D01*
G75*
G02*
X155447000Y-108828000I0J-51000D01*
G01*
G37*
G36*
G01*
X151447000Y-108828000D02*
X151447000Y-110628000D01*
G75*
G02*
X151396000Y-110679000I-51000J0D01*
G01*
X148896000Y-110679000D01*
G75*
G02*
X148845000Y-110628000I0J51000D01*
G01*
X148845000Y-108828000D01*
G75*
G02*
X148896000Y-108777000I51000J0D01*
G01*
X151396000Y-108777000D01*
G75*
G02*
X151447000Y-108828000I0J-51000D01*
G01*
G37*
G36*
G01*
X89373000Y-104134000D02*
X88173000Y-104134000D01*
G75*
G02*
X88122000Y-104083000I0J51000D01*
G01*
X88122000Y-103183000D01*
G75*
G02*
X88173000Y-103132000I51000J0D01*
G01*
X89373000Y-103132000D01*
G75*
G02*
X89424000Y-103183000I0J-51000D01*
G01*
X89424000Y-104083000D01*
G75*
G02*
X89373000Y-104134000I-51000J0D01*
G01*
G37*
G36*
G01*
X89373000Y-107434000D02*
X88173000Y-107434000D01*
G75*
G02*
X88122000Y-107383000I0J51000D01*
G01*
X88122000Y-106483000D01*
G75*
G02*
X88173000Y-106432000I51000J0D01*
G01*
X89373000Y-106432000D01*
G75*
G02*
X89424000Y-106483000I0J-51000D01*
G01*
X89424000Y-107383000D01*
G75*
G02*
X89373000Y-107434000I-51000J0D01*
G01*
G37*
G36*
G01*
X93610000Y-119760000D02*
X91810000Y-119760000D01*
G75*
G02*
X91759000Y-119709000I0J51000D01*
G01*
X91759000Y-117209000D01*
G75*
G02*
X91810000Y-117158000I51000J0D01*
G01*
X93610000Y-117158000D01*
G75*
G02*
X93661000Y-117209000I0J-51000D01*
G01*
X93661000Y-119709000D01*
G75*
G02*
X93610000Y-119760000I-51000J0D01*
G01*
G37*
G36*
G01*
X93610000Y-115760000D02*
X91810000Y-115760000D01*
G75*
G02*
X91759000Y-115709000I0J51000D01*
G01*
X91759000Y-113209000D01*
G75*
G02*
X91810000Y-113158000I51000J0D01*
G01*
X93610000Y-113158000D01*
G75*
G02*
X93661000Y-113209000I0J-51000D01*
G01*
X93661000Y-115709000D01*
G75*
G02*
X93610000Y-115760000I-51000J0D01*
G01*
G37*
G36*
G01*
X100976000Y-119760000D02*
X99176000Y-119760000D01*
G75*
G02*
X99125000Y-119709000I0J51000D01*
G01*
X99125000Y-117209000D01*
G75*
G02*
X99176000Y-117158000I51000J0D01*
G01*
X100976000Y-117158000D01*
G75*
G02*
X101027000Y-117209000I0J-51000D01*
G01*
X101027000Y-119709000D01*
G75*
G02*
X100976000Y-119760000I-51000J0D01*
G01*
G37*
G36*
G01*
X100976000Y-115760000D02*
X99176000Y-115760000D01*
G75*
G02*
X99125000Y-115709000I0J51000D01*
G01*
X99125000Y-113209000D01*
G75*
G02*
X99176000Y-113158000I51000J0D01*
G01*
X100976000Y-113158000D01*
G75*
G02*
X101027000Y-113209000I0J-51000D01*
G01*
X101027000Y-115709000D01*
G75*
G02*
X100976000Y-115760000I-51000J0D01*
G01*
G37*
G36*
G01*
X100549000Y-104134000D02*
X99349000Y-104134000D01*
G75*
G02*
X99298000Y-104083000I0J51000D01*
G01*
X99298000Y-103183000D01*
G75*
G02*
X99349000Y-103132000I51000J0D01*
G01*
X100549000Y-103132000D01*
G75*
G02*
X100600000Y-103183000I0J-51000D01*
G01*
X100600000Y-104083000D01*
G75*
G02*
X100549000Y-104134000I-51000J0D01*
G01*
G37*
G36*
G01*
X100549000Y-107434000D02*
X99349000Y-107434000D01*
G75*
G02*
X99298000Y-107383000I0J51000D01*
G01*
X99298000Y-106483000D01*
G75*
G02*
X99349000Y-106432000I51000J0D01*
G01*
X100549000Y-106432000D01*
G75*
G02*
X100600000Y-106483000I0J-51000D01*
G01*
X100600000Y-107383000D01*
G75*
G02*
X100549000Y-107434000I-51000J0D01*
G01*
G37*
G36*
G01*
X153295000Y-102708000D02*
X153295000Y-101508000D01*
G75*
G02*
X153346000Y-101457000I51000J0D01*
G01*
X154246000Y-101457000D01*
G75*
G02*
X154297000Y-101508000I0J-51000D01*
G01*
X154297000Y-102708000D01*
G75*
G02*
X154246000Y-102759000I-51000J0D01*
G01*
X153346000Y-102759000D01*
G75*
G02*
X153295000Y-102708000I0J51000D01*
G01*
G37*
G36*
G01*
X149995000Y-102708000D02*
X149995000Y-101508000D01*
G75*
G02*
X150046000Y-101457000I51000J0D01*
G01*
X150946000Y-101457000D01*
G75*
G02*
X150997000Y-101508000I0J-51000D01*
G01*
X150997000Y-102708000D01*
G75*
G02*
X150946000Y-102759000I-51000J0D01*
G01*
X150046000Y-102759000D01*
G75*
G02*
X149995000Y-102708000I0J51000D01*
G01*
G37*
G36*
G01*
X132555000Y-90463000D02*
X132555000Y-92163000D01*
G75*
G02*
X132504000Y-92214000I-51000J0D01*
G01*
X131204000Y-92214000D01*
G75*
G02*
X131153000Y-92163000I0J51000D01*
G01*
X131153000Y-90463000D01*
G75*
G02*
X131204000Y-90412000I51000J0D01*
G01*
X132504000Y-90412000D01*
G75*
G02*
X132555000Y-90463000I0J-51000D01*
G01*
G37*
G36*
G01*
X136055000Y-90463000D02*
X136055000Y-92163000D01*
G75*
G02*
X136004000Y-92214000I-51000J0D01*
G01*
X134704000Y-92214000D01*
G75*
G02*
X134653000Y-92163000I0J51000D01*
G01*
X134653000Y-90463000D01*
G75*
G02*
X134704000Y-90412000I51000J0D01*
G01*
X136004000Y-90412000D01*
G75*
G02*
X136055000Y-90463000I0J-51000D01*
G01*
G37*
G36*
G01*
X141058000Y-74643000D02*
X139358000Y-74643000D01*
G75*
G02*
X139307000Y-74592000I0J51000D01*
G01*
X139307000Y-73292000D01*
G75*
G02*
X139358000Y-73241000I51000J0D01*
G01*
X141058000Y-73241000D01*
G75*
G02*
X141109000Y-73292000I0J-51000D01*
G01*
X141109000Y-74592000D01*
G75*
G02*
X141058000Y-74643000I-51000J0D01*
G01*
G37*
G36*
G01*
X141058000Y-78143000D02*
X139358000Y-78143000D01*
G75*
G02*
X139307000Y-78092000I0J51000D01*
G01*
X139307000Y-76792000D01*
G75*
G02*
X139358000Y-76741000I51000J0D01*
G01*
X141058000Y-76741000D01*
G75*
G02*
X141109000Y-76792000I0J-51000D01*
G01*
X141109000Y-78092000D01*
G75*
G02*
X141058000Y-78143000I-51000J0D01*
G01*
G37*
G36*
G01*
X104659000Y-119760000D02*
X102859000Y-119760000D01*
G75*
G02*
X102808000Y-119709000I0J51000D01*
G01*
X102808000Y-117209000D01*
G75*
G02*
X102859000Y-117158000I51000J0D01*
G01*
X104659000Y-117158000D01*
G75*
G02*
X104710000Y-117209000I0J-51000D01*
G01*
X104710000Y-119709000D01*
G75*
G02*
X104659000Y-119760000I-51000J0D01*
G01*
G37*
G36*
G01*
X104659000Y-115760000D02*
X102859000Y-115760000D01*
G75*
G02*
X102808000Y-115709000I0J51000D01*
G01*
X102808000Y-113209000D01*
G75*
G02*
X102859000Y-113158000I51000J0D01*
G01*
X104659000Y-113158000D01*
G75*
G02*
X104710000Y-113209000I0J-51000D01*
G01*
X104710000Y-115709000D01*
G75*
G02*
X104659000Y-115760000I-51000J0D01*
G01*
G37*
G36*
G01*
X104232000Y-104134000D02*
X103032000Y-104134000D01*
G75*
G02*
X102981000Y-104083000I0J51000D01*
G01*
X102981000Y-103183000D01*
G75*
G02*
X103032000Y-103132000I51000J0D01*
G01*
X104232000Y-103132000D01*
G75*
G02*
X104283000Y-103183000I0J-51000D01*
G01*
X104283000Y-104083000D01*
G75*
G02*
X104232000Y-104134000I-51000J0D01*
G01*
G37*
G36*
G01*
X104232000Y-107434000D02*
X103032000Y-107434000D01*
G75*
G02*
X102981000Y-107383000I0J51000D01*
G01*
X102981000Y-106483000D01*
G75*
G02*
X103032000Y-106432000I51000J0D01*
G01*
X104232000Y-106432000D01*
G75*
G02*
X104283000Y-106483000I0J-51000D01*
G01*
X104283000Y-107383000D01*
G75*
G02*
X104232000Y-107434000I-51000J0D01*
G01*
G37*
G36*
G01*
X115708000Y-119760000D02*
X113908000Y-119760000D01*
G75*
G02*
X113857000Y-119709000I0J51000D01*
G01*
X113857000Y-117209000D01*
G75*
G02*
X113908000Y-117158000I51000J0D01*
G01*
X115708000Y-117158000D01*
G75*
G02*
X115759000Y-117209000I0J-51000D01*
G01*
X115759000Y-119709000D01*
G75*
G02*
X115708000Y-119760000I-51000J0D01*
G01*
G37*
G36*
G01*
X115708000Y-115760000D02*
X113908000Y-115760000D01*
G75*
G02*
X113857000Y-115709000I0J51000D01*
G01*
X113857000Y-113209000D01*
G75*
G02*
X113908000Y-113158000I51000J0D01*
G01*
X115708000Y-113158000D01*
G75*
G02*
X115759000Y-113209000I0J-51000D01*
G01*
X115759000Y-115709000D01*
G75*
G02*
X115708000Y-115760000I-51000J0D01*
G01*
G37*
G36*
G01*
X115281000Y-104134000D02*
X114081000Y-104134000D01*
G75*
G02*
X114030000Y-104083000I0J51000D01*
G01*
X114030000Y-103183000D01*
G75*
G02*
X114081000Y-103132000I51000J0D01*
G01*
X115281000Y-103132000D01*
G75*
G02*
X115332000Y-103183000I0J-51000D01*
G01*
X115332000Y-104083000D01*
G75*
G02*
X115281000Y-104134000I-51000J0D01*
G01*
G37*
G36*
G01*
X115281000Y-107434000D02*
X114081000Y-107434000D01*
G75*
G02*
X114030000Y-107383000I0J51000D01*
G01*
X114030000Y-106483000D01*
G75*
G02*
X114081000Y-106432000I51000J0D01*
G01*
X115281000Y-106432000D01*
G75*
G02*
X115332000Y-106483000I0J-51000D01*
G01*
X115332000Y-107383000D01*
G75*
G02*
X115281000Y-107434000I-51000J0D01*
G01*
G37*
G36*
G01*
X126757000Y-119760000D02*
X124957000Y-119760000D01*
G75*
G02*
X124906000Y-119709000I0J51000D01*
G01*
X124906000Y-117209000D01*
G75*
G02*
X124957000Y-117158000I51000J0D01*
G01*
X126757000Y-117158000D01*
G75*
G02*
X126808000Y-117209000I0J-51000D01*
G01*
X126808000Y-119709000D01*
G75*
G02*
X126757000Y-119760000I-51000J0D01*
G01*
G37*
G36*
G01*
X126757000Y-115760000D02*
X124957000Y-115760000D01*
G75*
G02*
X124906000Y-115709000I0J51000D01*
G01*
X124906000Y-113209000D01*
G75*
G02*
X124957000Y-113158000I51000J0D01*
G01*
X126757000Y-113158000D01*
G75*
G02*
X126808000Y-113209000I0J-51000D01*
G01*
X126808000Y-115709000D01*
G75*
G02*
X126757000Y-115760000I-51000J0D01*
G01*
G37*
G36*
G01*
X123074000Y-119760000D02*
X121274000Y-119760000D01*
G75*
G02*
X121223000Y-119709000I0J51000D01*
G01*
X121223000Y-117209000D01*
G75*
G02*
X121274000Y-117158000I51000J0D01*
G01*
X123074000Y-117158000D01*
G75*
G02*
X123125000Y-117209000I0J-51000D01*
G01*
X123125000Y-119709000D01*
G75*
G02*
X123074000Y-119760000I-51000J0D01*
G01*
G37*
G36*
G01*
X123074000Y-115760000D02*
X121274000Y-115760000D01*
G75*
G02*
X121223000Y-115709000I0J51000D01*
G01*
X121223000Y-113209000D01*
G75*
G02*
X121274000Y-113158000I51000J0D01*
G01*
X123074000Y-113158000D01*
G75*
G02*
X123125000Y-113209000I0J-51000D01*
G01*
X123125000Y-115709000D01*
G75*
G02*
X123074000Y-115760000I-51000J0D01*
G01*
G37*
G36*
G01*
X130440000Y-119760000D02*
X128640000Y-119760000D01*
G75*
G02*
X128589000Y-119709000I0J51000D01*
G01*
X128589000Y-117209000D01*
G75*
G02*
X128640000Y-117158000I51000J0D01*
G01*
X130440000Y-117158000D01*
G75*
G02*
X130491000Y-117209000I0J-51000D01*
G01*
X130491000Y-119709000D01*
G75*
G02*
X130440000Y-119760000I-51000J0D01*
G01*
G37*
G36*
G01*
X130440000Y-115760000D02*
X128640000Y-115760000D01*
G75*
G02*
X128589000Y-115709000I0J51000D01*
G01*
X128589000Y-113209000D01*
G75*
G02*
X128640000Y-113158000I51000J0D01*
G01*
X130440000Y-113158000D01*
G75*
G02*
X130491000Y-113209000I0J-51000D01*
G01*
X130491000Y-115709000D01*
G75*
G02*
X130440000Y-115760000I-51000J0D01*
G01*
G37*
G36*
G01*
X119391000Y-119760000D02*
X117591000Y-119760000D01*
G75*
G02*
X117540000Y-119709000I0J51000D01*
G01*
X117540000Y-117209000D01*
G75*
G02*
X117591000Y-117158000I51000J0D01*
G01*
X119391000Y-117158000D01*
G75*
G02*
X119442000Y-117209000I0J-51000D01*
G01*
X119442000Y-119709000D01*
G75*
G02*
X119391000Y-119760000I-51000J0D01*
G01*
G37*
G36*
G01*
X119391000Y-115760000D02*
X117591000Y-115760000D01*
G75*
G02*
X117540000Y-115709000I0J51000D01*
G01*
X117540000Y-113209000D01*
G75*
G02*
X117591000Y-113158000I51000J0D01*
G01*
X119391000Y-113158000D01*
G75*
G02*
X119442000Y-113209000I0J-51000D01*
G01*
X119442000Y-115709000D01*
G75*
G02*
X119391000Y-115760000I-51000J0D01*
G01*
G37*
G36*
G01*
X108342000Y-119760000D02*
X106542000Y-119760000D01*
G75*
G02*
X106491000Y-119709000I0J51000D01*
G01*
X106491000Y-117209000D01*
G75*
G02*
X106542000Y-117158000I51000J0D01*
G01*
X108342000Y-117158000D01*
G75*
G02*
X108393000Y-117209000I0J-51000D01*
G01*
X108393000Y-119709000D01*
G75*
G02*
X108342000Y-119760000I-51000J0D01*
G01*
G37*
G36*
G01*
X108342000Y-115760000D02*
X106542000Y-115760000D01*
G75*
G02*
X106491000Y-115709000I0J51000D01*
G01*
X106491000Y-113209000D01*
G75*
G02*
X106542000Y-113158000I51000J0D01*
G01*
X108342000Y-113158000D01*
G75*
G02*
X108393000Y-113209000I0J-51000D01*
G01*
X108393000Y-115709000D01*
G75*
G02*
X108342000Y-115760000I-51000J0D01*
G01*
G37*
G36*
G01*
X112025000Y-119760000D02*
X110225000Y-119760000D01*
G75*
G02*
X110174000Y-119709000I0J51000D01*
G01*
X110174000Y-117209000D01*
G75*
G02*
X110225000Y-117158000I51000J0D01*
G01*
X112025000Y-117158000D01*
G75*
G02*
X112076000Y-117209000I0J-51000D01*
G01*
X112076000Y-119709000D01*
G75*
G02*
X112025000Y-119760000I-51000J0D01*
G01*
G37*
G36*
G01*
X112025000Y-115760000D02*
X110225000Y-115760000D01*
G75*
G02*
X110174000Y-115709000I0J51000D01*
G01*
X110174000Y-113209000D01*
G75*
G02*
X110225000Y-113158000I51000J0D01*
G01*
X112025000Y-113158000D01*
G75*
G02*
X112076000Y-113209000I0J-51000D01*
G01*
X112076000Y-115709000D01*
G75*
G02*
X112025000Y-115760000I-51000J0D01*
G01*
G37*
G36*
G01*
X126457000Y-104134000D02*
X125257000Y-104134000D01*
G75*
G02*
X125206000Y-104083000I0J51000D01*
G01*
X125206000Y-103183000D01*
G75*
G02*
X125257000Y-103132000I51000J0D01*
G01*
X126457000Y-103132000D01*
G75*
G02*
X126508000Y-103183000I0J-51000D01*
G01*
X126508000Y-104083000D01*
G75*
G02*
X126457000Y-104134000I-51000J0D01*
G01*
G37*
G36*
G01*
X126457000Y-107434000D02*
X125257000Y-107434000D01*
G75*
G02*
X125206000Y-107383000I0J51000D01*
G01*
X125206000Y-106483000D01*
G75*
G02*
X125257000Y-106432000I51000J0D01*
G01*
X126457000Y-106432000D01*
G75*
G02*
X126508000Y-106483000I0J-51000D01*
G01*
X126508000Y-107383000D01*
G75*
G02*
X126457000Y-107434000I-51000J0D01*
G01*
G37*
G36*
G01*
X122647000Y-104134000D02*
X121447000Y-104134000D01*
G75*
G02*
X121396000Y-104083000I0J51000D01*
G01*
X121396000Y-103183000D01*
G75*
G02*
X121447000Y-103132000I51000J0D01*
G01*
X122647000Y-103132000D01*
G75*
G02*
X122698000Y-103183000I0J-51000D01*
G01*
X122698000Y-104083000D01*
G75*
G02*
X122647000Y-104134000I-51000J0D01*
G01*
G37*
G36*
G01*
X122647000Y-107434000D02*
X121447000Y-107434000D01*
G75*
G02*
X121396000Y-107383000I0J51000D01*
G01*
X121396000Y-106483000D01*
G75*
G02*
X121447000Y-106432000I51000J0D01*
G01*
X122647000Y-106432000D01*
G75*
G02*
X122698000Y-106483000I0J-51000D01*
G01*
X122698000Y-107383000D01*
G75*
G02*
X122647000Y-107434000I-51000J0D01*
G01*
G37*
G36*
G01*
X130013000Y-104134000D02*
X128813000Y-104134000D01*
G75*
G02*
X128762000Y-104083000I0J51000D01*
G01*
X128762000Y-103183000D01*
G75*
G02*
X128813000Y-103132000I51000J0D01*
G01*
X130013000Y-103132000D01*
G75*
G02*
X130064000Y-103183000I0J-51000D01*
G01*
X130064000Y-104083000D01*
G75*
G02*
X130013000Y-104134000I-51000J0D01*
G01*
G37*
G36*
G01*
X130013000Y-107434000D02*
X128813000Y-107434000D01*
G75*
G02*
X128762000Y-107383000I0J51000D01*
G01*
X128762000Y-106483000D01*
G75*
G02*
X128813000Y-106432000I51000J0D01*
G01*
X130013000Y-106432000D01*
G75*
G02*
X130064000Y-106483000I0J-51000D01*
G01*
X130064000Y-107383000D01*
G75*
G02*
X130013000Y-107434000I-51000J0D01*
G01*
G37*
G36*
G01*
X118964000Y-104134000D02*
X117764000Y-104134000D01*
G75*
G02*
X117713000Y-104083000I0J51000D01*
G01*
X117713000Y-103183000D01*
G75*
G02*
X117764000Y-103132000I51000J0D01*
G01*
X118964000Y-103132000D01*
G75*
G02*
X119015000Y-103183000I0J-51000D01*
G01*
X119015000Y-104083000D01*
G75*
G02*
X118964000Y-104134000I-51000J0D01*
G01*
G37*
G36*
G01*
X118964000Y-107434000D02*
X117764000Y-107434000D01*
G75*
G02*
X117713000Y-107383000I0J51000D01*
G01*
X117713000Y-106483000D01*
G75*
G02*
X117764000Y-106432000I51000J0D01*
G01*
X118964000Y-106432000D01*
G75*
G02*
X119015000Y-106483000I0J-51000D01*
G01*
X119015000Y-107383000D01*
G75*
G02*
X118964000Y-107434000I-51000J0D01*
G01*
G37*
G36*
G01*
X107915000Y-104134000D02*
X106715000Y-104134000D01*
G75*
G02*
X106664000Y-104083000I0J51000D01*
G01*
X106664000Y-103183000D01*
G75*
G02*
X106715000Y-103132000I51000J0D01*
G01*
X107915000Y-103132000D01*
G75*
G02*
X107966000Y-103183000I0J-51000D01*
G01*
X107966000Y-104083000D01*
G75*
G02*
X107915000Y-104134000I-51000J0D01*
G01*
G37*
G36*
G01*
X107915000Y-107434000D02*
X106715000Y-107434000D01*
G75*
G02*
X106664000Y-107383000I0J51000D01*
G01*
X106664000Y-106483000D01*
G75*
G02*
X106715000Y-106432000I51000J0D01*
G01*
X107915000Y-106432000D01*
G75*
G02*
X107966000Y-106483000I0J-51000D01*
G01*
X107966000Y-107383000D01*
G75*
G02*
X107915000Y-107434000I-51000J0D01*
G01*
G37*
G36*
G01*
X111598000Y-104134000D02*
X110398000Y-104134000D01*
G75*
G02*
X110347000Y-104083000I0J51000D01*
G01*
X110347000Y-103183000D01*
G75*
G02*
X110398000Y-103132000I51000J0D01*
G01*
X111598000Y-103132000D01*
G75*
G02*
X111649000Y-103183000I0J-51000D01*
G01*
X111649000Y-104083000D01*
G75*
G02*
X111598000Y-104134000I-51000J0D01*
G01*
G37*
G36*
G01*
X111598000Y-107434000D02*
X110398000Y-107434000D01*
G75*
G02*
X110347000Y-107383000I0J51000D01*
G01*
X110347000Y-106483000D01*
G75*
G02*
X110398000Y-106432000I51000J0D01*
G01*
X111598000Y-106432000D01*
G75*
G02*
X111649000Y-106483000I0J-51000D01*
G01*
X111649000Y-107383000D01*
G75*
G02*
X111598000Y-107434000I-51000J0D01*
G01*
G37*
G36*
G01*
X96866000Y-104134000D02*
X95666000Y-104134000D01*
G75*
G02*
X95615000Y-104083000I0J51000D01*
G01*
X95615000Y-103183000D01*
G75*
G02*
X95666000Y-103132000I51000J0D01*
G01*
X96866000Y-103132000D01*
G75*
G02*
X96917000Y-103183000I0J-51000D01*
G01*
X96917000Y-104083000D01*
G75*
G02*
X96866000Y-104134000I-51000J0D01*
G01*
G37*
G36*
G01*
X96866000Y-107434000D02*
X95666000Y-107434000D01*
G75*
G02*
X95615000Y-107383000I0J51000D01*
G01*
X95615000Y-106483000D01*
G75*
G02*
X95666000Y-106432000I51000J0D01*
G01*
X96866000Y-106432000D01*
G75*
G02*
X96917000Y-106483000I0J-51000D01*
G01*
X96917000Y-107383000D01*
G75*
G02*
X96866000Y-107434000I-51000J0D01*
G01*
G37*
G36*
G01*
X93056000Y-104134000D02*
X91856000Y-104134000D01*
G75*
G02*
X91805000Y-104083000I0J51000D01*
G01*
X91805000Y-103183000D01*
G75*
G02*
X91856000Y-103132000I51000J0D01*
G01*
X93056000Y-103132000D01*
G75*
G02*
X93107000Y-103183000I0J-51000D01*
G01*
X93107000Y-104083000D01*
G75*
G02*
X93056000Y-104134000I-51000J0D01*
G01*
G37*
G36*
G01*
X93056000Y-107434000D02*
X91856000Y-107434000D01*
G75*
G02*
X91805000Y-107383000I0J51000D01*
G01*
X91805000Y-106483000D01*
G75*
G02*
X91856000Y-106432000I51000J0D01*
G01*
X93056000Y-106432000D01*
G75*
G02*
X93107000Y-106483000I0J-51000D01*
G01*
X93107000Y-107383000D01*
G75*
G02*
X93056000Y-107434000I-51000J0D01*
G01*
G37*
G36*
G01*
X142742000Y-126259500D02*
X142742000Y-125708500D01*
G75*
G02*
X142992500Y-125458000I250500J0D01*
G01*
X143493500Y-125458000D01*
G75*
G02*
X143744000Y-125708500I0J-250500D01*
G01*
X143744000Y-126259500D01*
G75*
G02*
X143493500Y-126510000I-250500J0D01*
G01*
X142992500Y-126510000D01*
G75*
G02*
X142742000Y-126259500I0J250500D01*
G01*
G37*
G36*
G01*
X144292000Y-126259500D02*
X144292000Y-125708500D01*
G75*
G02*
X144542500Y-125458000I250500J0D01*
G01*
X145043500Y-125458000D01*
G75*
G02*
X145294000Y-125708500I0J-250500D01*
G01*
X145294000Y-126259500D01*
G75*
G02*
X145043500Y-126510000I-250500J0D01*
G01*
X144542500Y-126510000D01*
G75*
G02*
X144292000Y-126259500I0J250500D01*
G01*
G37*
G36*
G01*
X159660500Y-124339000D02*
X159109500Y-124339000D01*
G75*
G02*
X158859000Y-124088500I0J250500D01*
G01*
X158859000Y-123587500D01*
G75*
G02*
X159109500Y-123337000I250500J0D01*
G01*
X159660500Y-123337000D01*
G75*
G02*
X159911000Y-123587500I0J-250500D01*
G01*
X159911000Y-124088500D01*
G75*
G02*
X159660500Y-124339000I-250500J0D01*
G01*
G37*
G36*
G01*
X159660500Y-122789000D02*
X159109500Y-122789000D01*
G75*
G02*
X158859000Y-122538500I0J250500D01*
G01*
X158859000Y-122037500D01*
G75*
G02*
X159109500Y-121787000I250500J0D01*
G01*
X159660500Y-121787000D01*
G75*
G02*
X159911000Y-122037500I0J-250500D01*
G01*
X159911000Y-122538500D01*
G75*
G02*
X159660500Y-122789000I-250500J0D01*
G01*
G37*
G36*
G01*
X144850000Y-115081000D02*
X147250000Y-115081000D01*
G75*
G02*
X147301000Y-115132000I0J-51000D01*
G01*
X147301000Y-117532000D01*
G75*
G02*
X147250000Y-117583000I-51000J0D01*
G01*
X144850000Y-117583000D01*
G75*
G02*
X144799000Y-117532000I0J51000D01*
G01*
X144799000Y-115132000D01*
G75*
G02*
X144850000Y-115081000I51000J0D01*
G01*
G37*
D16*
X146050000Y-123832000D03*
D17*
X162710000Y-102616000D03*
X162710000Y-105156000D03*
G36*
G01*
X163710000Y-108699500D02*
X161710000Y-108699500D01*
G75*
G02*
X161659000Y-108648500I0J51000D01*
G01*
X161659000Y-106743500D01*
G75*
G02*
X161710000Y-106692500I51000J0D01*
G01*
X163710000Y-106692500D01*
G75*
G02*
X163761000Y-106743500I0J-51000D01*
G01*
X163761000Y-108648500D01*
G75*
G02*
X163710000Y-108699500I-51000J0D01*
G01*
G37*
D18*
X146050000Y-105156000D03*
G36*
G01*
X124508500Y-91676000D02*
X124157500Y-91676000D01*
G75*
G02*
X123982000Y-91500500I0J175500D01*
G01*
X123982000Y-89699500D01*
G75*
G02*
X124157500Y-89524000I175500J0D01*
G01*
X124508500Y-89524000D01*
G75*
G02*
X124684000Y-89699500I0J-175500D01*
G01*
X124684000Y-91500500D01*
G75*
G02*
X124508500Y-91676000I-175500J0D01*
G01*
G37*
G36*
G01*
X123238500Y-91676000D02*
X122887500Y-91676000D01*
G75*
G02*
X122712000Y-91500500I0J175500D01*
G01*
X122712000Y-89699500D01*
G75*
G02*
X122887500Y-89524000I175500J0D01*
G01*
X123238500Y-89524000D01*
G75*
G02*
X123414000Y-89699500I0J-175500D01*
G01*
X123414000Y-91500500D01*
G75*
G02*
X123238500Y-91676000I-175500J0D01*
G01*
G37*
G36*
G01*
X121968500Y-91676000D02*
X121617500Y-91676000D01*
G75*
G02*
X121442000Y-91500500I0J175500D01*
G01*
X121442000Y-89699500D01*
G75*
G02*
X121617500Y-89524000I175500J0D01*
G01*
X121968500Y-89524000D01*
G75*
G02*
X122144000Y-89699500I0J-175500D01*
G01*
X122144000Y-91500500D01*
G75*
G02*
X121968500Y-91676000I-175500J0D01*
G01*
G37*
G36*
G01*
X120698500Y-91676000D02*
X120347500Y-91676000D01*
G75*
G02*
X120172000Y-91500500I0J175500D01*
G01*
X120172000Y-89699500D01*
G75*
G02*
X120347500Y-89524000I175500J0D01*
G01*
X120698500Y-89524000D01*
G75*
G02*
X120874000Y-89699500I0J-175500D01*
G01*
X120874000Y-91500500D01*
G75*
G02*
X120698500Y-91676000I-175500J0D01*
G01*
G37*
G36*
G01*
X119428500Y-91676000D02*
X119077500Y-91676000D01*
G75*
G02*
X118902000Y-91500500I0J175500D01*
G01*
X118902000Y-89699500D01*
G75*
G02*
X119077500Y-89524000I175500J0D01*
G01*
X119428500Y-89524000D01*
G75*
G02*
X119604000Y-89699500I0J-175500D01*
G01*
X119604000Y-91500500D01*
G75*
G02*
X119428500Y-91676000I-175500J0D01*
G01*
G37*
G36*
G01*
X118158500Y-91676000D02*
X117807500Y-91676000D01*
G75*
G02*
X117632000Y-91500500I0J175500D01*
G01*
X117632000Y-89699500D01*
G75*
G02*
X117807500Y-89524000I175500J0D01*
G01*
X118158500Y-89524000D01*
G75*
G02*
X118334000Y-89699500I0J-175500D01*
G01*
X118334000Y-91500500D01*
G75*
G02*
X118158500Y-91676000I-175500J0D01*
G01*
G37*
G36*
G01*
X116888500Y-91676000D02*
X116537500Y-91676000D01*
G75*
G02*
X116362000Y-91500500I0J175500D01*
G01*
X116362000Y-89699500D01*
G75*
G02*
X116537500Y-89524000I175500J0D01*
G01*
X116888500Y-89524000D01*
G75*
G02*
X117064000Y-89699500I0J-175500D01*
G01*
X117064000Y-91500500D01*
G75*
G02*
X116888500Y-91676000I-175500J0D01*
G01*
G37*
G36*
G01*
X115618500Y-91676000D02*
X115267500Y-91676000D01*
G75*
G02*
X115092000Y-91500500I0J175500D01*
G01*
X115092000Y-89699500D01*
G75*
G02*
X115267500Y-89524000I175500J0D01*
G01*
X115618500Y-89524000D01*
G75*
G02*
X115794000Y-89699500I0J-175500D01*
G01*
X115794000Y-91500500D01*
G75*
G02*
X115618500Y-91676000I-175500J0D01*
G01*
G37*
G36*
G01*
X114348500Y-91676000D02*
X113997500Y-91676000D01*
G75*
G02*
X113822000Y-91500500I0J175500D01*
G01*
X113822000Y-89699500D01*
G75*
G02*
X113997500Y-89524000I175500J0D01*
G01*
X114348500Y-89524000D01*
G75*
G02*
X114524000Y-89699500I0J-175500D01*
G01*
X114524000Y-91500500D01*
G75*
G02*
X114348500Y-91676000I-175500J0D01*
G01*
G37*
G36*
G01*
X113078500Y-91676000D02*
X112727500Y-91676000D01*
G75*
G02*
X112552000Y-91500500I0J175500D01*
G01*
X112552000Y-89699500D01*
G75*
G02*
X112727500Y-89524000I175500J0D01*
G01*
X113078500Y-89524000D01*
G75*
G02*
X113254000Y-89699500I0J-175500D01*
G01*
X113254000Y-91500500D01*
G75*
G02*
X113078500Y-91676000I-175500J0D01*
G01*
G37*
G36*
G01*
X111808500Y-91676000D02*
X111457500Y-91676000D01*
G75*
G02*
X111282000Y-91500500I0J175500D01*
G01*
X111282000Y-89699500D01*
G75*
G02*
X111457500Y-89524000I175500J0D01*
G01*
X111808500Y-89524000D01*
G75*
G02*
X111984000Y-89699500I0J-175500D01*
G01*
X111984000Y-91500500D01*
G75*
G02*
X111808500Y-91676000I-175500J0D01*
G01*
G37*
G36*
G01*
X110538500Y-91676000D02*
X110187500Y-91676000D01*
G75*
G02*
X110012000Y-91500500I0J175500D01*
G01*
X110012000Y-89699500D01*
G75*
G02*
X110187500Y-89524000I175500J0D01*
G01*
X110538500Y-89524000D01*
G75*
G02*
X110714000Y-89699500I0J-175500D01*
G01*
X110714000Y-91500500D01*
G75*
G02*
X110538500Y-91676000I-175500J0D01*
G01*
G37*
G36*
G01*
X109268500Y-91676000D02*
X108917500Y-91676000D01*
G75*
G02*
X108742000Y-91500500I0J175500D01*
G01*
X108742000Y-89699500D01*
G75*
G02*
X108917500Y-89524000I175500J0D01*
G01*
X109268500Y-89524000D01*
G75*
G02*
X109444000Y-89699500I0J-175500D01*
G01*
X109444000Y-91500500D01*
G75*
G02*
X109268500Y-91676000I-175500J0D01*
G01*
G37*
G36*
G01*
X107998500Y-91676000D02*
X107647500Y-91676000D01*
G75*
G02*
X107472000Y-91500500I0J175500D01*
G01*
X107472000Y-89699500D01*
G75*
G02*
X107647500Y-89524000I175500J0D01*
G01*
X107998500Y-89524000D01*
G75*
G02*
X108174000Y-89699500I0J-175500D01*
G01*
X108174000Y-91500500D01*
G75*
G02*
X107998500Y-91676000I-175500J0D01*
G01*
G37*
G36*
G01*
X107998500Y-100976000D02*
X107647500Y-100976000D01*
G75*
G02*
X107472000Y-100800500I0J175500D01*
G01*
X107472000Y-98999500D01*
G75*
G02*
X107647500Y-98824000I175500J0D01*
G01*
X107998500Y-98824000D01*
G75*
G02*
X108174000Y-98999500I0J-175500D01*
G01*
X108174000Y-100800500D01*
G75*
G02*
X107998500Y-100976000I-175500J0D01*
G01*
G37*
G36*
G01*
X109268500Y-100976000D02*
X108917500Y-100976000D01*
G75*
G02*
X108742000Y-100800500I0J175500D01*
G01*
X108742000Y-98999500D01*
G75*
G02*
X108917500Y-98824000I175500J0D01*
G01*
X109268500Y-98824000D01*
G75*
G02*
X109444000Y-98999500I0J-175500D01*
G01*
X109444000Y-100800500D01*
G75*
G02*
X109268500Y-100976000I-175500J0D01*
G01*
G37*
G36*
G01*
X110538500Y-100976000D02*
X110187500Y-100976000D01*
G75*
G02*
X110012000Y-100800500I0J175500D01*
G01*
X110012000Y-98999500D01*
G75*
G02*
X110187500Y-98824000I175500J0D01*
G01*
X110538500Y-98824000D01*
G75*
G02*
X110714000Y-98999500I0J-175500D01*
G01*
X110714000Y-100800500D01*
G75*
G02*
X110538500Y-100976000I-175500J0D01*
G01*
G37*
G36*
G01*
X111808500Y-100976000D02*
X111457500Y-100976000D01*
G75*
G02*
X111282000Y-100800500I0J175500D01*
G01*
X111282000Y-98999500D01*
G75*
G02*
X111457500Y-98824000I175500J0D01*
G01*
X111808500Y-98824000D01*
G75*
G02*
X111984000Y-98999500I0J-175500D01*
G01*
X111984000Y-100800500D01*
G75*
G02*
X111808500Y-100976000I-175500J0D01*
G01*
G37*
G36*
G01*
X113078500Y-100976000D02*
X112727500Y-100976000D01*
G75*
G02*
X112552000Y-100800500I0J175500D01*
G01*
X112552000Y-98999500D01*
G75*
G02*
X112727500Y-98824000I175500J0D01*
G01*
X113078500Y-98824000D01*
G75*
G02*
X113254000Y-98999500I0J-175500D01*
G01*
X113254000Y-100800500D01*
G75*
G02*
X113078500Y-100976000I-175500J0D01*
G01*
G37*
G36*
G01*
X114348500Y-100976000D02*
X113997500Y-100976000D01*
G75*
G02*
X113822000Y-100800500I0J175500D01*
G01*
X113822000Y-98999500D01*
G75*
G02*
X113997500Y-98824000I175500J0D01*
G01*
X114348500Y-98824000D01*
G75*
G02*
X114524000Y-98999500I0J-175500D01*
G01*
X114524000Y-100800500D01*
G75*
G02*
X114348500Y-100976000I-175500J0D01*
G01*
G37*
G36*
G01*
X115618500Y-100976000D02*
X115267500Y-100976000D01*
G75*
G02*
X115092000Y-100800500I0J175500D01*
G01*
X115092000Y-98999500D01*
G75*
G02*
X115267500Y-98824000I175500J0D01*
G01*
X115618500Y-98824000D01*
G75*
G02*
X115794000Y-98999500I0J-175500D01*
G01*
X115794000Y-100800500D01*
G75*
G02*
X115618500Y-100976000I-175500J0D01*
G01*
G37*
G36*
G01*
X116888500Y-100976000D02*
X116537500Y-100976000D01*
G75*
G02*
X116362000Y-100800500I0J175500D01*
G01*
X116362000Y-98999500D01*
G75*
G02*
X116537500Y-98824000I175500J0D01*
G01*
X116888500Y-98824000D01*
G75*
G02*
X117064000Y-98999500I0J-175500D01*
G01*
X117064000Y-100800500D01*
G75*
G02*
X116888500Y-100976000I-175500J0D01*
G01*
G37*
G36*
G01*
X118158500Y-100976000D02*
X117807500Y-100976000D01*
G75*
G02*
X117632000Y-100800500I0J175500D01*
G01*
X117632000Y-98999500D01*
G75*
G02*
X117807500Y-98824000I175500J0D01*
G01*
X118158500Y-98824000D01*
G75*
G02*
X118334000Y-98999500I0J-175500D01*
G01*
X118334000Y-100800500D01*
G75*
G02*
X118158500Y-100976000I-175500J0D01*
G01*
G37*
G36*
G01*
X119428500Y-100976000D02*
X119077500Y-100976000D01*
G75*
G02*
X118902000Y-100800500I0J175500D01*
G01*
X118902000Y-98999500D01*
G75*
G02*
X119077500Y-98824000I175500J0D01*
G01*
X119428500Y-98824000D01*
G75*
G02*
X119604000Y-98999500I0J-175500D01*
G01*
X119604000Y-100800500D01*
G75*
G02*
X119428500Y-100976000I-175500J0D01*
G01*
G37*
G36*
G01*
X120698500Y-100976000D02*
X120347500Y-100976000D01*
G75*
G02*
X120172000Y-100800500I0J175500D01*
G01*
X120172000Y-98999500D01*
G75*
G02*
X120347500Y-98824000I175500J0D01*
G01*
X120698500Y-98824000D01*
G75*
G02*
X120874000Y-98999500I0J-175500D01*
G01*
X120874000Y-100800500D01*
G75*
G02*
X120698500Y-100976000I-175500J0D01*
G01*
G37*
G36*
G01*
X121968500Y-100976000D02*
X121617500Y-100976000D01*
G75*
G02*
X121442000Y-100800500I0J175500D01*
G01*
X121442000Y-98999500D01*
G75*
G02*
X121617500Y-98824000I175500J0D01*
G01*
X121968500Y-98824000D01*
G75*
G02*
X122144000Y-98999500I0J-175500D01*
G01*
X122144000Y-100800500D01*
G75*
G02*
X121968500Y-100976000I-175500J0D01*
G01*
G37*
G36*
G01*
X123238500Y-100976000D02*
X122887500Y-100976000D01*
G75*
G02*
X122712000Y-100800500I0J175500D01*
G01*
X122712000Y-98999500D01*
G75*
G02*
X122887500Y-98824000I175500J0D01*
G01*
X123238500Y-98824000D01*
G75*
G02*
X123414000Y-98999500I0J-175500D01*
G01*
X123414000Y-100800500D01*
G75*
G02*
X123238500Y-100976000I-175500J0D01*
G01*
G37*
G36*
G01*
X124508500Y-100976000D02*
X124157500Y-100976000D01*
G75*
G02*
X123982000Y-100800500I0J175500D01*
G01*
X123982000Y-98999500D01*
G75*
G02*
X124157500Y-98824000I175500J0D01*
G01*
X124508500Y-98824000D01*
G75*
G02*
X124684000Y-98999500I0J-175500D01*
G01*
X124684000Y-100800500D01*
G75*
G02*
X124508500Y-100976000I-175500J0D01*
G01*
G37*
G36*
G01*
X144101500Y-74391000D02*
X146601500Y-74391000D01*
G75*
G02*
X146652500Y-74442000I0J-51000D01*
G01*
X146652500Y-76942000D01*
G75*
G02*
X146601500Y-76993000I-51000J0D01*
G01*
X144101500Y-76993000D01*
G75*
G02*
X144050500Y-76942000I0J51000D01*
G01*
X144050500Y-74442000D01*
G75*
G02*
X144101500Y-74391000I51000J0D01*
G01*
G37*
D19*
X143351500Y-69692000D03*
X131151500Y-69692000D03*
X131151500Y-81692000D03*
X143351500Y-81692000D03*
G36*
G01*
X152520000Y-105964500D02*
X152520000Y-105363500D01*
G75*
G02*
X152745500Y-105138000I225500J0D01*
G01*
X153196500Y-105138000D01*
G75*
G02*
X153422000Y-105363500I0J-225500D01*
G01*
X153422000Y-105964500D01*
G75*
G02*
X153196500Y-106190000I-225500J0D01*
G01*
X152745500Y-106190000D01*
G75*
G02*
X152520000Y-105964500I0J225500D01*
G01*
G37*
G36*
G01*
X150870000Y-105964500D02*
X150870000Y-105363500D01*
G75*
G02*
X151095500Y-105138000I225500J0D01*
G01*
X151546500Y-105138000D01*
G75*
G02*
X151772000Y-105363500I0J-225500D01*
G01*
X151772000Y-105964500D01*
G75*
G02*
X151546500Y-106190000I-225500J0D01*
G01*
X151095500Y-106190000D01*
G75*
G02*
X150870000Y-105964500I0J225500D01*
G01*
G37*
G36*
G01*
X152520000Y-104440500D02*
X152520000Y-103839500D01*
G75*
G02*
X152745500Y-103614000I225500J0D01*
G01*
X153196500Y-103614000D01*
G75*
G02*
X153422000Y-103839500I0J-225500D01*
G01*
X153422000Y-104440500D01*
G75*
G02*
X153196500Y-104666000I-225500J0D01*
G01*
X152745500Y-104666000D01*
G75*
G02*
X152520000Y-104440500I0J225500D01*
G01*
G37*
G36*
G01*
X150870000Y-104440500D02*
X150870000Y-103839500D01*
G75*
G02*
X151095500Y-103614000I225500J0D01*
G01*
X151546500Y-103614000D01*
G75*
G02*
X151772000Y-103839500I0J-225500D01*
G01*
X151772000Y-104440500D01*
G75*
G02*
X151546500Y-104666000I-225500J0D01*
G01*
X151095500Y-104666000D01*
G75*
G02*
X150870000Y-104440500I0J225500D01*
G01*
G37*
G36*
G01*
X151872000Y-106912500D02*
X151872000Y-107463500D01*
G75*
G02*
X151621500Y-107714000I-250500J0D01*
G01*
X151120500Y-107714000D01*
G75*
G02*
X150870000Y-107463500I0J250500D01*
G01*
X150870000Y-106912500D01*
G75*
G02*
X151120500Y-106662000I250500J0D01*
G01*
X151621500Y-106662000D01*
G75*
G02*
X151872000Y-106912500I0J-250500D01*
G01*
G37*
G36*
G01*
X153422000Y-106912500D02*
X153422000Y-107463500D01*
G75*
G02*
X153171500Y-107714000I-250500J0D01*
G01*
X152670500Y-107714000D01*
G75*
G02*
X152420000Y-107463500I0J250500D01*
G01*
X152420000Y-106912500D01*
G75*
G02*
X152670500Y-106662000I250500J0D01*
G01*
X153171500Y-106662000D01*
G75*
G02*
X153422000Y-106912500I0J-250500D01*
G01*
G37*
X139604000Y-89249000D03*
X139604000Y-101449000D03*
X127604000Y-101449000D03*
X127604000Y-89249000D03*
G36*
G01*
X132303000Y-88499000D02*
X132303000Y-85999000D01*
G75*
G02*
X132354000Y-85948000I51000J0D01*
G01*
X134854000Y-85948000D01*
G75*
G02*
X134905000Y-85999000I0J-51000D01*
G01*
X134905000Y-88499000D01*
G75*
G02*
X134854000Y-88550000I-51000J0D01*
G01*
X132354000Y-88550000D01*
G75*
G02*
X132303000Y-88499000I0J51000D01*
G01*
G37*
G36*
G01*
X95222250Y-110662000D02*
X95785750Y-110662000D01*
G75*
G02*
X96030000Y-110906250I0J-244250D01*
G01*
X96030000Y-111394750D01*
G75*
G02*
X95785750Y-111639000I-244250J0D01*
G01*
X95222250Y-111639000D01*
G75*
G02*
X94978000Y-111394750I0J244250D01*
G01*
X94978000Y-110906250D01*
G75*
G02*
X95222250Y-110662000I244250J0D01*
G01*
G37*
G36*
G01*
X95222250Y-109087000D02*
X95785750Y-109087000D01*
G75*
G02*
X96030000Y-109331250I0J-244250D01*
G01*
X96030000Y-109819750D01*
G75*
G02*
X95785750Y-110064000I-244250J0D01*
G01*
X95222250Y-110064000D01*
G75*
G02*
X94978000Y-109819750I0J244250D01*
G01*
X94978000Y-109331250D01*
G75*
G02*
X95222250Y-109087000I244250J0D01*
G01*
G37*
G36*
G01*
X113618500Y-109087000D02*
X114219500Y-109087000D01*
G75*
G02*
X114445000Y-109312500I0J-225500D01*
G01*
X114445000Y-109763500D01*
G75*
G02*
X114219500Y-109989000I-225500J0D01*
G01*
X113618500Y-109989000D01*
G75*
G02*
X113393000Y-109763500I0J225500D01*
G01*
X113393000Y-109312500D01*
G75*
G02*
X113618500Y-109087000I225500J0D01*
G01*
G37*
G36*
G01*
X113618500Y-110737000D02*
X114219500Y-110737000D01*
G75*
G02*
X114445000Y-110962500I0J-225500D01*
G01*
X114445000Y-111413500D01*
G75*
G02*
X114219500Y-111639000I-225500J0D01*
G01*
X113618500Y-111639000D01*
G75*
G02*
X113393000Y-111413500I0J225500D01*
G01*
X113393000Y-110962500D01*
G75*
G02*
X113618500Y-110737000I225500J0D01*
G01*
G37*
G36*
G01*
X117955250Y-82976000D02*
X118518750Y-82976000D01*
G75*
G02*
X118763000Y-83220250I0J-244250D01*
G01*
X118763000Y-83708750D01*
G75*
G02*
X118518750Y-83953000I-244250J0D01*
G01*
X117955250Y-83953000D01*
G75*
G02*
X117711000Y-83708750I0J244250D01*
G01*
X117711000Y-83220250D01*
G75*
G02*
X117955250Y-82976000I244250J0D01*
G01*
G37*
G36*
G01*
X117955250Y-81401000D02*
X118518750Y-81401000D01*
G75*
G02*
X118763000Y-81645250I0J-244250D01*
G01*
X118763000Y-82133750D01*
G75*
G02*
X118518750Y-82378000I-244250J0D01*
G01*
X117955250Y-82378000D01*
G75*
G02*
X117711000Y-82133750I0J244250D01*
G01*
X117711000Y-81645250D01*
G75*
G02*
X117955250Y-81401000I244250J0D01*
G01*
G37*
G36*
G01*
X86895750Y-95586000D02*
X86332250Y-95586000D01*
G75*
G02*
X86088000Y-95341750I0J244250D01*
G01*
X86088000Y-94853250D01*
G75*
G02*
X86332250Y-94609000I244250J0D01*
G01*
X86895750Y-94609000D01*
G75*
G02*
X87140000Y-94853250I0J-244250D01*
G01*
X87140000Y-95341750D01*
G75*
G02*
X86895750Y-95586000I-244250J0D01*
G01*
G37*
G36*
G01*
X86895750Y-97161000D02*
X86332250Y-97161000D01*
G75*
G02*
X86088000Y-96916750I0J244250D01*
G01*
X86088000Y-96428250D01*
G75*
G02*
X86332250Y-96184000I244250J0D01*
G01*
X86895750Y-96184000D01*
G75*
G02*
X87140000Y-96428250I0J-244250D01*
G01*
X87140000Y-96916750D01*
G75*
G02*
X86895750Y-97161000I-244250J0D01*
G01*
G37*
G36*
G01*
X99921250Y-75686000D02*
X100484750Y-75686000D01*
G75*
G02*
X100729000Y-75930250I0J-244250D01*
G01*
X100729000Y-76418750D01*
G75*
G02*
X100484750Y-76663000I-244250J0D01*
G01*
X99921250Y-76663000D01*
G75*
G02*
X99677000Y-76418750I0J244250D01*
G01*
X99677000Y-75930250D01*
G75*
G02*
X99921250Y-75686000I244250J0D01*
G01*
G37*
G36*
G01*
X99921250Y-77261000D02*
X100484750Y-77261000D01*
G75*
G02*
X100729000Y-77505250I0J-244250D01*
G01*
X100729000Y-77993750D01*
G75*
G02*
X100484750Y-78238000I-244250J0D01*
G01*
X99921250Y-78238000D01*
G75*
G02*
X99677000Y-77993750I0J244250D01*
G01*
X99677000Y-77505250D01*
G75*
G02*
X99921250Y-77261000I244250J0D01*
G01*
G37*
G36*
G01*
X91412250Y-110636500D02*
X91975750Y-110636500D01*
G75*
G02*
X92220000Y-110880750I0J-244250D01*
G01*
X92220000Y-111369250D01*
G75*
G02*
X91975750Y-111613500I-244250J0D01*
G01*
X91412250Y-111613500D01*
G75*
G02*
X91168000Y-111369250I0J244250D01*
G01*
X91168000Y-110880750D01*
G75*
G02*
X91412250Y-110636500I244250J0D01*
G01*
G37*
G36*
G01*
X91412250Y-109061500D02*
X91975750Y-109061500D01*
G75*
G02*
X92220000Y-109305750I0J-244250D01*
G01*
X92220000Y-109794250D01*
G75*
G02*
X91975750Y-110038500I-244250J0D01*
G01*
X91412250Y-110038500D01*
G75*
G02*
X91168000Y-109794250I0J244250D01*
G01*
X91168000Y-109305750D01*
G75*
G02*
X91412250Y-109061500I244250J0D01*
G01*
G37*
G36*
G01*
X97436750Y-110064000D02*
X96873250Y-110064000D01*
G75*
G02*
X96629000Y-109819750I0J244250D01*
G01*
X96629000Y-109331250D01*
G75*
G02*
X96873250Y-109087000I244250J0D01*
G01*
X97436750Y-109087000D01*
G75*
G02*
X97681000Y-109331250I0J-244250D01*
G01*
X97681000Y-109819750D01*
G75*
G02*
X97436750Y-110064000I-244250J0D01*
G01*
G37*
G36*
G01*
X97436750Y-111639000D02*
X96873250Y-111639000D01*
G75*
G02*
X96629000Y-111394750I0J244250D01*
G01*
X96629000Y-110906250D01*
G75*
G02*
X96873250Y-110662000I244250J0D01*
G01*
X97436750Y-110662000D01*
G75*
G02*
X97681000Y-110906250I0J-244250D01*
G01*
X97681000Y-111394750D01*
G75*
G02*
X97436750Y-111639000I-244250J0D01*
G01*
G37*
G36*
G01*
X102610000Y-121820750D02*
X102610000Y-121257250D01*
G75*
G02*
X102854250Y-121013000I244250J0D01*
G01*
X103342750Y-121013000D01*
G75*
G02*
X103587000Y-121257250I0J-244250D01*
G01*
X103587000Y-121820750D01*
G75*
G02*
X103342750Y-122065000I-244250J0D01*
G01*
X102854250Y-122065000D01*
G75*
G02*
X102610000Y-121820750I0J244250D01*
G01*
G37*
G36*
G01*
X104185000Y-121820750D02*
X104185000Y-121257250D01*
G75*
G02*
X104429250Y-121013000I244250J0D01*
G01*
X104917750Y-121013000D01*
G75*
G02*
X105162000Y-121257250I0J-244250D01*
G01*
X105162000Y-121820750D01*
G75*
G02*
X104917750Y-122065000I-244250J0D01*
G01*
X104429250Y-122065000D01*
G75*
G02*
X104185000Y-121820750I0J244250D01*
G01*
G37*
G36*
G01*
X134063500Y-122861000D02*
X134414500Y-122861000D01*
G75*
G02*
X134590000Y-123036500I0J-175500D01*
G01*
X134590000Y-124737500D01*
G75*
G02*
X134414500Y-124913000I-175500J0D01*
G01*
X134063500Y-124913000D01*
G75*
G02*
X133888000Y-124737500I0J175500D01*
G01*
X133888000Y-123036500D01*
G75*
G02*
X134063500Y-122861000I175500J0D01*
G01*
G37*
G36*
G01*
X135333500Y-122861000D02*
X135684500Y-122861000D01*
G75*
G02*
X135860000Y-123036500I0J-175500D01*
G01*
X135860000Y-124737500D01*
G75*
G02*
X135684500Y-124913000I-175500J0D01*
G01*
X135333500Y-124913000D01*
G75*
G02*
X135158000Y-124737500I0J175500D01*
G01*
X135158000Y-123036500D01*
G75*
G02*
X135333500Y-122861000I175500J0D01*
G01*
G37*
G36*
G01*
X136603500Y-122861000D02*
X136954500Y-122861000D01*
G75*
G02*
X137130000Y-123036500I0J-175500D01*
G01*
X137130000Y-124737500D01*
G75*
G02*
X136954500Y-124913000I-175500J0D01*
G01*
X136603500Y-124913000D01*
G75*
G02*
X136428000Y-124737500I0J175500D01*
G01*
X136428000Y-123036500D01*
G75*
G02*
X136603500Y-122861000I175500J0D01*
G01*
G37*
G36*
G01*
X137873500Y-122861000D02*
X138224500Y-122861000D01*
G75*
G02*
X138400000Y-123036500I0J-175500D01*
G01*
X138400000Y-124737500D01*
G75*
G02*
X138224500Y-124913000I-175500J0D01*
G01*
X137873500Y-124913000D01*
G75*
G02*
X137698000Y-124737500I0J175500D01*
G01*
X137698000Y-123036500D01*
G75*
G02*
X137873500Y-122861000I175500J0D01*
G01*
G37*
G36*
G01*
X139143500Y-122861000D02*
X139494500Y-122861000D01*
G75*
G02*
X139670000Y-123036500I0J-175500D01*
G01*
X139670000Y-124737500D01*
G75*
G02*
X139494500Y-124913000I-175500J0D01*
G01*
X139143500Y-124913000D01*
G75*
G02*
X138968000Y-124737500I0J175500D01*
G01*
X138968000Y-123036500D01*
G75*
G02*
X139143500Y-122861000I175500J0D01*
G01*
G37*
G36*
G01*
X140413500Y-122861000D02*
X140764500Y-122861000D01*
G75*
G02*
X140940000Y-123036500I0J-175500D01*
G01*
X140940000Y-124737500D01*
G75*
G02*
X140764500Y-124913000I-175500J0D01*
G01*
X140413500Y-124913000D01*
G75*
G02*
X140238000Y-124737500I0J175500D01*
G01*
X140238000Y-123036500D01*
G75*
G02*
X140413500Y-122861000I175500J0D01*
G01*
G37*
G36*
G01*
X141683500Y-122861000D02*
X142034500Y-122861000D01*
G75*
G02*
X142210000Y-123036500I0J-175500D01*
G01*
X142210000Y-124737500D01*
G75*
G02*
X142034500Y-124913000I-175500J0D01*
G01*
X141683500Y-124913000D01*
G75*
G02*
X141508000Y-124737500I0J175500D01*
G01*
X141508000Y-123036500D01*
G75*
G02*
X141683500Y-122861000I175500J0D01*
G01*
G37*
G36*
G01*
X142953500Y-122861000D02*
X143304500Y-122861000D01*
G75*
G02*
X143480000Y-123036500I0J-175500D01*
G01*
X143480000Y-124737500D01*
G75*
G02*
X143304500Y-124913000I-175500J0D01*
G01*
X142953500Y-124913000D01*
G75*
G02*
X142778000Y-124737500I0J175500D01*
G01*
X142778000Y-123036500D01*
G75*
G02*
X142953500Y-122861000I175500J0D01*
G01*
G37*
G36*
G01*
X142953500Y-117911000D02*
X143304500Y-117911000D01*
G75*
G02*
X143480000Y-118086500I0J-175500D01*
G01*
X143480000Y-119787500D01*
G75*
G02*
X143304500Y-119963000I-175500J0D01*
G01*
X142953500Y-119963000D01*
G75*
G02*
X142778000Y-119787500I0J175500D01*
G01*
X142778000Y-118086500D01*
G75*
G02*
X142953500Y-117911000I175500J0D01*
G01*
G37*
G36*
G01*
X141683500Y-117911000D02*
X142034500Y-117911000D01*
G75*
G02*
X142210000Y-118086500I0J-175500D01*
G01*
X142210000Y-119787500D01*
G75*
G02*
X142034500Y-119963000I-175500J0D01*
G01*
X141683500Y-119963000D01*
G75*
G02*
X141508000Y-119787500I0J175500D01*
G01*
X141508000Y-118086500D01*
G75*
G02*
X141683500Y-117911000I175500J0D01*
G01*
G37*
G36*
G01*
X140413500Y-117911000D02*
X140764500Y-117911000D01*
G75*
G02*
X140940000Y-118086500I0J-175500D01*
G01*
X140940000Y-119787500D01*
G75*
G02*
X140764500Y-119963000I-175500J0D01*
G01*
X140413500Y-119963000D01*
G75*
G02*
X140238000Y-119787500I0J175500D01*
G01*
X140238000Y-118086500D01*
G75*
G02*
X140413500Y-117911000I175500J0D01*
G01*
G37*
G36*
G01*
X139143500Y-117911000D02*
X139494500Y-117911000D01*
G75*
G02*
X139670000Y-118086500I0J-175500D01*
G01*
X139670000Y-119787500D01*
G75*
G02*
X139494500Y-119963000I-175500J0D01*
G01*
X139143500Y-119963000D01*
G75*
G02*
X138968000Y-119787500I0J175500D01*
G01*
X138968000Y-118086500D01*
G75*
G02*
X139143500Y-117911000I175500J0D01*
G01*
G37*
G36*
G01*
X137873500Y-117911000D02*
X138224500Y-117911000D01*
G75*
G02*
X138400000Y-118086500I0J-175500D01*
G01*
X138400000Y-119787500D01*
G75*
G02*
X138224500Y-119963000I-175500J0D01*
G01*
X137873500Y-119963000D01*
G75*
G02*
X137698000Y-119787500I0J175500D01*
G01*
X137698000Y-118086500D01*
G75*
G02*
X137873500Y-117911000I175500J0D01*
G01*
G37*
G36*
G01*
X136603500Y-117911000D02*
X136954500Y-117911000D01*
G75*
G02*
X137130000Y-118086500I0J-175500D01*
G01*
X137130000Y-119787500D01*
G75*
G02*
X136954500Y-119963000I-175500J0D01*
G01*
X136603500Y-119963000D01*
G75*
G02*
X136428000Y-119787500I0J175500D01*
G01*
X136428000Y-118086500D01*
G75*
G02*
X136603500Y-117911000I175500J0D01*
G01*
G37*
G36*
G01*
X135333500Y-117911000D02*
X135684500Y-117911000D01*
G75*
G02*
X135860000Y-118086500I0J-175500D01*
G01*
X135860000Y-119787500D01*
G75*
G02*
X135684500Y-119963000I-175500J0D01*
G01*
X135333500Y-119963000D01*
G75*
G02*
X135158000Y-119787500I0J175500D01*
G01*
X135158000Y-118086500D01*
G75*
G02*
X135333500Y-117911000I175500J0D01*
G01*
G37*
G36*
G01*
X134063500Y-117911000D02*
X134414500Y-117911000D01*
G75*
G02*
X134590000Y-118086500I0J-175500D01*
G01*
X134590000Y-119787500D01*
G75*
G02*
X134414500Y-119963000I-175500J0D01*
G01*
X134063500Y-119963000D01*
G75*
G02*
X133888000Y-119787500I0J175500D01*
G01*
X133888000Y-118086500D01*
G75*
G02*
X134063500Y-117911000I175500J0D01*
G01*
G37*
G36*
G01*
X97889250Y-86151000D02*
X98452750Y-86151000D01*
G75*
G02*
X98697000Y-86395250I0J-244250D01*
G01*
X98697000Y-86883750D01*
G75*
G02*
X98452750Y-87128000I-244250J0D01*
G01*
X97889250Y-87128000D01*
G75*
G02*
X97645000Y-86883750I0J244250D01*
G01*
X97645000Y-86395250D01*
G75*
G02*
X97889250Y-86151000I244250J0D01*
G01*
G37*
G36*
G01*
X97889250Y-84576000D02*
X98452750Y-84576000D01*
G75*
G02*
X98697000Y-84820250I0J-244250D01*
G01*
X98697000Y-85308750D01*
G75*
G02*
X98452750Y-85553000I-244250J0D01*
G01*
X97889250Y-85553000D01*
G75*
G02*
X97645000Y-85308750I0J244250D01*
G01*
X97645000Y-84820250D01*
G75*
G02*
X97889250Y-84576000I244250J0D01*
G01*
G37*
G36*
G01*
X99794250Y-86125500D02*
X100357750Y-86125500D01*
G75*
G02*
X100602000Y-86369750I0J-244250D01*
G01*
X100602000Y-86858250D01*
G75*
G02*
X100357750Y-87102500I-244250J0D01*
G01*
X99794250Y-87102500D01*
G75*
G02*
X99550000Y-86858250I0J244250D01*
G01*
X99550000Y-86369750D01*
G75*
G02*
X99794250Y-86125500I244250J0D01*
G01*
G37*
G36*
G01*
X99794250Y-84550500D02*
X100357750Y-84550500D01*
G75*
G02*
X100602000Y-84794750I0J-244250D01*
G01*
X100602000Y-85283250D01*
G75*
G02*
X100357750Y-85527500I-244250J0D01*
G01*
X99794250Y-85527500D01*
G75*
G02*
X99550000Y-85283250I0J244250D01*
G01*
X99550000Y-84794750D01*
G75*
G02*
X99794250Y-84550500I244250J0D01*
G01*
G37*
G36*
G01*
X148668500Y-122861000D02*
X149019500Y-122861000D01*
G75*
G02*
X149195000Y-123036500I0J-175500D01*
G01*
X149195000Y-124737500D01*
G75*
G02*
X149019500Y-124913000I-175500J0D01*
G01*
X148668500Y-124913000D01*
G75*
G02*
X148493000Y-124737500I0J175500D01*
G01*
X148493000Y-123036500D01*
G75*
G02*
X148668500Y-122861000I175500J0D01*
G01*
G37*
G36*
G01*
X149938500Y-122861000D02*
X150289500Y-122861000D01*
G75*
G02*
X150465000Y-123036500I0J-175500D01*
G01*
X150465000Y-124737500D01*
G75*
G02*
X150289500Y-124913000I-175500J0D01*
G01*
X149938500Y-124913000D01*
G75*
G02*
X149763000Y-124737500I0J175500D01*
G01*
X149763000Y-123036500D01*
G75*
G02*
X149938500Y-122861000I175500J0D01*
G01*
G37*
G36*
G01*
X151208500Y-122861000D02*
X151559500Y-122861000D01*
G75*
G02*
X151735000Y-123036500I0J-175500D01*
G01*
X151735000Y-124737500D01*
G75*
G02*
X151559500Y-124913000I-175500J0D01*
G01*
X151208500Y-124913000D01*
G75*
G02*
X151033000Y-124737500I0J175500D01*
G01*
X151033000Y-123036500D01*
G75*
G02*
X151208500Y-122861000I175500J0D01*
G01*
G37*
G36*
G01*
X152478500Y-122861000D02*
X152829500Y-122861000D01*
G75*
G02*
X153005000Y-123036500I0J-175500D01*
G01*
X153005000Y-124737500D01*
G75*
G02*
X152829500Y-124913000I-175500J0D01*
G01*
X152478500Y-124913000D01*
G75*
G02*
X152303000Y-124737500I0J175500D01*
G01*
X152303000Y-123036500D01*
G75*
G02*
X152478500Y-122861000I175500J0D01*
G01*
G37*
G36*
G01*
X153748500Y-122861000D02*
X154099500Y-122861000D01*
G75*
G02*
X154275000Y-123036500I0J-175500D01*
G01*
X154275000Y-124737500D01*
G75*
G02*
X154099500Y-124913000I-175500J0D01*
G01*
X153748500Y-124913000D01*
G75*
G02*
X153573000Y-124737500I0J175500D01*
G01*
X153573000Y-123036500D01*
G75*
G02*
X153748500Y-122861000I175500J0D01*
G01*
G37*
G36*
G01*
X155018500Y-122861000D02*
X155369500Y-122861000D01*
G75*
G02*
X155545000Y-123036500I0J-175500D01*
G01*
X155545000Y-124737500D01*
G75*
G02*
X155369500Y-124913000I-175500J0D01*
G01*
X155018500Y-124913000D01*
G75*
G02*
X154843000Y-124737500I0J175500D01*
G01*
X154843000Y-123036500D01*
G75*
G02*
X155018500Y-122861000I175500J0D01*
G01*
G37*
G36*
G01*
X156288500Y-122861000D02*
X156639500Y-122861000D01*
G75*
G02*
X156815000Y-123036500I0J-175500D01*
G01*
X156815000Y-124737500D01*
G75*
G02*
X156639500Y-124913000I-175500J0D01*
G01*
X156288500Y-124913000D01*
G75*
G02*
X156113000Y-124737500I0J175500D01*
G01*
X156113000Y-123036500D01*
G75*
G02*
X156288500Y-122861000I175500J0D01*
G01*
G37*
G36*
G01*
X157558500Y-122861000D02*
X157909500Y-122861000D01*
G75*
G02*
X158085000Y-123036500I0J-175500D01*
G01*
X158085000Y-124737500D01*
G75*
G02*
X157909500Y-124913000I-175500J0D01*
G01*
X157558500Y-124913000D01*
G75*
G02*
X157383000Y-124737500I0J175500D01*
G01*
X157383000Y-123036500D01*
G75*
G02*
X157558500Y-122861000I175500J0D01*
G01*
G37*
G36*
G01*
X157558500Y-117911000D02*
X157909500Y-117911000D01*
G75*
G02*
X158085000Y-118086500I0J-175500D01*
G01*
X158085000Y-119787500D01*
G75*
G02*
X157909500Y-119963000I-175500J0D01*
G01*
X157558500Y-119963000D01*
G75*
G02*
X157383000Y-119787500I0J175500D01*
G01*
X157383000Y-118086500D01*
G75*
G02*
X157558500Y-117911000I175500J0D01*
G01*
G37*
G36*
G01*
X156288500Y-117911000D02*
X156639500Y-117911000D01*
G75*
G02*
X156815000Y-118086500I0J-175500D01*
G01*
X156815000Y-119787500D01*
G75*
G02*
X156639500Y-119963000I-175500J0D01*
G01*
X156288500Y-119963000D01*
G75*
G02*
X156113000Y-119787500I0J175500D01*
G01*
X156113000Y-118086500D01*
G75*
G02*
X156288500Y-117911000I175500J0D01*
G01*
G37*
G36*
G01*
X155018500Y-117911000D02*
X155369500Y-117911000D01*
G75*
G02*
X155545000Y-118086500I0J-175500D01*
G01*
X155545000Y-119787500D01*
G75*
G02*
X155369500Y-119963000I-175500J0D01*
G01*
X155018500Y-119963000D01*
G75*
G02*
X154843000Y-119787500I0J175500D01*
G01*
X154843000Y-118086500D01*
G75*
G02*
X155018500Y-117911000I175500J0D01*
G01*
G37*
G36*
G01*
X153748500Y-117911000D02*
X154099500Y-117911000D01*
G75*
G02*
X154275000Y-118086500I0J-175500D01*
G01*
X154275000Y-119787500D01*
G75*
G02*
X154099500Y-119963000I-175500J0D01*
G01*
X153748500Y-119963000D01*
G75*
G02*
X153573000Y-119787500I0J175500D01*
G01*
X153573000Y-118086500D01*
G75*
G02*
X153748500Y-117911000I175500J0D01*
G01*
G37*
G36*
G01*
X152478500Y-117911000D02*
X152829500Y-117911000D01*
G75*
G02*
X153005000Y-118086500I0J-175500D01*
G01*
X153005000Y-119787500D01*
G75*
G02*
X152829500Y-119963000I-175500J0D01*
G01*
X152478500Y-119963000D01*
G75*
G02*
X152303000Y-119787500I0J175500D01*
G01*
X152303000Y-118086500D01*
G75*
G02*
X152478500Y-117911000I175500J0D01*
G01*
G37*
G36*
G01*
X151208500Y-117911000D02*
X151559500Y-117911000D01*
G75*
G02*
X151735000Y-118086500I0J-175500D01*
G01*
X151735000Y-119787500D01*
G75*
G02*
X151559500Y-119963000I-175500J0D01*
G01*
X151208500Y-119963000D01*
G75*
G02*
X151033000Y-119787500I0J175500D01*
G01*
X151033000Y-118086500D01*
G75*
G02*
X151208500Y-117911000I175500J0D01*
G01*
G37*
G36*
G01*
X149938500Y-117911000D02*
X150289500Y-117911000D01*
G75*
G02*
X150465000Y-118086500I0J-175500D01*
G01*
X150465000Y-119787500D01*
G75*
G02*
X150289500Y-119963000I-175500J0D01*
G01*
X149938500Y-119963000D01*
G75*
G02*
X149763000Y-119787500I0J175500D01*
G01*
X149763000Y-118086500D01*
G75*
G02*
X149938500Y-117911000I175500J0D01*
G01*
G37*
G36*
G01*
X148668500Y-117911000D02*
X149019500Y-117911000D01*
G75*
G02*
X149195000Y-118086500I0J-175500D01*
G01*
X149195000Y-119787500D01*
G75*
G02*
X149019500Y-119963000I-175500J0D01*
G01*
X148668500Y-119963000D01*
G75*
G02*
X148493000Y-119787500I0J175500D01*
G01*
X148493000Y-118086500D01*
G75*
G02*
X148668500Y-117911000I175500J0D01*
G01*
G37*
G36*
G01*
X125956250Y-97682500D02*
X126519750Y-97682500D01*
G75*
G02*
X126764000Y-97926750I0J-244250D01*
G01*
X126764000Y-98415250D01*
G75*
G02*
X126519750Y-98659500I-244250J0D01*
G01*
X125956250Y-98659500D01*
G75*
G02*
X125712000Y-98415250I0J244250D01*
G01*
X125712000Y-97926750D01*
G75*
G02*
X125956250Y-97682500I244250J0D01*
G01*
G37*
G36*
G01*
X125956250Y-99257500D02*
X126519750Y-99257500D01*
G75*
G02*
X126764000Y-99501750I0J-244250D01*
G01*
X126764000Y-99990250D01*
G75*
G02*
X126519750Y-100234500I-244250J0D01*
G01*
X125956250Y-100234500D01*
G75*
G02*
X125712000Y-99990250I0J244250D01*
G01*
X125712000Y-99501750D01*
G75*
G02*
X125956250Y-99257500I244250J0D01*
G01*
G37*
G36*
G01*
X87751000Y-121820750D02*
X87751000Y-121257250D01*
G75*
G02*
X87995250Y-121013000I244250J0D01*
G01*
X88483750Y-121013000D01*
G75*
G02*
X88728000Y-121257250I0J-244250D01*
G01*
X88728000Y-121820750D01*
G75*
G02*
X88483750Y-122065000I-244250J0D01*
G01*
X87995250Y-122065000D01*
G75*
G02*
X87751000Y-121820750I0J244250D01*
G01*
G37*
G36*
G01*
X89326000Y-121820750D02*
X89326000Y-121257250D01*
G75*
G02*
X89570250Y-121013000I244250J0D01*
G01*
X90058750Y-121013000D01*
G75*
G02*
X90303000Y-121257250I0J-244250D01*
G01*
X90303000Y-121820750D01*
G75*
G02*
X90058750Y-122065000I-244250J0D01*
G01*
X89570250Y-122065000D01*
G75*
G02*
X89326000Y-121820750I0J244250D01*
G01*
G37*
G36*
G01*
X98800000Y-121820750D02*
X98800000Y-121257250D01*
G75*
G02*
X99044250Y-121013000I244250J0D01*
G01*
X99532750Y-121013000D01*
G75*
G02*
X99777000Y-121257250I0J-244250D01*
G01*
X99777000Y-121820750D01*
G75*
G02*
X99532750Y-122065000I-244250J0D01*
G01*
X99044250Y-122065000D01*
G75*
G02*
X98800000Y-121820750I0J244250D01*
G01*
G37*
G36*
G01*
X100375000Y-121820750D02*
X100375000Y-121257250D01*
G75*
G02*
X100619250Y-121013000I244250J0D01*
G01*
X101107750Y-121013000D01*
G75*
G02*
X101352000Y-121257250I0J-244250D01*
G01*
X101352000Y-121820750D01*
G75*
G02*
X101107750Y-122065000I-244250J0D01*
G01*
X100619250Y-122065000D01*
G75*
G02*
X100375000Y-121820750I0J244250D01*
G01*
G37*
D20*
X96947056Y-124540944D03*
X95250000Y-123838000D03*
X93552944Y-124540944D03*
X92850000Y-126238000D03*
X93552944Y-127935056D03*
X95250000Y-128638000D03*
X96947056Y-127935056D03*
X97650000Y-126238000D03*
D21*
X95250000Y-126238000D03*
D20*
X152700056Y-47705944D03*
X151003000Y-47003000D03*
X149305944Y-47705944D03*
X148603000Y-49403000D03*
X149305944Y-51100056D03*
X151003000Y-51803000D03*
X152700056Y-51100056D03*
X153403000Y-49403000D03*
D21*
X151003000Y-49403000D03*
G36*
G01*
X87729250Y-110662000D02*
X88292750Y-110662000D01*
G75*
G02*
X88537000Y-110906250I0J-244250D01*
G01*
X88537000Y-111394750D01*
G75*
G02*
X88292750Y-111639000I-244250J0D01*
G01*
X87729250Y-111639000D01*
G75*
G02*
X87485000Y-111394750I0J244250D01*
G01*
X87485000Y-110906250D01*
G75*
G02*
X87729250Y-110662000I244250J0D01*
G01*
G37*
G36*
G01*
X87729250Y-109087000D02*
X88292750Y-109087000D01*
G75*
G02*
X88537000Y-109331250I0J-244250D01*
G01*
X88537000Y-109819750D01*
G75*
G02*
X88292750Y-110064000I-244250J0D01*
G01*
X87729250Y-110064000D01*
G75*
G02*
X87485000Y-109819750I0J244250D01*
G01*
X87485000Y-109331250D01*
G75*
G02*
X87729250Y-109087000I244250J0D01*
G01*
G37*
G36*
G01*
X89380250Y-109087000D02*
X89943750Y-109087000D01*
G75*
G02*
X90188000Y-109331250I0J-244250D01*
G01*
X90188000Y-109819750D01*
G75*
G02*
X89943750Y-110064000I-244250J0D01*
G01*
X89380250Y-110064000D01*
G75*
G02*
X89136000Y-109819750I0J244250D01*
G01*
X89136000Y-109331250D01*
G75*
G02*
X89380250Y-109087000I244250J0D01*
G01*
G37*
G36*
G01*
X89380250Y-110662000D02*
X89943750Y-110662000D01*
G75*
G02*
X90188000Y-110906250I0J-244250D01*
G01*
X90188000Y-111394750D01*
G75*
G02*
X89943750Y-111639000I-244250J0D01*
G01*
X89380250Y-111639000D01*
G75*
G02*
X89136000Y-111394750I0J244250D01*
G01*
X89136000Y-110906250D01*
G75*
G02*
X89380250Y-110662000I244250J0D01*
G01*
G37*
G36*
G01*
X98905250Y-110662000D02*
X99468750Y-110662000D01*
G75*
G02*
X99713000Y-110906250I0J-244250D01*
G01*
X99713000Y-111394750D01*
G75*
G02*
X99468750Y-111639000I-244250J0D01*
G01*
X98905250Y-111639000D01*
G75*
G02*
X98661000Y-111394750I0J244250D01*
G01*
X98661000Y-110906250D01*
G75*
G02*
X98905250Y-110662000I244250J0D01*
G01*
G37*
G36*
G01*
X98905250Y-109087000D02*
X99468750Y-109087000D01*
G75*
G02*
X99713000Y-109331250I0J-244250D01*
G01*
X99713000Y-109819750D01*
G75*
G02*
X99468750Y-110064000I-244250J0D01*
G01*
X98905250Y-110064000D01*
G75*
G02*
X98661000Y-109819750I0J244250D01*
G01*
X98661000Y-109331250D01*
G75*
G02*
X98905250Y-109087000I244250J0D01*
G01*
G37*
G36*
G01*
X100556250Y-110636500D02*
X101119750Y-110636500D01*
G75*
G02*
X101364000Y-110880750I0J-244250D01*
G01*
X101364000Y-111369250D01*
G75*
G02*
X101119750Y-111613500I-244250J0D01*
G01*
X100556250Y-111613500D01*
G75*
G02*
X100312000Y-111369250I0J244250D01*
G01*
X100312000Y-110880750D01*
G75*
G02*
X100556250Y-110636500I244250J0D01*
G01*
G37*
G36*
G01*
X100556250Y-109061500D02*
X101119750Y-109061500D01*
G75*
G02*
X101364000Y-109305750I0J-244250D01*
G01*
X101364000Y-109794250D01*
G75*
G02*
X101119750Y-110038500I-244250J0D01*
G01*
X100556250Y-110038500D01*
G75*
G02*
X100312000Y-109794250I0J244250D01*
G01*
X100312000Y-109305750D01*
G75*
G02*
X100556250Y-109061500I244250J0D01*
G01*
G37*
G36*
G01*
X116761500Y-79958000D02*
X116410500Y-79958000D01*
G75*
G02*
X116235000Y-79782500I0J175500D01*
G01*
X116235000Y-78081500D01*
G75*
G02*
X116410500Y-77906000I175500J0D01*
G01*
X116761500Y-77906000D01*
G75*
G02*
X116937000Y-78081500I0J-175500D01*
G01*
X116937000Y-79782500D01*
G75*
G02*
X116761500Y-79958000I-175500J0D01*
G01*
G37*
G36*
G01*
X115491500Y-79958000D02*
X115140500Y-79958000D01*
G75*
G02*
X114965000Y-79782500I0J175500D01*
G01*
X114965000Y-78081500D01*
G75*
G02*
X115140500Y-77906000I175500J0D01*
G01*
X115491500Y-77906000D01*
G75*
G02*
X115667000Y-78081500I0J-175500D01*
G01*
X115667000Y-79782500D01*
G75*
G02*
X115491500Y-79958000I-175500J0D01*
G01*
G37*
G36*
G01*
X114221500Y-79958000D02*
X113870500Y-79958000D01*
G75*
G02*
X113695000Y-79782500I0J175500D01*
G01*
X113695000Y-78081500D01*
G75*
G02*
X113870500Y-77906000I175500J0D01*
G01*
X114221500Y-77906000D01*
G75*
G02*
X114397000Y-78081500I0J-175500D01*
G01*
X114397000Y-79782500D01*
G75*
G02*
X114221500Y-79958000I-175500J0D01*
G01*
G37*
G36*
G01*
X112951500Y-79958000D02*
X112600500Y-79958000D01*
G75*
G02*
X112425000Y-79782500I0J175500D01*
G01*
X112425000Y-78081500D01*
G75*
G02*
X112600500Y-77906000I175500J0D01*
G01*
X112951500Y-77906000D01*
G75*
G02*
X113127000Y-78081500I0J-175500D01*
G01*
X113127000Y-79782500D01*
G75*
G02*
X112951500Y-79958000I-175500J0D01*
G01*
G37*
G36*
G01*
X112951500Y-84908000D02*
X112600500Y-84908000D01*
G75*
G02*
X112425000Y-84732500I0J175500D01*
G01*
X112425000Y-83031500D01*
G75*
G02*
X112600500Y-82856000I175500J0D01*
G01*
X112951500Y-82856000D01*
G75*
G02*
X113127000Y-83031500I0J-175500D01*
G01*
X113127000Y-84732500D01*
G75*
G02*
X112951500Y-84908000I-175500J0D01*
G01*
G37*
G36*
G01*
X114221500Y-84908000D02*
X113870500Y-84908000D01*
G75*
G02*
X113695000Y-84732500I0J175500D01*
G01*
X113695000Y-83031500D01*
G75*
G02*
X113870500Y-82856000I175500J0D01*
G01*
X114221500Y-82856000D01*
G75*
G02*
X114397000Y-83031500I0J-175500D01*
G01*
X114397000Y-84732500D01*
G75*
G02*
X114221500Y-84908000I-175500J0D01*
G01*
G37*
G36*
G01*
X115491500Y-84908000D02*
X115140500Y-84908000D01*
G75*
G02*
X114965000Y-84732500I0J175500D01*
G01*
X114965000Y-83031500D01*
G75*
G02*
X115140500Y-82856000I175500J0D01*
G01*
X115491500Y-82856000D01*
G75*
G02*
X115667000Y-83031500I0J-175500D01*
G01*
X115667000Y-84732500D01*
G75*
G02*
X115491500Y-84908000I-175500J0D01*
G01*
G37*
G36*
G01*
X116761500Y-84908000D02*
X116410500Y-84908000D01*
G75*
G02*
X116235000Y-84732500I0J175500D01*
G01*
X116235000Y-83031500D01*
G75*
G02*
X116410500Y-82856000I175500J0D01*
G01*
X116761500Y-82856000D01*
G75*
G02*
X116937000Y-83031500I0J-175500D01*
G01*
X116937000Y-84732500D01*
G75*
G02*
X116761500Y-84908000I-175500J0D01*
G01*
G37*
G36*
G01*
X151102250Y-114040000D02*
X151665750Y-114040000D01*
G75*
G02*
X151910000Y-114284250I0J-244250D01*
G01*
X151910000Y-114772750D01*
G75*
G02*
X151665750Y-115017000I-244250J0D01*
G01*
X151102250Y-115017000D01*
G75*
G02*
X150858000Y-114772750I0J244250D01*
G01*
X150858000Y-114284250D01*
G75*
G02*
X151102250Y-114040000I244250J0D01*
G01*
G37*
G36*
G01*
X151102250Y-115615000D02*
X151665750Y-115615000D01*
G75*
G02*
X151910000Y-115859250I0J-244250D01*
G01*
X151910000Y-116347750D01*
G75*
G02*
X151665750Y-116592000I-244250J0D01*
G01*
X151102250Y-116592000D01*
G75*
G02*
X150858000Y-116347750I0J244250D01*
G01*
X150858000Y-115859250D01*
G75*
G02*
X151102250Y-115615000I244250J0D01*
G01*
G37*
G36*
G01*
X149578250Y-115615000D02*
X150141750Y-115615000D01*
G75*
G02*
X150386000Y-115859250I0J-244250D01*
G01*
X150386000Y-116347750D01*
G75*
G02*
X150141750Y-116592000I-244250J0D01*
G01*
X149578250Y-116592000D01*
G75*
G02*
X149334000Y-116347750I0J244250D01*
G01*
X149334000Y-115859250D01*
G75*
G02*
X149578250Y-115615000I244250J0D01*
G01*
G37*
G36*
G01*
X149578250Y-114040000D02*
X150141750Y-114040000D01*
G75*
G02*
X150386000Y-114284250I0J-244250D01*
G01*
X150386000Y-114772750D01*
G75*
G02*
X150141750Y-115017000I-244250J0D01*
G01*
X149578250Y-115017000D01*
G75*
G02*
X149334000Y-114772750I0J244250D01*
G01*
X149334000Y-114284250D01*
G75*
G02*
X149578250Y-114040000I244250J0D01*
G01*
G37*
G36*
G01*
X148054250Y-115615000D02*
X148617750Y-115615000D01*
G75*
G02*
X148862000Y-115859250I0J-244250D01*
G01*
X148862000Y-116347750D01*
G75*
G02*
X148617750Y-116592000I-244250J0D01*
G01*
X148054250Y-116592000D01*
G75*
G02*
X147810000Y-116347750I0J244250D01*
G01*
X147810000Y-115859250D01*
G75*
G02*
X148054250Y-115615000I244250J0D01*
G01*
G37*
G36*
G01*
X148054250Y-114040000D02*
X148617750Y-114040000D01*
G75*
G02*
X148862000Y-114284250I0J-244250D01*
G01*
X148862000Y-114772750D01*
G75*
G02*
X148617750Y-115017000I-244250J0D01*
G01*
X148054250Y-115017000D01*
G75*
G02*
X147810000Y-114772750I0J244250D01*
G01*
X147810000Y-114284250D01*
G75*
G02*
X148054250Y-114040000I244250J0D01*
G01*
G37*
G36*
G01*
X141069250Y-114040000D02*
X141632750Y-114040000D01*
G75*
G02*
X141877000Y-114284250I0J-244250D01*
G01*
X141877000Y-114772750D01*
G75*
G02*
X141632750Y-115017000I-244250J0D01*
G01*
X141069250Y-115017000D01*
G75*
G02*
X140825000Y-114772750I0J244250D01*
G01*
X140825000Y-114284250D01*
G75*
G02*
X141069250Y-114040000I244250J0D01*
G01*
G37*
G36*
G01*
X141069250Y-115615000D02*
X141632750Y-115615000D01*
G75*
G02*
X141877000Y-115859250I0J-244250D01*
G01*
X141877000Y-116347750D01*
G75*
G02*
X141632750Y-116592000I-244250J0D01*
G01*
X141069250Y-116592000D01*
G75*
G02*
X140825000Y-116347750I0J244250D01*
G01*
X140825000Y-115859250D01*
G75*
G02*
X141069250Y-115615000I244250J0D01*
G01*
G37*
G36*
G01*
X139545250Y-115615000D02*
X140108750Y-115615000D01*
G75*
G02*
X140353000Y-115859250I0J-244250D01*
G01*
X140353000Y-116347750D01*
G75*
G02*
X140108750Y-116592000I-244250J0D01*
G01*
X139545250Y-116592000D01*
G75*
G02*
X139301000Y-116347750I0J244250D01*
G01*
X139301000Y-115859250D01*
G75*
G02*
X139545250Y-115615000I244250J0D01*
G01*
G37*
G36*
G01*
X139545250Y-114040000D02*
X140108750Y-114040000D01*
G75*
G02*
X140353000Y-114284250I0J-244250D01*
G01*
X140353000Y-114772750D01*
G75*
G02*
X140108750Y-115017000I-244250J0D01*
G01*
X139545250Y-115017000D01*
G75*
G02*
X139301000Y-114772750I0J244250D01*
G01*
X139301000Y-114284250D01*
G75*
G02*
X139545250Y-114040000I244250J0D01*
G01*
G37*
G36*
G01*
X138021250Y-114040000D02*
X138584750Y-114040000D01*
G75*
G02*
X138829000Y-114284250I0J-244250D01*
G01*
X138829000Y-114772750D01*
G75*
G02*
X138584750Y-115017000I-244250J0D01*
G01*
X138021250Y-115017000D01*
G75*
G02*
X137777000Y-114772750I0J244250D01*
G01*
X137777000Y-114284250D01*
G75*
G02*
X138021250Y-114040000I244250J0D01*
G01*
G37*
G36*
G01*
X138021250Y-115615000D02*
X138584750Y-115615000D01*
G75*
G02*
X138829000Y-115859250I0J-244250D01*
G01*
X138829000Y-116347750D01*
G75*
G02*
X138584750Y-116592000I-244250J0D01*
G01*
X138021250Y-116592000D01*
G75*
G02*
X137777000Y-116347750I0J244250D01*
G01*
X137777000Y-115859250D01*
G75*
G02*
X138021250Y-115615000I244250J0D01*
G01*
G37*
G36*
G01*
X136497250Y-115615000D02*
X137060750Y-115615000D01*
G75*
G02*
X137305000Y-115859250I0J-244250D01*
G01*
X137305000Y-116347750D01*
G75*
G02*
X137060750Y-116592000I-244250J0D01*
G01*
X136497250Y-116592000D01*
G75*
G02*
X136253000Y-116347750I0J244250D01*
G01*
X136253000Y-115859250D01*
G75*
G02*
X136497250Y-115615000I244250J0D01*
G01*
G37*
G36*
G01*
X136497250Y-114040000D02*
X137060750Y-114040000D01*
G75*
G02*
X137305000Y-114284250I0J-244250D01*
G01*
X137305000Y-114772750D01*
G75*
G02*
X137060750Y-115017000I-244250J0D01*
G01*
X136497250Y-115017000D01*
G75*
G02*
X136253000Y-114772750I0J244250D01*
G01*
X136253000Y-114284250D01*
G75*
G02*
X136497250Y-114040000I244250J0D01*
G01*
G37*
G36*
G01*
X134973250Y-114040000D02*
X135536750Y-114040000D01*
G75*
G02*
X135781000Y-114284250I0J-244250D01*
G01*
X135781000Y-114772750D01*
G75*
G02*
X135536750Y-115017000I-244250J0D01*
G01*
X134973250Y-115017000D01*
G75*
G02*
X134729000Y-114772750I0J244250D01*
G01*
X134729000Y-114284250D01*
G75*
G02*
X134973250Y-114040000I244250J0D01*
G01*
G37*
G36*
G01*
X134973250Y-115615000D02*
X135536750Y-115615000D01*
G75*
G02*
X135781000Y-115859250I0J-244250D01*
G01*
X135781000Y-116347750D01*
G75*
G02*
X135536750Y-116592000I-244250J0D01*
G01*
X134973250Y-116592000D01*
G75*
G02*
X134729000Y-116347750I0J244250D01*
G01*
X134729000Y-115859250D01*
G75*
G02*
X134973250Y-115615000I244250J0D01*
G01*
G37*
G36*
G01*
X152626250Y-114040000D02*
X153189750Y-114040000D01*
G75*
G02*
X153434000Y-114284250I0J-244250D01*
G01*
X153434000Y-114772750D01*
G75*
G02*
X153189750Y-115017000I-244250J0D01*
G01*
X152626250Y-115017000D01*
G75*
G02*
X152382000Y-114772750I0J244250D01*
G01*
X152382000Y-114284250D01*
G75*
G02*
X152626250Y-114040000I244250J0D01*
G01*
G37*
G36*
G01*
X152626250Y-115615000D02*
X153189750Y-115615000D01*
G75*
G02*
X153434000Y-115859250I0J-244250D01*
G01*
X153434000Y-116347750D01*
G75*
G02*
X153189750Y-116592000I-244250J0D01*
G01*
X152626250Y-116592000D01*
G75*
G02*
X152382000Y-116347750I0J244250D01*
G01*
X152382000Y-115859250D01*
G75*
G02*
X152626250Y-115615000I244250J0D01*
G01*
G37*
G36*
G01*
X154150250Y-115615000D02*
X154713750Y-115615000D01*
G75*
G02*
X154958000Y-115859250I0J-244250D01*
G01*
X154958000Y-116347750D01*
G75*
G02*
X154713750Y-116592000I-244250J0D01*
G01*
X154150250Y-116592000D01*
G75*
G02*
X153906000Y-116347750I0J244250D01*
G01*
X153906000Y-115859250D01*
G75*
G02*
X154150250Y-115615000I244250J0D01*
G01*
G37*
G36*
G01*
X154150250Y-114040000D02*
X154713750Y-114040000D01*
G75*
G02*
X154958000Y-114284250I0J-244250D01*
G01*
X154958000Y-114772750D01*
G75*
G02*
X154713750Y-115017000I-244250J0D01*
G01*
X154150250Y-115017000D01*
G75*
G02*
X153906000Y-114772750I0J244250D01*
G01*
X153906000Y-114284250D01*
G75*
G02*
X154150250Y-114040000I244250J0D01*
G01*
G37*
G36*
G01*
X155674250Y-114040000D02*
X156237750Y-114040000D01*
G75*
G02*
X156482000Y-114284250I0J-244250D01*
G01*
X156482000Y-114772750D01*
G75*
G02*
X156237750Y-115017000I-244250J0D01*
G01*
X155674250Y-115017000D01*
G75*
G02*
X155430000Y-114772750I0J244250D01*
G01*
X155430000Y-114284250D01*
G75*
G02*
X155674250Y-114040000I244250J0D01*
G01*
G37*
G36*
G01*
X155674250Y-115615000D02*
X156237750Y-115615000D01*
G75*
G02*
X156482000Y-115859250I0J-244250D01*
G01*
X156482000Y-116347750D01*
G75*
G02*
X156237750Y-116592000I-244250J0D01*
G01*
X155674250Y-116592000D01*
G75*
G02*
X155430000Y-116347750I0J244250D01*
G01*
X155430000Y-115859250D01*
G75*
G02*
X155674250Y-115615000I244250J0D01*
G01*
G37*
G36*
G01*
X115868000Y-133703755D02*
X115868000Y-128678245D01*
G75*
G02*
X116131245Y-128415000I263245J0D01*
G01*
X117631755Y-128415000D01*
G75*
G02*
X117895000Y-128678245I0J-263245D01*
G01*
X117895000Y-133703755D01*
G75*
G02*
X117631755Y-133967000I-263245J0D01*
G01*
X116131245Y-133967000D01*
G75*
G02*
X115868000Y-133703755I0J263245D01*
G01*
G37*
G36*
G01*
X122643000Y-133703755D02*
X122643000Y-128678245D01*
G75*
G02*
X122906245Y-128415000I263245J0D01*
G01*
X124406755Y-128415000D01*
G75*
G02*
X124670000Y-128678245I0J-263245D01*
G01*
X124670000Y-133703755D01*
G75*
G02*
X124406755Y-133967000I-263245J0D01*
G01*
X122906245Y-133967000D01*
G75*
G02*
X122643000Y-133703755I0J263245D01*
G01*
G37*
G36*
G01*
X102588250Y-110662000D02*
X103151750Y-110662000D01*
G75*
G02*
X103396000Y-110906250I0J-244250D01*
G01*
X103396000Y-111394750D01*
G75*
G02*
X103151750Y-111639000I-244250J0D01*
G01*
X102588250Y-111639000D01*
G75*
G02*
X102344000Y-111394750I0J244250D01*
G01*
X102344000Y-110906250D01*
G75*
G02*
X102588250Y-110662000I244250J0D01*
G01*
G37*
G36*
G01*
X102588250Y-109087000D02*
X103151750Y-109087000D01*
G75*
G02*
X103396000Y-109331250I0J-244250D01*
G01*
X103396000Y-109819750D01*
G75*
G02*
X103151750Y-110064000I-244250J0D01*
G01*
X102588250Y-110064000D01*
G75*
G02*
X102344000Y-109819750I0J244250D01*
G01*
X102344000Y-109331250D01*
G75*
G02*
X102588250Y-109087000I244250J0D01*
G01*
G37*
G36*
G01*
X104239250Y-109087000D02*
X104802750Y-109087000D01*
G75*
G02*
X105047000Y-109331250I0J-244250D01*
G01*
X105047000Y-109819750D01*
G75*
G02*
X104802750Y-110064000I-244250J0D01*
G01*
X104239250Y-110064000D01*
G75*
G02*
X103995000Y-109819750I0J244250D01*
G01*
X103995000Y-109331250D01*
G75*
G02*
X104239250Y-109087000I244250J0D01*
G01*
G37*
G36*
G01*
X104239250Y-110662000D02*
X104802750Y-110662000D01*
G75*
G02*
X105047000Y-110906250I0J-244250D01*
G01*
X105047000Y-111394750D01*
G75*
G02*
X104802750Y-111639000I-244250J0D01*
G01*
X104239250Y-111639000D01*
G75*
G02*
X103995000Y-111394750I0J244250D01*
G01*
X103995000Y-110906250D01*
G75*
G02*
X104239250Y-110662000I244250J0D01*
G01*
G37*
G36*
G01*
X113532000Y-121820750D02*
X113532000Y-121257250D01*
G75*
G02*
X113776250Y-121013000I244250J0D01*
G01*
X114264750Y-121013000D01*
G75*
G02*
X114509000Y-121257250I0J-244250D01*
G01*
X114509000Y-121820750D01*
G75*
G02*
X114264750Y-122065000I-244250J0D01*
G01*
X113776250Y-122065000D01*
G75*
G02*
X113532000Y-121820750I0J244250D01*
G01*
G37*
G36*
G01*
X115107000Y-121820750D02*
X115107000Y-121257250D01*
G75*
G02*
X115351250Y-121013000I244250J0D01*
G01*
X115839750Y-121013000D01*
G75*
G02*
X116084000Y-121257250I0J-244250D01*
G01*
X116084000Y-121820750D01*
G75*
G02*
X115839750Y-122065000I-244250J0D01*
G01*
X115351250Y-122065000D01*
G75*
G02*
X115107000Y-121820750I0J244250D01*
G01*
G37*
G36*
G01*
X126156000Y-121820750D02*
X126156000Y-121257250D01*
G75*
G02*
X126400250Y-121013000I244250J0D01*
G01*
X126888750Y-121013000D01*
G75*
G02*
X127133000Y-121257250I0J-244250D01*
G01*
X127133000Y-121820750D01*
G75*
G02*
X126888750Y-122065000I-244250J0D01*
G01*
X126400250Y-122065000D01*
G75*
G02*
X126156000Y-121820750I0J244250D01*
G01*
G37*
G36*
G01*
X124581000Y-121820750D02*
X124581000Y-121257250D01*
G75*
G02*
X124825250Y-121013000I244250J0D01*
G01*
X125313750Y-121013000D01*
G75*
G02*
X125558000Y-121257250I0J-244250D01*
G01*
X125558000Y-121820750D01*
G75*
G02*
X125313750Y-122065000I-244250J0D01*
G01*
X124825250Y-122065000D01*
G75*
G02*
X124581000Y-121820750I0J244250D01*
G01*
G37*
G36*
G01*
X122473000Y-121820750D02*
X122473000Y-121257250D01*
G75*
G02*
X122717250Y-121013000I244250J0D01*
G01*
X123205750Y-121013000D01*
G75*
G02*
X123450000Y-121257250I0J-244250D01*
G01*
X123450000Y-121820750D01*
G75*
G02*
X123205750Y-122065000I-244250J0D01*
G01*
X122717250Y-122065000D01*
G75*
G02*
X122473000Y-121820750I0J244250D01*
G01*
G37*
G36*
G01*
X120898000Y-121820750D02*
X120898000Y-121257250D01*
G75*
G02*
X121142250Y-121013000I244250J0D01*
G01*
X121630750Y-121013000D01*
G75*
G02*
X121875000Y-121257250I0J-244250D01*
G01*
X121875000Y-121820750D01*
G75*
G02*
X121630750Y-122065000I-244250J0D01*
G01*
X121142250Y-122065000D01*
G75*
G02*
X120898000Y-121820750I0J244250D01*
G01*
G37*
G36*
G01*
X128264000Y-121820750D02*
X128264000Y-121257250D01*
G75*
G02*
X128508250Y-121013000I244250J0D01*
G01*
X128996750Y-121013000D01*
G75*
G02*
X129241000Y-121257250I0J-244250D01*
G01*
X129241000Y-121820750D01*
G75*
G02*
X128996750Y-122065000I-244250J0D01*
G01*
X128508250Y-122065000D01*
G75*
G02*
X128264000Y-121820750I0J244250D01*
G01*
G37*
G36*
G01*
X129839000Y-121820750D02*
X129839000Y-121257250D01*
G75*
G02*
X130083250Y-121013000I244250J0D01*
G01*
X130571750Y-121013000D01*
G75*
G02*
X130816000Y-121257250I0J-244250D01*
G01*
X130816000Y-121820750D01*
G75*
G02*
X130571750Y-122065000I-244250J0D01*
G01*
X130083250Y-122065000D01*
G75*
G02*
X129839000Y-121820750I0J244250D01*
G01*
G37*
G36*
G01*
X117215000Y-121820750D02*
X117215000Y-121257250D01*
G75*
G02*
X117459250Y-121013000I244250J0D01*
G01*
X117947750Y-121013000D01*
G75*
G02*
X118192000Y-121257250I0J-244250D01*
G01*
X118192000Y-121820750D01*
G75*
G02*
X117947750Y-122065000I-244250J0D01*
G01*
X117459250Y-122065000D01*
G75*
G02*
X117215000Y-121820750I0J244250D01*
G01*
G37*
G36*
G01*
X118790000Y-121820750D02*
X118790000Y-121257250D01*
G75*
G02*
X119034250Y-121013000I244250J0D01*
G01*
X119522750Y-121013000D01*
G75*
G02*
X119767000Y-121257250I0J-244250D01*
G01*
X119767000Y-121820750D01*
G75*
G02*
X119522750Y-122065000I-244250J0D01*
G01*
X119034250Y-122065000D01*
G75*
G02*
X118790000Y-121820750I0J244250D01*
G01*
G37*
G36*
G01*
X106166000Y-121820750D02*
X106166000Y-121257250D01*
G75*
G02*
X106410250Y-121013000I244250J0D01*
G01*
X106898750Y-121013000D01*
G75*
G02*
X107143000Y-121257250I0J-244250D01*
G01*
X107143000Y-121820750D01*
G75*
G02*
X106898750Y-122065000I-244250J0D01*
G01*
X106410250Y-122065000D01*
G75*
G02*
X106166000Y-121820750I0J244250D01*
G01*
G37*
G36*
G01*
X107741000Y-121820750D02*
X107741000Y-121257250D01*
G75*
G02*
X107985250Y-121013000I244250J0D01*
G01*
X108473750Y-121013000D01*
G75*
G02*
X108718000Y-121257250I0J-244250D01*
G01*
X108718000Y-121820750D01*
G75*
G02*
X108473750Y-122065000I-244250J0D01*
G01*
X107985250Y-122065000D01*
G75*
G02*
X107741000Y-121820750I0J244250D01*
G01*
G37*
G36*
G01*
X111424000Y-121820750D02*
X111424000Y-121257250D01*
G75*
G02*
X111668250Y-121013000I244250J0D01*
G01*
X112156750Y-121013000D01*
G75*
G02*
X112401000Y-121257250I0J-244250D01*
G01*
X112401000Y-121820750D01*
G75*
G02*
X112156750Y-122065000I-244250J0D01*
G01*
X111668250Y-122065000D01*
G75*
G02*
X111424000Y-121820750I0J244250D01*
G01*
G37*
G36*
G01*
X109849000Y-121820750D02*
X109849000Y-121257250D01*
G75*
G02*
X110093250Y-121013000I244250J0D01*
G01*
X110581750Y-121013000D01*
G75*
G02*
X110826000Y-121257250I0J-244250D01*
G01*
X110826000Y-121820750D01*
G75*
G02*
X110581750Y-122065000I-244250J0D01*
G01*
X110093250Y-122065000D01*
G75*
G02*
X109849000Y-121820750I0J244250D01*
G01*
G37*
G36*
G01*
X86332250Y-99994000D02*
X86895750Y-99994000D01*
G75*
G02*
X87140000Y-100238250I0J-244250D01*
G01*
X87140000Y-100726750D01*
G75*
G02*
X86895750Y-100971000I-244250J0D01*
G01*
X86332250Y-100971000D01*
G75*
G02*
X86088000Y-100726750I0J244250D01*
G01*
X86088000Y-100238250D01*
G75*
G02*
X86332250Y-99994000I244250J0D01*
G01*
G37*
G36*
G01*
X86332250Y-98419000D02*
X86895750Y-98419000D01*
G75*
G02*
X87140000Y-98663250I0J-244250D01*
G01*
X87140000Y-99151750D01*
G75*
G02*
X86895750Y-99396000I-244250J0D01*
G01*
X86332250Y-99396000D01*
G75*
G02*
X86088000Y-99151750I0J244250D01*
G01*
X86088000Y-98663250D01*
G75*
G02*
X86332250Y-98419000I244250J0D01*
G01*
G37*
G36*
G01*
X115288250Y-109087000D02*
X115851750Y-109087000D01*
G75*
G02*
X116096000Y-109331250I0J-244250D01*
G01*
X116096000Y-109819750D01*
G75*
G02*
X115851750Y-110064000I-244250J0D01*
G01*
X115288250Y-110064000D01*
G75*
G02*
X115044000Y-109819750I0J244250D01*
G01*
X115044000Y-109331250D01*
G75*
G02*
X115288250Y-109087000I244250J0D01*
G01*
G37*
G36*
G01*
X115288250Y-110662000D02*
X115851750Y-110662000D01*
G75*
G02*
X116096000Y-110906250I0J-244250D01*
G01*
X116096000Y-111394750D01*
G75*
G02*
X115851750Y-111639000I-244250J0D01*
G01*
X115288250Y-111639000D01*
G75*
G02*
X115044000Y-111394750I0J244250D01*
G01*
X115044000Y-110906250D01*
G75*
G02*
X115288250Y-110662000I244250J0D01*
G01*
G37*
G36*
G01*
X124813250Y-109087000D02*
X125376750Y-109087000D01*
G75*
G02*
X125621000Y-109331250I0J-244250D01*
G01*
X125621000Y-109819750D01*
G75*
G02*
X125376750Y-110064000I-244250J0D01*
G01*
X124813250Y-110064000D01*
G75*
G02*
X124569000Y-109819750I0J244250D01*
G01*
X124569000Y-109331250D01*
G75*
G02*
X124813250Y-109087000I244250J0D01*
G01*
G37*
G36*
G01*
X124813250Y-110662000D02*
X125376750Y-110662000D01*
G75*
G02*
X125621000Y-110906250I0J-244250D01*
G01*
X125621000Y-111394750D01*
G75*
G02*
X125376750Y-111639000I-244250J0D01*
G01*
X124813250Y-111639000D01*
G75*
G02*
X124569000Y-111394750I0J244250D01*
G01*
X124569000Y-110906250D01*
G75*
G02*
X124813250Y-110662000I244250J0D01*
G01*
G37*
G36*
G01*
X121003250Y-109087000D02*
X121566750Y-109087000D01*
G75*
G02*
X121811000Y-109331250I0J-244250D01*
G01*
X121811000Y-109819750D01*
G75*
G02*
X121566750Y-110064000I-244250J0D01*
G01*
X121003250Y-110064000D01*
G75*
G02*
X120759000Y-109819750I0J244250D01*
G01*
X120759000Y-109331250D01*
G75*
G02*
X121003250Y-109087000I244250J0D01*
G01*
G37*
G36*
G01*
X121003250Y-110662000D02*
X121566750Y-110662000D01*
G75*
G02*
X121811000Y-110906250I0J-244250D01*
G01*
X121811000Y-111394750D01*
G75*
G02*
X121566750Y-111639000I-244250J0D01*
G01*
X121003250Y-111639000D01*
G75*
G02*
X120759000Y-111394750I0J244250D01*
G01*
X120759000Y-110906250D01*
G75*
G02*
X121003250Y-110662000I244250J0D01*
G01*
G37*
G36*
G01*
X128369250Y-110662000D02*
X128932750Y-110662000D01*
G75*
G02*
X129177000Y-110906250I0J-244250D01*
G01*
X129177000Y-111394750D01*
G75*
G02*
X128932750Y-111639000I-244250J0D01*
G01*
X128369250Y-111639000D01*
G75*
G02*
X128125000Y-111394750I0J244250D01*
G01*
X128125000Y-110906250D01*
G75*
G02*
X128369250Y-110662000I244250J0D01*
G01*
G37*
G36*
G01*
X128369250Y-109087000D02*
X128932750Y-109087000D01*
G75*
G02*
X129177000Y-109331250I0J-244250D01*
G01*
X129177000Y-109819750D01*
G75*
G02*
X128932750Y-110064000I-244250J0D01*
G01*
X128369250Y-110064000D01*
G75*
G02*
X128125000Y-109819750I0J244250D01*
G01*
X128125000Y-109331250D01*
G75*
G02*
X128369250Y-109087000I244250J0D01*
G01*
G37*
G36*
G01*
X117320250Y-109087000D02*
X117883750Y-109087000D01*
G75*
G02*
X118128000Y-109331250I0J-244250D01*
G01*
X118128000Y-109819750D01*
G75*
G02*
X117883750Y-110064000I-244250J0D01*
G01*
X117320250Y-110064000D01*
G75*
G02*
X117076000Y-109819750I0J244250D01*
G01*
X117076000Y-109331250D01*
G75*
G02*
X117320250Y-109087000I244250J0D01*
G01*
G37*
G36*
G01*
X117320250Y-110662000D02*
X117883750Y-110662000D01*
G75*
G02*
X118128000Y-110906250I0J-244250D01*
G01*
X118128000Y-111394750D01*
G75*
G02*
X117883750Y-111639000I-244250J0D01*
G01*
X117320250Y-111639000D01*
G75*
G02*
X117076000Y-111394750I0J244250D01*
G01*
X117076000Y-110906250D01*
G75*
G02*
X117320250Y-110662000I244250J0D01*
G01*
G37*
G36*
G01*
X106271250Y-109087000D02*
X106834750Y-109087000D01*
G75*
G02*
X107079000Y-109331250I0J-244250D01*
G01*
X107079000Y-109819750D01*
G75*
G02*
X106834750Y-110064000I-244250J0D01*
G01*
X106271250Y-110064000D01*
G75*
G02*
X106027000Y-109819750I0J244250D01*
G01*
X106027000Y-109331250D01*
G75*
G02*
X106271250Y-109087000I244250J0D01*
G01*
G37*
G36*
G01*
X106271250Y-110662000D02*
X106834750Y-110662000D01*
G75*
G02*
X107079000Y-110906250I0J-244250D01*
G01*
X107079000Y-111394750D01*
G75*
G02*
X106834750Y-111639000I-244250J0D01*
G01*
X106271250Y-111639000D01*
G75*
G02*
X106027000Y-111394750I0J244250D01*
G01*
X106027000Y-110906250D01*
G75*
G02*
X106271250Y-110662000I244250J0D01*
G01*
G37*
G36*
G01*
X109954250Y-109087000D02*
X110517750Y-109087000D01*
G75*
G02*
X110762000Y-109331250I0J-244250D01*
G01*
X110762000Y-109819750D01*
G75*
G02*
X110517750Y-110064000I-244250J0D01*
G01*
X109954250Y-110064000D01*
G75*
G02*
X109710000Y-109819750I0J244250D01*
G01*
X109710000Y-109331250D01*
G75*
G02*
X109954250Y-109087000I244250J0D01*
G01*
G37*
G36*
G01*
X109954250Y-110662000D02*
X110517750Y-110662000D01*
G75*
G02*
X110762000Y-110906250I0J-244250D01*
G01*
X110762000Y-111394750D01*
G75*
G02*
X110517750Y-111639000I-244250J0D01*
G01*
X109954250Y-111639000D01*
G75*
G02*
X109710000Y-111394750I0J244250D01*
G01*
X109710000Y-110906250D01*
G75*
G02*
X109954250Y-110662000I244250J0D01*
G01*
G37*
G36*
G01*
X126464250Y-110662000D02*
X127027750Y-110662000D01*
G75*
G02*
X127272000Y-110906250I0J-244250D01*
G01*
X127272000Y-111394750D01*
G75*
G02*
X127027750Y-111639000I-244250J0D01*
G01*
X126464250Y-111639000D01*
G75*
G02*
X126220000Y-111394750I0J244250D01*
G01*
X126220000Y-110906250D01*
G75*
G02*
X126464250Y-110662000I244250J0D01*
G01*
G37*
G36*
G01*
X126464250Y-109087000D02*
X127027750Y-109087000D01*
G75*
G02*
X127272000Y-109331250I0J-244250D01*
G01*
X127272000Y-109819750D01*
G75*
G02*
X127027750Y-110064000I-244250J0D01*
G01*
X126464250Y-110064000D01*
G75*
G02*
X126220000Y-109819750I0J244250D01*
G01*
X126220000Y-109331250D01*
G75*
G02*
X126464250Y-109087000I244250J0D01*
G01*
G37*
G36*
G01*
X122654250Y-109087000D02*
X123217750Y-109087000D01*
G75*
G02*
X123462000Y-109331250I0J-244250D01*
G01*
X123462000Y-109819750D01*
G75*
G02*
X123217750Y-110064000I-244250J0D01*
G01*
X122654250Y-110064000D01*
G75*
G02*
X122410000Y-109819750I0J244250D01*
G01*
X122410000Y-109331250D01*
G75*
G02*
X122654250Y-109087000I244250J0D01*
G01*
G37*
G36*
G01*
X122654250Y-110662000D02*
X123217750Y-110662000D01*
G75*
G02*
X123462000Y-110906250I0J-244250D01*
G01*
X123462000Y-111394750D01*
G75*
G02*
X123217750Y-111639000I-244250J0D01*
G01*
X122654250Y-111639000D01*
G75*
G02*
X122410000Y-111394750I0J244250D01*
G01*
X122410000Y-110906250D01*
G75*
G02*
X122654250Y-110662000I244250J0D01*
G01*
G37*
G36*
G01*
X130020250Y-110662000D02*
X130583750Y-110662000D01*
G75*
G02*
X130828000Y-110906250I0J-244250D01*
G01*
X130828000Y-111394750D01*
G75*
G02*
X130583750Y-111639000I-244250J0D01*
G01*
X130020250Y-111639000D01*
G75*
G02*
X129776000Y-111394750I0J244250D01*
G01*
X129776000Y-110906250D01*
G75*
G02*
X130020250Y-110662000I244250J0D01*
G01*
G37*
G36*
G01*
X130020250Y-109087000D02*
X130583750Y-109087000D01*
G75*
G02*
X130828000Y-109331250I0J-244250D01*
G01*
X130828000Y-109819750D01*
G75*
G02*
X130583750Y-110064000I-244250J0D01*
G01*
X130020250Y-110064000D01*
G75*
G02*
X129776000Y-109819750I0J244250D01*
G01*
X129776000Y-109331250D01*
G75*
G02*
X130020250Y-109087000I244250J0D01*
G01*
G37*
G36*
G01*
X118971250Y-110662000D02*
X119534750Y-110662000D01*
G75*
G02*
X119779000Y-110906250I0J-244250D01*
G01*
X119779000Y-111394750D01*
G75*
G02*
X119534750Y-111639000I-244250J0D01*
G01*
X118971250Y-111639000D01*
G75*
G02*
X118727000Y-111394750I0J244250D01*
G01*
X118727000Y-110906250D01*
G75*
G02*
X118971250Y-110662000I244250J0D01*
G01*
G37*
G36*
G01*
X118971250Y-109087000D02*
X119534750Y-109087000D01*
G75*
G02*
X119779000Y-109331250I0J-244250D01*
G01*
X119779000Y-109819750D01*
G75*
G02*
X119534750Y-110064000I-244250J0D01*
G01*
X118971250Y-110064000D01*
G75*
G02*
X118727000Y-109819750I0J244250D01*
G01*
X118727000Y-109331250D01*
G75*
G02*
X118971250Y-109087000I244250J0D01*
G01*
G37*
G36*
G01*
X107922250Y-110662000D02*
X108485750Y-110662000D01*
G75*
G02*
X108730000Y-110906250I0J-244250D01*
G01*
X108730000Y-111394750D01*
G75*
G02*
X108485750Y-111639000I-244250J0D01*
G01*
X107922250Y-111639000D01*
G75*
G02*
X107678000Y-111394750I0J244250D01*
G01*
X107678000Y-110906250D01*
G75*
G02*
X107922250Y-110662000I244250J0D01*
G01*
G37*
G36*
G01*
X107922250Y-109087000D02*
X108485750Y-109087000D01*
G75*
G02*
X108730000Y-109331250I0J-244250D01*
G01*
X108730000Y-109819750D01*
G75*
G02*
X108485750Y-110064000I-244250J0D01*
G01*
X107922250Y-110064000D01*
G75*
G02*
X107678000Y-109819750I0J244250D01*
G01*
X107678000Y-109331250D01*
G75*
G02*
X107922250Y-109087000I244250J0D01*
G01*
G37*
G36*
G01*
X111605250Y-110662000D02*
X112168750Y-110662000D01*
G75*
G02*
X112413000Y-110906250I0J-244250D01*
G01*
X112413000Y-111394750D01*
G75*
G02*
X112168750Y-111639000I-244250J0D01*
G01*
X111605250Y-111639000D01*
G75*
G02*
X111361000Y-111394750I0J244250D01*
G01*
X111361000Y-110906250D01*
G75*
G02*
X111605250Y-110662000I244250J0D01*
G01*
G37*
G36*
G01*
X111605250Y-109087000D02*
X112168750Y-109087000D01*
G75*
G02*
X112413000Y-109331250I0J-244250D01*
G01*
X112413000Y-109819750D01*
G75*
G02*
X112168750Y-110064000I-244250J0D01*
G01*
X111605250Y-110064000D01*
G75*
G02*
X111361000Y-109819750I0J244250D01*
G01*
X111361000Y-109331250D01*
G75*
G02*
X111605250Y-109087000I244250J0D01*
G01*
G37*
G36*
G01*
X105456000Y-91601000D02*
X104856000Y-91601000D01*
G75*
G02*
X104805000Y-91550000I0J51000D01*
G01*
X104805000Y-89550000D01*
G75*
G02*
X104856000Y-89499000I51000J0D01*
G01*
X105456000Y-89499000D01*
G75*
G02*
X105507000Y-89550000I0J-51000D01*
G01*
X105507000Y-91550000D01*
G75*
G02*
X105456000Y-91601000I-51000J0D01*
G01*
G37*
G36*
G01*
X104186000Y-91601000D02*
X103586000Y-91601000D01*
G75*
G02*
X103535000Y-91550000I0J51000D01*
G01*
X103535000Y-89550000D01*
G75*
G02*
X103586000Y-89499000I51000J0D01*
G01*
X104186000Y-89499000D01*
G75*
G02*
X104237000Y-89550000I0J-51000D01*
G01*
X104237000Y-91550000D01*
G75*
G02*
X104186000Y-91601000I-51000J0D01*
G01*
G37*
G36*
G01*
X102916000Y-91601000D02*
X102316000Y-91601000D01*
G75*
G02*
X102265000Y-91550000I0J51000D01*
G01*
X102265000Y-89550000D01*
G75*
G02*
X102316000Y-89499000I51000J0D01*
G01*
X102916000Y-89499000D01*
G75*
G02*
X102967000Y-89550000I0J-51000D01*
G01*
X102967000Y-91550000D01*
G75*
G02*
X102916000Y-91601000I-51000J0D01*
G01*
G37*
G36*
G01*
X101646000Y-91601000D02*
X101046000Y-91601000D01*
G75*
G02*
X100995000Y-91550000I0J51000D01*
G01*
X100995000Y-89550000D01*
G75*
G02*
X101046000Y-89499000I51000J0D01*
G01*
X101646000Y-89499000D01*
G75*
G02*
X101697000Y-89550000I0J-51000D01*
G01*
X101697000Y-91550000D01*
G75*
G02*
X101646000Y-91601000I-51000J0D01*
G01*
G37*
G36*
G01*
X100376000Y-91601000D02*
X99776000Y-91601000D01*
G75*
G02*
X99725000Y-91550000I0J51000D01*
G01*
X99725000Y-89550000D01*
G75*
G02*
X99776000Y-89499000I51000J0D01*
G01*
X100376000Y-89499000D01*
G75*
G02*
X100427000Y-89550000I0J-51000D01*
G01*
X100427000Y-91550000D01*
G75*
G02*
X100376000Y-91601000I-51000J0D01*
G01*
G37*
G36*
G01*
X99106000Y-91601000D02*
X98506000Y-91601000D01*
G75*
G02*
X98455000Y-91550000I0J51000D01*
G01*
X98455000Y-89550000D01*
G75*
G02*
X98506000Y-89499000I51000J0D01*
G01*
X99106000Y-89499000D01*
G75*
G02*
X99157000Y-89550000I0J-51000D01*
G01*
X99157000Y-91550000D01*
G75*
G02*
X99106000Y-91601000I-51000J0D01*
G01*
G37*
G36*
G01*
X97836000Y-91601000D02*
X97236000Y-91601000D01*
G75*
G02*
X97185000Y-91550000I0J51000D01*
G01*
X97185000Y-89550000D01*
G75*
G02*
X97236000Y-89499000I51000J0D01*
G01*
X97836000Y-89499000D01*
G75*
G02*
X97887000Y-89550000I0J-51000D01*
G01*
X97887000Y-91550000D01*
G75*
G02*
X97836000Y-91601000I-51000J0D01*
G01*
G37*
G36*
G01*
X96566000Y-91601000D02*
X95966000Y-91601000D01*
G75*
G02*
X95915000Y-91550000I0J51000D01*
G01*
X95915000Y-89550000D01*
G75*
G02*
X95966000Y-89499000I51000J0D01*
G01*
X96566000Y-89499000D01*
G75*
G02*
X96617000Y-89550000I0J-51000D01*
G01*
X96617000Y-91550000D01*
G75*
G02*
X96566000Y-91601000I-51000J0D01*
G01*
G37*
G36*
G01*
X95296000Y-91601000D02*
X94696000Y-91601000D01*
G75*
G02*
X94645000Y-91550000I0J51000D01*
G01*
X94645000Y-89550000D01*
G75*
G02*
X94696000Y-89499000I51000J0D01*
G01*
X95296000Y-89499000D01*
G75*
G02*
X95347000Y-89550000I0J-51000D01*
G01*
X95347000Y-91550000D01*
G75*
G02*
X95296000Y-91601000I-51000J0D01*
G01*
G37*
G36*
G01*
X94026000Y-91601000D02*
X93426000Y-91601000D01*
G75*
G02*
X93375000Y-91550000I0J51000D01*
G01*
X93375000Y-89550000D01*
G75*
G02*
X93426000Y-89499000I51000J0D01*
G01*
X94026000Y-89499000D01*
G75*
G02*
X94077000Y-89550000I0J-51000D01*
G01*
X94077000Y-91550000D01*
G75*
G02*
X94026000Y-91601000I-51000J0D01*
G01*
G37*
G36*
G01*
X92756000Y-91601000D02*
X92156000Y-91601000D01*
G75*
G02*
X92105000Y-91550000I0J51000D01*
G01*
X92105000Y-89550000D01*
G75*
G02*
X92156000Y-89499000I51000J0D01*
G01*
X92756000Y-89499000D01*
G75*
G02*
X92807000Y-89550000I0J-51000D01*
G01*
X92807000Y-91550000D01*
G75*
G02*
X92756000Y-91601000I-51000J0D01*
G01*
G37*
G36*
G01*
X91486000Y-91601000D02*
X90886000Y-91601000D01*
G75*
G02*
X90835000Y-91550000I0J51000D01*
G01*
X90835000Y-89550000D01*
G75*
G02*
X90886000Y-89499000I51000J0D01*
G01*
X91486000Y-89499000D01*
G75*
G02*
X91537000Y-89550000I0J-51000D01*
G01*
X91537000Y-91550000D01*
G75*
G02*
X91486000Y-91601000I-51000J0D01*
G01*
G37*
G36*
G01*
X90216000Y-91601000D02*
X89616000Y-91601000D01*
G75*
G02*
X89565000Y-91550000I0J51000D01*
G01*
X89565000Y-89550000D01*
G75*
G02*
X89616000Y-89499000I51000J0D01*
G01*
X90216000Y-89499000D01*
G75*
G02*
X90267000Y-89550000I0J-51000D01*
G01*
X90267000Y-91550000D01*
G75*
G02*
X90216000Y-91601000I-51000J0D01*
G01*
G37*
G36*
G01*
X88946000Y-91601000D02*
X88346000Y-91601000D01*
G75*
G02*
X88295000Y-91550000I0J51000D01*
G01*
X88295000Y-89550000D01*
G75*
G02*
X88346000Y-89499000I51000J0D01*
G01*
X88946000Y-89499000D01*
G75*
G02*
X88997000Y-89550000I0J-51000D01*
G01*
X88997000Y-91550000D01*
G75*
G02*
X88946000Y-91601000I-51000J0D01*
G01*
G37*
G36*
G01*
X88946000Y-101001000D02*
X88346000Y-101001000D01*
G75*
G02*
X88295000Y-100950000I0J51000D01*
G01*
X88295000Y-98950000D01*
G75*
G02*
X88346000Y-98899000I51000J0D01*
G01*
X88946000Y-98899000D01*
G75*
G02*
X88997000Y-98950000I0J-51000D01*
G01*
X88997000Y-100950000D01*
G75*
G02*
X88946000Y-101001000I-51000J0D01*
G01*
G37*
G36*
G01*
X90216000Y-101001000D02*
X89616000Y-101001000D01*
G75*
G02*
X89565000Y-100950000I0J51000D01*
G01*
X89565000Y-98950000D01*
G75*
G02*
X89616000Y-98899000I51000J0D01*
G01*
X90216000Y-98899000D01*
G75*
G02*
X90267000Y-98950000I0J-51000D01*
G01*
X90267000Y-100950000D01*
G75*
G02*
X90216000Y-101001000I-51000J0D01*
G01*
G37*
G36*
G01*
X91486000Y-101001000D02*
X90886000Y-101001000D01*
G75*
G02*
X90835000Y-100950000I0J51000D01*
G01*
X90835000Y-98950000D01*
G75*
G02*
X90886000Y-98899000I51000J0D01*
G01*
X91486000Y-98899000D01*
G75*
G02*
X91537000Y-98950000I0J-51000D01*
G01*
X91537000Y-100950000D01*
G75*
G02*
X91486000Y-101001000I-51000J0D01*
G01*
G37*
G36*
G01*
X92756000Y-101001000D02*
X92156000Y-101001000D01*
G75*
G02*
X92105000Y-100950000I0J51000D01*
G01*
X92105000Y-98950000D01*
G75*
G02*
X92156000Y-98899000I51000J0D01*
G01*
X92756000Y-98899000D01*
G75*
G02*
X92807000Y-98950000I0J-51000D01*
G01*
X92807000Y-100950000D01*
G75*
G02*
X92756000Y-101001000I-51000J0D01*
G01*
G37*
G36*
G01*
X94026000Y-101001000D02*
X93426000Y-101001000D01*
G75*
G02*
X93375000Y-100950000I0J51000D01*
G01*
X93375000Y-98950000D01*
G75*
G02*
X93426000Y-98899000I51000J0D01*
G01*
X94026000Y-98899000D01*
G75*
G02*
X94077000Y-98950000I0J-51000D01*
G01*
X94077000Y-100950000D01*
G75*
G02*
X94026000Y-101001000I-51000J0D01*
G01*
G37*
G36*
G01*
X95296000Y-101001000D02*
X94696000Y-101001000D01*
G75*
G02*
X94645000Y-100950000I0J51000D01*
G01*
X94645000Y-98950000D01*
G75*
G02*
X94696000Y-98899000I51000J0D01*
G01*
X95296000Y-98899000D01*
G75*
G02*
X95347000Y-98950000I0J-51000D01*
G01*
X95347000Y-100950000D01*
G75*
G02*
X95296000Y-101001000I-51000J0D01*
G01*
G37*
G36*
G01*
X96566000Y-101001000D02*
X95966000Y-101001000D01*
G75*
G02*
X95915000Y-100950000I0J51000D01*
G01*
X95915000Y-98950000D01*
G75*
G02*
X95966000Y-98899000I51000J0D01*
G01*
X96566000Y-98899000D01*
G75*
G02*
X96617000Y-98950000I0J-51000D01*
G01*
X96617000Y-100950000D01*
G75*
G02*
X96566000Y-101001000I-51000J0D01*
G01*
G37*
G36*
G01*
X97836000Y-101001000D02*
X97236000Y-101001000D01*
G75*
G02*
X97185000Y-100950000I0J51000D01*
G01*
X97185000Y-98950000D01*
G75*
G02*
X97236000Y-98899000I51000J0D01*
G01*
X97836000Y-98899000D01*
G75*
G02*
X97887000Y-98950000I0J-51000D01*
G01*
X97887000Y-100950000D01*
G75*
G02*
X97836000Y-101001000I-51000J0D01*
G01*
G37*
G36*
G01*
X99106000Y-101001000D02*
X98506000Y-101001000D01*
G75*
G02*
X98455000Y-100950000I0J51000D01*
G01*
X98455000Y-98950000D01*
G75*
G02*
X98506000Y-98899000I51000J0D01*
G01*
X99106000Y-98899000D01*
G75*
G02*
X99157000Y-98950000I0J-51000D01*
G01*
X99157000Y-100950000D01*
G75*
G02*
X99106000Y-101001000I-51000J0D01*
G01*
G37*
G36*
G01*
X100376000Y-101001000D02*
X99776000Y-101001000D01*
G75*
G02*
X99725000Y-100950000I0J51000D01*
G01*
X99725000Y-98950000D01*
G75*
G02*
X99776000Y-98899000I51000J0D01*
G01*
X100376000Y-98899000D01*
G75*
G02*
X100427000Y-98950000I0J-51000D01*
G01*
X100427000Y-100950000D01*
G75*
G02*
X100376000Y-101001000I-51000J0D01*
G01*
G37*
G36*
G01*
X101646000Y-101001000D02*
X101046000Y-101001000D01*
G75*
G02*
X100995000Y-100950000I0J51000D01*
G01*
X100995000Y-98950000D01*
G75*
G02*
X101046000Y-98899000I51000J0D01*
G01*
X101646000Y-98899000D01*
G75*
G02*
X101697000Y-98950000I0J-51000D01*
G01*
X101697000Y-100950000D01*
G75*
G02*
X101646000Y-101001000I-51000J0D01*
G01*
G37*
G36*
G01*
X102916000Y-101001000D02*
X102316000Y-101001000D01*
G75*
G02*
X102265000Y-100950000I0J51000D01*
G01*
X102265000Y-98950000D01*
G75*
G02*
X102316000Y-98899000I51000J0D01*
G01*
X102916000Y-98899000D01*
G75*
G02*
X102967000Y-98950000I0J-51000D01*
G01*
X102967000Y-100950000D01*
G75*
G02*
X102916000Y-101001000I-51000J0D01*
G01*
G37*
G36*
G01*
X104186000Y-101001000D02*
X103586000Y-101001000D01*
G75*
G02*
X103535000Y-100950000I0J51000D01*
G01*
X103535000Y-98950000D01*
G75*
G02*
X103586000Y-98899000I51000J0D01*
G01*
X104186000Y-98899000D01*
G75*
G02*
X104237000Y-98950000I0J-51000D01*
G01*
X104237000Y-100950000D01*
G75*
G02*
X104186000Y-101001000I-51000J0D01*
G01*
G37*
G36*
G01*
X105456000Y-101001000D02*
X104856000Y-101001000D01*
G75*
G02*
X104805000Y-100950000I0J51000D01*
G01*
X104805000Y-98950000D01*
G75*
G02*
X104856000Y-98899000I51000J0D01*
G01*
X105456000Y-98899000D01*
G75*
G02*
X105507000Y-98950000I0J-51000D01*
G01*
X105507000Y-100950000D01*
G75*
G02*
X105456000Y-101001000I-51000J0D01*
G01*
G37*
G36*
G01*
X120042750Y-80905000D02*
X119479250Y-80905000D01*
G75*
G02*
X119235000Y-80660750I0J244250D01*
G01*
X119235000Y-80172250D01*
G75*
G02*
X119479250Y-79928000I244250J0D01*
G01*
X120042750Y-79928000D01*
G75*
G02*
X120287000Y-80172250I0J-244250D01*
G01*
X120287000Y-80660750D01*
G75*
G02*
X120042750Y-80905000I-244250J0D01*
G01*
G37*
G36*
G01*
X120042750Y-79330000D02*
X119479250Y-79330000D01*
G75*
G02*
X119235000Y-79085750I0J244250D01*
G01*
X119235000Y-78597250D01*
G75*
G02*
X119479250Y-78353000I244250J0D01*
G01*
X120042750Y-78353000D01*
G75*
G02*
X120287000Y-78597250I0J-244250D01*
G01*
X120287000Y-79085750D01*
G75*
G02*
X120042750Y-79330000I-244250J0D01*
G01*
G37*
D20*
X88082456Y-48061544D03*
X86385400Y-47358600D03*
X84688344Y-48061544D03*
X83985400Y-49758600D03*
X84688344Y-51455656D03*
X86385400Y-52158600D03*
X88082456Y-51455656D03*
X88785400Y-49758600D03*
D21*
X86385400Y-49758600D03*
G36*
G01*
X96692000Y-121820750D02*
X96692000Y-121257250D01*
G75*
G02*
X96936250Y-121013000I244250J0D01*
G01*
X97424750Y-121013000D01*
G75*
G02*
X97669000Y-121257250I0J-244250D01*
G01*
X97669000Y-121820750D01*
G75*
G02*
X97424750Y-122065000I-244250J0D01*
G01*
X96936250Y-122065000D01*
G75*
G02*
X96692000Y-121820750I0J244250D01*
G01*
G37*
G36*
G01*
X95117000Y-121820750D02*
X95117000Y-121257250D01*
G75*
G02*
X95361250Y-121013000I244250J0D01*
G01*
X95849750Y-121013000D01*
G75*
G02*
X96094000Y-121257250I0J-244250D01*
G01*
X96094000Y-121820750D01*
G75*
G02*
X95849750Y-122065000I-244250J0D01*
G01*
X95361250Y-122065000D01*
G75*
G02*
X95117000Y-121820750I0J244250D01*
G01*
G37*
G36*
G01*
X91434000Y-121820750D02*
X91434000Y-121257250D01*
G75*
G02*
X91678250Y-121013000I244250J0D01*
G01*
X92166750Y-121013000D01*
G75*
G02*
X92411000Y-121257250I0J-244250D01*
G01*
X92411000Y-121820750D01*
G75*
G02*
X92166750Y-122065000I-244250J0D01*
G01*
X91678250Y-122065000D01*
G75*
G02*
X91434000Y-121820750I0J244250D01*
G01*
G37*
G36*
G01*
X93009000Y-121820750D02*
X93009000Y-121257250D01*
G75*
G02*
X93253250Y-121013000I244250J0D01*
G01*
X93741750Y-121013000D01*
G75*
G02*
X93986000Y-121257250I0J-244250D01*
G01*
X93986000Y-121820750D01*
G75*
G02*
X93741750Y-122065000I-244250J0D01*
G01*
X93253250Y-122065000D01*
G75*
G02*
X93009000Y-121820750I0J244250D01*
G01*
G37*
G36*
G01*
X93626750Y-111639000D02*
X93063250Y-111639000D01*
G75*
G02*
X92819000Y-111394750I0J244250D01*
G01*
X92819000Y-110906250D01*
G75*
G02*
X93063250Y-110662000I244250J0D01*
G01*
X93626750Y-110662000D01*
G75*
G02*
X93871000Y-110906250I0J-244250D01*
G01*
X93871000Y-111394750D01*
G75*
G02*
X93626750Y-111639000I-244250J0D01*
G01*
G37*
G36*
G01*
X93626750Y-110064000D02*
X93063250Y-110064000D01*
G75*
G02*
X92819000Y-109819750I0J244250D01*
G01*
X92819000Y-109331250D01*
G75*
G02*
X93063250Y-109087000I244250J0D01*
G01*
X93626750Y-109087000D01*
G75*
G02*
X93871000Y-109331250I0J-244250D01*
G01*
X93871000Y-109819750D01*
G75*
G02*
X93626750Y-110064000I-244250J0D01*
G01*
G37*
G36*
G01*
X126519750Y-96272000D02*
X125956250Y-96272000D01*
G75*
G02*
X125712000Y-96027750I0J244250D01*
G01*
X125712000Y-95539250D01*
G75*
G02*
X125956250Y-95295000I244250J0D01*
G01*
X126519750Y-95295000D01*
G75*
G02*
X126764000Y-95539250I0J-244250D01*
G01*
X126764000Y-96027750D01*
G75*
G02*
X126519750Y-96272000I-244250J0D01*
G01*
G37*
G36*
G01*
X126519750Y-94697000D02*
X125956250Y-94697000D01*
G75*
G02*
X125712000Y-94452750I0J244250D01*
G01*
X125712000Y-93964250D01*
G75*
G02*
X125956250Y-93720000I244250J0D01*
G01*
X126519750Y-93720000D01*
G75*
G02*
X126764000Y-93964250I0J-244250D01*
G01*
X126764000Y-94452750D01*
G75*
G02*
X126519750Y-94697000I-244250J0D01*
G01*
G37*
G36*
G01*
X162595000Y-52467000D02*
X162595000Y-54467000D01*
G75*
G02*
X162544000Y-54518000I-51000J0D01*
G01*
X160544000Y-54518000D01*
G75*
G02*
X160493000Y-54467000I0J51000D01*
G01*
X160493000Y-52467000D01*
G75*
G02*
X160544000Y-52416000I51000J0D01*
G01*
X162544000Y-52416000D01*
G75*
G02*
X162595000Y-52467000I0J-51000D01*
G01*
G37*
D22*
X156544000Y-53467000D03*
X112094000Y-50800000D03*
G36*
G01*
X118145000Y-49800000D02*
X118145000Y-51800000D01*
G75*
G02*
X118094000Y-51851000I-51000J0D01*
G01*
X116094000Y-51851000D01*
G75*
G02*
X116043000Y-51800000I0J51000D01*
G01*
X116043000Y-49800000D01*
G75*
G02*
X116094000Y-49749000I51000J0D01*
G01*
X118094000Y-49749000D01*
G75*
G02*
X118145000Y-49800000I0J-51000D01*
G01*
G37*
G36*
G01*
X98397250Y-77261000D02*
X98960750Y-77261000D01*
G75*
G02*
X99205000Y-77505250I0J-244250D01*
G01*
X99205000Y-77993750D01*
G75*
G02*
X98960750Y-78238000I-244250J0D01*
G01*
X98397250Y-78238000D01*
G75*
G02*
X98153000Y-77993750I0J244250D01*
G01*
X98153000Y-77505250D01*
G75*
G02*
X98397250Y-77261000I244250J0D01*
G01*
G37*
G36*
G01*
X98397250Y-75686000D02*
X98960750Y-75686000D01*
G75*
G02*
X99205000Y-75930250I0J-244250D01*
G01*
X99205000Y-76418750D01*
G75*
G02*
X98960750Y-76663000I-244250J0D01*
G01*
X98397250Y-76663000D01*
G75*
G02*
X98153000Y-76418750I0J244250D01*
G01*
X98153000Y-75930250D01*
G75*
G02*
X98397250Y-75686000I244250J0D01*
G01*
G37*
D10*
G36*
X124671165Y-133702129D02*
G01*
X124672000Y-133703755D01*
X124672000Y-133790147D01*
X124671990Y-133790343D01*
X124668117Y-133829671D01*
X124668041Y-133830056D01*
X124658361Y-133861964D01*
X124658211Y-133862326D01*
X124642490Y-133891738D01*
X124642272Y-133892064D01*
X124621118Y-133917841D01*
X124620841Y-133918118D01*
X124595064Y-133939272D01*
X124594738Y-133939490D01*
X124565326Y-133955211D01*
X124564964Y-133955361D01*
X124533056Y-133965041D01*
X124532671Y-133965117D01*
X124493343Y-133968990D01*
X124493147Y-133969000D01*
X124406755Y-133969000D01*
X124405023Y-133968000D01*
X124405023Y-133966000D01*
X124406559Y-133965010D01*
X124457717Y-133959972D01*
X124506726Y-133945105D01*
X124551890Y-133920964D01*
X124591476Y-133888476D01*
X124623964Y-133848890D01*
X124648105Y-133803726D01*
X124662972Y-133754717D01*
X124668010Y-133703559D01*
X124669175Y-133701933D01*
X124671165Y-133702129D01*
G37*
G36*
X117896165Y-133702129D02*
G01*
X117897000Y-133703755D01*
X117897000Y-133790147D01*
X117896990Y-133790343D01*
X117893117Y-133829671D01*
X117893041Y-133830056D01*
X117883361Y-133861964D01*
X117883211Y-133862326D01*
X117867490Y-133891738D01*
X117867272Y-133892064D01*
X117846118Y-133917841D01*
X117845841Y-133918118D01*
X117820064Y-133939272D01*
X117819738Y-133939490D01*
X117790326Y-133955211D01*
X117789964Y-133955361D01*
X117758056Y-133965041D01*
X117757671Y-133965117D01*
X117718343Y-133968990D01*
X117718147Y-133969000D01*
X117631755Y-133969000D01*
X117630023Y-133968000D01*
X117630023Y-133966000D01*
X117631559Y-133965010D01*
X117682717Y-133959972D01*
X117731726Y-133945105D01*
X117776890Y-133920964D01*
X117816476Y-133888476D01*
X117848964Y-133848890D01*
X117873105Y-133803726D01*
X117887972Y-133754717D01*
X117893010Y-133703559D01*
X117894175Y-133701933D01*
X117896165Y-133702129D01*
G37*
G36*
X115869990Y-133703559D02*
G01*
X115875028Y-133754717D01*
X115889895Y-133803726D01*
X115914036Y-133848890D01*
X115946524Y-133888476D01*
X115986110Y-133920964D01*
X116031274Y-133945105D01*
X116080283Y-133959972D01*
X116131441Y-133965010D01*
X116133067Y-133966175D01*
X116132871Y-133968165D01*
X116131245Y-133969000D01*
X116044853Y-133969000D01*
X116044657Y-133968990D01*
X116005329Y-133965117D01*
X116004944Y-133965041D01*
X115973036Y-133955361D01*
X115972674Y-133955211D01*
X115943262Y-133939490D01*
X115942936Y-133939272D01*
X115917159Y-133918118D01*
X115916882Y-133917841D01*
X115895728Y-133892064D01*
X115895510Y-133891738D01*
X115879789Y-133862326D01*
X115879639Y-133861964D01*
X115869959Y-133830056D01*
X115869883Y-133829671D01*
X115866010Y-133790343D01*
X115866000Y-133790147D01*
X115866000Y-133703755D01*
X115867000Y-133702023D01*
X115869000Y-133702023D01*
X115869990Y-133703559D01*
G37*
G36*
X122644990Y-133703559D02*
G01*
X122650028Y-133754717D01*
X122664895Y-133803726D01*
X122689036Y-133848890D01*
X122721524Y-133888476D01*
X122761110Y-133920964D01*
X122806274Y-133945105D01*
X122855283Y-133959972D01*
X122906441Y-133965010D01*
X122908067Y-133966175D01*
X122907871Y-133968165D01*
X122906245Y-133969000D01*
X122819853Y-133969000D01*
X122819657Y-133968990D01*
X122780329Y-133965117D01*
X122779944Y-133965041D01*
X122748036Y-133955361D01*
X122747674Y-133955211D01*
X122718262Y-133939490D01*
X122717936Y-133939272D01*
X122692159Y-133918118D01*
X122691882Y-133917841D01*
X122670728Y-133892064D01*
X122670510Y-133891738D01*
X122654789Y-133862326D01*
X122654639Y-133861964D01*
X122644959Y-133830056D01*
X122644883Y-133829671D01*
X122641010Y-133790343D01*
X122641000Y-133790147D01*
X122641000Y-133703755D01*
X122642000Y-133702023D01*
X122644000Y-133702023D01*
X122644990Y-133703559D01*
G37*
G36*
X116132977Y-128414000D02*
G01*
X116132977Y-128416000D01*
X116131441Y-128416990D01*
X116080283Y-128422028D01*
X116031274Y-128436895D01*
X115986110Y-128461036D01*
X115946524Y-128493524D01*
X115914036Y-128533110D01*
X115889895Y-128578274D01*
X115875028Y-128627283D01*
X115869990Y-128678441D01*
X115868825Y-128680067D01*
X115866835Y-128679871D01*
X115866000Y-128678245D01*
X115866000Y-128591853D01*
X115866010Y-128591657D01*
X115869883Y-128552329D01*
X115869959Y-128551944D01*
X115879639Y-128520036D01*
X115879789Y-128519674D01*
X115895510Y-128490262D01*
X115895728Y-128489936D01*
X115916882Y-128464159D01*
X115917159Y-128463882D01*
X115942936Y-128442728D01*
X115943262Y-128442510D01*
X115972674Y-128426789D01*
X115973036Y-128426639D01*
X116004944Y-128416959D01*
X116005329Y-128416883D01*
X116044657Y-128413010D01*
X116044853Y-128413000D01*
X116131245Y-128413000D01*
X116132977Y-128414000D01*
G37*
G36*
X122907977Y-128414000D02*
G01*
X122907977Y-128416000D01*
X122906441Y-128416990D01*
X122855283Y-128422028D01*
X122806274Y-128436895D01*
X122761110Y-128461036D01*
X122721524Y-128493524D01*
X122689036Y-128533110D01*
X122664895Y-128578274D01*
X122650028Y-128627283D01*
X122644990Y-128678441D01*
X122643825Y-128680067D01*
X122641835Y-128679871D01*
X122641000Y-128678245D01*
X122641000Y-128591853D01*
X122641010Y-128591657D01*
X122644883Y-128552329D01*
X122644959Y-128551944D01*
X122654639Y-128520036D01*
X122654789Y-128519674D01*
X122670510Y-128490262D01*
X122670728Y-128489936D01*
X122691882Y-128464159D01*
X122692159Y-128463882D01*
X122717936Y-128442728D01*
X122718262Y-128442510D01*
X122747674Y-128426789D01*
X122748036Y-128426639D01*
X122779944Y-128416959D01*
X122780329Y-128416883D01*
X122819657Y-128413010D01*
X122819853Y-128413000D01*
X122906245Y-128413000D01*
X122907977Y-128414000D01*
G37*
G36*
X117718343Y-128413010D02*
G01*
X117757671Y-128416883D01*
X117758056Y-128416959D01*
X117789964Y-128426639D01*
X117790326Y-128426789D01*
X117819738Y-128442510D01*
X117820064Y-128442728D01*
X117845841Y-128463882D01*
X117846118Y-128464159D01*
X117867272Y-128489936D01*
X117867490Y-128490262D01*
X117883211Y-128519674D01*
X117883361Y-128520036D01*
X117893041Y-128551944D01*
X117893117Y-128552329D01*
X117896990Y-128591657D01*
X117897000Y-128591853D01*
X117897000Y-128678245D01*
X117896000Y-128679977D01*
X117894000Y-128679977D01*
X117893010Y-128678441D01*
X117887972Y-128627283D01*
X117873105Y-128578274D01*
X117848964Y-128533110D01*
X117816476Y-128493524D01*
X117776890Y-128461036D01*
X117731726Y-128436895D01*
X117682717Y-128422028D01*
X117631559Y-128416990D01*
X117629933Y-128415825D01*
X117630129Y-128413835D01*
X117631755Y-128413000D01*
X117718147Y-128413000D01*
X117718343Y-128413010D01*
G37*
G36*
X124493343Y-128413010D02*
G01*
X124532671Y-128416883D01*
X124533056Y-128416959D01*
X124564964Y-128426639D01*
X124565326Y-128426789D01*
X124594738Y-128442510D01*
X124595064Y-128442728D01*
X124620841Y-128463882D01*
X124621118Y-128464159D01*
X124642272Y-128489936D01*
X124642490Y-128490262D01*
X124658211Y-128519674D01*
X124658361Y-128520036D01*
X124668041Y-128551944D01*
X124668117Y-128552329D01*
X124671990Y-128591657D01*
X124672000Y-128591853D01*
X124672000Y-128678245D01*
X124671000Y-128679977D01*
X124669000Y-128679977D01*
X124668010Y-128678441D01*
X124662972Y-128627283D01*
X124648105Y-128578274D01*
X124623964Y-128533110D01*
X124591476Y-128493524D01*
X124551890Y-128461036D01*
X124506726Y-128436895D01*
X124457717Y-128422028D01*
X124406559Y-128416990D01*
X124404933Y-128415825D01*
X124405129Y-128413835D01*
X124406755Y-128413000D01*
X124493147Y-128413000D01*
X124493343Y-128413010D01*
G37*
M02*
