M48
; DRILL file {KiCad (5.1.10-1-10_14)} date Friday, November 05, 2021 at 12:48:06 PM
; FORMAT={-:-/ absolute / inch / decimal}
; #@! TF.CreationDate,2021-11-05T12:48:06+08:00
; #@! TF.GenerationSoftware,Kicad,Pcbnew,(5.1.10-1-10_14)
; #@! TF.FileFunction,Plated,1,4,PTH
FMAT,2
INCH
T1C0.0118
T2C0.0157
T3C0.0197
T4C0.0394
T5C0.0433
T6C0.0472
T7C0.0512
T8C0.1260
%
G90
G05
T1
X4.15Y-2.17
T2
X3.29Y-4.35
X3.3296Y-4.21
X3.33Y-5.175
X3.33Y-5.21
X3.33Y-5.245
X3.3305Y-4.2895
X3.365Y-5.175
X3.365Y-5.21
X3.365Y-5.245
X3.369Y-4.21
X3.4Y-5.175
X3.4Y-5.21
X3.4Y-5.245
X3.4084Y-4.21
X3.41Y-3.85
X3.44Y-3.445
X3.44Y-3.48
X3.4461Y-4.2482
X3.455Y-3.775
X3.475Y-3.445
X3.475Y-3.48
X3.5396Y-3.3046
X3.54Y-3.995
X3.56Y-4.215
X3.59Y-3.63
X3.59Y-3.995
X3.615Y-4.27
X3.65Y-3.3702
X3.665Y-3.77
X3.685Y-3.6575
X3.6891Y-3.4004
X3.6953Y-3.8816
X3.765Y-4.27
X3.79Y-3.87
X3.83Y-4.265
X3.84Y-3.87
X3.8571Y-4.5293
X3.865Y-4.68
X3.87Y-4.815
X3.8772Y-4.2482
X3.89Y-3.87
X3.8976Y-3.7819
X3.91Y-4.27
X3.9266Y-5.065
X3.9311Y-3.7613
X3.94Y-3.87
X3.9406Y-4.7366
X3.9452Y-3.245
X3.95Y-2.295
X3.955Y-4.865
X3.96Y-4.82
X3.9625Y-4.4425
X3.9691Y-2.44
X3.9775Y-2.7275
X3.99Y-3.635
X3.99Y-3.87
X3.995Y-3.502
X4.0Y-2.17
X4.0Y-2.415
X4.005Y-5.065
X4.0266Y-3.4676
X4.04Y-3.635
X4.04Y-3.87
X4.0476Y-2.9566
X4.05Y-2.415
X4.055Y-4.27
X4.08Y-3.0875
X4.08Y-5.065
X4.09Y-3.365
X4.09Y-3.635
X4.09Y-3.87
X4.095Y-4.4334
X4.1Y-2.415
X4.1108Y-3.2117
X4.115Y-4.265
X4.12Y-4.835
X4.135Y-3.46
X4.14Y-3.635
X4.14Y-3.87
X4.145Y-4.46
X4.1489Y-3.2338
X4.15Y-2.9516
X4.15Y-4.735
X4.15Y-4.9334
X4.19Y-2.545
X4.19Y-2.58
X4.19Y-5.065
X4.2Y-4.27
X4.2034Y-3.5475
X4.225Y-2.545
X4.225Y-2.58
X4.2506Y-2.2578
X4.2725Y-5.165
X4.3Y-2.295
X4.3025Y-5.1334
X4.305Y-3.145
X4.3382Y-3.23
X4.3382Y-4.0401
X4.345Y-4.27
X4.3475Y-3.14
X4.3477Y-3.18
X4.35Y-2.295
X4.3501Y-4.9874
X4.3605Y-2.4275
X4.3776Y-4.038
X4.386Y-3.865
X4.3875Y-4.4425
X4.3939Y-2.8821
X4.4Y-2.295
X4.4Y-3.065
X4.4029Y-3.8294
X4.4375Y-4.9785
X4.447Y-2.8905
X4.45Y-2.295
X4.4555Y-2.4705
X4.46Y-2.245
X4.465Y-5.065
X4.47Y-5.4525
X4.475Y-5.2045
X4.4875Y-2.801
X4.49Y-3.705
X4.49Y-4.27
X4.4941Y-3.1866
X4.495Y-3.86
X4.5Y-4.98
X4.5025Y-5.4525
X4.5195Y-5.244
X4.5199Y-2.47
X4.54Y-4.4425
X4.545Y-3.86
X4.5451Y-3.705
X4.5494Y-3.1952
X4.58Y-4.9785
X4.5811Y-2.86
X4.595Y-3.86
X4.635Y-4.27
X4.636Y-4.9902
X4.645Y-3.86
X4.66Y-2.51
X4.685Y-3.675
X4.685Y-3.71
X4.695Y-3.86
X4.6983Y-3.0533
X4.7075Y-3.225
X4.715Y-5.33
X4.715Y-5.365
X4.715Y-5.4
X4.72Y-3.675
X4.72Y-3.71
X4.7225Y-4.9785
X4.745Y-3.485
X4.745Y-3.86
X4.75Y-5.0675
X4.75Y-5.33
X4.75Y-5.365
X4.75Y-5.4
X4.76Y-2.7
X4.78Y-4.27
X4.7825Y-4.9785
X4.785Y-5.33
X4.785Y-5.365
X4.785Y-5.4
X4.795Y-3.64
X4.795Y-3.86
X4.83Y-4.4425
X4.835Y-2.18
X4.84Y-1.905
X4.84Y-1.94
X4.84Y-1.975
X4.845Y-2.465
X4.845Y-3.64
X4.845Y-3.86
X4.85Y-3.08
X4.85Y-3.115
X4.85Y-3.15
X4.865Y-4.9785
X4.875Y-1.905
X4.875Y-1.94
X4.875Y-1.975
X4.8793Y-3.8207
X4.885Y-3.08
X4.885Y-3.115
X4.885Y-3.15
X4.895Y-3.64
X4.895Y-3.86
X4.91Y-1.905
X4.91Y-1.94
X4.91Y-1.975
X4.92Y-3.08
X4.92Y-3.115
X4.92Y-3.15
X4.93Y-4.27
X4.95Y-2.345
X4.975Y-4.4425
X4.995Y-4.99
X5.07Y-4.27
X5.0875Y-4.4425
X5.15Y-4.74
X5.2625Y-3.7675
X5.2625Y-3.8025
X5.2975Y-3.7675
X5.2975Y-3.8025
X5.325Y-4.47
X5.3606Y-5.1694
X5.385Y-4.47
X5.4427Y-4.4694
X5.505Y-4.4694
X5.565Y-4.4694
X5.6725Y-3.415
X5.6725Y-3.4475
X5.705Y-3.415
X5.705Y-3.4475
X5.77Y-4.96
X5.7975Y-2.795
X5.84Y-4.475
X5.87Y-4.02
X5.9Y-4.475
X5.96Y-4.475
X5.98Y-2.43
X5.98Y-2.48
X5.98Y-2.53
X6.005Y-2.455
X6.005Y-2.505
X6.02Y-4.475
X6.03Y-2.43
X6.03Y-2.48
X6.03Y-2.53
X6.055Y-2.455
X6.055Y-2.505
X6.08Y-2.43
X6.08Y-2.48
X6.08Y-2.53
X6.08Y-4.475
X6.1Y-3.915
X6.105Y-2.735
X6.105Y-2.7675
X6.105Y-4.115
X6.105Y-4.15
X6.12Y-2.81
X6.12Y-2.86
X6.12Y-2.91
X6.1261Y-4.475
X6.1375Y-2.735
X6.1375Y-2.7675
X6.14Y-4.115
X6.14Y-4.15
X6.145Y-2.835
X6.145Y-2.885
X6.17Y-2.735
X6.17Y-2.7675
X6.17Y-2.81
X6.17Y-2.86
X6.17Y-2.91
X6.17Y-2.91
X6.195Y-2.835
X6.195Y-2.885
X6.2025Y-2.735
X6.2025Y-2.7675
X6.22Y-2.81
X6.22Y-2.86
X6.22Y-2.91
X6.2325Y-4.58
X6.2325Y-4.6125
X6.265Y-4.58
X6.265Y-4.6125
X6.275Y-4.94
X6.38Y-3.73
X6.415Y-3.73
X6.425Y-5.2925
X6.44Y-1.895
X6.44Y-1.93
X6.44Y-1.965
X6.47Y-3.73
X6.475Y-1.895
X6.475Y-1.93
X6.475Y-1.965
X6.505Y-3.73
X6.51Y-1.895
X6.51Y-1.93
X6.51Y-1.965
X6.515Y-4.37
T3
X3.3065Y-1.959
X3.3342Y-1.8922
X3.3342Y-2.0258
X3.401Y-1.8645
X3.401Y-2.0535
X3.4678Y-1.8922
X3.4678Y-2.0258
X3.4955Y-1.959
X3.6555Y-4.97
X3.6832Y-4.9032
X3.6832Y-5.0368
X3.75Y-4.8755
X3.75Y-5.0645
X3.8168Y-4.9032
X3.8168Y-5.0368
X3.8445Y-4.97
X5.8505Y-1.945
X5.8782Y-1.8782
X5.8782Y-2.0118
X5.945Y-1.8505
X5.945Y-2.0395
X6.0118Y-1.8782
X6.0118Y-2.0118
X6.0395Y-1.945
T4
X4.4131Y-2.0
X4.61Y-2.0
X6.1631Y-2.105
X6.36Y-2.105
T5
X6.4059Y-4.04
X6.4059Y-4.14
X6.4059Y-4.24
T6
X3.5903Y-5.2362
X3.5903Y-5.3543
X3.6887Y-5.2362
X3.6887Y-5.3543
X3.7871Y-5.2362
X3.7871Y-5.3543
X3.8856Y-5.2362
X3.8856Y-5.3543
X3.984Y-5.2362
X3.984Y-5.3543
X4.0824Y-5.2362
X4.0824Y-5.3543
X4.1809Y-5.2362
X4.1809Y-5.3543
X4.2793Y-5.2362
X4.2793Y-5.3543
X4.3777Y-5.2362
X4.3777Y-5.3543
X5.1139Y-5.2362
X5.1139Y-5.3543
X5.2124Y-5.2362
X5.2124Y-5.3543
X5.3108Y-5.2362
X5.3108Y-5.3543
X5.4092Y-5.2362
X5.4092Y-5.3543
X5.5076Y-5.2362
X5.5076Y-5.3543
X5.6061Y-5.2362
X5.6061Y-5.3543
X5.7045Y-5.2362
X5.7045Y-5.3543
X5.75Y-4.58
X5.75Y-4.8753
X5.8029Y-5.2362
X5.8029Y-5.3543
X5.9014Y-5.2362
X5.9014Y-5.3543
X5.9998Y-5.2362
X5.9998Y-5.3543
X6.0982Y-5.2362
X6.0982Y-5.3543
X6.1966Y-5.2362
X6.1966Y-5.3543
X6.2951Y-5.2362
X6.2951Y-5.3543
T7
X5.0238Y-3.5137
X5.0238Y-3.9941
X5.1634Y-2.7438
X5.1634Y-3.2162
X5.26Y-3.435
X5.4962Y-3.5137
X5.4962Y-3.9941
X5.6438Y-2.7438
X5.6438Y-3.2162
X5.7225Y-2.98
T8
X3.401Y-1.959
X3.75Y-4.97
X5.945Y-1.945
T0
M30
