G04 #@! TF.GenerationSoftware,KiCad,Pcbnew,(5.1.10-1-10_14)*
G04 #@! TF.CreationDate,2021-11-05T12:47:59+08:00*
G04 #@! TF.ProjectId,ESP32-CAN,45535033-322d-4434-914e-2e6b69636164,rev?*
G04 #@! TF.SameCoordinates,Original*
G04 #@! TF.FileFunction,Paste,Top*
G04 #@! TF.FilePolarity,Positive*
%FSLAX46Y46*%
G04 Gerber Fmt 4.6, Leading zero omitted, Abs format (unit mm)*
G04 Created by KiCad (PCBNEW (5.1.10-1-10_14)) date 2021-11-05 12:47:59*
%MOMM*%
%LPD*%
G01*
G04 APERTURE LIST*
%ADD10C,0.100000*%
%ADD11C,0.150000*%
%ADD12C,0.300000*%
%ADD13C,0.400000*%
%ADD14R,3.450000X4.350000*%
%ADD15R,0.950000X0.450000*%
%ADD16R,1.800000X2.500000*%
%ADD17R,2.300000X2.500000*%
%ADD18R,1.200000X0.900000*%
%ADD19R,2.500000X1.800000*%
%ADD20R,1.500000X2.000000*%
%ADD21R,3.800000X2.000000*%
%ADD22R,1.270000X5.080000*%
%ADD23R,3.960000X3.960000*%
%ADD24R,2.000000X2.400000*%
%ADD25R,0.900000X0.800000*%
%ADD26R,1.600000X3.500000*%
%ADD27R,0.900000X2.000000*%
%ADD28R,2.000000X0.900000*%
%ADD29R,5.000000X5.000000*%
%ADD30R,0.400000X0.650000*%
%ADD31R,0.800000X0.900000*%
%ADD32R,10.200000X3.500000*%
%ADD33R,1.550000X1.300000*%
%ADD34R,1.060000X0.650000*%
G04 APERTURE END LIST*
D10*
D11*
X177002200Y-166007200D02*
X177002200Y-198007200D01*
X285002200Y-198007200D01*
X285002200Y-166007200D01*
X177002200Y-166007200D01*
D10*
D11*
X10000000Y-10000000D02*
X10000000Y-200007200D01*
X287002200Y-200007200D01*
X287002200Y-10000000D01*
X10000000Y-10000000D01*
D10*
D11*
X12000000Y-12000000D02*
X12000000Y-198007200D01*
X285002200Y-198007200D01*
X285002200Y-12000000D01*
X12000000Y-12000000D01*
D10*
D11*
X60000000Y-12000000D02*
X60000000Y-10000000D01*
D10*
D11*
X110000000Y-12000000D02*
X110000000Y-10000000D01*
D10*
D11*
X160000000Y-12000000D02*
X160000000Y-10000000D01*
D10*
D11*
X210000000Y-12000000D02*
X210000000Y-10000000D01*
D10*
D11*
X260000000Y-12000000D02*
X260000000Y-10000000D01*
D10*
D11*
X36065476Y-11588095D02*
X35322619Y-11588095D01*
X35694047Y-11588095D02*
X35694047Y-10288095D01*
X35570238Y-10473809D01*
X35446428Y-10597619D01*
X35322619Y-10659523D01*
D10*
D11*
X85322619Y-10411904D02*
X85384523Y-10350000D01*
X85508333Y-10288095D01*
X85817857Y-10288095D01*
X85941666Y-10350000D01*
X86003571Y-10411904D01*
X86065476Y-10535714D01*
X86065476Y-10659523D01*
X86003571Y-10845238D01*
X85260714Y-11588095D01*
X86065476Y-11588095D01*
D10*
D11*
X135260714Y-10288095D02*
X136065476Y-10288095D01*
X135632142Y-10783333D01*
X135817857Y-10783333D01*
X135941666Y-10845238D01*
X136003571Y-10907142D01*
X136065476Y-11030952D01*
X136065476Y-11340476D01*
X136003571Y-11464285D01*
X135941666Y-11526190D01*
X135817857Y-11588095D01*
X135446428Y-11588095D01*
X135322619Y-11526190D01*
X135260714Y-11464285D01*
D10*
D11*
X185941666Y-10721428D02*
X185941666Y-11588095D01*
X185632142Y-10226190D02*
X185322619Y-11154761D01*
X186127380Y-11154761D01*
D10*
D11*
X236003571Y-10288095D02*
X235384523Y-10288095D01*
X235322619Y-10907142D01*
X235384523Y-10845238D01*
X235508333Y-10783333D01*
X235817857Y-10783333D01*
X235941666Y-10845238D01*
X236003571Y-10907142D01*
X236065476Y-11030952D01*
X236065476Y-11340476D01*
X236003571Y-11464285D01*
X235941666Y-11526190D01*
X235817857Y-11588095D01*
X235508333Y-11588095D01*
X235384523Y-11526190D01*
X235322619Y-11464285D01*
D10*
D11*
X285941666Y-10288095D02*
X285694047Y-10288095D01*
X285570238Y-10350000D01*
X285508333Y-10411904D01*
X285384523Y-10597619D01*
X285322619Y-10845238D01*
X285322619Y-11340476D01*
X285384523Y-11464285D01*
X285446428Y-11526190D01*
X285570238Y-11588095D01*
X285817857Y-11588095D01*
X285941666Y-11526190D01*
X286003571Y-11464285D01*
X286065476Y-11340476D01*
X286065476Y-11030952D01*
X286003571Y-10907142D01*
X285941666Y-10845238D01*
X285817857Y-10783333D01*
X285570238Y-10783333D01*
X285446428Y-10845238D01*
X285384523Y-10907142D01*
X285322619Y-11030952D01*
D10*
D11*
X60000000Y-198007200D02*
X60000000Y-200007200D01*
D10*
D11*
X110000000Y-198007200D02*
X110000000Y-200007200D01*
D10*
D11*
X160000000Y-198007200D02*
X160000000Y-200007200D01*
D10*
D11*
X210000000Y-198007200D02*
X210000000Y-200007200D01*
D10*
D11*
X260000000Y-198007200D02*
X260000000Y-200007200D01*
D10*
D11*
X36065476Y-199595295D02*
X35322619Y-199595295D01*
X35694047Y-199595295D02*
X35694047Y-198295295D01*
X35570238Y-198481009D01*
X35446428Y-198604819D01*
X35322619Y-198666723D01*
D10*
D11*
X85322619Y-198419104D02*
X85384523Y-198357200D01*
X85508333Y-198295295D01*
X85817857Y-198295295D01*
X85941666Y-198357200D01*
X86003571Y-198419104D01*
X86065476Y-198542914D01*
X86065476Y-198666723D01*
X86003571Y-198852438D01*
X85260714Y-199595295D01*
X86065476Y-199595295D01*
D10*
D11*
X135260714Y-198295295D02*
X136065476Y-198295295D01*
X135632142Y-198790533D01*
X135817857Y-198790533D01*
X135941666Y-198852438D01*
X136003571Y-198914342D01*
X136065476Y-199038152D01*
X136065476Y-199347676D01*
X136003571Y-199471485D01*
X135941666Y-199533390D01*
X135817857Y-199595295D01*
X135446428Y-199595295D01*
X135322619Y-199533390D01*
X135260714Y-199471485D01*
D10*
D11*
X185941666Y-198728628D02*
X185941666Y-199595295D01*
X185632142Y-198233390D02*
X185322619Y-199161961D01*
X186127380Y-199161961D01*
D10*
D11*
X236003571Y-198295295D02*
X235384523Y-198295295D01*
X235322619Y-198914342D01*
X235384523Y-198852438D01*
X235508333Y-198790533D01*
X235817857Y-198790533D01*
X235941666Y-198852438D01*
X236003571Y-198914342D01*
X236065476Y-199038152D01*
X236065476Y-199347676D01*
X236003571Y-199471485D01*
X235941666Y-199533390D01*
X235817857Y-199595295D01*
X235508333Y-199595295D01*
X235384523Y-199533390D01*
X235322619Y-199471485D01*
D10*
D11*
X285941666Y-198295295D02*
X285694047Y-198295295D01*
X285570238Y-198357200D01*
X285508333Y-198419104D01*
X285384523Y-198604819D01*
X285322619Y-198852438D01*
X285322619Y-199347676D01*
X285384523Y-199471485D01*
X285446428Y-199533390D01*
X285570238Y-199595295D01*
X285817857Y-199595295D01*
X285941666Y-199533390D01*
X286003571Y-199471485D01*
X286065476Y-199347676D01*
X286065476Y-199038152D01*
X286003571Y-198914342D01*
X285941666Y-198852438D01*
X285817857Y-198790533D01*
X285570238Y-198790533D01*
X285446428Y-198852438D01*
X285384523Y-198914342D01*
X285322619Y-199038152D01*
D10*
D11*
X10000000Y-60000000D02*
X12000000Y-60000000D01*
D10*
D11*
X10000000Y-110000000D02*
X12000000Y-110000000D01*
D10*
D11*
X10000000Y-160000000D02*
X12000000Y-160000000D01*
D10*
D11*
X10690476Y-35216666D02*
X11309523Y-35216666D01*
X10566666Y-35588095D02*
X11000000Y-34288095D01*
X11433333Y-35588095D01*
D10*
D11*
X11092857Y-84907142D02*
X11278571Y-84969047D01*
X11340476Y-85030952D01*
X11402380Y-85154761D01*
X11402380Y-85340476D01*
X11340476Y-85464285D01*
X11278571Y-85526190D01*
X11154761Y-85588095D01*
X10659523Y-85588095D01*
X10659523Y-84288095D01*
X11092857Y-84288095D01*
X11216666Y-84350000D01*
X11278571Y-84411904D01*
X11340476Y-84535714D01*
X11340476Y-84659523D01*
X11278571Y-84783333D01*
X11216666Y-84845238D01*
X11092857Y-84907142D01*
X10659523Y-84907142D01*
D10*
D11*
X11402380Y-135464285D02*
X11340476Y-135526190D01*
X11154761Y-135588095D01*
X11030952Y-135588095D01*
X10845238Y-135526190D01*
X10721428Y-135402380D01*
X10659523Y-135278571D01*
X10597619Y-135030952D01*
X10597619Y-134845238D01*
X10659523Y-134597619D01*
X10721428Y-134473809D01*
X10845238Y-134350000D01*
X11030952Y-134288095D01*
X11154761Y-134288095D01*
X11340476Y-134350000D01*
X11402380Y-134411904D01*
D10*
D11*
X10659523Y-185588095D02*
X10659523Y-184288095D01*
X10969047Y-184288095D01*
X11154761Y-184350000D01*
X11278571Y-184473809D01*
X11340476Y-184597619D01*
X11402380Y-184845238D01*
X11402380Y-185030952D01*
X11340476Y-185278571D01*
X11278571Y-185402380D01*
X11154761Y-185526190D01*
X10969047Y-185588095D01*
X10659523Y-185588095D01*
D10*
D11*
X287002200Y-60000000D02*
X285002200Y-60000000D01*
D10*
D11*
X287002200Y-110000000D02*
X285002200Y-110000000D01*
D10*
D11*
X287002200Y-160000000D02*
X285002200Y-160000000D01*
D10*
D11*
X285692676Y-35216666D02*
X286311723Y-35216666D01*
X285568866Y-35588095D02*
X286002200Y-34288095D01*
X286435533Y-35588095D01*
D10*
D11*
X286095057Y-84907142D02*
X286280771Y-84969047D01*
X286342676Y-85030952D01*
X286404580Y-85154761D01*
X286404580Y-85340476D01*
X286342676Y-85464285D01*
X286280771Y-85526190D01*
X286156961Y-85588095D01*
X285661723Y-85588095D01*
X285661723Y-84288095D01*
X286095057Y-84288095D01*
X286218866Y-84350000D01*
X286280771Y-84411904D01*
X286342676Y-84535714D01*
X286342676Y-84659523D01*
X286280771Y-84783333D01*
X286218866Y-84845238D01*
X286095057Y-84907142D01*
X285661723Y-84907142D01*
D10*
D11*
X286404580Y-135464285D02*
X286342676Y-135526190D01*
X286156961Y-135588095D01*
X286033152Y-135588095D01*
X285847438Y-135526190D01*
X285723628Y-135402380D01*
X285661723Y-135278571D01*
X285599819Y-135030952D01*
X285599819Y-134845238D01*
X285661723Y-134597619D01*
X285723628Y-134473809D01*
X285847438Y-134350000D01*
X286033152Y-134288095D01*
X286156961Y-134288095D01*
X286342676Y-134350000D01*
X286404580Y-134411904D01*
D10*
D11*
X285661723Y-185588095D02*
X285661723Y-184288095D01*
X285971247Y-184288095D01*
X286156961Y-184350000D01*
X286280771Y-184473809D01*
X286342676Y-184597619D01*
X286404580Y-184845238D01*
X286404580Y-185030952D01*
X286342676Y-185278571D01*
X286280771Y-185402380D01*
X286156961Y-185526190D01*
X285971247Y-185588095D01*
X285661723Y-185588095D01*
D10*
D11*
X200434342Y-193785771D02*
X200434342Y-192285771D01*
X200791485Y-192285771D01*
X201005771Y-192357200D01*
X201148628Y-192500057D01*
X201220057Y-192642914D01*
X201291485Y-192928628D01*
X201291485Y-193142914D01*
X201220057Y-193428628D01*
X201148628Y-193571485D01*
X201005771Y-193714342D01*
X200791485Y-193785771D01*
X200434342Y-193785771D01*
X202577200Y-193785771D02*
X202577200Y-193000057D01*
X202505771Y-192857200D01*
X202362914Y-192785771D01*
X202077200Y-192785771D01*
X201934342Y-192857200D01*
X202577200Y-193714342D02*
X202434342Y-193785771D01*
X202077200Y-193785771D01*
X201934342Y-193714342D01*
X201862914Y-193571485D01*
X201862914Y-193428628D01*
X201934342Y-193285771D01*
X202077200Y-193214342D01*
X202434342Y-193214342D01*
X202577200Y-193142914D01*
X203077200Y-192785771D02*
X203648628Y-192785771D01*
X203291485Y-192285771D02*
X203291485Y-193571485D01*
X203362914Y-193714342D01*
X203505771Y-193785771D01*
X203648628Y-193785771D01*
X204720057Y-193714342D02*
X204577200Y-193785771D01*
X204291485Y-193785771D01*
X204148628Y-193714342D01*
X204077200Y-193571485D01*
X204077200Y-193000057D01*
X204148628Y-192857200D01*
X204291485Y-192785771D01*
X204577200Y-192785771D01*
X204720057Y-192857200D01*
X204791485Y-193000057D01*
X204791485Y-193142914D01*
X204077200Y-193285771D01*
X205434342Y-193642914D02*
X205505771Y-193714342D01*
X205434342Y-193785771D01*
X205362914Y-193714342D01*
X205434342Y-193642914D01*
X205434342Y-193785771D01*
X205434342Y-192857200D02*
X205505771Y-192928628D01*
X205434342Y-193000057D01*
X205362914Y-192928628D01*
X205434342Y-192857200D01*
X205434342Y-193000057D01*
D10*
D11*
X177002200Y-194507200D02*
X285002200Y-194507200D01*
D10*
D11*
X178434342Y-196585771D02*
X178434342Y-195085771D01*
X179291485Y-196585771D02*
X178648628Y-195728628D01*
X179291485Y-195085771D02*
X178434342Y-195942914D01*
X179934342Y-196585771D02*
X179934342Y-195585771D01*
X179934342Y-195085771D02*
X179862914Y-195157200D01*
X179934342Y-195228628D01*
X180005771Y-195157200D01*
X179934342Y-195085771D01*
X179934342Y-195228628D01*
X181505771Y-196442914D02*
X181434342Y-196514342D01*
X181220057Y-196585771D01*
X181077200Y-196585771D01*
X180862914Y-196514342D01*
X180720057Y-196371485D01*
X180648628Y-196228628D01*
X180577200Y-195942914D01*
X180577200Y-195728628D01*
X180648628Y-195442914D01*
X180720057Y-195300057D01*
X180862914Y-195157200D01*
X181077200Y-195085771D01*
X181220057Y-195085771D01*
X181434342Y-195157200D01*
X181505771Y-195228628D01*
X182791485Y-196585771D02*
X182791485Y-195800057D01*
X182720057Y-195657200D01*
X182577200Y-195585771D01*
X182291485Y-195585771D01*
X182148628Y-195657200D01*
X182791485Y-196514342D02*
X182648628Y-196585771D01*
X182291485Y-196585771D01*
X182148628Y-196514342D01*
X182077200Y-196371485D01*
X182077200Y-196228628D01*
X182148628Y-196085771D01*
X182291485Y-196014342D01*
X182648628Y-196014342D01*
X182791485Y-195942914D01*
X184148628Y-196585771D02*
X184148628Y-195085771D01*
X184148628Y-196514342D02*
X184005771Y-196585771D01*
X183720057Y-196585771D01*
X183577200Y-196514342D01*
X183505771Y-196442914D01*
X183434342Y-196300057D01*
X183434342Y-195871485D01*
X183505771Y-195728628D01*
X183577200Y-195657200D01*
X183720057Y-195585771D01*
X184005771Y-195585771D01*
X184148628Y-195657200D01*
X186005771Y-195800057D02*
X186505771Y-195800057D01*
X186720057Y-196585771D02*
X186005771Y-196585771D01*
X186005771Y-195085771D01*
X186720057Y-195085771D01*
X187362914Y-196442914D02*
X187434342Y-196514342D01*
X187362914Y-196585771D01*
X187291485Y-196514342D01*
X187362914Y-196442914D01*
X187362914Y-196585771D01*
X188077200Y-196585771D02*
X188077200Y-195085771D01*
X188434342Y-195085771D01*
X188648628Y-195157200D01*
X188791485Y-195300057D01*
X188862914Y-195442914D01*
X188934342Y-195728628D01*
X188934342Y-195942914D01*
X188862914Y-196228628D01*
X188791485Y-196371485D01*
X188648628Y-196514342D01*
X188434342Y-196585771D01*
X188077200Y-196585771D01*
X189577200Y-196442914D02*
X189648628Y-196514342D01*
X189577200Y-196585771D01*
X189505771Y-196514342D01*
X189577200Y-196442914D01*
X189577200Y-196585771D01*
X190220057Y-196157200D02*
X190934342Y-196157200D01*
X190077200Y-196585771D02*
X190577200Y-195085771D01*
X191077200Y-196585771D01*
X191577200Y-196442914D02*
X191648628Y-196514342D01*
X191577200Y-196585771D01*
X191505771Y-196514342D01*
X191577200Y-196442914D01*
X191577200Y-196585771D01*
X194577200Y-196585771D02*
X194577200Y-195085771D01*
X194720057Y-196014342D02*
X195148628Y-196585771D01*
X195148628Y-195585771D02*
X194577200Y-196157200D01*
X195791485Y-196585771D02*
X195791485Y-195585771D01*
X195791485Y-195085771D02*
X195720057Y-195157200D01*
X195791485Y-195228628D01*
X195862914Y-195157200D01*
X195791485Y-195085771D01*
X195791485Y-195228628D01*
X197148628Y-196514342D02*
X197005771Y-196585771D01*
X196720057Y-196585771D01*
X196577200Y-196514342D01*
X196505771Y-196442914D01*
X196434342Y-196300057D01*
X196434342Y-195871485D01*
X196505771Y-195728628D01*
X196577200Y-195657200D01*
X196720057Y-195585771D01*
X197005771Y-195585771D01*
X197148628Y-195657200D01*
X198434342Y-196585771D02*
X198434342Y-195800057D01*
X198362914Y-195657200D01*
X198220057Y-195585771D01*
X197934342Y-195585771D01*
X197791485Y-195657200D01*
X198434342Y-196514342D02*
X198291485Y-196585771D01*
X197934342Y-196585771D01*
X197791485Y-196514342D01*
X197720057Y-196371485D01*
X197720057Y-196228628D01*
X197791485Y-196085771D01*
X197934342Y-196014342D01*
X198291485Y-196014342D01*
X198434342Y-195942914D01*
X199791485Y-196585771D02*
X199791485Y-195085771D01*
X199791485Y-196514342D02*
X199648628Y-196585771D01*
X199362914Y-196585771D01*
X199220057Y-196514342D01*
X199148628Y-196442914D01*
X199077200Y-196300057D01*
X199077200Y-195871485D01*
X199148628Y-195728628D01*
X199220057Y-195657200D01*
X199362914Y-195585771D01*
X199648628Y-195585771D01*
X199791485Y-195657200D01*
X202077200Y-197157200D02*
X202005771Y-197085771D01*
X201862914Y-196871485D01*
X201791485Y-196728628D01*
X201720057Y-196514342D01*
X201648628Y-196157200D01*
X201648628Y-195871485D01*
X201720057Y-195514342D01*
X201791485Y-195300057D01*
X201862914Y-195157200D01*
X202005771Y-194942914D01*
X202077200Y-194871485D01*
X203362914Y-195085771D02*
X202648628Y-195085771D01*
X202577200Y-195800057D01*
X202648628Y-195728628D01*
X202791485Y-195657200D01*
X203148628Y-195657200D01*
X203291485Y-195728628D01*
X203362914Y-195800057D01*
X203434342Y-195942914D01*
X203434342Y-196300057D01*
X203362914Y-196442914D01*
X203291485Y-196514342D01*
X203148628Y-196585771D01*
X202791485Y-196585771D01*
X202648628Y-196514342D01*
X202577200Y-196442914D01*
X204077200Y-196442914D02*
X204148628Y-196514342D01*
X204077200Y-196585771D01*
X204005771Y-196514342D01*
X204077200Y-196442914D01*
X204077200Y-196585771D01*
X205577200Y-196585771D02*
X204720057Y-196585771D01*
X205148628Y-196585771D02*
X205148628Y-195085771D01*
X205005771Y-195300057D01*
X204862914Y-195442914D01*
X204720057Y-195514342D01*
X206220057Y-196442914D02*
X206291485Y-196514342D01*
X206220057Y-196585771D01*
X206148628Y-196514342D01*
X206220057Y-196442914D01*
X206220057Y-196585771D01*
X207720057Y-196585771D02*
X206862914Y-196585771D01*
X207291485Y-196585771D02*
X207291485Y-195085771D01*
X207148628Y-195300057D01*
X207005771Y-195442914D01*
X206862914Y-195514342D01*
X208648628Y-195085771D02*
X208791485Y-195085771D01*
X208934342Y-195157200D01*
X209005771Y-195228628D01*
X209077200Y-195371485D01*
X209148628Y-195657200D01*
X209148628Y-196014342D01*
X209077200Y-196300057D01*
X209005771Y-196442914D01*
X208934342Y-196514342D01*
X208791485Y-196585771D01*
X208648628Y-196585771D01*
X208505771Y-196514342D01*
X208434342Y-196442914D01*
X208362914Y-196300057D01*
X208291485Y-196014342D01*
X208291485Y-195657200D01*
X208362914Y-195371485D01*
X208434342Y-195228628D01*
X208505771Y-195157200D01*
X208648628Y-195085771D01*
X209791485Y-196014342D02*
X210934342Y-196014342D01*
X212434342Y-196585771D02*
X211577200Y-196585771D01*
X212005771Y-196585771D02*
X212005771Y-195085771D01*
X211862914Y-195300057D01*
X211720057Y-195442914D01*
X211577200Y-195514342D01*
X213077200Y-196014342D02*
X214220057Y-196014342D01*
X215720057Y-196585771D02*
X214862914Y-196585771D01*
X215291485Y-196585771D02*
X215291485Y-195085771D01*
X215148628Y-195300057D01*
X215005771Y-195442914D01*
X214862914Y-195514342D01*
X216648628Y-195085771D02*
X216791485Y-195085771D01*
X216934342Y-195157200D01*
X217005771Y-195228628D01*
X217077200Y-195371485D01*
X217148628Y-195657200D01*
X217148628Y-196014342D01*
X217077200Y-196300057D01*
X217005771Y-196442914D01*
X216934342Y-196514342D01*
X216791485Y-196585771D01*
X216648628Y-196585771D01*
X216505771Y-196514342D01*
X216434342Y-196442914D01*
X216362914Y-196300057D01*
X216291485Y-196014342D01*
X216291485Y-195657200D01*
X216362914Y-195371485D01*
X216434342Y-195228628D01*
X216505771Y-195157200D01*
X216648628Y-195085771D01*
X217434342Y-196728628D02*
X218577200Y-196728628D01*
X219720057Y-196585771D02*
X218862914Y-196585771D01*
X219291485Y-196585771D02*
X219291485Y-195085771D01*
X219148628Y-195300057D01*
X219005771Y-195442914D01*
X218862914Y-195514342D01*
X221005771Y-195585771D02*
X221005771Y-196585771D01*
X220648628Y-195014342D02*
X220291485Y-196085771D01*
X221220057Y-196085771D01*
X221648628Y-197157200D02*
X221720057Y-197085771D01*
X221862914Y-196871485D01*
X221934342Y-196728628D01*
X222005771Y-196514342D01*
X222077200Y-196157200D01*
X222077200Y-195871485D01*
X222005771Y-195514342D01*
X221934342Y-195300057D01*
X221862914Y-195157200D01*
X221720057Y-194942914D01*
X221648628Y-194871485D01*
D10*
D11*
X177002200Y-191507200D02*
X285002200Y-191507200D01*
D10*
D12*
X264411485Y-193785771D02*
X263911485Y-193071485D01*
X263554342Y-193785771D02*
X263554342Y-192285771D01*
X264125771Y-192285771D01*
X264268628Y-192357200D01*
X264340057Y-192428628D01*
X264411485Y-192571485D01*
X264411485Y-192785771D01*
X264340057Y-192928628D01*
X264268628Y-193000057D01*
X264125771Y-193071485D01*
X263554342Y-193071485D01*
X265625771Y-193714342D02*
X265482914Y-193785771D01*
X265197200Y-193785771D01*
X265054342Y-193714342D01*
X264982914Y-193571485D01*
X264982914Y-193000057D01*
X265054342Y-192857200D01*
X265197200Y-192785771D01*
X265482914Y-192785771D01*
X265625771Y-192857200D01*
X265697200Y-193000057D01*
X265697200Y-193142914D01*
X264982914Y-193285771D01*
X266197200Y-192785771D02*
X266554342Y-193785771D01*
X266911485Y-192785771D01*
X267482914Y-193642914D02*
X267554342Y-193714342D01*
X267482914Y-193785771D01*
X267411485Y-193714342D01*
X267482914Y-193642914D01*
X267482914Y-193785771D01*
X267482914Y-192857200D02*
X267554342Y-192928628D01*
X267482914Y-193000057D01*
X267411485Y-192928628D01*
X267482914Y-192857200D01*
X267482914Y-193000057D01*
D10*
D11*
X178362914Y-193714342D02*
X178577200Y-193785771D01*
X178934342Y-193785771D01*
X179077200Y-193714342D01*
X179148628Y-193642914D01*
X179220057Y-193500057D01*
X179220057Y-193357200D01*
X179148628Y-193214342D01*
X179077200Y-193142914D01*
X178934342Y-193071485D01*
X178648628Y-193000057D01*
X178505771Y-192928628D01*
X178434342Y-192857200D01*
X178362914Y-192714342D01*
X178362914Y-192571485D01*
X178434342Y-192428628D01*
X178505771Y-192357200D01*
X178648628Y-192285771D01*
X179005771Y-192285771D01*
X179220057Y-192357200D01*
X179862914Y-193785771D02*
X179862914Y-192785771D01*
X179862914Y-192285771D02*
X179791485Y-192357200D01*
X179862914Y-192428628D01*
X179934342Y-192357200D01*
X179862914Y-192285771D01*
X179862914Y-192428628D01*
X180434342Y-192785771D02*
X181220057Y-192785771D01*
X180434342Y-193785771D01*
X181220057Y-193785771D01*
X182362914Y-193714342D02*
X182220057Y-193785771D01*
X181934342Y-193785771D01*
X181791485Y-193714342D01*
X181720057Y-193571485D01*
X181720057Y-193000057D01*
X181791485Y-192857200D01*
X181934342Y-192785771D01*
X182220057Y-192785771D01*
X182362914Y-192857200D01*
X182434342Y-193000057D01*
X182434342Y-193142914D01*
X181720057Y-193285771D01*
X183077200Y-193642914D02*
X183148628Y-193714342D01*
X183077200Y-193785771D01*
X183005771Y-193714342D01*
X183077200Y-193642914D01*
X183077200Y-193785771D01*
X183077200Y-192857200D02*
X183148628Y-192928628D01*
X183077200Y-193000057D01*
X183005771Y-192928628D01*
X183077200Y-192857200D01*
X183077200Y-193000057D01*
X184862914Y-193357200D02*
X185577200Y-193357200D01*
X184720057Y-193785771D02*
X185220057Y-192285771D01*
X185720057Y-193785771D01*
X186862914Y-192785771D02*
X186862914Y-193785771D01*
X186505771Y-192214342D02*
X186148628Y-193285771D01*
X187077200Y-193285771D01*
D10*
D11*
X263434342Y-196585771D02*
X263434342Y-195085771D01*
X264791485Y-196585771D02*
X264791485Y-195085771D01*
X264791485Y-196514342D02*
X264648628Y-196585771D01*
X264362914Y-196585771D01*
X264220057Y-196514342D01*
X264148628Y-196442914D01*
X264077200Y-196300057D01*
X264077200Y-195871485D01*
X264148628Y-195728628D01*
X264220057Y-195657200D01*
X264362914Y-195585771D01*
X264648628Y-195585771D01*
X264791485Y-195657200D01*
X265505771Y-196442914D02*
X265577200Y-196514342D01*
X265505771Y-196585771D01*
X265434342Y-196514342D01*
X265505771Y-196442914D01*
X265505771Y-196585771D01*
X265505771Y-195657200D02*
X265577200Y-195728628D01*
X265505771Y-195800057D01*
X265434342Y-195728628D01*
X265505771Y-195657200D01*
X265505771Y-195800057D01*
X268148628Y-196585771D02*
X267291485Y-196585771D01*
X267720057Y-196585771D02*
X267720057Y-195085771D01*
X267577200Y-195300057D01*
X267434342Y-195442914D01*
X267291485Y-195514342D01*
X269862914Y-195014342D02*
X268577200Y-196942914D01*
X271148628Y-196585771D02*
X270291485Y-196585771D01*
X270720057Y-196585771D02*
X270720057Y-195085771D01*
X270577200Y-195300057D01*
X270434342Y-195442914D01*
X270291485Y-195514342D01*
D10*
D11*
X177002200Y-187507200D02*
X285002200Y-187507200D01*
D10*
D13*
X178714580Y-188211961D02*
X179857438Y-188211961D01*
X179036009Y-190211961D02*
X179286009Y-188211961D01*
X180274104Y-190211961D02*
X180440771Y-188878628D01*
X180524104Y-188211961D02*
X180416961Y-188307200D01*
X180500295Y-188402438D01*
X180607438Y-188307200D01*
X180524104Y-188211961D01*
X180500295Y-188402438D01*
X181107438Y-188878628D02*
X181869342Y-188878628D01*
X181476485Y-188211961D02*
X181262200Y-189926247D01*
X181333628Y-190116723D01*
X181512200Y-190211961D01*
X181702676Y-190211961D01*
X182655057Y-190211961D02*
X182476485Y-190116723D01*
X182405057Y-189926247D01*
X182619342Y-188211961D01*
X184190771Y-190116723D02*
X183988390Y-190211961D01*
X183607438Y-190211961D01*
X183428866Y-190116723D01*
X183357438Y-189926247D01*
X183452676Y-189164342D01*
X183571723Y-188973866D01*
X183774104Y-188878628D01*
X184155057Y-188878628D01*
X184333628Y-188973866D01*
X184405057Y-189164342D01*
X184381247Y-189354819D01*
X183405057Y-189545295D01*
X185155057Y-190021485D02*
X185238390Y-190116723D01*
X185131247Y-190211961D01*
X185047914Y-190116723D01*
X185155057Y-190021485D01*
X185131247Y-190211961D01*
X185286009Y-188973866D02*
X185369342Y-189069104D01*
X185262200Y-189164342D01*
X185178866Y-189069104D01*
X185286009Y-188973866D01*
X185262200Y-189164342D01*
D10*
D11*
X178934342Y-185600057D02*
X178434342Y-185600057D01*
X178434342Y-186385771D02*
X178434342Y-184885771D01*
X179148628Y-184885771D01*
X179720057Y-186385771D02*
X179720057Y-185385771D01*
X179720057Y-184885771D02*
X179648628Y-184957200D01*
X179720057Y-185028628D01*
X179791485Y-184957200D01*
X179720057Y-184885771D01*
X179720057Y-185028628D01*
X180648628Y-186385771D02*
X180505771Y-186314342D01*
X180434342Y-186171485D01*
X180434342Y-184885771D01*
X181791485Y-186314342D02*
X181648628Y-186385771D01*
X181362914Y-186385771D01*
X181220057Y-186314342D01*
X181148628Y-186171485D01*
X181148628Y-185600057D01*
X181220057Y-185457200D01*
X181362914Y-185385771D01*
X181648628Y-185385771D01*
X181791485Y-185457200D01*
X181862914Y-185600057D01*
X181862914Y-185742914D01*
X181148628Y-185885771D01*
X182505771Y-186242914D02*
X182577200Y-186314342D01*
X182505771Y-186385771D01*
X182434342Y-186314342D01*
X182505771Y-186242914D01*
X182505771Y-186385771D01*
X182505771Y-185457200D02*
X182577200Y-185528628D01*
X182505771Y-185600057D01*
X182434342Y-185528628D01*
X182505771Y-185457200D01*
X182505771Y-185600057D01*
X184362914Y-185600057D02*
X184862914Y-185600057D01*
X185077200Y-186385771D02*
X184362914Y-186385771D01*
X184362914Y-184885771D01*
X185077200Y-184885771D01*
X185648628Y-186314342D02*
X185862914Y-186385771D01*
X186220057Y-186385771D01*
X186362914Y-186314342D01*
X186434342Y-186242914D01*
X186505771Y-186100057D01*
X186505771Y-185957200D01*
X186434342Y-185814342D01*
X186362914Y-185742914D01*
X186220057Y-185671485D01*
X185934342Y-185600057D01*
X185791485Y-185528628D01*
X185720057Y-185457200D01*
X185648628Y-185314342D01*
X185648628Y-185171485D01*
X185720057Y-185028628D01*
X185791485Y-184957200D01*
X185934342Y-184885771D01*
X186291485Y-184885771D01*
X186505771Y-184957200D01*
X187148628Y-186385771D02*
X187148628Y-184885771D01*
X187720057Y-184885771D01*
X187862914Y-184957200D01*
X187934342Y-185028628D01*
X188005771Y-185171485D01*
X188005771Y-185385771D01*
X187934342Y-185528628D01*
X187862914Y-185600057D01*
X187720057Y-185671485D01*
X187148628Y-185671485D01*
X188505771Y-184885771D02*
X189434342Y-184885771D01*
X188934342Y-185457200D01*
X189148628Y-185457200D01*
X189291485Y-185528628D01*
X189362914Y-185600057D01*
X189434342Y-185742914D01*
X189434342Y-186100057D01*
X189362914Y-186242914D01*
X189291485Y-186314342D01*
X189148628Y-186385771D01*
X188720057Y-186385771D01*
X188577200Y-186314342D01*
X188505771Y-186242914D01*
X190005771Y-185028628D02*
X190077200Y-184957200D01*
X190220057Y-184885771D01*
X190577200Y-184885771D01*
X190720057Y-184957200D01*
X190791485Y-185028628D01*
X190862914Y-185171485D01*
X190862914Y-185314342D01*
X190791485Y-185528628D01*
X189934342Y-186385771D01*
X190862914Y-186385771D01*
X191505771Y-185814342D02*
X192648628Y-185814342D01*
X194220057Y-186242914D02*
X194148628Y-186314342D01*
X193934342Y-186385771D01*
X193791485Y-186385771D01*
X193577200Y-186314342D01*
X193434342Y-186171485D01*
X193362914Y-186028628D01*
X193291485Y-185742914D01*
X193291485Y-185528628D01*
X193362914Y-185242914D01*
X193434342Y-185100057D01*
X193577200Y-184957200D01*
X193791485Y-184885771D01*
X193934342Y-184885771D01*
X194148628Y-184957200D01*
X194220057Y-185028628D01*
X194791485Y-185957200D02*
X195505771Y-185957200D01*
X194648628Y-186385771D02*
X195148628Y-184885771D01*
X195648628Y-186385771D01*
X196148628Y-186385771D02*
X196148628Y-184885771D01*
X197005771Y-186385771D01*
X197005771Y-184885771D01*
X197720057Y-186242914D02*
X197791485Y-186314342D01*
X197720057Y-186385771D01*
X197648628Y-186314342D01*
X197720057Y-186242914D01*
X197720057Y-186385771D01*
X198434342Y-186385771D02*
X198434342Y-184885771D01*
X198577200Y-185814342D02*
X199005771Y-186385771D01*
X199005771Y-185385771D02*
X198434342Y-185957200D01*
X199648628Y-186385771D02*
X199648628Y-185385771D01*
X199648628Y-184885771D02*
X199577200Y-184957200D01*
X199648628Y-185028628D01*
X199720057Y-184957200D01*
X199648628Y-184885771D01*
X199648628Y-185028628D01*
X201005771Y-186314342D02*
X200862914Y-186385771D01*
X200577200Y-186385771D01*
X200434342Y-186314342D01*
X200362914Y-186242914D01*
X200291485Y-186100057D01*
X200291485Y-185671485D01*
X200362914Y-185528628D01*
X200434342Y-185457200D01*
X200577200Y-185385771D01*
X200862914Y-185385771D01*
X201005771Y-185457200D01*
X202291485Y-186385771D02*
X202291485Y-185600057D01*
X202220057Y-185457200D01*
X202077200Y-185385771D01*
X201791485Y-185385771D01*
X201648628Y-185457200D01*
X202291485Y-186314342D02*
X202148628Y-186385771D01*
X201791485Y-186385771D01*
X201648628Y-186314342D01*
X201577200Y-186171485D01*
X201577200Y-186028628D01*
X201648628Y-185885771D01*
X201791485Y-185814342D01*
X202148628Y-185814342D01*
X202291485Y-185742914D01*
X203648628Y-186385771D02*
X203648628Y-184885771D01*
X203648628Y-186314342D02*
X203505771Y-186385771D01*
X203220057Y-186385771D01*
X203077200Y-186314342D01*
X203005771Y-186242914D01*
X202934342Y-186100057D01*
X202934342Y-185671485D01*
X203005771Y-185528628D01*
X203077200Y-185457200D01*
X203220057Y-185385771D01*
X203505771Y-185385771D01*
X203648628Y-185457200D01*
X204005771Y-186528628D02*
X205148628Y-186528628D01*
X205505771Y-185385771D02*
X205505771Y-186885771D01*
X205505771Y-185457200D02*
X205648628Y-185385771D01*
X205934342Y-185385771D01*
X206077200Y-185457200D01*
X206148628Y-185528628D01*
X206220057Y-185671485D01*
X206220057Y-186100057D01*
X206148628Y-186242914D01*
X206077200Y-186314342D01*
X205934342Y-186385771D01*
X205648628Y-186385771D01*
X205505771Y-186314342D01*
X207505771Y-186314342D02*
X207362914Y-186385771D01*
X207077200Y-186385771D01*
X206934342Y-186314342D01*
X206862914Y-186242914D01*
X206791485Y-186100057D01*
X206791485Y-185671485D01*
X206862914Y-185528628D01*
X206934342Y-185457200D01*
X207077200Y-185385771D01*
X207362914Y-185385771D01*
X207505771Y-185457200D01*
X208148628Y-186385771D02*
X208148628Y-184885771D01*
X208148628Y-185457200D02*
X208291485Y-185385771D01*
X208577200Y-185385771D01*
X208720057Y-185457200D01*
X208791485Y-185528628D01*
X208862914Y-185671485D01*
X208862914Y-186100057D01*
X208791485Y-186242914D01*
X208720057Y-186314342D01*
X208577200Y-186385771D01*
X208291485Y-186385771D01*
X208148628Y-186314342D01*
D10*
D11*
X177002200Y-181507200D02*
X285002200Y-181507200D01*
D10*
D11*
X178362914Y-183614342D02*
X178577200Y-183685771D01*
X178934342Y-183685771D01*
X179077200Y-183614342D01*
X179148628Y-183542914D01*
X179220057Y-183400057D01*
X179220057Y-183257200D01*
X179148628Y-183114342D01*
X179077200Y-183042914D01*
X178934342Y-182971485D01*
X178648628Y-182900057D01*
X178505771Y-182828628D01*
X178434342Y-182757200D01*
X178362914Y-182614342D01*
X178362914Y-182471485D01*
X178434342Y-182328628D01*
X178505771Y-182257200D01*
X178648628Y-182185771D01*
X179005771Y-182185771D01*
X179220057Y-182257200D01*
X179862914Y-183685771D02*
X179862914Y-182185771D01*
X180505771Y-183685771D02*
X180505771Y-182900057D01*
X180434342Y-182757200D01*
X180291485Y-182685771D01*
X180077200Y-182685771D01*
X179934342Y-182757200D01*
X179862914Y-182828628D01*
X181791485Y-183614342D02*
X181648628Y-183685771D01*
X181362914Y-183685771D01*
X181220057Y-183614342D01*
X181148628Y-183471485D01*
X181148628Y-182900057D01*
X181220057Y-182757200D01*
X181362914Y-182685771D01*
X181648628Y-182685771D01*
X181791485Y-182757200D01*
X181862914Y-182900057D01*
X181862914Y-183042914D01*
X181148628Y-183185771D01*
X183077200Y-183614342D02*
X182934342Y-183685771D01*
X182648628Y-183685771D01*
X182505771Y-183614342D01*
X182434342Y-183471485D01*
X182434342Y-182900057D01*
X182505771Y-182757200D01*
X182648628Y-182685771D01*
X182934342Y-182685771D01*
X183077200Y-182757200D01*
X183148628Y-182900057D01*
X183148628Y-183042914D01*
X182434342Y-183185771D01*
X183577200Y-182685771D02*
X184148628Y-182685771D01*
X183791485Y-182185771D02*
X183791485Y-183471485D01*
X183862914Y-183614342D01*
X184005771Y-183685771D01*
X184148628Y-183685771D01*
X184648628Y-183542914D02*
X184720057Y-183614342D01*
X184648628Y-183685771D01*
X184577200Y-183614342D01*
X184648628Y-183542914D01*
X184648628Y-183685771D01*
X184648628Y-182757200D02*
X184720057Y-182828628D01*
X184648628Y-182900057D01*
X184577200Y-182828628D01*
X184648628Y-182757200D01*
X184648628Y-182900057D01*
D10*
D11*
X197002200Y-191507200D02*
X197002200Y-194507200D01*
D10*
D11*
X261002200Y-191507200D02*
X261002200Y-198007200D01*
G36*
G01*
X157575000Y-122043000D02*
X157575000Y-121543000D01*
G75*
G02*
X157800000Y-121318000I225000J0D01*
G01*
X158250000Y-121318000D01*
G75*
G02*
X158475000Y-121543000I0J-225000D01*
G01*
X158475000Y-122043000D01*
G75*
G02*
X158250000Y-122268000I-225000J0D01*
G01*
X157800000Y-122268000D01*
G75*
G02*
X157575000Y-122043000I0J225000D01*
G01*
G37*
G36*
G01*
X156025000Y-122043000D02*
X156025000Y-121543000D01*
G75*
G02*
X156250000Y-121318000I225000J0D01*
G01*
X156700000Y-121318000D01*
G75*
G02*
X156925000Y-121543000I0J-225000D01*
G01*
X156925000Y-122043000D01*
G75*
G02*
X156700000Y-122268000I-225000J0D01*
G01*
X156250000Y-122268000D01*
G75*
G02*
X156025000Y-122043000I0J225000D01*
G01*
G37*
G36*
G01*
X150745000Y-68382000D02*
X150245000Y-68382000D01*
G75*
G02*
X150020000Y-68157000I0J225000D01*
G01*
X150020000Y-67707000D01*
G75*
G02*
X150245000Y-67482000I225000J0D01*
G01*
X150745000Y-67482000D01*
G75*
G02*
X150970000Y-67707000I0J-225000D01*
G01*
X150970000Y-68157000D01*
G75*
G02*
X150745000Y-68382000I-225000J0D01*
G01*
G37*
G36*
G01*
X150745000Y-69932000D02*
X150245000Y-69932000D01*
G75*
G02*
X150020000Y-69707000I0J225000D01*
G01*
X150020000Y-69257000D01*
G75*
G02*
X150245000Y-69032000I225000J0D01*
G01*
X150745000Y-69032000D01*
G75*
G02*
X150970000Y-69257000I0J-225000D01*
G01*
X150970000Y-69707000D01*
G75*
G02*
X150745000Y-69932000I-225000J0D01*
G01*
G37*
G36*
G01*
X150245000Y-72143500D02*
X150745000Y-72143500D01*
G75*
G02*
X150970000Y-72368500I0J-225000D01*
G01*
X150970000Y-72818500D01*
G75*
G02*
X150745000Y-73043500I-225000J0D01*
G01*
X150245000Y-73043500D01*
G75*
G02*
X150020000Y-72818500I0J225000D01*
G01*
X150020000Y-72368500D01*
G75*
G02*
X150245000Y-72143500I225000J0D01*
G01*
G37*
G36*
G01*
X150245000Y-70593500D02*
X150745000Y-70593500D01*
G75*
G02*
X150970000Y-70818500I0J-225000D01*
G01*
X150970000Y-71268500D01*
G75*
G02*
X150745000Y-71493500I-225000J0D01*
G01*
X150245000Y-71493500D01*
G75*
G02*
X150020000Y-71268500I0J225000D01*
G01*
X150020000Y-70818500D01*
G75*
G02*
X150245000Y-70593500I225000J0D01*
G01*
G37*
D14*
X96266000Y-89154000D03*
D15*
X92366000Y-91059000D03*
X92366000Y-89789000D03*
X92366000Y-88519000D03*
X92366000Y-87249000D03*
X100166000Y-87249000D03*
X100166000Y-88519000D03*
X100166000Y-89789000D03*
X100166000Y-91059000D03*
G36*
G01*
X149246000Y-68282000D02*
X148696000Y-68282000D01*
G75*
G02*
X148496000Y-68082000I0J200000D01*
G01*
X148496000Y-67682000D01*
G75*
G02*
X148696000Y-67482000I200000J0D01*
G01*
X149246000Y-67482000D01*
G75*
G02*
X149446000Y-67682000I0J-200000D01*
G01*
X149446000Y-68082000D01*
G75*
G02*
X149246000Y-68282000I-200000J0D01*
G01*
G37*
G36*
G01*
X149246000Y-69932000D02*
X148696000Y-69932000D01*
G75*
G02*
X148496000Y-69732000I0J200000D01*
G01*
X148496000Y-69332000D01*
G75*
G02*
X148696000Y-69132000I200000J0D01*
G01*
X149246000Y-69132000D01*
G75*
G02*
X149446000Y-69332000I0J-200000D01*
G01*
X149446000Y-69732000D01*
G75*
G02*
X149246000Y-69932000I-200000J0D01*
G01*
G37*
G36*
G01*
X149246000Y-71393000D02*
X148696000Y-71393000D01*
G75*
G02*
X148496000Y-71193000I0J200000D01*
G01*
X148496000Y-70793000D01*
G75*
G02*
X148696000Y-70593000I200000J0D01*
G01*
X149246000Y-70593000D01*
G75*
G02*
X149446000Y-70793000I0J-200000D01*
G01*
X149446000Y-71193000D01*
G75*
G02*
X149246000Y-71393000I-200000J0D01*
G01*
G37*
G36*
G01*
X149246000Y-73043000D02*
X148696000Y-73043000D01*
G75*
G02*
X148496000Y-72843000I0J200000D01*
G01*
X148496000Y-72443000D01*
G75*
G02*
X148696000Y-72243000I200000J0D01*
G01*
X149246000Y-72243000D01*
G75*
G02*
X149446000Y-72443000I0J-200000D01*
G01*
X149446000Y-72843000D01*
G75*
G02*
X149246000Y-73043000I-200000J0D01*
G01*
G37*
D16*
X161290000Y-125000000D03*
X161290000Y-129000000D03*
X165100000Y-125000000D03*
X165100000Y-129000000D03*
D17*
X157353000Y-114436000D03*
X157353000Y-118736000D03*
D18*
X165481000Y-105409000D03*
X165481000Y-102109000D03*
D16*
X153289000Y-88487000D03*
X153289000Y-84487000D03*
D19*
X154146000Y-77343000D03*
X150146000Y-77343000D03*
G36*
G01*
X148905250Y-62897500D02*
X149417750Y-62897500D01*
G75*
G02*
X149636500Y-63116250I0J-218750D01*
G01*
X149636500Y-63553750D01*
G75*
G02*
X149417750Y-63772500I-218750J0D01*
G01*
X148905250Y-63772500D01*
G75*
G02*
X148686500Y-63553750I0J218750D01*
G01*
X148686500Y-63116250D01*
G75*
G02*
X148905250Y-62897500I218750J0D01*
G01*
G37*
G36*
G01*
X148905250Y-61322500D02*
X149417750Y-61322500D01*
G75*
G02*
X149636500Y-61541250I0J-218750D01*
G01*
X149636500Y-61978750D01*
G75*
G02*
X149417750Y-62197500I-218750J0D01*
G01*
X148905250Y-62197500D01*
G75*
G02*
X148686500Y-61978750I0J218750D01*
G01*
X148686500Y-61541250D01*
G75*
G02*
X148905250Y-61322500I218750J0D01*
G01*
G37*
G36*
G01*
X158146000Y-94612750D02*
X158146000Y-95125250D01*
G75*
G02*
X157927250Y-95344000I-218750J0D01*
G01*
X157489750Y-95344000D01*
G75*
G02*
X157271000Y-95125250I0J218750D01*
G01*
X157271000Y-94612750D01*
G75*
G02*
X157489750Y-94394000I218750J0D01*
G01*
X157927250Y-94394000D01*
G75*
G02*
X158146000Y-94612750I0J-218750D01*
G01*
G37*
G36*
G01*
X159721000Y-94612750D02*
X159721000Y-95125250D01*
G75*
G02*
X159502250Y-95344000I-218750J0D01*
G01*
X159064750Y-95344000D01*
G75*
G02*
X158846000Y-95125250I0J218750D01*
G01*
X158846000Y-94612750D01*
G75*
G02*
X159064750Y-94394000I218750J0D01*
G01*
X159502250Y-94394000D01*
G75*
G02*
X159721000Y-94612750I0J-218750D01*
G01*
G37*
G36*
G01*
X163734000Y-71752750D02*
X163734000Y-72265250D01*
G75*
G02*
X163515250Y-72484000I-218750J0D01*
G01*
X163077750Y-72484000D01*
G75*
G02*
X162859000Y-72265250I0J218750D01*
G01*
X162859000Y-71752750D01*
G75*
G02*
X163077750Y-71534000I218750J0D01*
G01*
X163515250Y-71534000D01*
G75*
G02*
X163734000Y-71752750I0J-218750D01*
G01*
G37*
G36*
G01*
X165309000Y-71752750D02*
X165309000Y-72265250D01*
G75*
G02*
X165090250Y-72484000I-218750J0D01*
G01*
X164652750Y-72484000D01*
G75*
G02*
X164434000Y-72265250I0J218750D01*
G01*
X164434000Y-71752750D01*
G75*
G02*
X164652750Y-71534000I218750J0D01*
G01*
X165090250Y-71534000D01*
G75*
G02*
X165309000Y-71752750I0J-218750D01*
G01*
G37*
G36*
G01*
X123094000Y-70736750D02*
X123094000Y-71249250D01*
G75*
G02*
X122875250Y-71468000I-218750J0D01*
G01*
X122437750Y-71468000D01*
G75*
G02*
X122219000Y-71249250I0J218750D01*
G01*
X122219000Y-70736750D01*
G75*
G02*
X122437750Y-70518000I218750J0D01*
G01*
X122875250Y-70518000D01*
G75*
G02*
X123094000Y-70736750I0J-218750D01*
G01*
G37*
G36*
G01*
X124669000Y-70736750D02*
X124669000Y-71249250D01*
G75*
G02*
X124450250Y-71468000I-218750J0D01*
G01*
X124012750Y-71468000D01*
G75*
G02*
X123794000Y-71249250I0J218750D01*
G01*
X123794000Y-70736750D01*
G75*
G02*
X124012750Y-70518000I218750J0D01*
G01*
X124450250Y-70518000D01*
G75*
G02*
X124669000Y-70736750I0J-218750D01*
G01*
G37*
G36*
G01*
X121155750Y-84170000D02*
X121668250Y-84170000D01*
G75*
G02*
X121887000Y-84388750I0J-218750D01*
G01*
X121887000Y-84826250D01*
G75*
G02*
X121668250Y-85045000I-218750J0D01*
G01*
X121155750Y-85045000D01*
G75*
G02*
X120937000Y-84826250I0J218750D01*
G01*
X120937000Y-84388750D01*
G75*
G02*
X121155750Y-84170000I218750J0D01*
G01*
G37*
G36*
G01*
X121155750Y-82595000D02*
X121668250Y-82595000D01*
G75*
G02*
X121887000Y-82813750I0J-218750D01*
G01*
X121887000Y-83251250D01*
G75*
G02*
X121668250Y-83470000I-218750J0D01*
G01*
X121155750Y-83470000D01*
G75*
G02*
X120937000Y-83251250I0J218750D01*
G01*
X120937000Y-82813750D01*
G75*
G02*
X121155750Y-82595000I218750J0D01*
G01*
G37*
D20*
X156704000Y-68022000D03*
X161304000Y-68022000D03*
X159004000Y-68022000D03*
D21*
X159004000Y-61722000D03*
G36*
G01*
X150474000Y-62972500D02*
X151024000Y-62972500D01*
G75*
G02*
X151224000Y-63172500I0J-200000D01*
G01*
X151224000Y-63572500D01*
G75*
G02*
X151024000Y-63772500I-200000J0D01*
G01*
X150474000Y-63772500D01*
G75*
G02*
X150274000Y-63572500I0J200000D01*
G01*
X150274000Y-63172500D01*
G75*
G02*
X150474000Y-62972500I200000J0D01*
G01*
G37*
G36*
G01*
X150474000Y-61322500D02*
X151024000Y-61322500D01*
G75*
G02*
X151224000Y-61522500I0J-200000D01*
G01*
X151224000Y-61922500D01*
G75*
G02*
X151024000Y-62122500I-200000J0D01*
G01*
X150474000Y-62122500D01*
G75*
G02*
X150274000Y-61922500I0J200000D01*
G01*
X150274000Y-61522500D01*
G75*
G02*
X150474000Y-61322500I200000J0D01*
G01*
G37*
G36*
G01*
X153293000Y-69032000D02*
X153793000Y-69032000D01*
G75*
G02*
X154018000Y-69257000I0J-225000D01*
G01*
X154018000Y-69707000D01*
G75*
G02*
X153793000Y-69932000I-225000J0D01*
G01*
X153293000Y-69932000D01*
G75*
G02*
X153068000Y-69707000I0J225000D01*
G01*
X153068000Y-69257000D01*
G75*
G02*
X153293000Y-69032000I225000J0D01*
G01*
G37*
G36*
G01*
X153293000Y-67482000D02*
X153793000Y-67482000D01*
G75*
G02*
X154018000Y-67707000I0J-225000D01*
G01*
X154018000Y-68157000D01*
G75*
G02*
X153793000Y-68382000I-225000J0D01*
G01*
X153293000Y-68382000D01*
G75*
G02*
X153068000Y-68157000I0J225000D01*
G01*
X153068000Y-67707000D01*
G75*
G02*
X153293000Y-67482000I225000J0D01*
G01*
G37*
G36*
G01*
X151769000Y-69032000D02*
X152269000Y-69032000D01*
G75*
G02*
X152494000Y-69257000I0J-225000D01*
G01*
X152494000Y-69707000D01*
G75*
G02*
X152269000Y-69932000I-225000J0D01*
G01*
X151769000Y-69932000D01*
G75*
G02*
X151544000Y-69707000I0J225000D01*
G01*
X151544000Y-69257000D01*
G75*
G02*
X151769000Y-69032000I225000J0D01*
G01*
G37*
G36*
G01*
X151769000Y-67482000D02*
X152269000Y-67482000D01*
G75*
G02*
X152494000Y-67707000I0J-225000D01*
G01*
X152494000Y-68157000D01*
G75*
G02*
X152269000Y-68382000I-225000J0D01*
G01*
X151769000Y-68382000D01*
G75*
G02*
X151544000Y-68157000I0J225000D01*
G01*
X151544000Y-67707000D01*
G75*
G02*
X151769000Y-67482000I225000J0D01*
G01*
G37*
G36*
G01*
X164663000Y-67052000D02*
X164663000Y-66552000D01*
G75*
G02*
X164888000Y-66327000I225000J0D01*
G01*
X165338000Y-66327000D01*
G75*
G02*
X165563000Y-66552000I0J-225000D01*
G01*
X165563000Y-67052000D01*
G75*
G02*
X165338000Y-67277000I-225000J0D01*
G01*
X164888000Y-67277000D01*
G75*
G02*
X164663000Y-67052000I0J225000D01*
G01*
G37*
G36*
G01*
X163113000Y-67052000D02*
X163113000Y-66552000D01*
G75*
G02*
X163338000Y-66327000I225000J0D01*
G01*
X163788000Y-66327000D01*
G75*
G02*
X164013000Y-66552000I0J-225000D01*
G01*
X164013000Y-67052000D01*
G75*
G02*
X163788000Y-67277000I-225000J0D01*
G01*
X163338000Y-67277000D01*
G75*
G02*
X163113000Y-67052000I0J225000D01*
G01*
G37*
G36*
G01*
X164663000Y-68703000D02*
X164663000Y-68203000D01*
G75*
G02*
X164888000Y-67978000I225000J0D01*
G01*
X165338000Y-67978000D01*
G75*
G02*
X165563000Y-68203000I0J-225000D01*
G01*
X165563000Y-68703000D01*
G75*
G02*
X165338000Y-68928000I-225000J0D01*
G01*
X164888000Y-68928000D01*
G75*
G02*
X164663000Y-68703000I0J225000D01*
G01*
G37*
G36*
G01*
X163113000Y-68703000D02*
X163113000Y-68203000D01*
G75*
G02*
X163338000Y-67978000I225000J0D01*
G01*
X163788000Y-67978000D01*
G75*
G02*
X164013000Y-68203000I0J-225000D01*
G01*
X164013000Y-68703000D01*
G75*
G02*
X163788000Y-68928000I-225000J0D01*
G01*
X163338000Y-68928000D01*
G75*
G02*
X163113000Y-68703000I0J225000D01*
G01*
G37*
G36*
G01*
X120322500Y-117335000D02*
X119072500Y-117335000D01*
G75*
G02*
X118822500Y-117085000I0J250000D01*
G01*
X118822500Y-116335000D01*
G75*
G02*
X119072500Y-116085000I250000J0D01*
G01*
X120322500Y-116085000D01*
G75*
G02*
X120572500Y-116335000I0J-250000D01*
G01*
X120572500Y-117085000D01*
G75*
G02*
X120322500Y-117335000I-250000J0D01*
G01*
G37*
G36*
G01*
X120322500Y-120135000D02*
X119072500Y-120135000D01*
G75*
G02*
X118822500Y-119885000I0J250000D01*
G01*
X118822500Y-119135000D01*
G75*
G02*
X119072500Y-118885000I250000J0D01*
G01*
X120322500Y-118885000D01*
G75*
G02*
X120572500Y-119135000I0J-250000D01*
G01*
X120572500Y-119885000D01*
G75*
G02*
X120322500Y-120135000I-250000J0D01*
G01*
G37*
G36*
G01*
X126817000Y-119693500D02*
X126817000Y-119193500D01*
G75*
G02*
X127042000Y-118968500I225000J0D01*
G01*
X127492000Y-118968500D01*
G75*
G02*
X127717000Y-119193500I0J-225000D01*
G01*
X127717000Y-119693500D01*
G75*
G02*
X127492000Y-119918500I-225000J0D01*
G01*
X127042000Y-119918500D01*
G75*
G02*
X126817000Y-119693500I0J225000D01*
G01*
G37*
G36*
G01*
X125267000Y-119693500D02*
X125267000Y-119193500D01*
G75*
G02*
X125492000Y-118968500I225000J0D01*
G01*
X125942000Y-118968500D01*
G75*
G02*
X126167000Y-119193500I0J-225000D01*
G01*
X126167000Y-119693500D01*
G75*
G02*
X125942000Y-119918500I-225000J0D01*
G01*
X125492000Y-119918500D01*
G75*
G02*
X125267000Y-119693500I0J225000D01*
G01*
G37*
D22*
X148145000Y-56261000D03*
X126175000Y-56261000D03*
D23*
X137160000Y-56261000D03*
D24*
X86796000Y-125222000D03*
X90496000Y-125222000D03*
G36*
G01*
X104698500Y-128216500D02*
X104698500Y-129466500D01*
G75*
G02*
X104448500Y-129716500I-250000J0D01*
G01*
X103698500Y-129716500D01*
G75*
G02*
X103448500Y-129466500I0J250000D01*
G01*
X103448500Y-128216500D01*
G75*
G02*
X103698500Y-127966500I250000J0D01*
G01*
X104448500Y-127966500D01*
G75*
G02*
X104698500Y-128216500I0J-250000D01*
G01*
G37*
G36*
G01*
X107498500Y-128216500D02*
X107498500Y-129466500D01*
G75*
G02*
X107248500Y-129716500I-250000J0D01*
G01*
X106498500Y-129716500D01*
G75*
G02*
X106248500Y-129466500I0J250000D01*
G01*
X106248500Y-128216500D01*
G75*
G02*
X106498500Y-127966500I250000J0D01*
G01*
X107248500Y-127966500D01*
G75*
G02*
X107498500Y-128216500I0J-250000D01*
G01*
G37*
D25*
X103743000Y-122809000D03*
X101743000Y-123759000D03*
X101743000Y-121859000D03*
G36*
G01*
X101264000Y-127129250D02*
X101264000Y-126616750D01*
G75*
G02*
X101482750Y-126398000I218750J0D01*
G01*
X101920250Y-126398000D01*
G75*
G02*
X102139000Y-126616750I0J-218750D01*
G01*
X102139000Y-127129250D01*
G75*
G02*
X101920250Y-127348000I-218750J0D01*
G01*
X101482750Y-127348000D01*
G75*
G02*
X101264000Y-127129250I0J218750D01*
G01*
G37*
G36*
G01*
X102839000Y-127129250D02*
X102839000Y-126616750D01*
G75*
G02*
X103057750Y-126398000I218750J0D01*
G01*
X103495250Y-126398000D01*
G75*
G02*
X103714000Y-126616750I0J-218750D01*
G01*
X103714000Y-127129250D01*
G75*
G02*
X103495250Y-127348000I-218750J0D01*
G01*
X103057750Y-127348000D01*
G75*
G02*
X102839000Y-127129250I0J218750D01*
G01*
G37*
G36*
G01*
X106403000Y-114022000D02*
X106703000Y-114022000D01*
G75*
G02*
X106853000Y-114172000I0J-150000D01*
G01*
X106853000Y-115822000D01*
G75*
G02*
X106703000Y-115972000I-150000J0D01*
G01*
X106403000Y-115972000D01*
G75*
G02*
X106253000Y-115822000I0J150000D01*
G01*
X106253000Y-114172000D01*
G75*
G02*
X106403000Y-114022000I150000J0D01*
G01*
G37*
G36*
G01*
X105133000Y-114022000D02*
X105433000Y-114022000D01*
G75*
G02*
X105583000Y-114172000I0J-150000D01*
G01*
X105583000Y-115822000D01*
G75*
G02*
X105433000Y-115972000I-150000J0D01*
G01*
X105133000Y-115972000D01*
G75*
G02*
X104983000Y-115822000I0J150000D01*
G01*
X104983000Y-114172000D01*
G75*
G02*
X105133000Y-114022000I150000J0D01*
G01*
G37*
G36*
G01*
X103863000Y-114022000D02*
X104163000Y-114022000D01*
G75*
G02*
X104313000Y-114172000I0J-150000D01*
G01*
X104313000Y-115822000D01*
G75*
G02*
X104163000Y-115972000I-150000J0D01*
G01*
X103863000Y-115972000D01*
G75*
G02*
X103713000Y-115822000I0J150000D01*
G01*
X103713000Y-114172000D01*
G75*
G02*
X103863000Y-114022000I150000J0D01*
G01*
G37*
G36*
G01*
X102593000Y-114022000D02*
X102893000Y-114022000D01*
G75*
G02*
X103043000Y-114172000I0J-150000D01*
G01*
X103043000Y-115822000D01*
G75*
G02*
X102893000Y-115972000I-150000J0D01*
G01*
X102593000Y-115972000D01*
G75*
G02*
X102443000Y-115822000I0J150000D01*
G01*
X102443000Y-114172000D01*
G75*
G02*
X102593000Y-114022000I150000J0D01*
G01*
G37*
G36*
G01*
X102593000Y-109072000D02*
X102893000Y-109072000D01*
G75*
G02*
X103043000Y-109222000I0J-150000D01*
G01*
X103043000Y-110872000D01*
G75*
G02*
X102893000Y-111022000I-150000J0D01*
G01*
X102593000Y-111022000D01*
G75*
G02*
X102443000Y-110872000I0J150000D01*
G01*
X102443000Y-109222000D01*
G75*
G02*
X102593000Y-109072000I150000J0D01*
G01*
G37*
G36*
G01*
X103863000Y-109072000D02*
X104163000Y-109072000D01*
G75*
G02*
X104313000Y-109222000I0J-150000D01*
G01*
X104313000Y-110872000D01*
G75*
G02*
X104163000Y-111022000I-150000J0D01*
G01*
X103863000Y-111022000D01*
G75*
G02*
X103713000Y-110872000I0J150000D01*
G01*
X103713000Y-109222000D01*
G75*
G02*
X103863000Y-109072000I150000J0D01*
G01*
G37*
G36*
G01*
X105133000Y-109072000D02*
X105433000Y-109072000D01*
G75*
G02*
X105583000Y-109222000I0J-150000D01*
G01*
X105583000Y-110872000D01*
G75*
G02*
X105433000Y-111022000I-150000J0D01*
G01*
X105133000Y-111022000D01*
G75*
G02*
X104983000Y-110872000I0J150000D01*
G01*
X104983000Y-109222000D01*
G75*
G02*
X105133000Y-109072000I150000J0D01*
G01*
G37*
G36*
G01*
X106403000Y-109072000D02*
X106703000Y-109072000D01*
G75*
G02*
X106853000Y-109222000I0J-150000D01*
G01*
X106853000Y-110872000D01*
G75*
G02*
X106703000Y-111022000I-150000J0D01*
G01*
X106403000Y-111022000D01*
G75*
G02*
X106253000Y-110872000I0J150000D01*
G01*
X106253000Y-109222000D01*
G75*
G02*
X106403000Y-109072000I150000J0D01*
G01*
G37*
D26*
X128651000Y-127795000D03*
X128651000Y-122395000D03*
D27*
X99060000Y-59699000D03*
X100330000Y-59699000D03*
X101600000Y-59699000D03*
X102870000Y-59699000D03*
X104140000Y-59699000D03*
X105410000Y-59699000D03*
X106680000Y-59699000D03*
X107950000Y-59699000D03*
X109220000Y-59699000D03*
X110490000Y-59699000D03*
X111760000Y-59699000D03*
X113030000Y-59699000D03*
X114300000Y-59699000D03*
X115570000Y-59699000D03*
D28*
X116570000Y-62484000D03*
X116570000Y-63754000D03*
X116570000Y-65024000D03*
X116570000Y-66294000D03*
X116570000Y-67564000D03*
X116570000Y-68834000D03*
X116570000Y-70104000D03*
X116570000Y-71374000D03*
X116570000Y-72644000D03*
X116570000Y-73914000D03*
D27*
X115570000Y-76699000D03*
X114300000Y-76699000D03*
X113030000Y-76699000D03*
X111760000Y-76699000D03*
X110490000Y-76699000D03*
X109220000Y-76699000D03*
X107950000Y-76699000D03*
X106680000Y-76699000D03*
X105410000Y-76699000D03*
X104140000Y-76699000D03*
X102870000Y-76699000D03*
X101600000Y-76699000D03*
X100330000Y-76699000D03*
X99060000Y-76699000D03*
D29*
X106560000Y-69199000D03*
G36*
G01*
X94866750Y-98216000D02*
X95379250Y-98216000D01*
G75*
G02*
X95598000Y-98434750I0J-218750D01*
G01*
X95598000Y-98872250D01*
G75*
G02*
X95379250Y-99091000I-218750J0D01*
G01*
X94866750Y-99091000D01*
G75*
G02*
X94648000Y-98872250I0J218750D01*
G01*
X94648000Y-98434750D01*
G75*
G02*
X94866750Y-98216000I218750J0D01*
G01*
G37*
G36*
G01*
X94866750Y-99791000D02*
X95379250Y-99791000D01*
G75*
G02*
X95598000Y-100009750I0J-218750D01*
G01*
X95598000Y-100447250D01*
G75*
G02*
X95379250Y-100666000I-218750J0D01*
G01*
X94866750Y-100666000D01*
G75*
G02*
X94648000Y-100447250I0J218750D01*
G01*
X94648000Y-100009750D01*
G75*
G02*
X94866750Y-99791000I218750J0D01*
G01*
G37*
D10*
G36*
X95333804Y-93121769D02*
G01*
X95341307Y-93124045D01*
X95348223Y-93127741D01*
X95354284Y-93132716D01*
X95359259Y-93138777D01*
X95362955Y-93145693D01*
X95365231Y-93153196D01*
X95366000Y-93161000D01*
X95366000Y-93831000D01*
X95365231Y-93838804D01*
X95362955Y-93846307D01*
X95359259Y-93853223D01*
X95354284Y-93859284D01*
X95348223Y-93864259D01*
X95341307Y-93867955D01*
X95333804Y-93870231D01*
X95326000Y-93871000D01*
X95302569Y-93871000D01*
X95294765Y-93870231D01*
X95287262Y-93867955D01*
X95280346Y-93864259D01*
X95274285Y-93859284D01*
X95177716Y-93762715D01*
X95172741Y-93756654D01*
X95169045Y-93749738D01*
X95166769Y-93742235D01*
X95166000Y-93734431D01*
X95166000Y-93161000D01*
X95166769Y-93153196D01*
X95169045Y-93145693D01*
X95172741Y-93138777D01*
X95177716Y-93132716D01*
X95183777Y-93127741D01*
X95190693Y-93124045D01*
X95198196Y-93121769D01*
X95206000Y-93121000D01*
X95326000Y-93121000D01*
X95333804Y-93121769D01*
G37*
G36*
G01*
X95566000Y-93821000D02*
X95566000Y-93171000D01*
G75*
G02*
X95616000Y-93121000I50000J0D01*
G01*
X95716000Y-93121000D01*
G75*
G02*
X95766000Y-93171000I0J-50000D01*
G01*
X95766000Y-93821000D01*
G75*
G02*
X95716000Y-93871000I-50000J0D01*
G01*
X95616000Y-93871000D01*
G75*
G02*
X95566000Y-93821000I0J50000D01*
G01*
G37*
G36*
G01*
X95966000Y-93821000D02*
X95966000Y-93171000D01*
G75*
G02*
X96016000Y-93121000I50000J0D01*
G01*
X96116000Y-93121000D01*
G75*
G02*
X96166000Y-93171000I0J-50000D01*
G01*
X96166000Y-93821000D01*
G75*
G02*
X96116000Y-93871000I-50000J0D01*
G01*
X96016000Y-93871000D01*
G75*
G02*
X95966000Y-93821000I0J50000D01*
G01*
G37*
G36*
G01*
X96366000Y-93821000D02*
X96366000Y-93171000D01*
G75*
G02*
X96416000Y-93121000I50000J0D01*
G01*
X96516000Y-93121000D01*
G75*
G02*
X96566000Y-93171000I0J-50000D01*
G01*
X96566000Y-93821000D01*
G75*
G02*
X96516000Y-93871000I-50000J0D01*
G01*
X96416000Y-93871000D01*
G75*
G02*
X96366000Y-93821000I0J50000D01*
G01*
G37*
G36*
G01*
X96766000Y-93821000D02*
X96766000Y-93171000D01*
G75*
G02*
X96816000Y-93121000I50000J0D01*
G01*
X96916000Y-93121000D01*
G75*
G02*
X96966000Y-93171000I0J-50000D01*
G01*
X96966000Y-93821000D01*
G75*
G02*
X96916000Y-93871000I-50000J0D01*
G01*
X96816000Y-93871000D01*
G75*
G02*
X96766000Y-93821000I0J50000D01*
G01*
G37*
G36*
X97333804Y-93121769D02*
G01*
X97341307Y-93124045D01*
X97348223Y-93127741D01*
X97354284Y-93132716D01*
X97359259Y-93138777D01*
X97362955Y-93145693D01*
X97365231Y-93153196D01*
X97366000Y-93161000D01*
X97366000Y-93734431D01*
X97365231Y-93742235D01*
X97362955Y-93749738D01*
X97359259Y-93756654D01*
X97354284Y-93762715D01*
X97257715Y-93859284D01*
X97251654Y-93864259D01*
X97244738Y-93867955D01*
X97237235Y-93870231D01*
X97229431Y-93871000D01*
X97206000Y-93871000D01*
X97198196Y-93870231D01*
X97190693Y-93867955D01*
X97183777Y-93864259D01*
X97177716Y-93859284D01*
X97172741Y-93853223D01*
X97169045Y-93846307D01*
X97166769Y-93838804D01*
X97166000Y-93831000D01*
X97166000Y-93161000D01*
X97166769Y-93153196D01*
X97169045Y-93145693D01*
X97172741Y-93138777D01*
X97177716Y-93132716D01*
X97183777Y-93127741D01*
X97190693Y-93124045D01*
X97198196Y-93121769D01*
X97206000Y-93121000D01*
X97326000Y-93121000D01*
X97333804Y-93121769D01*
G37*
G36*
X98108804Y-93896769D02*
G01*
X98116307Y-93899045D01*
X98123223Y-93902741D01*
X98129284Y-93907716D01*
X98134259Y-93913777D01*
X98137955Y-93920693D01*
X98140231Y-93928196D01*
X98141000Y-93936000D01*
X98141000Y-94056000D01*
X98140231Y-94063804D01*
X98137955Y-94071307D01*
X98134259Y-94078223D01*
X98129284Y-94084284D01*
X98123223Y-94089259D01*
X98116307Y-94092955D01*
X98108804Y-94095231D01*
X98101000Y-94096000D01*
X97431000Y-94096000D01*
X97423196Y-94095231D01*
X97415693Y-94092955D01*
X97408777Y-94089259D01*
X97402716Y-94084284D01*
X97397741Y-94078223D01*
X97394045Y-94071307D01*
X97391769Y-94063804D01*
X97391000Y-94056000D01*
X97391000Y-94032569D01*
X97391769Y-94024765D01*
X97394045Y-94017262D01*
X97397741Y-94010346D01*
X97402716Y-94004285D01*
X97499285Y-93907716D01*
X97505346Y-93902741D01*
X97512262Y-93899045D01*
X97519765Y-93896769D01*
X97527569Y-93896000D01*
X98101000Y-93896000D01*
X98108804Y-93896769D01*
G37*
G36*
G01*
X97391000Y-94446000D02*
X97391000Y-94346000D01*
G75*
G02*
X97441000Y-94296000I50000J0D01*
G01*
X98091000Y-94296000D01*
G75*
G02*
X98141000Y-94346000I0J-50000D01*
G01*
X98141000Y-94446000D01*
G75*
G02*
X98091000Y-94496000I-50000J0D01*
G01*
X97441000Y-94496000D01*
G75*
G02*
X97391000Y-94446000I0J50000D01*
G01*
G37*
G36*
G01*
X97391000Y-94846000D02*
X97391000Y-94746000D01*
G75*
G02*
X97441000Y-94696000I50000J0D01*
G01*
X98091000Y-94696000D01*
G75*
G02*
X98141000Y-94746000I0J-50000D01*
G01*
X98141000Y-94846000D01*
G75*
G02*
X98091000Y-94896000I-50000J0D01*
G01*
X97441000Y-94896000D01*
G75*
G02*
X97391000Y-94846000I0J50000D01*
G01*
G37*
G36*
G01*
X97391000Y-95246000D02*
X97391000Y-95146000D01*
G75*
G02*
X97441000Y-95096000I50000J0D01*
G01*
X98091000Y-95096000D01*
G75*
G02*
X98141000Y-95146000I0J-50000D01*
G01*
X98141000Y-95246000D01*
G75*
G02*
X98091000Y-95296000I-50000J0D01*
G01*
X97441000Y-95296000D01*
G75*
G02*
X97391000Y-95246000I0J50000D01*
G01*
G37*
G36*
G01*
X97391000Y-95646000D02*
X97391000Y-95546000D01*
G75*
G02*
X97441000Y-95496000I50000J0D01*
G01*
X98091000Y-95496000D01*
G75*
G02*
X98141000Y-95546000I0J-50000D01*
G01*
X98141000Y-95646000D01*
G75*
G02*
X98091000Y-95696000I-50000J0D01*
G01*
X97441000Y-95696000D01*
G75*
G02*
X97391000Y-95646000I0J50000D01*
G01*
G37*
G36*
X98108804Y-95896769D02*
G01*
X98116307Y-95899045D01*
X98123223Y-95902741D01*
X98129284Y-95907716D01*
X98134259Y-95913777D01*
X98137955Y-95920693D01*
X98140231Y-95928196D01*
X98141000Y-95936000D01*
X98141000Y-96056000D01*
X98140231Y-96063804D01*
X98137955Y-96071307D01*
X98134259Y-96078223D01*
X98129284Y-96084284D01*
X98123223Y-96089259D01*
X98116307Y-96092955D01*
X98108804Y-96095231D01*
X98101000Y-96096000D01*
X97527569Y-96096000D01*
X97519765Y-96095231D01*
X97512262Y-96092955D01*
X97505346Y-96089259D01*
X97499285Y-96084284D01*
X97402716Y-95987715D01*
X97397741Y-95981654D01*
X97394045Y-95974738D01*
X97391769Y-95967235D01*
X97391000Y-95959431D01*
X97391000Y-95936000D01*
X97391769Y-95928196D01*
X97394045Y-95920693D01*
X97397741Y-95913777D01*
X97402716Y-95907716D01*
X97408777Y-95902741D01*
X97415693Y-95899045D01*
X97423196Y-95896769D01*
X97431000Y-95896000D01*
X98101000Y-95896000D01*
X98108804Y-95896769D01*
G37*
G36*
X97237235Y-96121769D02*
G01*
X97244738Y-96124045D01*
X97251654Y-96127741D01*
X97257715Y-96132716D01*
X97354284Y-96229285D01*
X97359259Y-96235346D01*
X97362955Y-96242262D01*
X97365231Y-96249765D01*
X97366000Y-96257569D01*
X97366000Y-96831000D01*
X97365231Y-96838804D01*
X97362955Y-96846307D01*
X97359259Y-96853223D01*
X97354284Y-96859284D01*
X97348223Y-96864259D01*
X97341307Y-96867955D01*
X97333804Y-96870231D01*
X97326000Y-96871000D01*
X97206000Y-96871000D01*
X97198196Y-96870231D01*
X97190693Y-96867955D01*
X97183777Y-96864259D01*
X97177716Y-96859284D01*
X97172741Y-96853223D01*
X97169045Y-96846307D01*
X97166769Y-96838804D01*
X97166000Y-96831000D01*
X97166000Y-96161000D01*
X97166769Y-96153196D01*
X97169045Y-96145693D01*
X97172741Y-96138777D01*
X97177716Y-96132716D01*
X97183777Y-96127741D01*
X97190693Y-96124045D01*
X97198196Y-96121769D01*
X97206000Y-96121000D01*
X97229431Y-96121000D01*
X97237235Y-96121769D01*
G37*
G36*
G01*
X96766000Y-96821000D02*
X96766000Y-96171000D01*
G75*
G02*
X96816000Y-96121000I50000J0D01*
G01*
X96916000Y-96121000D01*
G75*
G02*
X96966000Y-96171000I0J-50000D01*
G01*
X96966000Y-96821000D01*
G75*
G02*
X96916000Y-96871000I-50000J0D01*
G01*
X96816000Y-96871000D01*
G75*
G02*
X96766000Y-96821000I0J50000D01*
G01*
G37*
G36*
G01*
X96366000Y-96821000D02*
X96366000Y-96171000D01*
G75*
G02*
X96416000Y-96121000I50000J0D01*
G01*
X96516000Y-96121000D01*
G75*
G02*
X96566000Y-96171000I0J-50000D01*
G01*
X96566000Y-96821000D01*
G75*
G02*
X96516000Y-96871000I-50000J0D01*
G01*
X96416000Y-96871000D01*
G75*
G02*
X96366000Y-96821000I0J50000D01*
G01*
G37*
G36*
G01*
X95966000Y-96821000D02*
X95966000Y-96171000D01*
G75*
G02*
X96016000Y-96121000I50000J0D01*
G01*
X96116000Y-96121000D01*
G75*
G02*
X96166000Y-96171000I0J-50000D01*
G01*
X96166000Y-96821000D01*
G75*
G02*
X96116000Y-96871000I-50000J0D01*
G01*
X96016000Y-96871000D01*
G75*
G02*
X95966000Y-96821000I0J50000D01*
G01*
G37*
G36*
G01*
X95566000Y-96821000D02*
X95566000Y-96171000D01*
G75*
G02*
X95616000Y-96121000I50000J0D01*
G01*
X95716000Y-96121000D01*
G75*
G02*
X95766000Y-96171000I0J-50000D01*
G01*
X95766000Y-96821000D01*
G75*
G02*
X95716000Y-96871000I-50000J0D01*
G01*
X95616000Y-96871000D01*
G75*
G02*
X95566000Y-96821000I0J50000D01*
G01*
G37*
G36*
X95333804Y-96121769D02*
G01*
X95341307Y-96124045D01*
X95348223Y-96127741D01*
X95354284Y-96132716D01*
X95359259Y-96138777D01*
X95362955Y-96145693D01*
X95365231Y-96153196D01*
X95366000Y-96161000D01*
X95366000Y-96831000D01*
X95365231Y-96838804D01*
X95362955Y-96846307D01*
X95359259Y-96853223D01*
X95354284Y-96859284D01*
X95348223Y-96864259D01*
X95341307Y-96867955D01*
X95333804Y-96870231D01*
X95326000Y-96871000D01*
X95206000Y-96871000D01*
X95198196Y-96870231D01*
X95190693Y-96867955D01*
X95183777Y-96864259D01*
X95177716Y-96859284D01*
X95172741Y-96853223D01*
X95169045Y-96846307D01*
X95166769Y-96838804D01*
X95166000Y-96831000D01*
X95166000Y-96257569D01*
X95166769Y-96249765D01*
X95169045Y-96242262D01*
X95172741Y-96235346D01*
X95177716Y-96229285D01*
X95274285Y-96132716D01*
X95280346Y-96127741D01*
X95287262Y-96124045D01*
X95294765Y-96121769D01*
X95302569Y-96121000D01*
X95326000Y-96121000D01*
X95333804Y-96121769D01*
G37*
G36*
X95108804Y-95896769D02*
G01*
X95116307Y-95899045D01*
X95123223Y-95902741D01*
X95129284Y-95907716D01*
X95134259Y-95913777D01*
X95137955Y-95920693D01*
X95140231Y-95928196D01*
X95141000Y-95936000D01*
X95141000Y-95959431D01*
X95140231Y-95967235D01*
X95137955Y-95974738D01*
X95134259Y-95981654D01*
X95129284Y-95987715D01*
X95032715Y-96084284D01*
X95026654Y-96089259D01*
X95019738Y-96092955D01*
X95012235Y-96095231D01*
X95004431Y-96096000D01*
X94431000Y-96096000D01*
X94423196Y-96095231D01*
X94415693Y-96092955D01*
X94408777Y-96089259D01*
X94402716Y-96084284D01*
X94397741Y-96078223D01*
X94394045Y-96071307D01*
X94391769Y-96063804D01*
X94391000Y-96056000D01*
X94391000Y-95936000D01*
X94391769Y-95928196D01*
X94394045Y-95920693D01*
X94397741Y-95913777D01*
X94402716Y-95907716D01*
X94408777Y-95902741D01*
X94415693Y-95899045D01*
X94423196Y-95896769D01*
X94431000Y-95896000D01*
X95101000Y-95896000D01*
X95108804Y-95896769D01*
G37*
G36*
G01*
X94391000Y-95646000D02*
X94391000Y-95546000D01*
G75*
G02*
X94441000Y-95496000I50000J0D01*
G01*
X95091000Y-95496000D01*
G75*
G02*
X95141000Y-95546000I0J-50000D01*
G01*
X95141000Y-95646000D01*
G75*
G02*
X95091000Y-95696000I-50000J0D01*
G01*
X94441000Y-95696000D01*
G75*
G02*
X94391000Y-95646000I0J50000D01*
G01*
G37*
G36*
G01*
X94391000Y-95246000D02*
X94391000Y-95146000D01*
G75*
G02*
X94441000Y-95096000I50000J0D01*
G01*
X95091000Y-95096000D01*
G75*
G02*
X95141000Y-95146000I0J-50000D01*
G01*
X95141000Y-95246000D01*
G75*
G02*
X95091000Y-95296000I-50000J0D01*
G01*
X94441000Y-95296000D01*
G75*
G02*
X94391000Y-95246000I0J50000D01*
G01*
G37*
G36*
G01*
X94391000Y-94846000D02*
X94391000Y-94746000D01*
G75*
G02*
X94441000Y-94696000I50000J0D01*
G01*
X95091000Y-94696000D01*
G75*
G02*
X95141000Y-94746000I0J-50000D01*
G01*
X95141000Y-94846000D01*
G75*
G02*
X95091000Y-94896000I-50000J0D01*
G01*
X94441000Y-94896000D01*
G75*
G02*
X94391000Y-94846000I0J50000D01*
G01*
G37*
G36*
G01*
X94391000Y-94446000D02*
X94391000Y-94346000D01*
G75*
G02*
X94441000Y-94296000I50000J0D01*
G01*
X95091000Y-94296000D01*
G75*
G02*
X95141000Y-94346000I0J-50000D01*
G01*
X95141000Y-94446000D01*
G75*
G02*
X95091000Y-94496000I-50000J0D01*
G01*
X94441000Y-94496000D01*
G75*
G02*
X94391000Y-94446000I0J50000D01*
G01*
G37*
G36*
X95012235Y-93896769D02*
G01*
X95019738Y-93899045D01*
X95026654Y-93902741D01*
X95032715Y-93907716D01*
X95129284Y-94004285D01*
X95134259Y-94010346D01*
X95137955Y-94017262D01*
X95140231Y-94024765D01*
X95141000Y-94032569D01*
X95141000Y-94056000D01*
X95140231Y-94063804D01*
X95137955Y-94071307D01*
X95134259Y-94078223D01*
X95129284Y-94084284D01*
X95123223Y-94089259D01*
X95116307Y-94092955D01*
X95108804Y-94095231D01*
X95101000Y-94096000D01*
X94431000Y-94096000D01*
X94423196Y-94095231D01*
X94415693Y-94092955D01*
X94408777Y-94089259D01*
X94402716Y-94084284D01*
X94397741Y-94078223D01*
X94394045Y-94071307D01*
X94391769Y-94063804D01*
X94391000Y-94056000D01*
X94391000Y-93936000D01*
X94391769Y-93928196D01*
X94394045Y-93920693D01*
X94397741Y-93913777D01*
X94402716Y-93907716D01*
X94408777Y-93902741D01*
X94415693Y-93899045D01*
X94423196Y-93896769D01*
X94431000Y-93896000D01*
X95004431Y-93896000D01*
X95012235Y-93896769D01*
G37*
G36*
G01*
X96351000Y-95556000D02*
X96351000Y-95236000D01*
G75*
G02*
X96511000Y-95076000I160000J0D01*
G01*
X96901000Y-95076000D01*
G75*
G02*
X97061000Y-95236000I0J-160000D01*
G01*
X97061000Y-95556000D01*
G75*
G02*
X96901000Y-95716000I-160000J0D01*
G01*
X96511000Y-95716000D01*
G75*
G02*
X96351000Y-95556000I0J160000D01*
G01*
G37*
G36*
G01*
X96351000Y-94756000D02*
X96351000Y-94436000D01*
G75*
G02*
X96511000Y-94276000I160000J0D01*
G01*
X96901000Y-94276000D01*
G75*
G02*
X97061000Y-94436000I0J-160000D01*
G01*
X97061000Y-94756000D01*
G75*
G02*
X96901000Y-94916000I-160000J0D01*
G01*
X96511000Y-94916000D01*
G75*
G02*
X96351000Y-94756000I0J160000D01*
G01*
G37*
G36*
G01*
X95471000Y-95556000D02*
X95471000Y-95236000D01*
G75*
G02*
X95631000Y-95076000I160000J0D01*
G01*
X96021000Y-95076000D01*
G75*
G02*
X96181000Y-95236000I0J-160000D01*
G01*
X96181000Y-95556000D01*
G75*
G02*
X96021000Y-95716000I-160000J0D01*
G01*
X95631000Y-95716000D01*
G75*
G02*
X95471000Y-95556000I0J160000D01*
G01*
G37*
G36*
G01*
X95471000Y-94756000D02*
X95471000Y-94436000D01*
G75*
G02*
X95631000Y-94276000I160000J0D01*
G01*
X96021000Y-94276000D01*
G75*
G02*
X96181000Y-94436000I0J-160000D01*
G01*
X96181000Y-94756000D01*
G75*
G02*
X96021000Y-94916000I-160000J0D01*
G01*
X95631000Y-94916000D01*
G75*
G02*
X95471000Y-94756000I0J160000D01*
G01*
G37*
G36*
G01*
X109116000Y-97049000D02*
X108816000Y-97049000D01*
G75*
G02*
X108666000Y-96899000I0J150000D01*
G01*
X108666000Y-95249000D01*
G75*
G02*
X108816000Y-95099000I150000J0D01*
G01*
X109116000Y-95099000D01*
G75*
G02*
X109266000Y-95249000I0J-150000D01*
G01*
X109266000Y-96899000D01*
G75*
G02*
X109116000Y-97049000I-150000J0D01*
G01*
G37*
G36*
G01*
X110386000Y-97049000D02*
X110086000Y-97049000D01*
G75*
G02*
X109936000Y-96899000I0J150000D01*
G01*
X109936000Y-95249000D01*
G75*
G02*
X110086000Y-95099000I150000J0D01*
G01*
X110386000Y-95099000D01*
G75*
G02*
X110536000Y-95249000I0J-150000D01*
G01*
X110536000Y-96899000D01*
G75*
G02*
X110386000Y-97049000I-150000J0D01*
G01*
G37*
G36*
G01*
X111656000Y-97049000D02*
X111356000Y-97049000D01*
G75*
G02*
X111206000Y-96899000I0J150000D01*
G01*
X111206000Y-95249000D01*
G75*
G02*
X111356000Y-95099000I150000J0D01*
G01*
X111656000Y-95099000D01*
G75*
G02*
X111806000Y-95249000I0J-150000D01*
G01*
X111806000Y-96899000D01*
G75*
G02*
X111656000Y-97049000I-150000J0D01*
G01*
G37*
G36*
G01*
X112926000Y-97049000D02*
X112626000Y-97049000D01*
G75*
G02*
X112476000Y-96899000I0J150000D01*
G01*
X112476000Y-95249000D01*
G75*
G02*
X112626000Y-95099000I150000J0D01*
G01*
X112926000Y-95099000D01*
G75*
G02*
X113076000Y-95249000I0J-150000D01*
G01*
X113076000Y-96899000D01*
G75*
G02*
X112926000Y-97049000I-150000J0D01*
G01*
G37*
G36*
G01*
X114196000Y-97049000D02*
X113896000Y-97049000D01*
G75*
G02*
X113746000Y-96899000I0J150000D01*
G01*
X113746000Y-95249000D01*
G75*
G02*
X113896000Y-95099000I150000J0D01*
G01*
X114196000Y-95099000D01*
G75*
G02*
X114346000Y-95249000I0J-150000D01*
G01*
X114346000Y-96899000D01*
G75*
G02*
X114196000Y-97049000I-150000J0D01*
G01*
G37*
G36*
G01*
X115466000Y-97049000D02*
X115166000Y-97049000D01*
G75*
G02*
X115016000Y-96899000I0J150000D01*
G01*
X115016000Y-95249000D01*
G75*
G02*
X115166000Y-95099000I150000J0D01*
G01*
X115466000Y-95099000D01*
G75*
G02*
X115616000Y-95249000I0J-150000D01*
G01*
X115616000Y-96899000D01*
G75*
G02*
X115466000Y-97049000I-150000J0D01*
G01*
G37*
G36*
G01*
X116736000Y-97049000D02*
X116436000Y-97049000D01*
G75*
G02*
X116286000Y-96899000I0J150000D01*
G01*
X116286000Y-95249000D01*
G75*
G02*
X116436000Y-95099000I150000J0D01*
G01*
X116736000Y-95099000D01*
G75*
G02*
X116886000Y-95249000I0J-150000D01*
G01*
X116886000Y-96899000D01*
G75*
G02*
X116736000Y-97049000I-150000J0D01*
G01*
G37*
G36*
G01*
X118006000Y-97049000D02*
X117706000Y-97049000D01*
G75*
G02*
X117556000Y-96899000I0J150000D01*
G01*
X117556000Y-95249000D01*
G75*
G02*
X117706000Y-95099000I150000J0D01*
G01*
X118006000Y-95099000D01*
G75*
G02*
X118156000Y-95249000I0J-150000D01*
G01*
X118156000Y-96899000D01*
G75*
G02*
X118006000Y-97049000I-150000J0D01*
G01*
G37*
G36*
G01*
X118006000Y-92099000D02*
X117706000Y-92099000D01*
G75*
G02*
X117556000Y-91949000I0J150000D01*
G01*
X117556000Y-90299000D01*
G75*
G02*
X117706000Y-90149000I150000J0D01*
G01*
X118006000Y-90149000D01*
G75*
G02*
X118156000Y-90299000I0J-150000D01*
G01*
X118156000Y-91949000D01*
G75*
G02*
X118006000Y-92099000I-150000J0D01*
G01*
G37*
G36*
G01*
X116736000Y-92099000D02*
X116436000Y-92099000D01*
G75*
G02*
X116286000Y-91949000I0J150000D01*
G01*
X116286000Y-90299000D01*
G75*
G02*
X116436000Y-90149000I150000J0D01*
G01*
X116736000Y-90149000D01*
G75*
G02*
X116886000Y-90299000I0J-150000D01*
G01*
X116886000Y-91949000D01*
G75*
G02*
X116736000Y-92099000I-150000J0D01*
G01*
G37*
G36*
G01*
X115466000Y-92099000D02*
X115166000Y-92099000D01*
G75*
G02*
X115016000Y-91949000I0J150000D01*
G01*
X115016000Y-90299000D01*
G75*
G02*
X115166000Y-90149000I150000J0D01*
G01*
X115466000Y-90149000D01*
G75*
G02*
X115616000Y-90299000I0J-150000D01*
G01*
X115616000Y-91949000D01*
G75*
G02*
X115466000Y-92099000I-150000J0D01*
G01*
G37*
G36*
G01*
X114196000Y-92099000D02*
X113896000Y-92099000D01*
G75*
G02*
X113746000Y-91949000I0J150000D01*
G01*
X113746000Y-90299000D01*
G75*
G02*
X113896000Y-90149000I150000J0D01*
G01*
X114196000Y-90149000D01*
G75*
G02*
X114346000Y-90299000I0J-150000D01*
G01*
X114346000Y-91949000D01*
G75*
G02*
X114196000Y-92099000I-150000J0D01*
G01*
G37*
G36*
G01*
X112926000Y-92099000D02*
X112626000Y-92099000D01*
G75*
G02*
X112476000Y-91949000I0J150000D01*
G01*
X112476000Y-90299000D01*
G75*
G02*
X112626000Y-90149000I150000J0D01*
G01*
X112926000Y-90149000D01*
G75*
G02*
X113076000Y-90299000I0J-150000D01*
G01*
X113076000Y-91949000D01*
G75*
G02*
X112926000Y-92099000I-150000J0D01*
G01*
G37*
G36*
G01*
X111656000Y-92099000D02*
X111356000Y-92099000D01*
G75*
G02*
X111206000Y-91949000I0J150000D01*
G01*
X111206000Y-90299000D01*
G75*
G02*
X111356000Y-90149000I150000J0D01*
G01*
X111656000Y-90149000D01*
G75*
G02*
X111806000Y-90299000I0J-150000D01*
G01*
X111806000Y-91949000D01*
G75*
G02*
X111656000Y-92099000I-150000J0D01*
G01*
G37*
G36*
G01*
X110386000Y-92099000D02*
X110086000Y-92099000D01*
G75*
G02*
X109936000Y-91949000I0J150000D01*
G01*
X109936000Y-90299000D01*
G75*
G02*
X110086000Y-90149000I150000J0D01*
G01*
X110386000Y-90149000D01*
G75*
G02*
X110536000Y-90299000I0J-150000D01*
G01*
X110536000Y-91949000D01*
G75*
G02*
X110386000Y-92099000I-150000J0D01*
G01*
G37*
G36*
G01*
X109116000Y-92099000D02*
X108816000Y-92099000D01*
G75*
G02*
X108666000Y-91949000I0J150000D01*
G01*
X108666000Y-90299000D01*
G75*
G02*
X108816000Y-90149000I150000J0D01*
G01*
X109116000Y-90149000D01*
G75*
G02*
X109266000Y-90299000I0J-150000D01*
G01*
X109266000Y-91949000D01*
G75*
G02*
X109116000Y-92099000I-150000J0D01*
G01*
G37*
G36*
G01*
X101343750Y-55569500D02*
X101856250Y-55569500D01*
G75*
G02*
X102075000Y-55788250I0J-218750D01*
G01*
X102075000Y-56225750D01*
G75*
G02*
X101856250Y-56444500I-218750J0D01*
G01*
X101343750Y-56444500D01*
G75*
G02*
X101125000Y-56225750I0J218750D01*
G01*
X101125000Y-55788250D01*
G75*
G02*
X101343750Y-55569500I218750J0D01*
G01*
G37*
G36*
G01*
X101343750Y-57144500D02*
X101856250Y-57144500D01*
G75*
G02*
X102075000Y-57363250I0J-218750D01*
G01*
X102075000Y-57800750D01*
G75*
G02*
X101856250Y-58019500I-218750J0D01*
G01*
X101343750Y-58019500D01*
G75*
G02*
X101125000Y-57800750I0J218750D01*
G01*
X101125000Y-57363250D01*
G75*
G02*
X101343750Y-57144500I218750J0D01*
G01*
G37*
D30*
X116698000Y-84521000D03*
X117998000Y-84521000D03*
X117348000Y-86421000D03*
X117348000Y-84521000D03*
X117998000Y-86421000D03*
X116698000Y-86421000D03*
G36*
G01*
X152275250Y-71468500D02*
X151762750Y-71468500D01*
G75*
G02*
X151544000Y-71249750I0J218750D01*
G01*
X151544000Y-70812250D01*
G75*
G02*
X151762750Y-70593500I218750J0D01*
G01*
X152275250Y-70593500D01*
G75*
G02*
X152494000Y-70812250I0J-218750D01*
G01*
X152494000Y-71249750D01*
G75*
G02*
X152275250Y-71468500I-218750J0D01*
G01*
G37*
G36*
G01*
X152275250Y-73043500D02*
X151762750Y-73043500D01*
G75*
G02*
X151544000Y-72824750I0J218750D01*
G01*
X151544000Y-72387250D01*
G75*
G02*
X151762750Y-72168500I218750J0D01*
G01*
X152275250Y-72168500D01*
G75*
G02*
X152494000Y-72387250I0J-218750D01*
G01*
X152494000Y-72824750D01*
G75*
G02*
X152275250Y-73043500I-218750J0D01*
G01*
G37*
G36*
G01*
X153799250Y-71468500D02*
X153286750Y-71468500D01*
G75*
G02*
X153068000Y-71249750I0J218750D01*
G01*
X153068000Y-70812250D01*
G75*
G02*
X153286750Y-70593500I218750J0D01*
G01*
X153799250Y-70593500D01*
G75*
G02*
X154018000Y-70812250I0J-218750D01*
G01*
X154018000Y-71249750D01*
G75*
G02*
X153799250Y-71468500I-218750J0D01*
G01*
G37*
G36*
G01*
X153799250Y-73043500D02*
X153286750Y-73043500D01*
G75*
G02*
X153068000Y-72824750I0J218750D01*
G01*
X153068000Y-72387250D01*
G75*
G02*
X153286750Y-72168500I218750J0D01*
G01*
X153799250Y-72168500D01*
G75*
G02*
X154018000Y-72387250I0J-218750D01*
G01*
X154018000Y-72824750D01*
G75*
G02*
X153799250Y-73043500I-218750J0D01*
G01*
G37*
G36*
G01*
X153625000Y-91564750D02*
X153625000Y-92077250D01*
G75*
G02*
X153406250Y-92296000I-218750J0D01*
G01*
X152968750Y-92296000D01*
G75*
G02*
X152750000Y-92077250I0J218750D01*
G01*
X152750000Y-91564750D01*
G75*
G02*
X152968750Y-91346000I218750J0D01*
G01*
X153406250Y-91346000D01*
G75*
G02*
X153625000Y-91564750I0J-218750D01*
G01*
G37*
G36*
G01*
X152050000Y-91564750D02*
X152050000Y-92077250D01*
G75*
G02*
X151831250Y-92296000I-218750J0D01*
G01*
X151393750Y-92296000D01*
G75*
G02*
X151175000Y-92077250I0J218750D01*
G01*
X151175000Y-91564750D01*
G75*
G02*
X151393750Y-91346000I218750J0D01*
G01*
X151831250Y-91346000D01*
G75*
G02*
X152050000Y-91564750I0J-218750D01*
G01*
G37*
G36*
G01*
X83822250Y-108489000D02*
X83309750Y-108489000D01*
G75*
G02*
X83091000Y-108270250I0J218750D01*
G01*
X83091000Y-107832750D01*
G75*
G02*
X83309750Y-107614000I218750J0D01*
G01*
X83822250Y-107614000D01*
G75*
G02*
X84041000Y-107832750I0J-218750D01*
G01*
X84041000Y-108270250D01*
G75*
G02*
X83822250Y-108489000I-218750J0D01*
G01*
G37*
G36*
G01*
X83822250Y-110064000D02*
X83309750Y-110064000D01*
G75*
G02*
X83091000Y-109845250I0J218750D01*
G01*
X83091000Y-109407750D01*
G75*
G02*
X83309750Y-109189000I218750J0D01*
G01*
X83822250Y-109189000D01*
G75*
G02*
X84041000Y-109407750I0J-218750D01*
G01*
X84041000Y-109845250D01*
G75*
G02*
X83822250Y-110064000I-218750J0D01*
G01*
G37*
G36*
G01*
X97581000Y-110365250D02*
X97581000Y-109852750D01*
G75*
G02*
X97799750Y-109634000I218750J0D01*
G01*
X98237250Y-109634000D01*
G75*
G02*
X98456000Y-109852750I0J-218750D01*
G01*
X98456000Y-110365250D01*
G75*
G02*
X98237250Y-110584000I-218750J0D01*
G01*
X97799750Y-110584000D01*
G75*
G02*
X97581000Y-110365250I0J218750D01*
G01*
G37*
G36*
G01*
X99156000Y-110365250D02*
X99156000Y-109852750D01*
G75*
G02*
X99374750Y-109634000I218750J0D01*
G01*
X99812250Y-109634000D01*
G75*
G02*
X100031000Y-109852750I0J-218750D01*
G01*
X100031000Y-110365250D01*
G75*
G02*
X99812250Y-110584000I-218750J0D01*
G01*
X99374750Y-110584000D01*
G75*
G02*
X99156000Y-110365250I0J218750D01*
G01*
G37*
G36*
G01*
X88347000Y-127759750D02*
X88347000Y-128272250D01*
G75*
G02*
X88128250Y-128491000I-218750J0D01*
G01*
X87690750Y-128491000D01*
G75*
G02*
X87472000Y-128272250I0J218750D01*
G01*
X87472000Y-127759750D01*
G75*
G02*
X87690750Y-127541000I218750J0D01*
G01*
X88128250Y-127541000D01*
G75*
G02*
X88347000Y-127759750I0J-218750D01*
G01*
G37*
G36*
G01*
X86772000Y-127759750D02*
X86772000Y-128272250D01*
G75*
G02*
X86553250Y-128491000I-218750J0D01*
G01*
X86115750Y-128491000D01*
G75*
G02*
X85897000Y-128272250I0J218750D01*
G01*
X85897000Y-127759750D01*
G75*
G02*
X86115750Y-127541000I218750J0D01*
G01*
X86553250Y-127541000D01*
G75*
G02*
X86772000Y-127759750I0J-218750D01*
G01*
G37*
G36*
G01*
X90520000Y-128272250D02*
X90520000Y-127759750D01*
G75*
G02*
X90738750Y-127541000I218750J0D01*
G01*
X91176250Y-127541000D01*
G75*
G02*
X91395000Y-127759750I0J-218750D01*
G01*
X91395000Y-128272250D01*
G75*
G02*
X91176250Y-128491000I-218750J0D01*
G01*
X90738750Y-128491000D01*
G75*
G02*
X90520000Y-128272250I0J218750D01*
G01*
G37*
G36*
G01*
X88945000Y-128272250D02*
X88945000Y-127759750D01*
G75*
G02*
X89163750Y-127541000I218750J0D01*
G01*
X89601250Y-127541000D01*
G75*
G02*
X89820000Y-127759750I0J-218750D01*
G01*
X89820000Y-128272250D01*
G75*
G02*
X89601250Y-128491000I-218750J0D01*
G01*
X89163750Y-128491000D01*
G75*
G02*
X88945000Y-128272250I0J218750D01*
G01*
G37*
G36*
G01*
X102839000Y-119001250D02*
X102839000Y-118488750D01*
G75*
G02*
X103057750Y-118270000I218750J0D01*
G01*
X103495250Y-118270000D01*
G75*
G02*
X103714000Y-118488750I0J-218750D01*
G01*
X103714000Y-119001250D01*
G75*
G02*
X103495250Y-119220000I-218750J0D01*
G01*
X103057750Y-119220000D01*
G75*
G02*
X102839000Y-119001250I0J218750D01*
G01*
G37*
G36*
G01*
X101264000Y-119001250D02*
X101264000Y-118488750D01*
G75*
G02*
X101482750Y-118270000I218750J0D01*
G01*
X101920250Y-118270000D01*
G75*
G02*
X102139000Y-118488750I0J-218750D01*
G01*
X102139000Y-119001250D01*
G75*
G02*
X101920250Y-119220000I-218750J0D01*
G01*
X101482750Y-119220000D01*
G75*
G02*
X101264000Y-119001250I0J218750D01*
G01*
G37*
G36*
G01*
X99624500Y-81023750D02*
X99624500Y-81536250D01*
G75*
G02*
X99405750Y-81755000I-218750J0D01*
G01*
X98968250Y-81755000D01*
G75*
G02*
X98749500Y-81536250I0J218750D01*
G01*
X98749500Y-81023750D01*
G75*
G02*
X98968250Y-80805000I218750J0D01*
G01*
X99405750Y-80805000D01*
G75*
G02*
X99624500Y-81023750I0J-218750D01*
G01*
G37*
G36*
G01*
X101199500Y-81023750D02*
X101199500Y-81536250D01*
G75*
G02*
X100980750Y-81755000I-218750J0D01*
G01*
X100543250Y-81755000D01*
G75*
G02*
X100324500Y-81536250I0J218750D01*
G01*
X100324500Y-81023750D01*
G75*
G02*
X100543250Y-80805000I218750J0D01*
G01*
X100980750Y-80805000D01*
G75*
G02*
X101199500Y-81023750I0J-218750D01*
G01*
G37*
G36*
G01*
X101199500Y-79436250D02*
X101199500Y-79948750D01*
G75*
G02*
X100980750Y-80167500I-218750J0D01*
G01*
X100543250Y-80167500D01*
G75*
G02*
X100324500Y-79948750I0J218750D01*
G01*
X100324500Y-79436250D01*
G75*
G02*
X100543250Y-79217500I218750J0D01*
G01*
X100980750Y-79217500D01*
G75*
G02*
X101199500Y-79436250I0J-218750D01*
G01*
G37*
G36*
G01*
X99624500Y-79436250D02*
X99624500Y-79948750D01*
G75*
G02*
X99405750Y-80167500I-218750J0D01*
G01*
X98968250Y-80167500D01*
G75*
G02*
X98749500Y-79948750I0J218750D01*
G01*
X98749500Y-79436250D01*
G75*
G02*
X98968250Y-79217500I218750J0D01*
G01*
X99405750Y-79217500D01*
G75*
G02*
X99624500Y-79436250I0J-218750D01*
G01*
G37*
G36*
G01*
X103566250Y-82303000D02*
X104078750Y-82303000D01*
G75*
G02*
X104297500Y-82521750I0J-218750D01*
G01*
X104297500Y-82959250D01*
G75*
G02*
X104078750Y-83178000I-218750J0D01*
G01*
X103566250Y-83178000D01*
G75*
G02*
X103347500Y-82959250I0J218750D01*
G01*
X103347500Y-82521750D01*
G75*
G02*
X103566250Y-82303000I218750J0D01*
G01*
G37*
G36*
G01*
X103566250Y-83878000D02*
X104078750Y-83878000D01*
G75*
G02*
X104297500Y-84096750I0J-218750D01*
G01*
X104297500Y-84534250D01*
G75*
G02*
X104078750Y-84753000I-218750J0D01*
G01*
X103566250Y-84753000D01*
G75*
G02*
X103347500Y-84534250I0J218750D01*
G01*
X103347500Y-84096750D01*
G75*
G02*
X103566250Y-83878000I218750J0D01*
G01*
G37*
G36*
G01*
X92834750Y-96311000D02*
X93347250Y-96311000D01*
G75*
G02*
X93566000Y-96529750I0J-218750D01*
G01*
X93566000Y-96967250D01*
G75*
G02*
X93347250Y-97186000I-218750J0D01*
G01*
X92834750Y-97186000D01*
G75*
G02*
X92616000Y-96967250I0J218750D01*
G01*
X92616000Y-96529750D01*
G75*
G02*
X92834750Y-96311000I218750J0D01*
G01*
G37*
G36*
G01*
X92834750Y-97886000D02*
X93347250Y-97886000D01*
G75*
G02*
X93566000Y-98104750I0J-218750D01*
G01*
X93566000Y-98542250D01*
G75*
G02*
X93347250Y-98761000I-218750J0D01*
G01*
X92834750Y-98761000D01*
G75*
G02*
X92616000Y-98542250I0J218750D01*
G01*
X92616000Y-98104750D01*
G75*
G02*
X92834750Y-97886000I218750J0D01*
G01*
G37*
G36*
G01*
X90934250Y-89820000D02*
X90421750Y-89820000D01*
G75*
G02*
X90203000Y-89601250I0J218750D01*
G01*
X90203000Y-89163750D01*
G75*
G02*
X90421750Y-88945000I218750J0D01*
G01*
X90934250Y-88945000D01*
G75*
G02*
X91153000Y-89163750I0J-218750D01*
G01*
X91153000Y-89601250D01*
G75*
G02*
X90934250Y-89820000I-218750J0D01*
G01*
G37*
G36*
G01*
X90934250Y-91395000D02*
X90421750Y-91395000D01*
G75*
G02*
X90203000Y-91176250I0J218750D01*
G01*
X90203000Y-90738750D01*
G75*
G02*
X90421750Y-90520000I218750J0D01*
G01*
X90934250Y-90520000D01*
G75*
G02*
X91153000Y-90738750I0J-218750D01*
G01*
X91153000Y-91176250D01*
G75*
G02*
X90934250Y-91395000I-218750J0D01*
G01*
G37*
D31*
X112519500Y-125555500D03*
X110619500Y-125555500D03*
X111569500Y-127555500D03*
X115252500Y-127555500D03*
X114302500Y-125555500D03*
X116202500Y-125555500D03*
X122491500Y-127555500D03*
X121541500Y-125555500D03*
X123441500Y-125555500D03*
X118872000Y-127555500D03*
X117922000Y-125555500D03*
X119822000Y-125555500D03*
G36*
G01*
X165224750Y-107487000D02*
X165737250Y-107487000D01*
G75*
G02*
X165956000Y-107705750I0J-218750D01*
G01*
X165956000Y-108143250D01*
G75*
G02*
X165737250Y-108362000I-218750J0D01*
G01*
X165224750Y-108362000D01*
G75*
G02*
X165006000Y-108143250I0J218750D01*
G01*
X165006000Y-107705750D01*
G75*
G02*
X165224750Y-107487000I218750J0D01*
G01*
G37*
G36*
G01*
X165224750Y-109062000D02*
X165737250Y-109062000D01*
G75*
G02*
X165956000Y-109280750I0J-218750D01*
G01*
X165956000Y-109718250D01*
G75*
G02*
X165737250Y-109937000I-218750J0D01*
G01*
X165224750Y-109937000D01*
G75*
G02*
X165006000Y-109718250I0J218750D01*
G01*
X165006000Y-109280750D01*
G75*
G02*
X165224750Y-109062000I218750J0D01*
G01*
G37*
G36*
G01*
X157736250Y-97948000D02*
X157223750Y-97948000D01*
G75*
G02*
X157005000Y-97729250I0J218750D01*
G01*
X157005000Y-97291750D01*
G75*
G02*
X157223750Y-97073000I218750J0D01*
G01*
X157736250Y-97073000D01*
G75*
G02*
X157955000Y-97291750I0J-218750D01*
G01*
X157955000Y-97729250D01*
G75*
G02*
X157736250Y-97948000I-218750J0D01*
G01*
G37*
G36*
G01*
X157736250Y-99523000D02*
X157223750Y-99523000D01*
G75*
G02*
X157005000Y-99304250I0J218750D01*
G01*
X157005000Y-98866750D01*
G75*
G02*
X157223750Y-98648000I218750J0D01*
G01*
X157736250Y-98648000D01*
G75*
G02*
X157955000Y-98866750I0J-218750D01*
G01*
X157955000Y-99304250D01*
G75*
G02*
X157736250Y-99523000I-218750J0D01*
G01*
G37*
G36*
G01*
X146273000Y-96903250D02*
X146273000Y-96390750D01*
G75*
G02*
X146491750Y-96172000I218750J0D01*
G01*
X146929250Y-96172000D01*
G75*
G02*
X147148000Y-96390750I0J-218750D01*
G01*
X147148000Y-96903250D01*
G75*
G02*
X146929250Y-97122000I-218750J0D01*
G01*
X146491750Y-97122000D01*
G75*
G02*
X146273000Y-96903250I0J218750D01*
G01*
G37*
G36*
G01*
X144698000Y-96903250D02*
X144698000Y-96390750D01*
G75*
G02*
X144916750Y-96172000I218750J0D01*
G01*
X145354250Y-96172000D01*
G75*
G02*
X145573000Y-96390750I0J-218750D01*
G01*
X145573000Y-96903250D01*
G75*
G02*
X145354250Y-97122000I-218750J0D01*
G01*
X144916750Y-97122000D01*
G75*
G02*
X144698000Y-96903250I0J218750D01*
G01*
G37*
G36*
G01*
X145573000Y-98041750D02*
X145573000Y-98554250D01*
G75*
G02*
X145354250Y-98773000I-218750J0D01*
G01*
X144916750Y-98773000D01*
G75*
G02*
X144698000Y-98554250I0J218750D01*
G01*
X144698000Y-98041750D01*
G75*
G02*
X144916750Y-97823000I218750J0D01*
G01*
X145354250Y-97823000D01*
G75*
G02*
X145573000Y-98041750I0J-218750D01*
G01*
G37*
G36*
G01*
X147148000Y-98041750D02*
X147148000Y-98554250D01*
G75*
G02*
X146929250Y-98773000I-218750J0D01*
G01*
X146491750Y-98773000D01*
G75*
G02*
X146273000Y-98554250I0J218750D01*
G01*
X146273000Y-98041750D01*
G75*
G02*
X146491750Y-97823000I218750J0D01*
G01*
X146929250Y-97823000D01*
G75*
G02*
X147148000Y-98041750I0J-218750D01*
G01*
G37*
G36*
G01*
X103714000Y-116837750D02*
X103714000Y-117350250D01*
G75*
G02*
X103495250Y-117569000I-218750J0D01*
G01*
X103057750Y-117569000D01*
G75*
G02*
X102839000Y-117350250I0J218750D01*
G01*
X102839000Y-116837750D01*
G75*
G02*
X103057750Y-116619000I218750J0D01*
G01*
X103495250Y-116619000D01*
G75*
G02*
X103714000Y-116837750I0J-218750D01*
G01*
G37*
G36*
G01*
X102139000Y-116837750D02*
X102139000Y-117350250D01*
G75*
G02*
X101920250Y-117569000I-218750J0D01*
G01*
X101482750Y-117569000D01*
G75*
G02*
X101264000Y-117350250I0J218750D01*
G01*
X101264000Y-116837750D01*
G75*
G02*
X101482750Y-116619000I218750J0D01*
G01*
X101920250Y-116619000D01*
G75*
G02*
X102139000Y-116837750I0J-218750D01*
G01*
G37*
G36*
G01*
X102839000Y-125605250D02*
X102839000Y-125092750D01*
G75*
G02*
X103057750Y-124874000I218750J0D01*
G01*
X103495250Y-124874000D01*
G75*
G02*
X103714000Y-125092750I0J-218750D01*
G01*
X103714000Y-125605250D01*
G75*
G02*
X103495250Y-125824000I-218750J0D01*
G01*
X103057750Y-125824000D01*
G75*
G02*
X102839000Y-125605250I0J218750D01*
G01*
G37*
G36*
G01*
X101264000Y-125605250D02*
X101264000Y-125092750D01*
G75*
G02*
X101482750Y-124874000I218750J0D01*
G01*
X101920250Y-124874000D01*
G75*
G02*
X102139000Y-125092750I0J-218750D01*
G01*
X102139000Y-125605250D01*
G75*
G02*
X101920250Y-125824000I-218750J0D01*
G01*
X101482750Y-125824000D01*
G75*
G02*
X101264000Y-125605250I0J218750D01*
G01*
G37*
G36*
G01*
X101264000Y-120525250D02*
X101264000Y-120012750D01*
G75*
G02*
X101482750Y-119794000I218750J0D01*
G01*
X101920250Y-119794000D01*
G75*
G02*
X102139000Y-120012750I0J-218750D01*
G01*
X102139000Y-120525250D01*
G75*
G02*
X101920250Y-120744000I-218750J0D01*
G01*
X101482750Y-120744000D01*
G75*
G02*
X101264000Y-120525250I0J218750D01*
G01*
G37*
G36*
G01*
X102839000Y-120525250D02*
X102839000Y-120012750D01*
G75*
G02*
X103057750Y-119794000I218750J0D01*
G01*
X103495250Y-119794000D01*
G75*
G02*
X103714000Y-120012750I0J-218750D01*
G01*
X103714000Y-120525250D01*
G75*
G02*
X103495250Y-120744000I-218750J0D01*
G01*
X103057750Y-120744000D01*
G75*
G02*
X102839000Y-120525250I0J218750D01*
G01*
G37*
G36*
G01*
X111219500Y-128839250D02*
X111219500Y-129351750D01*
G75*
G02*
X111000750Y-129570500I-218750J0D01*
G01*
X110563250Y-129570500D01*
G75*
G02*
X110344500Y-129351750I0J218750D01*
G01*
X110344500Y-128839250D01*
G75*
G02*
X110563250Y-128620500I218750J0D01*
G01*
X111000750Y-128620500D01*
G75*
G02*
X111219500Y-128839250I0J-218750D01*
G01*
G37*
G36*
G01*
X112794500Y-128839250D02*
X112794500Y-129351750D01*
G75*
G02*
X112575750Y-129570500I-218750J0D01*
G01*
X112138250Y-129570500D01*
G75*
G02*
X111919500Y-129351750I0J218750D01*
G01*
X111919500Y-128839250D01*
G75*
G02*
X112138250Y-128620500I218750J0D01*
G01*
X112575750Y-128620500D01*
G75*
G02*
X112794500Y-128839250I0J-218750D01*
G01*
G37*
G36*
G01*
X114027500Y-129351750D02*
X114027500Y-128839250D01*
G75*
G02*
X114246250Y-128620500I218750J0D01*
G01*
X114683750Y-128620500D01*
G75*
G02*
X114902500Y-128839250I0J-218750D01*
G01*
X114902500Y-129351750D01*
G75*
G02*
X114683750Y-129570500I-218750J0D01*
G01*
X114246250Y-129570500D01*
G75*
G02*
X114027500Y-129351750I0J218750D01*
G01*
G37*
G36*
G01*
X115602500Y-129351750D02*
X115602500Y-128839250D01*
G75*
G02*
X115821250Y-128620500I218750J0D01*
G01*
X116258750Y-128620500D01*
G75*
G02*
X116477500Y-128839250I0J-218750D01*
G01*
X116477500Y-129351750D01*
G75*
G02*
X116258750Y-129570500I-218750J0D01*
G01*
X115821250Y-129570500D01*
G75*
G02*
X115602500Y-129351750I0J218750D01*
G01*
G37*
G36*
G01*
X112921500Y-123759250D02*
X112921500Y-124271750D01*
G75*
G02*
X112702750Y-124490500I-218750J0D01*
G01*
X112265250Y-124490500D01*
G75*
G02*
X112046500Y-124271750I0J218750D01*
G01*
X112046500Y-123759250D01*
G75*
G02*
X112265250Y-123540500I218750J0D01*
G01*
X112702750Y-123540500D01*
G75*
G02*
X112921500Y-123759250I0J-218750D01*
G01*
G37*
G36*
G01*
X111346500Y-123759250D02*
X111346500Y-124271750D01*
G75*
G02*
X111127750Y-124490500I-218750J0D01*
G01*
X110690250Y-124490500D01*
G75*
G02*
X110471500Y-124271750I0J218750D01*
G01*
X110471500Y-123759250D01*
G75*
G02*
X110690250Y-123540500I218750J0D01*
G01*
X111127750Y-123540500D01*
G75*
G02*
X111346500Y-123759250I0J-218750D01*
G01*
G37*
G36*
G01*
X116477500Y-123759250D02*
X116477500Y-124271750D01*
G75*
G02*
X116258750Y-124490500I-218750J0D01*
G01*
X115821250Y-124490500D01*
G75*
G02*
X115602500Y-124271750I0J218750D01*
G01*
X115602500Y-123759250D01*
G75*
G02*
X115821250Y-123540500I218750J0D01*
G01*
X116258750Y-123540500D01*
G75*
G02*
X116477500Y-123759250I0J-218750D01*
G01*
G37*
G36*
G01*
X114902500Y-123759250D02*
X114902500Y-124271750D01*
G75*
G02*
X114683750Y-124490500I-218750J0D01*
G01*
X114246250Y-124490500D01*
G75*
G02*
X114027500Y-124271750I0J218750D01*
G01*
X114027500Y-123759250D01*
G75*
G02*
X114246250Y-123540500I218750J0D01*
G01*
X114683750Y-123540500D01*
G75*
G02*
X114902500Y-123759250I0J-218750D01*
G01*
G37*
G36*
G01*
X122778000Y-129351750D02*
X122778000Y-128839250D01*
G75*
G02*
X122996750Y-128620500I218750J0D01*
G01*
X123434250Y-128620500D01*
G75*
G02*
X123653000Y-128839250I0J-218750D01*
G01*
X123653000Y-129351750D01*
G75*
G02*
X123434250Y-129570500I-218750J0D01*
G01*
X122996750Y-129570500D01*
G75*
G02*
X122778000Y-129351750I0J218750D01*
G01*
G37*
G36*
G01*
X121203000Y-129351750D02*
X121203000Y-128839250D01*
G75*
G02*
X121421750Y-128620500I218750J0D01*
G01*
X121859250Y-128620500D01*
G75*
G02*
X122078000Y-128839250I0J-218750D01*
G01*
X122078000Y-129351750D01*
G75*
G02*
X121859250Y-129570500I-218750J0D01*
G01*
X121421750Y-129570500D01*
G75*
G02*
X121203000Y-129351750I0J218750D01*
G01*
G37*
G36*
G01*
X120097000Y-128839250D02*
X120097000Y-129351750D01*
G75*
G02*
X119878250Y-129570500I-218750J0D01*
G01*
X119440750Y-129570500D01*
G75*
G02*
X119222000Y-129351750I0J218750D01*
G01*
X119222000Y-128839250D01*
G75*
G02*
X119440750Y-128620500I218750J0D01*
G01*
X119878250Y-128620500D01*
G75*
G02*
X120097000Y-128839250I0J-218750D01*
G01*
G37*
G36*
G01*
X118522000Y-128839250D02*
X118522000Y-129351750D01*
G75*
G02*
X118303250Y-129570500I-218750J0D01*
G01*
X117865750Y-129570500D01*
G75*
G02*
X117647000Y-129351750I0J218750D01*
G01*
X117647000Y-128839250D01*
G75*
G02*
X117865750Y-128620500I218750J0D01*
G01*
X118303250Y-128620500D01*
G75*
G02*
X118522000Y-128839250I0J-218750D01*
G01*
G37*
G36*
G01*
X102042250Y-83852500D02*
X102554750Y-83852500D01*
G75*
G02*
X102773500Y-84071250I0J-218750D01*
G01*
X102773500Y-84508750D01*
G75*
G02*
X102554750Y-84727500I-218750J0D01*
G01*
X102042250Y-84727500D01*
G75*
G02*
X101823500Y-84508750I0J218750D01*
G01*
X101823500Y-84071250D01*
G75*
G02*
X102042250Y-83852500I218750J0D01*
G01*
G37*
G36*
G01*
X102042250Y-82277500D02*
X102554750Y-82277500D01*
G75*
G02*
X102773500Y-82496250I0J-218750D01*
G01*
X102773500Y-82933750D01*
G75*
G02*
X102554750Y-83152500I-218750J0D01*
G01*
X102042250Y-83152500D01*
G75*
G02*
X101823500Y-82933750I0J218750D01*
G01*
X101823500Y-82496250D01*
G75*
G02*
X102042250Y-82277500I218750J0D01*
G01*
G37*
G36*
G01*
X122141500Y-123759250D02*
X122141500Y-124271750D01*
G75*
G02*
X121922750Y-124490500I-218750J0D01*
G01*
X121485250Y-124490500D01*
G75*
G02*
X121266500Y-124271750I0J218750D01*
G01*
X121266500Y-123759250D01*
G75*
G02*
X121485250Y-123540500I218750J0D01*
G01*
X121922750Y-123540500D01*
G75*
G02*
X122141500Y-123759250I0J-218750D01*
G01*
G37*
G36*
G01*
X123716500Y-123759250D02*
X123716500Y-124271750D01*
G75*
G02*
X123497750Y-124490500I-218750J0D01*
G01*
X123060250Y-124490500D01*
G75*
G02*
X122841500Y-124271750I0J218750D01*
G01*
X122841500Y-123759250D01*
G75*
G02*
X123060250Y-123540500I218750J0D01*
G01*
X123497750Y-123540500D01*
G75*
G02*
X123716500Y-123759250I0J-218750D01*
G01*
G37*
G36*
G01*
X118522000Y-123759250D02*
X118522000Y-124271750D01*
G75*
G02*
X118303250Y-124490500I-218750J0D01*
G01*
X117865750Y-124490500D01*
G75*
G02*
X117647000Y-124271750I0J218750D01*
G01*
X117647000Y-123759250D01*
G75*
G02*
X117865750Y-123540500I218750J0D01*
G01*
X118303250Y-123540500D01*
G75*
G02*
X118522000Y-123759250I0J-218750D01*
G01*
G37*
G36*
G01*
X120097000Y-123759250D02*
X120097000Y-124271750D01*
G75*
G02*
X119878250Y-124490500I-218750J0D01*
G01*
X119440750Y-124490500D01*
G75*
G02*
X119222000Y-124271750I0J218750D01*
G01*
X119222000Y-123759250D01*
G75*
G02*
X119440750Y-123540500I218750J0D01*
G01*
X119878250Y-123540500D01*
G75*
G02*
X120097000Y-123759250I0J-218750D01*
G01*
G37*
G36*
G01*
X112477000Y-56766750D02*
X112477000Y-57279250D01*
G75*
G02*
X112258250Y-57498000I-218750J0D01*
G01*
X111820750Y-57498000D01*
G75*
G02*
X111602000Y-57279250I0J218750D01*
G01*
X111602000Y-56766750D01*
G75*
G02*
X111820750Y-56548000I218750J0D01*
G01*
X112258250Y-56548000D01*
G75*
G02*
X112477000Y-56766750I0J-218750D01*
G01*
G37*
G36*
G01*
X110902000Y-56766750D02*
X110902000Y-57279250D01*
G75*
G02*
X110683250Y-57498000I-218750J0D01*
G01*
X110245750Y-57498000D01*
G75*
G02*
X110027000Y-57279250I0J218750D01*
G01*
X110027000Y-56766750D01*
G75*
G02*
X110245750Y-56548000I218750J0D01*
G01*
X110683250Y-56548000D01*
G75*
G02*
X110902000Y-56766750I0J-218750D01*
G01*
G37*
G36*
G01*
X105153750Y-55569500D02*
X105666250Y-55569500D01*
G75*
G02*
X105885000Y-55788250I0J-218750D01*
G01*
X105885000Y-56225750D01*
G75*
G02*
X105666250Y-56444500I-218750J0D01*
G01*
X105153750Y-56444500D01*
G75*
G02*
X104935000Y-56225750I0J218750D01*
G01*
X104935000Y-55788250D01*
G75*
G02*
X105153750Y-55569500I218750J0D01*
G01*
G37*
G36*
G01*
X105153750Y-57144500D02*
X105666250Y-57144500D01*
G75*
G02*
X105885000Y-57363250I0J-218750D01*
G01*
X105885000Y-57800750D01*
G75*
G02*
X105666250Y-58019500I-218750J0D01*
G01*
X105153750Y-58019500D01*
G75*
G02*
X104935000Y-57800750I0J218750D01*
G01*
X104935000Y-57363250D01*
G75*
G02*
X105153750Y-57144500I218750J0D01*
G01*
G37*
G36*
G01*
X148950000Y-94638000D02*
X148950000Y-94338000D01*
G75*
G02*
X149100000Y-94188000I150000J0D01*
G01*
X150750000Y-94188000D01*
G75*
G02*
X150900000Y-94338000I0J-150000D01*
G01*
X150900000Y-94638000D01*
G75*
G02*
X150750000Y-94788000I-150000J0D01*
G01*
X149100000Y-94788000D01*
G75*
G02*
X148950000Y-94638000I0J150000D01*
G01*
G37*
G36*
G01*
X148950000Y-95908000D02*
X148950000Y-95608000D01*
G75*
G02*
X149100000Y-95458000I150000J0D01*
G01*
X150750000Y-95458000D01*
G75*
G02*
X150900000Y-95608000I0J-150000D01*
G01*
X150900000Y-95908000D01*
G75*
G02*
X150750000Y-96058000I-150000J0D01*
G01*
X149100000Y-96058000D01*
G75*
G02*
X148950000Y-95908000I0J150000D01*
G01*
G37*
G36*
G01*
X148950000Y-97178000D02*
X148950000Y-96878000D01*
G75*
G02*
X149100000Y-96728000I150000J0D01*
G01*
X150750000Y-96728000D01*
G75*
G02*
X150900000Y-96878000I0J-150000D01*
G01*
X150900000Y-97178000D01*
G75*
G02*
X150750000Y-97328000I-150000J0D01*
G01*
X149100000Y-97328000D01*
G75*
G02*
X148950000Y-97178000I0J150000D01*
G01*
G37*
G36*
G01*
X148950000Y-98448000D02*
X148950000Y-98148000D01*
G75*
G02*
X149100000Y-97998000I150000J0D01*
G01*
X150750000Y-97998000D01*
G75*
G02*
X150900000Y-98148000I0J-150000D01*
G01*
X150900000Y-98448000D01*
G75*
G02*
X150750000Y-98598000I-150000J0D01*
G01*
X149100000Y-98598000D01*
G75*
G02*
X148950000Y-98448000I0J150000D01*
G01*
G37*
G36*
G01*
X153900000Y-98448000D02*
X153900000Y-98148000D01*
G75*
G02*
X154050000Y-97998000I150000J0D01*
G01*
X155700000Y-97998000D01*
G75*
G02*
X155850000Y-98148000I0J-150000D01*
G01*
X155850000Y-98448000D01*
G75*
G02*
X155700000Y-98598000I-150000J0D01*
G01*
X154050000Y-98598000D01*
G75*
G02*
X153900000Y-98448000I0J150000D01*
G01*
G37*
G36*
G01*
X153900000Y-97178000D02*
X153900000Y-96878000D01*
G75*
G02*
X154050000Y-96728000I150000J0D01*
G01*
X155700000Y-96728000D01*
G75*
G02*
X155850000Y-96878000I0J-150000D01*
G01*
X155850000Y-97178000D01*
G75*
G02*
X155700000Y-97328000I-150000J0D01*
G01*
X154050000Y-97328000D01*
G75*
G02*
X153900000Y-97178000I0J150000D01*
G01*
G37*
G36*
G01*
X153900000Y-95908000D02*
X153900000Y-95608000D01*
G75*
G02*
X154050000Y-95458000I150000J0D01*
G01*
X155700000Y-95458000D01*
G75*
G02*
X155850000Y-95608000I0J-150000D01*
G01*
X155850000Y-95908000D01*
G75*
G02*
X155700000Y-96058000I-150000J0D01*
G01*
X154050000Y-96058000D01*
G75*
G02*
X153900000Y-95908000I0J150000D01*
G01*
G37*
G36*
G01*
X153900000Y-94638000D02*
X153900000Y-94338000D01*
G75*
G02*
X154050000Y-94188000I150000J0D01*
G01*
X155700000Y-94188000D01*
G75*
G02*
X155850000Y-94338000I0J-150000D01*
G01*
X155850000Y-94638000D01*
G75*
G02*
X155700000Y-94788000I-150000J0D01*
G01*
X154050000Y-94788000D01*
G75*
G02*
X153900000Y-94638000I0J150000D01*
G01*
G37*
G36*
G01*
X83716000Y-113215000D02*
X83416000Y-113215000D01*
G75*
G02*
X83266000Y-113065000I0J150000D01*
G01*
X83266000Y-111315000D01*
G75*
G02*
X83416000Y-111165000I150000J0D01*
G01*
X83716000Y-111165000D01*
G75*
G02*
X83866000Y-111315000I0J-150000D01*
G01*
X83866000Y-113065000D01*
G75*
G02*
X83716000Y-113215000I-150000J0D01*
G01*
G37*
G36*
G01*
X84986000Y-113215000D02*
X84686000Y-113215000D01*
G75*
G02*
X84536000Y-113065000I0J150000D01*
G01*
X84536000Y-111315000D01*
G75*
G02*
X84686000Y-111165000I150000J0D01*
G01*
X84986000Y-111165000D01*
G75*
G02*
X85136000Y-111315000I0J-150000D01*
G01*
X85136000Y-113065000D01*
G75*
G02*
X84986000Y-113215000I-150000J0D01*
G01*
G37*
G36*
G01*
X86256000Y-113215000D02*
X85956000Y-113215000D01*
G75*
G02*
X85806000Y-113065000I0J150000D01*
G01*
X85806000Y-111315000D01*
G75*
G02*
X85956000Y-111165000I150000J0D01*
G01*
X86256000Y-111165000D01*
G75*
G02*
X86406000Y-111315000I0J-150000D01*
G01*
X86406000Y-113065000D01*
G75*
G02*
X86256000Y-113215000I-150000J0D01*
G01*
G37*
G36*
G01*
X87526000Y-113215000D02*
X87226000Y-113215000D01*
G75*
G02*
X87076000Y-113065000I0J150000D01*
G01*
X87076000Y-111315000D01*
G75*
G02*
X87226000Y-111165000I150000J0D01*
G01*
X87526000Y-111165000D01*
G75*
G02*
X87676000Y-111315000I0J-150000D01*
G01*
X87676000Y-113065000D01*
G75*
G02*
X87526000Y-113215000I-150000J0D01*
G01*
G37*
G36*
G01*
X88796000Y-113215000D02*
X88496000Y-113215000D01*
G75*
G02*
X88346000Y-113065000I0J150000D01*
G01*
X88346000Y-111315000D01*
G75*
G02*
X88496000Y-111165000I150000J0D01*
G01*
X88796000Y-111165000D01*
G75*
G02*
X88946000Y-111315000I0J-150000D01*
G01*
X88946000Y-113065000D01*
G75*
G02*
X88796000Y-113215000I-150000J0D01*
G01*
G37*
G36*
G01*
X90066000Y-113215000D02*
X89766000Y-113215000D01*
G75*
G02*
X89616000Y-113065000I0J150000D01*
G01*
X89616000Y-111315000D01*
G75*
G02*
X89766000Y-111165000I150000J0D01*
G01*
X90066000Y-111165000D01*
G75*
G02*
X90216000Y-111315000I0J-150000D01*
G01*
X90216000Y-113065000D01*
G75*
G02*
X90066000Y-113215000I-150000J0D01*
G01*
G37*
G36*
G01*
X91336000Y-113215000D02*
X91036000Y-113215000D01*
G75*
G02*
X90886000Y-113065000I0J150000D01*
G01*
X90886000Y-111315000D01*
G75*
G02*
X91036000Y-111165000I150000J0D01*
G01*
X91336000Y-111165000D01*
G75*
G02*
X91486000Y-111315000I0J-150000D01*
G01*
X91486000Y-113065000D01*
G75*
G02*
X91336000Y-113215000I-150000J0D01*
G01*
G37*
G36*
G01*
X92606000Y-113215000D02*
X92306000Y-113215000D01*
G75*
G02*
X92156000Y-113065000I0J150000D01*
G01*
X92156000Y-111315000D01*
G75*
G02*
X92306000Y-111165000I150000J0D01*
G01*
X92606000Y-111165000D01*
G75*
G02*
X92756000Y-111315000I0J-150000D01*
G01*
X92756000Y-113065000D01*
G75*
G02*
X92606000Y-113215000I-150000J0D01*
G01*
G37*
G36*
G01*
X93876000Y-113215000D02*
X93576000Y-113215000D01*
G75*
G02*
X93426000Y-113065000I0J150000D01*
G01*
X93426000Y-111315000D01*
G75*
G02*
X93576000Y-111165000I150000J0D01*
G01*
X93876000Y-111165000D01*
G75*
G02*
X94026000Y-111315000I0J-150000D01*
G01*
X94026000Y-113065000D01*
G75*
G02*
X93876000Y-113215000I-150000J0D01*
G01*
G37*
G36*
G01*
X93876000Y-122515000D02*
X93576000Y-122515000D01*
G75*
G02*
X93426000Y-122365000I0J150000D01*
G01*
X93426000Y-120615000D01*
G75*
G02*
X93576000Y-120465000I150000J0D01*
G01*
X93876000Y-120465000D01*
G75*
G02*
X94026000Y-120615000I0J-150000D01*
G01*
X94026000Y-122365000D01*
G75*
G02*
X93876000Y-122515000I-150000J0D01*
G01*
G37*
G36*
G01*
X92606000Y-122515000D02*
X92306000Y-122515000D01*
G75*
G02*
X92156000Y-122365000I0J150000D01*
G01*
X92156000Y-120615000D01*
G75*
G02*
X92306000Y-120465000I150000J0D01*
G01*
X92606000Y-120465000D01*
G75*
G02*
X92756000Y-120615000I0J-150000D01*
G01*
X92756000Y-122365000D01*
G75*
G02*
X92606000Y-122515000I-150000J0D01*
G01*
G37*
G36*
G01*
X91336000Y-122515000D02*
X91036000Y-122515000D01*
G75*
G02*
X90886000Y-122365000I0J150000D01*
G01*
X90886000Y-120615000D01*
G75*
G02*
X91036000Y-120465000I150000J0D01*
G01*
X91336000Y-120465000D01*
G75*
G02*
X91486000Y-120615000I0J-150000D01*
G01*
X91486000Y-122365000D01*
G75*
G02*
X91336000Y-122515000I-150000J0D01*
G01*
G37*
G36*
G01*
X90066000Y-122515000D02*
X89766000Y-122515000D01*
G75*
G02*
X89616000Y-122365000I0J150000D01*
G01*
X89616000Y-120615000D01*
G75*
G02*
X89766000Y-120465000I150000J0D01*
G01*
X90066000Y-120465000D01*
G75*
G02*
X90216000Y-120615000I0J-150000D01*
G01*
X90216000Y-122365000D01*
G75*
G02*
X90066000Y-122515000I-150000J0D01*
G01*
G37*
G36*
G01*
X88796000Y-122515000D02*
X88496000Y-122515000D01*
G75*
G02*
X88346000Y-122365000I0J150000D01*
G01*
X88346000Y-120615000D01*
G75*
G02*
X88496000Y-120465000I150000J0D01*
G01*
X88796000Y-120465000D01*
G75*
G02*
X88946000Y-120615000I0J-150000D01*
G01*
X88946000Y-122365000D01*
G75*
G02*
X88796000Y-122515000I-150000J0D01*
G01*
G37*
G36*
G01*
X87526000Y-122515000D02*
X87226000Y-122515000D01*
G75*
G02*
X87076000Y-122365000I0J150000D01*
G01*
X87076000Y-120615000D01*
G75*
G02*
X87226000Y-120465000I150000J0D01*
G01*
X87526000Y-120465000D01*
G75*
G02*
X87676000Y-120615000I0J-150000D01*
G01*
X87676000Y-122365000D01*
G75*
G02*
X87526000Y-122515000I-150000J0D01*
G01*
G37*
G36*
G01*
X86256000Y-122515000D02*
X85956000Y-122515000D01*
G75*
G02*
X85806000Y-122365000I0J150000D01*
G01*
X85806000Y-120615000D01*
G75*
G02*
X85956000Y-120465000I150000J0D01*
G01*
X86256000Y-120465000D01*
G75*
G02*
X86406000Y-120615000I0J-150000D01*
G01*
X86406000Y-122365000D01*
G75*
G02*
X86256000Y-122515000I-150000J0D01*
G01*
G37*
G36*
G01*
X84986000Y-122515000D02*
X84686000Y-122515000D01*
G75*
G02*
X84536000Y-122365000I0J150000D01*
G01*
X84536000Y-120615000D01*
G75*
G02*
X84686000Y-120465000I150000J0D01*
G01*
X84986000Y-120465000D01*
G75*
G02*
X85136000Y-120615000I0J-150000D01*
G01*
X85136000Y-122365000D01*
G75*
G02*
X84986000Y-122515000I-150000J0D01*
G01*
G37*
G36*
G01*
X83716000Y-122515000D02*
X83416000Y-122515000D01*
G75*
G02*
X83266000Y-122365000I0J150000D01*
G01*
X83266000Y-120615000D01*
G75*
G02*
X83416000Y-120465000I150000J0D01*
G01*
X83716000Y-120465000D01*
G75*
G02*
X83866000Y-120615000I0J-150000D01*
G01*
X83866000Y-122365000D01*
G75*
G02*
X83716000Y-122515000I-150000J0D01*
G01*
G37*
G36*
G01*
X99291000Y-116181000D02*
X99591000Y-116181000D01*
G75*
G02*
X99741000Y-116331000I0J-150000D01*
G01*
X99741000Y-117981000D01*
G75*
G02*
X99591000Y-118131000I-150000J0D01*
G01*
X99291000Y-118131000D01*
G75*
G02*
X99141000Y-117981000I0J150000D01*
G01*
X99141000Y-116331000D01*
G75*
G02*
X99291000Y-116181000I150000J0D01*
G01*
G37*
G36*
G01*
X98021000Y-116181000D02*
X98321000Y-116181000D01*
G75*
G02*
X98471000Y-116331000I0J-150000D01*
G01*
X98471000Y-117981000D01*
G75*
G02*
X98321000Y-118131000I-150000J0D01*
G01*
X98021000Y-118131000D01*
G75*
G02*
X97871000Y-117981000I0J150000D01*
G01*
X97871000Y-116331000D01*
G75*
G02*
X98021000Y-116181000I150000J0D01*
G01*
G37*
G36*
G01*
X96751000Y-116181000D02*
X97051000Y-116181000D01*
G75*
G02*
X97201000Y-116331000I0J-150000D01*
G01*
X97201000Y-117981000D01*
G75*
G02*
X97051000Y-118131000I-150000J0D01*
G01*
X96751000Y-118131000D01*
G75*
G02*
X96601000Y-117981000I0J150000D01*
G01*
X96601000Y-116331000D01*
G75*
G02*
X96751000Y-116181000I150000J0D01*
G01*
G37*
G36*
G01*
X95481000Y-116181000D02*
X95781000Y-116181000D01*
G75*
G02*
X95931000Y-116331000I0J-150000D01*
G01*
X95931000Y-117981000D01*
G75*
G02*
X95781000Y-118131000I-150000J0D01*
G01*
X95481000Y-118131000D01*
G75*
G02*
X95331000Y-117981000I0J150000D01*
G01*
X95331000Y-116331000D01*
G75*
G02*
X95481000Y-116181000I150000J0D01*
G01*
G37*
G36*
G01*
X95481000Y-111231000D02*
X95781000Y-111231000D01*
G75*
G02*
X95931000Y-111381000I0J-150000D01*
G01*
X95931000Y-113031000D01*
G75*
G02*
X95781000Y-113181000I-150000J0D01*
G01*
X95481000Y-113181000D01*
G75*
G02*
X95331000Y-113031000I0J150000D01*
G01*
X95331000Y-111381000D01*
G75*
G02*
X95481000Y-111231000I150000J0D01*
G01*
G37*
G36*
G01*
X96751000Y-111231000D02*
X97051000Y-111231000D01*
G75*
G02*
X97201000Y-111381000I0J-150000D01*
G01*
X97201000Y-113031000D01*
G75*
G02*
X97051000Y-113181000I-150000J0D01*
G01*
X96751000Y-113181000D01*
G75*
G02*
X96601000Y-113031000I0J150000D01*
G01*
X96601000Y-111381000D01*
G75*
G02*
X96751000Y-111231000I150000J0D01*
G01*
G37*
G36*
G01*
X98021000Y-111231000D02*
X98321000Y-111231000D01*
G75*
G02*
X98471000Y-111381000I0J-150000D01*
G01*
X98471000Y-113031000D01*
G75*
G02*
X98321000Y-113181000I-150000J0D01*
G01*
X98021000Y-113181000D01*
G75*
G02*
X97871000Y-113031000I0J150000D01*
G01*
X97871000Y-111381000D01*
G75*
G02*
X98021000Y-111231000I150000J0D01*
G01*
G37*
G36*
G01*
X99291000Y-111231000D02*
X99591000Y-111231000D01*
G75*
G02*
X99741000Y-111381000I0J-150000D01*
G01*
X99741000Y-113031000D01*
G75*
G02*
X99591000Y-113181000I-150000J0D01*
G01*
X99291000Y-113181000D01*
G75*
G02*
X99141000Y-113031000I0J150000D01*
G01*
X99141000Y-111381000D01*
G75*
G02*
X99291000Y-111231000I150000J0D01*
G01*
G37*
D32*
X161036000Y-90803000D03*
X161036000Y-84203000D03*
G36*
G01*
X165471000Y-99434000D02*
X164221000Y-99434000D01*
G75*
G02*
X163971000Y-99184000I0J250000D01*
G01*
X163971000Y-98434000D01*
G75*
G02*
X164221000Y-98184000I250000J0D01*
G01*
X165471000Y-98184000D01*
G75*
G02*
X165721000Y-98434000I0J-250000D01*
G01*
X165721000Y-99184000D01*
G75*
G02*
X165471000Y-99434000I-250000J0D01*
G01*
G37*
G36*
G01*
X165471000Y-96634000D02*
X164221000Y-96634000D01*
G75*
G02*
X163971000Y-96384000I0J250000D01*
G01*
X163971000Y-95634000D01*
G75*
G02*
X164221000Y-95384000I250000J0D01*
G01*
X165471000Y-95384000D01*
G75*
G02*
X165721000Y-95634000I0J-250000D01*
G01*
X165721000Y-96384000D01*
G75*
G02*
X165471000Y-96634000I-250000J0D01*
G01*
G37*
G36*
G01*
X163058000Y-96634000D02*
X161808000Y-96634000D01*
G75*
G02*
X161558000Y-96384000I0J250000D01*
G01*
X161558000Y-95634000D01*
G75*
G02*
X161808000Y-95384000I250000J0D01*
G01*
X163058000Y-95384000D01*
G75*
G02*
X163308000Y-95634000I0J-250000D01*
G01*
X163308000Y-96384000D01*
G75*
G02*
X163058000Y-96634000I-250000J0D01*
G01*
G37*
G36*
G01*
X163058000Y-99434000D02*
X161808000Y-99434000D01*
G75*
G02*
X161558000Y-99184000I0J250000D01*
G01*
X161558000Y-98434000D01*
G75*
G02*
X161808000Y-98184000I250000J0D01*
G01*
X163058000Y-98184000D01*
G75*
G02*
X163308000Y-98434000I0J-250000D01*
G01*
X163308000Y-99184000D01*
G75*
G02*
X163058000Y-99434000I-250000J0D01*
G01*
G37*
G36*
G01*
X146981000Y-93858000D02*
X145881000Y-93858000D01*
G75*
G02*
X145631000Y-93608000I0J250000D01*
G01*
X145631000Y-90608000D01*
G75*
G02*
X145881000Y-90358000I250000J0D01*
G01*
X146981000Y-90358000D01*
G75*
G02*
X147231000Y-90608000I0J-250000D01*
G01*
X147231000Y-93608000D01*
G75*
G02*
X146981000Y-93858000I-250000J0D01*
G01*
G37*
G36*
G01*
X146981000Y-88458000D02*
X145881000Y-88458000D01*
G75*
G02*
X145631000Y-88208000I0J250000D01*
G01*
X145631000Y-85208000D01*
G75*
G02*
X145881000Y-84958000I250000J0D01*
G01*
X146981000Y-84958000D01*
G75*
G02*
X147231000Y-85208000I0J-250000D01*
G01*
X147231000Y-88208000D01*
G75*
G02*
X146981000Y-88458000I-250000J0D01*
G01*
G37*
G36*
G01*
X107317250Y-92665000D02*
X106804750Y-92665000D01*
G75*
G02*
X106586000Y-92446250I0J218750D01*
G01*
X106586000Y-92008750D01*
G75*
G02*
X106804750Y-91790000I218750J0D01*
G01*
X107317250Y-91790000D01*
G75*
G02*
X107536000Y-92008750I0J-218750D01*
G01*
X107536000Y-92446250D01*
G75*
G02*
X107317250Y-92665000I-218750J0D01*
G01*
G37*
G36*
G01*
X107317250Y-91090000D02*
X106804750Y-91090000D01*
G75*
G02*
X106586000Y-90871250I0J218750D01*
G01*
X106586000Y-90433750D01*
G75*
G02*
X106804750Y-90215000I218750J0D01*
G01*
X107317250Y-90215000D01*
G75*
G02*
X107536000Y-90433750I0J-218750D01*
G01*
X107536000Y-90871250D01*
G75*
G02*
X107317250Y-91090000I-218750J0D01*
G01*
G37*
G36*
G01*
X106804750Y-95727000D02*
X107317250Y-95727000D01*
G75*
G02*
X107536000Y-95945750I0J-218750D01*
G01*
X107536000Y-96383250D01*
G75*
G02*
X107317250Y-96602000I-218750J0D01*
G01*
X106804750Y-96602000D01*
G75*
G02*
X106586000Y-96383250I0J218750D01*
G01*
X106586000Y-95945750D01*
G75*
G02*
X106804750Y-95727000I218750J0D01*
G01*
G37*
G36*
G01*
X106804750Y-94152000D02*
X107317250Y-94152000D01*
G75*
G02*
X107536000Y-94370750I0J-218750D01*
G01*
X107536000Y-94808250D01*
G75*
G02*
X107317250Y-95027000I-218750J0D01*
G01*
X106804750Y-95027000D01*
G75*
G02*
X106586000Y-94808250I0J218750D01*
G01*
X106586000Y-94370750D01*
G75*
G02*
X106804750Y-94152000I218750J0D01*
G01*
G37*
D33*
X114533500Y-83221000D03*
X114533500Y-87721000D03*
X106573500Y-87721000D03*
X106573500Y-83221000D03*
G36*
G01*
X160719999Y-119900000D02*
X165670001Y-119900000D01*
G75*
G02*
X165920000Y-120149999I0J-249999D01*
G01*
X165920000Y-121575001D01*
G75*
G02*
X165670001Y-121825000I-249999J0D01*
G01*
X160719999Y-121825000D01*
G75*
G02*
X160470000Y-121575001I0J249999D01*
G01*
X160470000Y-120149999D01*
G75*
G02*
X160719999Y-119900000I249999J0D01*
G01*
G37*
G36*
G01*
X160719999Y-113125000D02*
X165670001Y-113125000D01*
G75*
G02*
X165920000Y-113374999I0J-249999D01*
G01*
X165920000Y-114800001D01*
G75*
G02*
X165670001Y-115050000I-249999J0D01*
G01*
X160719999Y-115050000D01*
G75*
G02*
X160470000Y-114800001I0J249999D01*
G01*
X160470000Y-113374999D01*
G75*
G02*
X160719999Y-113125000I249999J0D01*
G01*
G37*
G36*
G01*
X107665000Y-127129250D02*
X107665000Y-126616750D01*
G75*
G02*
X107883750Y-126398000I218750J0D01*
G01*
X108321250Y-126398000D01*
G75*
G02*
X108540000Y-126616750I0J-218750D01*
G01*
X108540000Y-127129250D01*
G75*
G02*
X108321250Y-127348000I-218750J0D01*
G01*
X107883750Y-127348000D01*
G75*
G02*
X107665000Y-127129250I0J218750D01*
G01*
G37*
G36*
G01*
X106090000Y-127129250D02*
X106090000Y-126616750D01*
G75*
G02*
X106308750Y-126398000I218750J0D01*
G01*
X106746250Y-126398000D01*
G75*
G02*
X106965000Y-126616750I0J-218750D01*
G01*
X106965000Y-127129250D01*
G75*
G02*
X106746250Y-127348000I-218750J0D01*
G01*
X106308750Y-127348000D01*
G75*
G02*
X106090000Y-127129250I0J218750D01*
G01*
G37*
G36*
G01*
X106090000Y-119001250D02*
X106090000Y-118488750D01*
G75*
G02*
X106308750Y-118270000I218750J0D01*
G01*
X106746250Y-118270000D01*
G75*
G02*
X106965000Y-118488750I0J-218750D01*
G01*
X106965000Y-119001250D01*
G75*
G02*
X106746250Y-119220000I-218750J0D01*
G01*
X106308750Y-119220000D01*
G75*
G02*
X106090000Y-119001250I0J218750D01*
G01*
G37*
G36*
G01*
X107665000Y-119001250D02*
X107665000Y-118488750D01*
G75*
G02*
X107883750Y-118270000I218750J0D01*
G01*
X108321250Y-118270000D01*
G75*
G02*
X108540000Y-118488750I0J-218750D01*
G01*
X108540000Y-119001250D01*
G75*
G02*
X108321250Y-119220000I-218750J0D01*
G01*
X107883750Y-119220000D01*
G75*
G02*
X107665000Y-119001250I0J218750D01*
G01*
G37*
D25*
X106569000Y-121859000D03*
X106569000Y-123759000D03*
X108569000Y-122809000D03*
G36*
G01*
X108540000Y-116837750D02*
X108540000Y-117350250D01*
G75*
G02*
X108321250Y-117569000I-218750J0D01*
G01*
X107883750Y-117569000D01*
G75*
G02*
X107665000Y-117350250I0J218750D01*
G01*
X107665000Y-116837750D01*
G75*
G02*
X107883750Y-116619000I218750J0D01*
G01*
X108321250Y-116619000D01*
G75*
G02*
X108540000Y-116837750I0J-218750D01*
G01*
G37*
G36*
G01*
X106965000Y-116837750D02*
X106965000Y-117350250D01*
G75*
G02*
X106746250Y-117569000I-218750J0D01*
G01*
X106308750Y-117569000D01*
G75*
G02*
X106090000Y-117350250I0J218750D01*
G01*
X106090000Y-116837750D01*
G75*
G02*
X106308750Y-116619000I218750J0D01*
G01*
X106746250Y-116619000D01*
G75*
G02*
X106965000Y-116837750I0J-218750D01*
G01*
G37*
G36*
G01*
X107665000Y-125605250D02*
X107665000Y-125092750D01*
G75*
G02*
X107883750Y-124874000I218750J0D01*
G01*
X108321250Y-124874000D01*
G75*
G02*
X108540000Y-125092750I0J-218750D01*
G01*
X108540000Y-125605250D01*
G75*
G02*
X108321250Y-125824000I-218750J0D01*
G01*
X107883750Y-125824000D01*
G75*
G02*
X107665000Y-125605250I0J218750D01*
G01*
G37*
G36*
G01*
X106090000Y-125605250D02*
X106090000Y-125092750D01*
G75*
G02*
X106308750Y-124874000I218750J0D01*
G01*
X106746250Y-124874000D01*
G75*
G02*
X106965000Y-125092750I0J-218750D01*
G01*
X106965000Y-125605250D01*
G75*
G02*
X106746250Y-125824000I-218750J0D01*
G01*
X106308750Y-125824000D01*
G75*
G02*
X106090000Y-125605250I0J218750D01*
G01*
G37*
G36*
G01*
X106090000Y-120525250D02*
X106090000Y-120012750D01*
G75*
G02*
X106308750Y-119794000I218750J0D01*
G01*
X106746250Y-119794000D01*
G75*
G02*
X106965000Y-120012750I0J-218750D01*
G01*
X106965000Y-120525250D01*
G75*
G02*
X106746250Y-120744000I-218750J0D01*
G01*
X106308750Y-120744000D01*
G75*
G02*
X106090000Y-120525250I0J218750D01*
G01*
G37*
G36*
G01*
X107665000Y-120525250D02*
X107665000Y-120012750D01*
G75*
G02*
X107883750Y-119794000I218750J0D01*
G01*
X108321250Y-119794000D01*
G75*
G02*
X108540000Y-120012750I0J-218750D01*
G01*
X108540000Y-120525250D01*
G75*
G02*
X108321250Y-120744000I-218750J0D01*
G01*
X107883750Y-120744000D01*
G75*
G02*
X107665000Y-120525250I0J218750D01*
G01*
G37*
G36*
G01*
X157729000Y-77893000D02*
X157729000Y-76793000D01*
G75*
G02*
X157979000Y-76543000I250000J0D01*
G01*
X160979000Y-76543000D01*
G75*
G02*
X161229000Y-76793000I0J-250000D01*
G01*
X161229000Y-77893000D01*
G75*
G02*
X160979000Y-78143000I-250000J0D01*
G01*
X157979000Y-78143000D01*
G75*
G02*
X157729000Y-77893000I0J250000D01*
G01*
G37*
G36*
G01*
X163129000Y-77893000D02*
X163129000Y-76793000D01*
G75*
G02*
X163379000Y-76543000I250000J0D01*
G01*
X166379000Y-76543000D01*
G75*
G02*
X166629000Y-76793000I0J-250000D01*
G01*
X166629000Y-77893000D01*
G75*
G02*
X166379000Y-78143000I-250000J0D01*
G01*
X163379000Y-78143000D01*
G75*
G02*
X163129000Y-77893000I0J250000D01*
G01*
G37*
G36*
G01*
X118615750Y-65348500D02*
X119128250Y-65348500D01*
G75*
G02*
X119347000Y-65567250I0J-218750D01*
G01*
X119347000Y-66004750D01*
G75*
G02*
X119128250Y-66223500I-218750J0D01*
G01*
X118615750Y-66223500D01*
G75*
G02*
X118397000Y-66004750I0J218750D01*
G01*
X118397000Y-65567250D01*
G75*
G02*
X118615750Y-65348500I218750J0D01*
G01*
G37*
G36*
G01*
X118615750Y-66923500D02*
X119128250Y-66923500D01*
G75*
G02*
X119347000Y-67142250I0J-218750D01*
G01*
X119347000Y-67579750D01*
G75*
G02*
X119128250Y-67798500I-218750J0D01*
G01*
X118615750Y-67798500D01*
G75*
G02*
X118397000Y-67579750I0J218750D01*
G01*
X118397000Y-67142250D01*
G75*
G02*
X118615750Y-66923500I218750J0D01*
G01*
G37*
G36*
G01*
X160276250Y-99523000D02*
X159763750Y-99523000D01*
G75*
G02*
X159545000Y-99304250I0J218750D01*
G01*
X159545000Y-98866750D01*
G75*
G02*
X159763750Y-98648000I218750J0D01*
G01*
X160276250Y-98648000D01*
G75*
G02*
X160495000Y-98866750I0J-218750D01*
G01*
X160495000Y-99304250D01*
G75*
G02*
X160276250Y-99523000I-218750J0D01*
G01*
G37*
G36*
G01*
X160276250Y-97948000D02*
X159763750Y-97948000D01*
G75*
G02*
X159545000Y-97729250I0J218750D01*
G01*
X159545000Y-97291750D01*
G75*
G02*
X159763750Y-97073000I218750J0D01*
G01*
X160276250Y-97073000D01*
G75*
G02*
X160495000Y-97291750I0J-218750D01*
G01*
X160495000Y-97729250D01*
G75*
G02*
X160276250Y-97948000I-218750J0D01*
G01*
G37*
G36*
G01*
X161132000Y-72265250D02*
X161132000Y-71752750D01*
G75*
G02*
X161350750Y-71534000I218750J0D01*
G01*
X161788250Y-71534000D01*
G75*
G02*
X162007000Y-71752750I0J-218750D01*
G01*
X162007000Y-72265250D01*
G75*
G02*
X161788250Y-72484000I-218750J0D01*
G01*
X161350750Y-72484000D01*
G75*
G02*
X161132000Y-72265250I0J218750D01*
G01*
G37*
G36*
G01*
X159557000Y-72265250D02*
X159557000Y-71752750D01*
G75*
G02*
X159775750Y-71534000I218750J0D01*
G01*
X160213250Y-71534000D01*
G75*
G02*
X160432000Y-71752750I0J-218750D01*
G01*
X160432000Y-72265250D01*
G75*
G02*
X160213250Y-72484000I-218750J0D01*
G01*
X159775750Y-72484000D01*
G75*
G02*
X159557000Y-72265250I0J218750D01*
G01*
G37*
G36*
G01*
X98749500Y-129466500D02*
X98749500Y-128216500D01*
G75*
G02*
X98999500Y-127966500I250000J0D01*
G01*
X99749500Y-127966500D01*
G75*
G02*
X99999500Y-128216500I0J-250000D01*
G01*
X99999500Y-129466500D01*
G75*
G02*
X99749500Y-129716500I-250000J0D01*
G01*
X98999500Y-129716500D01*
G75*
G02*
X98749500Y-129466500I0J250000D01*
G01*
G37*
G36*
G01*
X101549500Y-129466500D02*
X101549500Y-128216500D01*
G75*
G02*
X101799500Y-127966500I250000J0D01*
G01*
X102549500Y-127966500D01*
G75*
G02*
X102799500Y-128216500I0J-250000D01*
G01*
X102799500Y-129466500D01*
G75*
G02*
X102549500Y-129716500I-250000J0D01*
G01*
X101799500Y-129716500D01*
G75*
G02*
X101549500Y-129466500I0J250000D01*
G01*
G37*
G36*
G01*
X122219000Y-68709250D02*
X122219000Y-68196750D01*
G75*
G02*
X122437750Y-67978000I218750J0D01*
G01*
X122875250Y-67978000D01*
G75*
G02*
X123094000Y-68196750I0J-218750D01*
G01*
X123094000Y-68709250D01*
G75*
G02*
X122875250Y-68928000I-218750J0D01*
G01*
X122437750Y-68928000D01*
G75*
G02*
X122219000Y-68709250I0J218750D01*
G01*
G37*
G36*
G01*
X123794000Y-68709250D02*
X123794000Y-68196750D01*
G75*
G02*
X124012750Y-67978000I218750J0D01*
G01*
X124450250Y-67978000D01*
G75*
G02*
X124669000Y-68196750I0J-218750D01*
G01*
X124669000Y-68709250D01*
G75*
G02*
X124450250Y-68928000I-218750J0D01*
G01*
X124012750Y-68928000D01*
G75*
G02*
X123794000Y-68709250I0J218750D01*
G01*
G37*
G36*
G01*
X120647750Y-65323000D02*
X121160250Y-65323000D01*
G75*
G02*
X121379000Y-65541750I0J-218750D01*
G01*
X121379000Y-65979250D01*
G75*
G02*
X121160250Y-66198000I-218750J0D01*
G01*
X120647750Y-66198000D01*
G75*
G02*
X120429000Y-65979250I0J218750D01*
G01*
X120429000Y-65541750D01*
G75*
G02*
X120647750Y-65323000I218750J0D01*
G01*
G37*
G36*
G01*
X120647750Y-66898000D02*
X121160250Y-66898000D01*
G75*
G02*
X121379000Y-67116750I0J-218750D01*
G01*
X121379000Y-67554250D01*
G75*
G02*
X121160250Y-67773000I-218750J0D01*
G01*
X120647750Y-67773000D01*
G75*
G02*
X120429000Y-67554250I0J218750D01*
G01*
X120429000Y-67116750D01*
G75*
G02*
X120647750Y-66898000I218750J0D01*
G01*
G37*
D34*
X125052000Y-65720000D03*
X125052000Y-64770000D03*
X125052000Y-63820000D03*
X122852000Y-63820000D03*
X122852000Y-65720000D03*
G36*
G01*
X90596000Y-110365250D02*
X90596000Y-109852750D01*
G75*
G02*
X90814750Y-109634000I218750J0D01*
G01*
X91252250Y-109634000D01*
G75*
G02*
X91471000Y-109852750I0J-218750D01*
G01*
X91471000Y-110365250D01*
G75*
G02*
X91252250Y-110584000I-218750J0D01*
G01*
X90814750Y-110584000D01*
G75*
G02*
X90596000Y-110365250I0J218750D01*
G01*
G37*
G36*
G01*
X92171000Y-110365250D02*
X92171000Y-109852750D01*
G75*
G02*
X92389750Y-109634000I218750J0D01*
G01*
X92827250Y-109634000D01*
G75*
G02*
X93046000Y-109852750I0J-218750D01*
G01*
X93046000Y-110365250D01*
G75*
G02*
X92827250Y-110584000I-218750J0D01*
G01*
X92389750Y-110584000D01*
G75*
G02*
X92171000Y-110365250I0J218750D01*
G01*
G37*
G36*
G01*
X96094000Y-109852750D02*
X96094000Y-110365250D01*
G75*
G02*
X95875250Y-110584000I-218750J0D01*
G01*
X95437750Y-110584000D01*
G75*
G02*
X95219000Y-110365250I0J218750D01*
G01*
X95219000Y-109852750D01*
G75*
G02*
X95437750Y-109634000I218750J0D01*
G01*
X95875250Y-109634000D01*
G75*
G02*
X96094000Y-109852750I0J-218750D01*
G01*
G37*
G36*
G01*
X94519000Y-109852750D02*
X94519000Y-110365250D01*
G75*
G02*
X94300250Y-110584000I-218750J0D01*
G01*
X93862750Y-110584000D01*
G75*
G02*
X93644000Y-110365250I0J218750D01*
G01*
X93644000Y-109852750D01*
G75*
G02*
X93862750Y-109634000I218750J0D01*
G01*
X94300250Y-109634000D01*
G75*
G02*
X94519000Y-109852750I0J-218750D01*
G01*
G37*
G36*
G01*
X105111000Y-105153750D02*
X105111000Y-105666250D01*
G75*
G02*
X104892250Y-105885000I-218750J0D01*
G01*
X104454750Y-105885000D01*
G75*
G02*
X104236000Y-105666250I0J218750D01*
G01*
X104236000Y-105153750D01*
G75*
G02*
X104454750Y-104935000I218750J0D01*
G01*
X104892250Y-104935000D01*
G75*
G02*
X105111000Y-105153750I0J-218750D01*
G01*
G37*
G36*
G01*
X103536000Y-105153750D02*
X103536000Y-105666250D01*
G75*
G02*
X103317250Y-105885000I-218750J0D01*
G01*
X102879750Y-105885000D01*
G75*
G02*
X102661000Y-105666250I0J218750D01*
G01*
X102661000Y-105153750D01*
G75*
G02*
X102879750Y-104935000I218750J0D01*
G01*
X103317250Y-104935000D01*
G75*
G02*
X103536000Y-105153750I0J-218750D01*
G01*
G37*
G36*
G01*
X103536000Y-106804750D02*
X103536000Y-107317250D01*
G75*
G02*
X103317250Y-107536000I-218750J0D01*
G01*
X102879750Y-107536000D01*
G75*
G02*
X102661000Y-107317250I0J218750D01*
G01*
X102661000Y-106804750D01*
G75*
G02*
X102879750Y-106586000I218750J0D01*
G01*
X103317250Y-106586000D01*
G75*
G02*
X103536000Y-106804750I0J-218750D01*
G01*
G37*
G36*
G01*
X105111000Y-106804750D02*
X105111000Y-107317250D01*
G75*
G02*
X104892250Y-107536000I-218750J0D01*
G01*
X104454750Y-107536000D01*
G75*
G02*
X104236000Y-107317250I0J218750D01*
G01*
X104236000Y-106804750D01*
G75*
G02*
X104454750Y-106586000I218750J0D01*
G01*
X104892250Y-106586000D01*
G75*
G02*
X105111000Y-106804750I0J-218750D01*
G01*
G37*
G36*
G01*
X121155750Y-86532000D02*
X121668250Y-86532000D01*
G75*
G02*
X121887000Y-86750750I0J-218750D01*
G01*
X121887000Y-87188250D01*
G75*
G02*
X121668250Y-87407000I-218750J0D01*
G01*
X121155750Y-87407000D01*
G75*
G02*
X120937000Y-87188250I0J218750D01*
G01*
X120937000Y-86750750D01*
G75*
G02*
X121155750Y-86532000I218750J0D01*
G01*
G37*
G36*
G01*
X121155750Y-88107000D02*
X121668250Y-88107000D01*
G75*
G02*
X121887000Y-88325750I0J-218750D01*
G01*
X121887000Y-88763250D01*
G75*
G02*
X121668250Y-88982000I-218750J0D01*
G01*
X121155750Y-88982000D01*
G75*
G02*
X120937000Y-88763250I0J218750D01*
G01*
X120937000Y-88325750D01*
G75*
G02*
X121155750Y-88107000I218750J0D01*
G01*
G37*
G36*
G01*
X117973000Y-120135000D02*
X116723000Y-120135000D01*
G75*
G02*
X116473000Y-119885000I0J250000D01*
G01*
X116473000Y-119135000D01*
G75*
G02*
X116723000Y-118885000I250000J0D01*
G01*
X117973000Y-118885000D01*
G75*
G02*
X118223000Y-119135000I0J-250000D01*
G01*
X118223000Y-119885000D01*
G75*
G02*
X117973000Y-120135000I-250000J0D01*
G01*
G37*
G36*
G01*
X117973000Y-117335000D02*
X116723000Y-117335000D01*
G75*
G02*
X116473000Y-117085000I0J250000D01*
G01*
X116473000Y-116335000D01*
G75*
G02*
X116723000Y-116085000I250000J0D01*
G01*
X117973000Y-116085000D01*
G75*
G02*
X118223000Y-116335000I0J-250000D01*
G01*
X118223000Y-117085000D01*
G75*
G02*
X117973000Y-117335000I-250000J0D01*
G01*
G37*
D26*
X121539000Y-55339000D03*
X121539000Y-60739000D03*
G36*
G01*
X112016250Y-79152000D02*
X111503750Y-79152000D01*
G75*
G02*
X111285000Y-78933250I0J218750D01*
G01*
X111285000Y-78495750D01*
G75*
G02*
X111503750Y-78277000I218750J0D01*
G01*
X112016250Y-78277000D01*
G75*
G02*
X112235000Y-78495750I0J-218750D01*
G01*
X112235000Y-78933250D01*
G75*
G02*
X112016250Y-79152000I-218750J0D01*
G01*
G37*
G36*
G01*
X112016250Y-80727000D02*
X111503750Y-80727000D01*
G75*
G02*
X111285000Y-80508250I0J218750D01*
G01*
X111285000Y-80070750D01*
G75*
G02*
X111503750Y-79852000I218750J0D01*
G01*
X112016250Y-79852000D01*
G75*
G02*
X112235000Y-80070750I0J-218750D01*
G01*
X112235000Y-80508250D01*
G75*
G02*
X112016250Y-80727000I-218750J0D01*
G01*
G37*
X112585500Y-118173500D03*
X112585500Y-112773500D03*
M02*
