M48
; DRILL file {KiCad (5.1.8)-1} date 04/07/21 18:57:40
; FORMAT={-:-/ absolute / metric / decimal}
; #@! TF.CreationDate,2021-04-07T18:57:40+08:00
; #@! TF.GenerationSoftware,Kicad,Pcbnew,(5.1.8)-1
; #@! TF.FileFunction,Plated,1,4,PTH
FMAT,2
METRIC
T1C0.300
T2C0.400
T3C0.500
T4C1.000
T5C1.100
T6C1.200
T7C1.300
T8C3.200
%
G90
G05
T1
X105.41Y-55.118
T2
X83.566Y-110.49
X84.573Y-106.934
X84.582Y-131.445
X84.582Y-132.334
X84.582Y-133.223
X84.594Y-108.954
X85.471Y-131.445
X85.471Y-132.334
X85.471Y-133.223
X85.573Y-106.934
X86.36Y-131.445
X86.36Y-132.334
X86.36Y-133.223
X86.573Y-106.934
X86.614Y-97.79
X87.376Y-87.503
X87.376Y-88.392
X87.532Y-107.904
X87.757Y-95.885
X88.265Y-87.503
X88.265Y-88.392
X89.905Y-83.938
X89.916Y-101.473
X90.424Y-107.061
X91.186Y-92.202
X91.186Y-101.473
X91.821Y-108.458
X92.71Y-85.604
X93.091Y-95.758
X93.599Y-92.9
X93.704Y-86.369
X93.861Y-98.593
X95.631Y-108.458
X96.266Y-98.298
X97.282Y-108.331
X97.536Y-98.298
X97.97Y-115.043
X98.171Y-118.872
X98.298Y-122.301
X98.482Y-107.903
X98.806Y-98.298
X98.998Y-96.061
X99.314Y-108.458
X99.736Y-128.651
X99.849Y-95.536
X100.076Y-98.298
X100.092Y-120.309
X100.209Y-82.423
X100.33Y-58.293
X100.457Y-123.571
X100.584Y-122.428
X100.647Y-112.84
X100.816Y-61.976
X101.346Y-92.329
X101.346Y-98.298
X101.473Y-88.95
X101.6Y-55.118
X101.6Y-61.341
X101.727Y-128.651
X102.276Y-88.076
X102.616Y-92.329
X102.616Y-98.298
X102.809Y-75.097
X102.87Y-61.341
X102.997Y-108.458
X103.632Y-78.422
X103.632Y-128.651
X103.886Y-85.471
X103.886Y-92.329
X103.886Y-98.298
X104.013Y-112.609
X104.14Y-61.341
X104.414Y-81.577
X104.521Y-108.331
X104.648Y-122.809
X105.029Y-87.884
X105.156Y-92.329
X105.156Y-98.298
X105.283Y-113.284
X105.382Y-82.14
X105.41Y-74.971
X105.41Y-120.269
X105.41Y-125.308
X106.426Y-64.643
X106.426Y-65.532
X106.426Y-128.651
X106.68Y-108.458
X106.766Y-90.106
X107.315Y-64.643
X107.315Y-65.532
X107.966Y-57.348
X108.521Y-131.191
X109.22Y-58.293
X109.283Y-130.388
X109.347Y-79.883
X110.191Y-82.042
X110.191Y-102.62
X110.363Y-108.458
X110.426Y-79.756
X110.433Y-80.772
X110.49Y-58.293
X110.493Y-126.679
X110.757Y-61.658
X111.19Y-102.564
X111.404Y-98.171
X111.442Y-112.84
X111.605Y-73.206
X111.76Y-58.293
X111.76Y-77.851
X111.833Y-97.268
X112.712Y-126.454
X112.954Y-73.419
X113.03Y-58.293
X113.284Y-57.023
X113.411Y-128.651
X113.538Y-138.493
X113.665Y-132.194
X113.983Y-71.145
X114.046Y-94.107
X114.046Y-108.458
X114.15Y-80.939
X114.173Y-98.044
X114.3Y-126.492
X114.363Y-138.493
X114.796Y-133.197
X114.861Y-62.537
X115.316Y-112.84
X115.443Y-98.044
X115.446Y-94.107
X115.556Y-81.158
X116.332Y-126.454
X116.713Y-98.044
X117.729Y-108.458
X117.755Y-126.751
X117.856Y-72.644
X117.983Y-98.044
X118.364Y-63.754
X118.999Y-93.345
X118.999Y-94.234
X119.253Y-98.044
X119.337Y-77.554
X119.57Y-81.915
X119.761Y-135.382
X119.761Y-136.271
X119.761Y-137.16
X119.888Y-93.345
X119.888Y-94.234
X119.951Y-126.454
X120.523Y-88.519
X120.523Y-98.044
X120.65Y-128.714
X120.65Y-135.382
X120.65Y-136.271
X120.65Y-137.16
X120.904Y-68.58
X121.412Y-108.458
X121.475Y-126.454
X121.539Y-135.382
X121.539Y-136.271
X121.539Y-137.16
X121.793Y-92.456
X121.793Y-98.044
X122.682Y-112.84
X122.809Y-55.372
X122.936Y-48.387
X122.936Y-49.276
X122.936Y-50.165
X123.063Y-62.611
X123.063Y-92.456
X123.063Y-98.044
X123.19Y-78.232
X123.19Y-79.121
X123.19Y-80.01
X123.571Y-126.454
X123.825Y-48.387
X123.825Y-49.276
X123.825Y-50.165
X123.933Y-97.047
X124.079Y-78.232
X124.079Y-79.121
X124.079Y-80.01
X124.333Y-92.456
X124.333Y-98.044
X124.714Y-48.387
X124.714Y-49.276
X124.714Y-50.165
X124.968Y-78.232
X124.968Y-79.121
X124.968Y-80.01
X125.222Y-108.458
X125.73Y-59.563
X126.365Y-112.84
X126.873Y-126.746
X128.778Y-108.458
X129.222Y-112.84
X130.81Y-120.396
X133.667Y-95.694
X133.667Y-96.584
X134.556Y-95.694
X134.556Y-96.584
X135.255Y-113.538
X136.159Y-131.302
X136.779Y-113.538
X138.246Y-113.522
X139.827Y-113.522
X141.351Y-113.522
X144.082Y-86.741
X144.082Y-87.566
X144.907Y-86.741
X144.907Y-87.566
X146.558Y-125.984
X147.256Y-70.993
X148.336Y-113.665
X149.098Y-102.108
X149.86Y-113.665
X151.384Y-113.665
X151.892Y-61.722
X151.892Y-62.992
X151.892Y-64.262
X152.527Y-62.357
X152.527Y-63.627
X152.908Y-113.665
X153.162Y-61.722
X153.162Y-62.992
X153.162Y-64.262
X153.797Y-62.357
X153.797Y-63.627
X154.432Y-61.722
X154.432Y-62.992
X154.432Y-64.262
X154.432Y-113.665
X154.94Y-99.441
X155.067Y-69.469
X155.067Y-70.294
X155.067Y-104.521
X155.067Y-105.41
X155.448Y-71.374
X155.448Y-72.644
X155.448Y-73.914
X155.603Y-113.665
X155.892Y-69.469
X155.892Y-70.294
X155.956Y-104.521
X155.956Y-105.41
X156.083Y-72.009
X156.083Y-73.279
X156.718Y-69.469
X156.718Y-70.294
X156.718Y-71.374
X156.718Y-72.644
X156.718Y-73.914
X156.718Y-73.914
X157.353Y-72.009
X157.353Y-73.279
X157.543Y-69.469
X157.543Y-70.294
X157.988Y-71.374
X157.988Y-72.644
X157.988Y-73.914
X158.305Y-116.332
X158.305Y-117.157
X159.131Y-116.332
X159.131Y-117.157
X159.385Y-125.476
X162.052Y-94.742
X162.941Y-94.742
X163.195Y-134.429
X163.576Y-48.133
X163.576Y-49.022
X163.576Y-49.911
X164.338Y-94.742
X164.465Y-48.133
X164.465Y-49.022
X164.465Y-49.911
X165.227Y-94.742
X165.354Y-48.133
X165.354Y-49.022
X165.354Y-49.911
X165.481Y-110.998
T3
X148.603Y-49.403
X149.306Y-47.706
X149.306Y-51.1
X151.003Y-47.003
X151.003Y-51.803
X152.7Y-47.706
X152.7Y-51.1
X153.403Y-49.403
X92.85Y-126.238
X93.553Y-124.541
X93.553Y-127.935
X95.25Y-123.838
X95.25Y-128.638
X96.947Y-124.541
X96.947Y-127.935
X97.65Y-126.238
X83.985Y-49.759
X84.688Y-48.062
X84.688Y-51.456
X86.385Y-47.359
X86.385Y-52.159
X88.082Y-48.062
X88.082Y-51.456
X88.785Y-49.759
T4
X156.544Y-53.467
X161.544Y-53.467
X112.094Y-50.8
X117.094Y-50.8
T5
X162.71Y-102.616
X162.71Y-105.156
X162.71Y-107.696
T6
X146.05Y-116.332
X146.05Y-123.832
X129.894Y-133.0
X129.894Y-136.0
X132.394Y-133.0
X132.394Y-136.0
X134.894Y-133.0
X134.894Y-136.0
X137.394Y-133.0
X137.394Y-136.0
X139.894Y-133.0
X139.894Y-136.0
X142.394Y-133.0
X142.394Y-136.0
X144.894Y-133.0
X144.894Y-136.0
X147.394Y-133.0
X147.394Y-136.0
X149.894Y-133.0
X149.894Y-136.0
X152.394Y-133.0
X152.394Y-136.0
X154.894Y-133.0
X154.894Y-136.0
X157.394Y-133.0
X157.394Y-136.0
X159.894Y-133.0
X159.894Y-136.0
X91.194Y-133.0
X91.194Y-136.0
X93.694Y-133.0
X93.694Y-136.0
X96.194Y-133.0
X96.194Y-136.0
X98.694Y-133.0
X98.694Y-136.0
X101.194Y-133.0
X101.194Y-136.0
X103.694Y-133.0
X103.694Y-136.0
X106.194Y-133.0
X106.194Y-136.0
X108.694Y-133.0
X108.694Y-136.0
X111.194Y-133.0
X111.194Y-136.0
T7
X131.151Y-69.692
X131.151Y-81.692
X143.351Y-69.692
X143.351Y-81.692
X145.351Y-75.692
X127.604Y-89.249
X127.604Y-101.449
X133.604Y-87.249
X139.604Y-89.249
X139.604Y-101.449
T8
X151.003Y-49.403
X95.25Y-126.238
X86.385Y-49.759
T0
M30
